  0
SECTION
  2
HEADER
  9
$ACADVER
  1
AC1009
  9
$INSBASE
 10
0.0
 20
0.0
 30
0.0
  9
$EXTMIN
 10
-10761.66439
 20
6867.418437
 30
-0.001526
  9
$EXTMAX
 10
23859.923039
 20
42040.596875
 30
0.0
  9
$LIMMIN
 10
0.0
 20
0.0
  9
$LIMMAX
 10
12.0
 20
9.0
  9
$ORTHOMODE
 70
     0
  9
$REGENMODE
 70
     1
  9
$FILLMODE
 70
     1
  9
$QTEXTMODE
 70
     0
  9
$MIRRTEXT
 70
     1
  9
$DRAGMODE
 70
     2
  9
$LTSCALE
 40
1.0
  9
$OSMODE
 70
     0
  9
$ATTMODE
 70
     1
  9
$TEXTSIZE
 40
200.0
  9
$TRACEWID
 40
0.05
  9
$TEXTSTYLE
  7
STANDARD
  9
$CLAYER
  8
0
  9
$CELTYPE
  6
BYLAYER
  9
$CECOLOR
 62
   256
  9
$DIMSCALE
 40
1.0
  9
$DIMASZ
 40
0.18
  9
$DIMEXO
 40
0.0625
  9
$DIMDLI
 40
0.38
  9
$DIMRND
 40
0.0
  9
$DIMDLE
 40
0.0
  9
$DIMEXE
 40
0.18
  9
$DIMTP
 40
0.0
  9
$DIMTM
 40
0.0
  9
$DIMTXT
 40
0.18
  9
$DIMCEN
 40
0.09
  9
$DIMTSZ
 40
0.0
  9
$DIMTOL
 70
     0
  9
$DIMLIM
 70
     0
  9
$DIMTIH
 70
     1
  9
$DIMTOH
 70
     1
  9
$DIMSE1
 70
     0
  9
$DIMSE2
 70
     0
  9
$DIMTAD
 70
     0
  9
$DIMZIN
 70
     0
  9
$DIMBLK
  1

  9
$DIMASO
 70
     1
  9
$DIMSHO
 70
     1
  9
$DIMPOST
  1

  9
$DIMAPOST
  1

  9
$DIMALT
 70
     0
  9
$DIMALTD
 70
     2
  9
$DIMALTF
 40
25.4
  9
$DIMLFAC
 40
1.0
  9
$DIMTOFL
 70
     0
  9
$DIMTVP
 40
0.0
  9
$DIMTIX
 70
     0
  9
$DIMSOXD
 70
     0
  9
$DIMSAH
 70
     0
  9
$DIMBLK1
  1

  9
$DIMBLK2
  1

  9
$DIMSTYLE
  2
STANDARD
  9
$DIMCLRD
 70
     0
  9
$DIMCLRE
 70
     0
  9
$DIMCLRT
 70
     0
  9
$DIMTFAC
 40
1.0
  9
$DIMGAP
 40
0.09
  9
$LUNITS
 70
     2
  9
$LUPREC
 70
     4
  9
$SKETCHINC
 40
0.1
  9
$FILLETRAD
 40
0.0
  9
$AUNITS
 70
     0
  9
$AUPREC
 70
     0
  9
$MENU
  1
acad
  9
$ELEVATION
 40
0.0
  9
$PELEVATION
 40
0.0
  9
$THICKNESS
 40
0.0
  9
$LIMCHECK
 70
     0
  9
$BLIPMODE
 70
     0
  9
$CHAMFERA
 40
0.0
  9
$CHAMFERB
 40
0.0
  9
$SKPOLY
 70
     0
  9
$TDCREATE
 40
2450326.963132
  9
$TDUPDATE
 40
2450326.963132
  9
$TDINDWG
 40
0.0
  9
$TDUSRTIMER
 40
0.0
  9
$USRTIMER
 70
     1
  9
$ANGBASE
 50
0.0
  9
$ANGDIR
 70
     0
  9
$PDMODE
 70
     0
  9
$PDSIZE
 40
0.0
  9
$PLINEWID
 40
0.0
  9
$COORDS
 70
     1
  9
$SPLFRAME
 70
     0
  9
$SPLINETYPE
 70
     6
  9
$SPLINESEGS
 70
     8
  9
$ATTDIA
 70
     0
  9
$ATTREQ
 70
     1
  9
$HANDLING
 70
     1
  9
$HANDSEED
  5
C66
  9
$SURFTAB1
 70
     6
  9
$SURFTAB2
 70
     6
  9
$SURFTYPE
 70
     6
  9
$SURFU
 70
     6
  9
$SURFV
 70
     6
  9
$UCSNAME
  2

  9
$UCSORG
 10
0.0
 20
0.0
 30
0.0
  9
$UCSXDIR
 10
1.0
 20
0.0
 30
0.0
  9
$UCSYDIR
 10
0.0
 20
1.0
 30
0.0
  9
$PUCSNAME
  2

  9
$PUCSORG
 10
0.0
 20
0.0
 30
0.0
  9
$PUCSXDIR
 10
1.0
 20
0.0
 30
0.0
  9
$PUCSYDIR
 10
0.0
 20
1.0
 30
0.0
  9
$USERI1
 70
     0
  9
$USERI2
 70
     0
  9
$USERI3
 70
     0
  9
$USERI4
 70
     0
  9
$USERI5
 70
     0
  9
$USERR1
 40
0.0
  9
$USERR2
 40
0.0
  9
$USERR3
 40
0.0
  9
$USERR4
 40
0.0
  9
$USERR5
 40
0.0
  9
$WORLDVIEW
 70
     1
  9
$SHADEDGE
 70
     3
  9
$SHADEDIF
 70
    70
  9
$TILEMODE
 70
     1
  9
$MAXACTVP
 70
    16
  9
$PLIMCHECK
 70
     0
  9
$PEXTMIN
 10
1.000000E+020
 20
1.000000E+020
 30
1.000000E+020
  9
$PEXTMAX
 10
-1.000000E+020
 20
-1.000000E+020
 30
-1.000000E+020
  9
$PLIMMIN
 10
0.0
 20
0.0
  9
$PLIMMAX
 10
12.0
 20
9.0
  9
$UNITMODE
 70
     0
  9
$VISRETAIN
 70
     0
  9
$PLINEGEN
 70
     0
  9
$PSLTSCALE
 70
     1
  0
ENDSEC
  0
SECTION
  2
TABLES
  0
TABLE
  2
VPORT
 70
     2
  0
VPORT
  2
*ACTIVE
 70
     0
 10
0.0
 20
0.0
 11
1.0
 21
1.0
 12
6549.129324
 22
24454.007656
 13
0.0
 23
0.0
 14
1.0
 24
1.0
 15
0.0
 25
0.0
 16
0.0
 26
0.0
 36
1.0
 17
0.0
 27
0.0
 37
0.0
 40
35541.483971
 41
1.617133
 42
50.0
 43
0.0
 44
0.0
 50
0.0
 51
0.0
 71
     0
 72
   100
 73
     1
 74
     1
 75
     0
 76
     0
 77
     0
 78
     0
  0
ENDTAB
  0
TABLE
  2
LTYPE
 70
     1
  0
LTYPE
  2
CONTINUOUS
 70
     0
  3
Solid line
 72
    65
 73
     0
 40
0.0
  0
ENDTAB
  0
TABLE
  2
LAYER
 70
     1
  0
LAYER
  2
0
 70
     0
 62
     7
  6
CONTINUOUS
  0
ENDTAB
  0
TABLE
  2
STYLE
 70
     1
  0
STYLE
  2
STANDARD
 70
     0
 40
0.0
 41
1.0
 50
0.0
 71
     0
 42
200.0
  3
txt
  4

  0
ENDTAB
  0
TABLE
  2
VIEW
 70
     0
  0
ENDTAB
  0
TABLE
  2
UCS
 70
     0
  0
ENDTAB
  0
TABLE
  2
APPID
 70
     1
  0
APPID
  2
ACAD
 70
     0
  0
ENDTAB
  0
TABLE
  2
DIMSTYLE
 70
     1
  0
DIMSTYLE
  2
STANDARD
 70
     0
  3

  4

  5

  6

  7

 40
1.0
 41
0.18
 42
0.0625
 43
0.38
 44
0.18
 45
0.0
 46
0.0
 47
0.0
 48
0.0
140
0.18
141
0.09
142
0.0
143
25.4
144
1.0
145
0.0
146
1.0
147
0.09
 71
     0
 72
     0
 73
     1
 74
     1
 75
     0
 76
     0
 77
     0
 78
     0
170
     0
171
     2
172
     0
173
     0
174
     0
175
     0
176
     0
177
     0
178
     0
  0
ENDTAB
  0
ENDSEC
  0
SECTION
  2
BLOCKS
  0
BLOCK
  8
0
  2
$MODEL_SPACE
 70
     0
 10
0.0
 20
0.0
 30
0.0
  3
$MODEL_SPACE
  1

  0
ENDBLK
  5
1A
  8
0
  0
BLOCK
 67
     1
  8
0
  2
$PAPER_SPACE
 70
     0
 10
0.0
 20
0.0
 30
0.0
  3
$PAPER_SPACE
  1

  0
ENDBLK
  5
17
 67
     1
  8
0
  0
ENDSEC
  0
SECTION
  2
ENTITIES
  0
POLYLINE
  8
0
  5
634
  66
     1
 10
0.000000
 20
0.000000
 30
0.000000
  70
     8
  0
VERTEX
  8
0
  5
635
 10
23713.4
 20
28074.0
 30
0.000000
  70
    32
  0
VERTEX
  8
0
  5
636
 10
23631.9
 20
27955.6
 30
0.000000
  70
    32
  0
VERTEX
  8
0
  5
637
 10
23542.6
 20
27841.5
 30
0.000000
  70
    32
  0
VERTEX
  8
0
  5
638
 10
23446.1
 20
27732.1
 30
0.000000
  70
    32
  0
VERTEX
  8
0
  5
639
 10
23342.9
 20
27627.7
 30
0.000000
  70
    32
  0
VERTEX
  8
0
  5
63A
 10
23233.7
 20
27528.7
 30
0.000000
  70
    32
  0
VERTEX
  8
0
  5
63B
 10
23118.8
 20
27435.5
 30
0.000000
  70
    32
  0
VERTEX
  8
0
  5
63C
 10
22998.9
 20
27348.4
 30
0.000000
  70
    32
  0
VERTEX
  8
0
  5
63D
 10
22874.6
 20
27267.7
 30
0.000000
  70
    32
  0
VERTEX
  8
0
  5
63E
 10
22746.3
 20
27193.9
 30
0.000000
  70
    32
  0
VERTEX
  8
0
  5
63F
 10
22614.6
 20
27127.3
 30
0.000000
  70
    32
  0
VERTEX
  8
0
  5
640
 10
22480.1
 20
27068.3
 30
0.000000
  70
    32
  0
VERTEX
  8
0
  5
641
 10
22343.2
 20
27017.1
 30
0.000000
  70
    32
  0
VERTEX
  8
0
  5
642
 10
22204.7
 20
26974.3
 30
0.000000
  70
    32
  0
VERTEX
  8
0
  5
643
 10
22064.9
 20
26940.0
 30
0.000000
  70
    32
  0
VERTEX
  8
0
  5
644
 10
21924.2
 20
26914.4
 30
0.000000
  70
    32
  0
VERTEX
  8
0
  5
645
 10
21782.8
 20
26896.5
 30
0.000000
  70
    32
  0
VERTEX
  8
0
  5
646
 10
21640.7
 20
26885.8
 30
0.000000
  70
    32
  0
VERTEX
  8
0
  5
647
 10
21498.0
 20
26881.5
 30
0.000000
  70
    32
  0
VERTEX
  8
0
  5
648
 10
21354.8
 20
26882.8
 30
0.000000
  70
    32
  0
VERTEX
  8
0
  5
649
 10
21211.2
 20
26889.1
 30
0.000000
  70
    32
  0
VERTEX
  8
0
  5
64A
 10
21067.2
 20
26899.5
 30
0.000000
  70
    32
  0
VERTEX
  8
0
  5
64B
 10
20923.0
 20
26913.5
 30
0.000000
  70
    32
  0
VERTEX
  8
0
  5
64C
 10
20778.6
 20
26930.2
 30
0.000000
  70
    32
  0
VERTEX
  8
0
  5
64D
 10
20634.2
 20
26948.9
 30
0.000000
  70
    32
  0
VERTEX
  8
0
  5
64E
 10
20489.7
 20
26968.9
 30
0.000000
  70
    32
  0
VERTEX
  8
0
  5
64F
 10
20345.3
 20
26989.4
 30
0.000000
  70
    32
  0
VERTEX
  8
0
  5
650
 10
20201.0
 20
27009.8
 30
0.000000
  70
    32
  0
VERTEX
  8
0
  5
651
 10
20057.0
 20
27029.3
 30
0.000000
  70
    32
  0
VERTEX
  8
0
  5
652
 10
19913.4
 20
27047.1
 30
0.000000
  70
    32
  0
VERTEX
  8
0
  5
653
 10
19770.2
 20
27062.6
 30
0.000000
  70
    32
  0
VERTEX
  8
0
  5
654
 10
19627.4
 20
27075.0
 30
0.000000
  70
    32
  0
VERTEX
  8
0
  5
655
 10
19485.3
 20
27083.6
 30
0.000000
  70
    32
  0
VERTEX
  8
0
  5
656
 10
19343.8
 20
27087.7
 30
0.000000
  70
    32
  0
VERTEX
  8
0
  5
657
 10
19203.0
 20
27086.4
 30
0.000000
  70
    32
  0
VERTEX
  8
0
  5
658
 10
19063.1
 20
27079.4
 30
0.000000
  70
    32
  0
VERTEX
  8
0
  5
659
 10
18924.0
 20
27066.8
 30
0.000000
  70
    32
  0
VERTEX
  8
0
  5
65A
 10
18785.7
 20
27048.7
 30
0.000000
  70
    32
  0
VERTEX
  8
0
  5
65B
 10
18648.1
 20
27025.3
 30
0.000000
  70
    32
  0
VERTEX
  8
0
  5
65C
 10
18511.4
 20
26996.9
 30
0.000000
  70
    32
  0
VERTEX
  8
0
  5
65D
 10
18375.4
 20
26963.6
 30
0.000000
  70
    32
  0
VERTEX
  8
0
  5
65E
 10
18240.1
 20
26925.7
 30
0.000000
  70
    32
  0
VERTEX
  8
0
  5
65F
 10
18105.6
 20
26883.3
 30
0.000000
  70
    32
  0
VERTEX
  8
0
  5
660
 10
17971.8
 20
26836.7
 30
0.000000
  70
    32
  0
VERTEX
  8
0
  5
661
 10
17838.8
 20
26786.1
 30
0.000000
  70
    32
  0
VERTEX
  8
0
  5
662
 10
17706.4
 20
26731.6
 30
0.000000
  70
    32
  0
VERTEX
  8
0
  5
663
 10
17574.8
 20
26673.5
 30
0.000000
  70
    32
  0
VERTEX
  8
0
  5
664
 10
17443.8
 20
26611.9
 30
0.000000
  70
    32
  0
VERTEX
  8
0
  5
665
 10
17313.5
 20
26547.1
 30
0.000000
  70
    32
  0
VERTEX
  8
0
  5
666
 10
17183.8
 20
26479.3
 30
0.000000
  70
    32
  0
VERTEX
  8
0
  5
667
 10
17054.8
 20
26408.6
 30
0.000000
  70
    32
  0
VERTEX
  8
0
  5
668
 10
16926.4
 20
26335.4
 30
0.000000
  70
    32
  0
VERTEX
  8
0
  5
669
 10
16798.7
 20
26259.7
 30
0.000000
  70
    32
  0
VERTEX
  8
0
  5
66A
 10
16671.6
 20
26181.8
 30
0.000000
  70
    32
  0
VERTEX
  8
0
  5
66B
 10
16545.0
 20
26101.8
 30
0.000000
  70
    32
  0
VERTEX
  8
0
  5
66C
 10
16419.1
 20
26020.1
 30
0.000000
  70
    32
  0
VERTEX
  8
0
  5
66D
 10
16293.7
 20
25936.8
 30
0.000000
  70
    32
  0
VERTEX
  8
0
  5
66E
 10
16168.9
 20
25852.0
 30
0.000000
  70
    32
  0
VERTEX
  8
0
  5
66F
 10
16044.7
 20
25766.0
 30
0.000000
  70
    32
  0
VERTEX
  8
0
  5
670
 10
15921.0
 20
25679.1
 30
0.000000
  70
    32
  0
VERTEX
  8
0
  5
671
 10
15797.8
 20
25591.3
 30
0.000000
  70
    32
  0
VERTEX
  8
0
  5
672
 10
15675.1
 20
25502.9
 30
0.000000
  70
    32
  0
VERTEX
  8
0
  5
673
 10
15553.0
 20
25414.2
 30
0.000000
  70
    32
  0
VERTEX
  8
0
  5
674
 10
15431.3
 20
25325.1
 30
0.000000
  70
    32
  0
VERTEX
  8
0
  5
675
 10
15310.1
 20
25235.7
 30
0.000000
  70
    32
  0
VERTEX
  8
0
  5
676
 10
15189.4
 20
25146.2
 30
0.000000
  70
    32
  0
VERTEX
  8
0
  5
677
 10
15069.0
 20
25056.4
 30
0.000000
  70
    32
  0
VERTEX
  8
0
  5
678
 10
14949.1
 20
24966.4
 30
0.000000
  70
    32
  0
VERTEX
  8
0
  5
679
 10
14829.6
 20
24876.4
 30
0.000000
  70
    32
  0
VERTEX
  8
0
  5
67A
 10
14710.4
 20
24786.2
 30
0.000000
  70
    32
  0
VERTEX
  8
0
  5
67B
 10
14591.6
 20
24696.0
 30
0.000000
  70
    32
  0
VERTEX
  8
0
  5
67C
 10
14473.1
 20
24605.7
 30
0.000000
  70
    32
  0
VERTEX
  8
0
  5
67D
 10
14354.9
 20
24515.4
 30
0.000000
  70
    32
  0
VERTEX
  8
0
  5
67E
 10
14237.0
 20
24425.2
 30
0.000000
  70
    32
  0
VERTEX
  8
0
  5
67F
 10
14119.4
 20
24335.1
 30
0.000000
  70
    32
  0
VERTEX
  8
0
  5
680
 10
14002.0
 20
24245.0
 30
0.000000
  70
    32
  0
VERTEX
  8
0
  5
681
 10
13884.8
 20
24155.1
 30
0.000000
  70
    32
  0
VERTEX
  8
0
  5
682
 10
13767.9
 20
24065.4
 30
0.000000
  70
    32
  0
VERTEX
  8
0
  5
683
 10
13651.1
 20
23975.9
 30
0.000000
  70
    32
  0
VERTEX
  8
0
  5
684
 10
13534.4
 20
23886.6
 30
0.000000
  70
    32
  0
VERTEX
  8
0
  5
685
 10
13417.9
 20
23797.6
 30
0.000000
  70
    32
  0
VERTEX
  8
0
  5
686
 10
13301.6
 20
23708.9
 30
0.000000
  70
    32
  0
VERTEX
  8
0
  5
687
 10
13185.3
 20
23620.6
 30
0.000000
  70
    32
  0
VERTEX
  8
0
  5
688
 10
13069.1
 20
23532.6
 30
0.000000
  70
    32
  0
VERTEX
  8
0
  5
689
 10
12952.9
 20
23445.1
 30
0.000000
  70
    32
  0
VERTEX
  8
0
  5
68A
 10
12836.8
 20
23358.0
 30
0.000000
  70
    32
  0
VERTEX
  8
0
  5
68B
 10
12720.7
 20
23271.4
 30
0.000000
  70
    32
  0
VERTEX
  8
0
  5
68C
 10
12604.6
 20
23185.3
 30
0.000000
  70
    32
  0
VERTEX
  8
0
  5
68D
 10
12488.5
 20
23099.8
 30
0.000000
  70
    32
  0
VERTEX
  8
0
  5
68E
 10
12372.3
 20
23014.8
 30
0.000000
  70
    32
  0
VERTEX
  8
0
  5
68F
 10
12256.1
 20
22930.5
 30
0.000000
  70
    32
  0
VERTEX
  8
0
  5
690
 10
12139.8
 20
22846.8
 30
0.000000
  70
    32
  0
VERTEX
  8
0
  5
691
 10
12023.3
 20
22763.8
 30
0.000000
  70
    32
  0
VERTEX
  8
0
  5
692
 10
11906.8
 20
22681.6
 30
0.000000
  70
    32
  0
VERTEX
  8
0
  5
693
 10
11790.1
 20
22600.1
 30
0.000000
  70
    32
  0
VERTEX
  8
0
  5
694
 10
11673.2
 20
22519.4
 30
0.000000
  70
    32
  0
VERTEX
  8
0
  5
695
 10
11556.1
 20
22439.5
 30
0.000000
  70
    32
  0
VERTEX
  8
0
  5
696
 10
11438.8
 20
22360.4
 30
0.000000
  70
    32
  0
VERTEX
  8
0
  5
697
 10
11321.3
 20
22282.3
 30
0.000000
  70
    32
  0
VERTEX
  8
0
  5
698
 10
11203.6
 20
22205.1
 30
0.000000
  70
    32
  0
VERTEX
  8
0
  5
699
 10
11085.5
 20
22128.8
 30
0.000000
  70
    32
  0
VERTEX
  8
0
  5
69A
 10
10967.2
 20
22053.6
 30
0.000000
  70
    32
  0
VERTEX
  8
0
  5
69B
 10
10848.5
 20
21979.4
 30
0.000000
  70
    32
  0
VERTEX
  8
0
  5
69C
 10
10729.6
 20
21906.2
 30
0.000000
  70
    32
  0
VERTEX
  8
0
  5
69D
 10
10610.2
 20
21834.1
 30
0.000000
  70
    32
  0
VERTEX
  8
0
  5
69E
 10
10490.5
 20
21763.2
 30
0.000000
  70
    32
  0
VERTEX
  8
0
  5
69F
 10
10370.4
 20
21693.5
 30
0.000000
  70
    32
  0
VERTEX
  8
0
  5
6A0
 10
10249.9
 20
21624.9
 30
0.000000
  70
    32
  0
VERTEX
  8
0
  5
6A1
 10
10128.9
 20
21557.6
 30
0.000000
  70
    32
  0
VERTEX
  8
0
  5
6A2
 10
10007.5
 20
21491.5
 30
0.000000
  70
    32
  0
VERTEX
  8
0
  5
6A3
 10
9885.58
 20
21426.8
 30
0.000000
  70
    32
  0
VERTEX
  8
0
  5
6A4
 10
9763.18
 20
21363.4
 30
0.000000
  70
    32
  0
VERTEX
  8
0
  5
6A5
 10
9640.26
 20
21301.3
 30
0.000000
  70
    32
  0
VERTEX
  8
0
  5
6A6
 10
9516.79
 20
21240.7
 30
0.000000
  70
    32
  0
VERTEX
  8
0
  5
6A7
 10
9392.77
 20
21181.5
 30
0.000000
  70
    32
  0
VERTEX
  8
0
  5
6A8
 10
9268.16
 20
21123.8
 30
0.000000
  70
    32
  0
VERTEX
  8
0
  5
6A9
 10
9142.95
 20
21067.6
 30
0.000000
  70
    32
  0
VERTEX
  8
0
  5
6AA
 10
9017.12
 20
21012.9
 30
0.000000
  70
    32
  0
VERTEX
  8
0
  5
6AB
 10
8890.65
 20
20959.8
 30
0.000000
  70
    32
  0
VERTEX
  8
0
  5
6AC
 10
8763.51
 20
20908.3
 30
0.000000
  70
    32
  0
VERTEX
  8
0
  5
6AD
 10
8635.72
 20
20858.5
 30
0.000000
  70
    32
  0
VERTEX
  8
0
  5
6AE
 10
8507.29
 20
20810.2
 30
0.000000
  70
    32
  0
VERTEX
  8
0
  5
6AF
 10
8378.23
 20
20763.4
 30
0.000000
  70
    32
  0
VERTEX
  8
0
  5
6B0
 10
8248.55
 20
20718.3
 30
0.000000
  70
    32
  0
VERTEX
  8
0
  5
6B1
 10
8118.25
 20
20674.7
 30
0.000000
  70
    32
  0
VERTEX
  8
0
  5
6B2
 10
7987.35
 20
20632.6
 30
0.000000
  70
    32
  0
VERTEX
  8
0
  5
6B3
 10
7855.86
 20
20592.1
 30
0.000000
  70
    32
  0
VERTEX
  8
0
  5
6B4
 10
7723.78
 20
20553.2
 30
0.000000
  70
    32
  0
VERTEX
  8
0
  5
6B5
 10
7591.13
 20
20515.7
 30
0.000000
  70
    32
  0
VERTEX
  8
0
  5
6B6
 10
7457.92
 20
20479.7
 30
0.000000
  70
    32
  0
VERTEX
  8
0
  5
6B7
 10
7324.16
 20
20445.3
 30
0.000000
  70
    32
  0
VERTEX
  8
0
  5
6B8
 10
7189.85
 20
20412.3
 30
0.000000
  70
    32
  0
VERTEX
  8
0
  5
6B9
 10
7055.02
 20
20380.8
 30
0.000000
  70
    32
  0
VERTEX
  8
0
  5
6BA
 10
6919.66
 20
20350.8
 30
0.000000
  70
    32
  0
VERTEX
  8
0
  5
6BB
 10
6783.78
 20
20322.2
 30
0.000000
  70
    32
  0
VERTEX
  8
0
  5
6BC
 10
6647.41
 20
20295.1
 30
0.000000
  70
    32
  0
VERTEX
  8
0
  5
6BD
 10
6510.54
 20
20269.4
 30
0.000000
  70
    32
  0
VERTEX
  8
0
  5
6BE
 10
6373.19
 20
20245.1
 30
0.000000
  70
    32
  0
VERTEX
  8
0
  5
6BF
 10
6235.37
 20
20222.3
 30
0.000000
  70
    32
  0
VERTEX
  8
0
  5
6C0
 10
6097.09
 20
20200.8
 30
0.000000
  70
    32
  0
VERTEX
  8
0
  5
6C1
 10
5958.35
 20
20180.8
 30
0.000000
  70
    32
  0
VERTEX
  8
0
  5
6C2
 10
5819.17
 20
20162.1
 30
0.000000
  70
    32
  0
VERTEX
  8
0
  5
6C3
 10
5679.56
 20
20144.8
 30
0.000000
  70
    32
  0
VERTEX
  8
0
  5
6C4
 10
5539.53
 20
20128.9
 30
0.000000
  70
    32
  0
VERTEX
  8
0
  5
6C5
 10
5399.09
 20
20114.3
 30
0.000000
  70
    32
  0
VERTEX
  8
0
  5
6C6
 10
5258.24
 20
20101.1
 30
0.000000
  70
    32
  0
VERTEX
  8
0
  5
6C7
 10
5117.01
 20
20089.2
 30
0.000000
  70
    32
  0
VERTEX
  8
0
  5
6C8
 10
4975.39
 20
20078.6
 30
0.000000
  70
    32
  0
VERTEX
  8
0
  5
6C9
 10
4833.39
 20
20069.4
 30
0.000000
  70
    32
  0
VERTEX
  8
0
  5
6CA
 10
4691.04
 20
20061.4
 30
0.000000
  70
    32
  0
VERTEX
  8
0
  5
6CB
 10
4548.34
 20
20054.7
 30
0.000000
  70
    32
  0
VERTEX
  8
0
  5
6CC
 10
4405.29
 20
20049.4
 30
0.000000
  70
    32
  0
VERTEX
  8
0
  5
6CD
 10
4261.91
 20
20045.3
 30
0.000000
  70
    32
  0
VERTEX
  8
0
  5
6CE
 10
4118.21
 20
20042.4
 30
0.000000
  70
    32
  0
VERTEX
  8
0
  5
6CF
 10
3974.20
 20
20040.8
 30
0.000000
  70
    32
  0
VERTEX
  8
0
  5
6D0
 10
3829.88
 20
20040.5
 30
0.000000
  70
    32
  0
VERTEX
  8
0
  5
6D1
 10
3685.28
 20
20041.4
 30
0.000000
  70
    32
  0
VERTEX
  8
0
  5
6D2
 10
3540.39
 20
20043.5
 30
0.000000
  70
    32
  0
VERTEX
  8
0
  5
6D3
 10
3395.23
 20
20046.8
 30
0.000000
  70
    32
  0
VERTEX
  8
0
  5
6D4
 10
3249.81
 20
20051.3
 30
0.000000
  70
    32
  0
VERTEX
  8
0
  5
6D5
 10
3104.14
 20
20057.0
 30
0.000000
  70
    32
  0
VERTEX
  8
0
  5
6D6
 10
2958.22
 20
20063.9
 30
0.000000
  70
    32
  0
VERTEX
  8
0
  5
6D7
 10
2812.08
 20
20072.0
 30
0.000000
  70
    32
  0
VERTEX
  8
0
  5
6D8
 10
2665.71
 20
20081.2
 30
0.000000
  70
    32
  0
VERTEX
  8
0
  5
6D9
 10
2519.13
 20
20091.6
 30
0.000000
  70
    32
  0
VERTEX
  8
0
  5
6DA
 10
2372.35
 20
20103.1
 30
0.000000
  70
    32
  0
VERTEX
  8
0
  5
6DB
 10
2225.38
 20
20115.7
 30
0.000000
  70
    32
  0
VERTEX
  8
0
  5
6DC
 10
2078.23
 20
20129.5
 30
0.000000
  70
    32
  0
VERTEX
  8
0
  5
6DD
 10
1930.91
 20
20144.3
 30
0.000000
  70
    32
  0
VERTEX
  8
0
  5
6DE
 10
1783.42
 20
20160.3
 30
0.000000
  70
    32
  0
VERTEX
  8
0
  5
6DF
 10
1635.79
 20
20177.4
 30
0.000000
  70
    32
  0
VERTEX
  8
0
  5
6E0
 10
1488.01
 20
20195.5
 30
0.000000
  70
    32
  0
VERTEX
  8
0
  5
6E1
 10
1340.10
 20
20214.7
 30
0.000000
  70
    32
  0
VERTEX
  8
0
  5
6E2
 10
1192.07
 20
20235.0
 30
0.000000
  70
    32
  0
VERTEX
  8
0
  5
6E3
 10
1043.93
 20
20256.3
 30
0.000000
  70
    32
  0
VERTEX
  8
0
  5
6E4
 10
895.689
 20
20278.7
 30
0.000000
  70
    32
  0
VERTEX
  8
0
  5
6E5
 10
747.357
 20
20302.1
 30
0.000000
  70
    32
  0
VERTEX
  8
0
  5
6E6
 10
598.943
 20
20326.5
 30
0.000000
  70
    32
  0
VERTEX
  8
0
  5
6E7
 10
450.458
 20
20351.9
 30
0.000000
  70
    32
  0
VERTEX
  8
0
  5
6E8
 10
301.912
 20
20378.3
 30
0.000000
  70
    32
  0
VERTEX
  8
0
  5
6E9
 10
153.315
 20
20405.7
 30
0.000000
  70
    32
  0
VERTEX
  8
0
  5
6EA
 10
4.67745
 20
20434.0
 30
0.000000
  70
    32
  0
VERTEX
  8
0
  5
6EB
 10
-143.991
 20
20463.4
 30
0.000000
  70
    32
  0
VERTEX
  8
0
  5
6EC
 10
-292.681
 20
20493.7
 30
0.000000
  70
    32
  0
VERTEX
  8
0
  5
6ED
 10
-441.381
 20
20524.9
 30
0.000000
  70
    32
  0
VERTEX
  8
0
  5
6EE
 10
-590.082
 20
20557.1
 30
0.000000
  70
    32
  0
VERTEX
  8
0
  5
6EF
 10
-738.774
 20
20590.2
 30
0.000000
  70
    32
  0
VERTEX
  8
0
  5
6F0
 10
-887.446
 20
20624.2
 30
0.000000
  70
    32
  0
VERTEX
  8
0
  5
6F1
 10
-1036.09
 20
20659.2
 30
0.000000
  70
    32
  0
VERTEX
  8
0
  5
6F2
 10
-1184.69
 20
20695.0
 30
0.000000
  70
    32
  0
VERTEX
  8
0
  5
6F3
 10
-1333.25
 20
20731.7
 30
0.000000
  70
    32
  0
VERTEX
  8
0
  5
6F4
 10
-1481.74
 20
20769.3
 30
0.000000
  70
    32
  0
VERTEX
  8
0
  5
6F5
 10
-1630.17
 20
20807.7
 30
0.000000
  70
    32
  0
VERTEX
  8
0
  5
6F6
 10
-1778.52
 20
20847.0
 30
0.000000
  70
    32
  0
VERTEX
  8
0
  5
6F7
 10
-1926.77
 20
20887.2
 30
0.000000
  70
    32
  0
VERTEX
  8
0
  5
6F8
 10
-2074.93
 20
20928.2
 30
0.000000
  70
    32
  0
VERTEX
  8
0
  5
6F9
 10
-2222.98
 20
20970.0
 30
0.000000
  70
    32
  0
VERTEX
  8
0
  5
6FA
 10
-2370.91
 20
21012.6
 30
0.000000
  70
    32
  0
VERTEX
  8
0
  5
6FB
 10
-2518.71
 20
21056.0
 30
0.000000
  70
    32
  0
VERTEX
  8
0
  5
6FC
 10
-2666.36
 20
21100.3
 30
0.000000
  70
    32
  0
VERTEX
  8
0
  5
6FD
 10
-2813.87
 20
21145.3
 30
0.000000
  70
    32
  0
VERTEX
  8
0
  5
6FE
 10
-2961.22
 20
21191.1
 30
0.000000
  70
    32
  0
VERTEX
  8
0
  5
6FF
 10
-3108.40
 20
21237.6
 30
0.000000
  70
    32
  0
VERTEX
  8
0
  5
700
 10
-3255.40
 20
21284.9
 30
0.000000
  70
    32
  0
VERTEX
  8
0
  5
701
 10
-3402.22
 20
21332.9
 30
0.000000
  70
    32
  0
VERTEX
  8
0
  5
702
 10
-3548.83
 20
21381.7
 30
0.000000
  70
    32
  0
VERTEX
  8
0
  5
703
 10
-3695.23
 20
21431.2
 30
0.000000
  70
    32
  0
VERTEX
  8
0
  5
704
 10
-3841.41
 20
21481.4
 30
0.000000
  70
    32
  0
VERTEX
  8
0
  5
705
 10
-3987.36
 20
21532.3
 30
0.000000
  70
    32
  0
VERTEX
  8
0
  5
706
 10
-4133.07
 20
21583.9
 30
0.000000
  70
    32
  0
VERTEX
  8
0
  5
707
 10
-4278.53
 20
21636.2
 30
0.000000
  70
    32
  0
VERTEX
  8
0
  5
708
 10
-4423.73
 20
21689.2
 30
0.000000
  70
    32
  0
VERTEX
  8
0
  5
709
 10
-4568.67
 20
21742.8
 30
0.000000
  70
    32
  0
VERTEX
  8
0
  5
70A
 10
-4713.32
 20
21797.1
 30
0.000000
  70
    32
  0
VERTEX
  8
0
  5
70B
 10
-4857.68
 20
21852.0
 30
0.000000
  70
    32
  0
VERTEX
  8
0
  5
70C
 10
-5001.74
 20
21907.5
 30
0.000000
  70
    32
  0
VERTEX
  8
0
  5
70D
 10
-5145.49
 20
21963.7
 30
0.000000
  70
    32
  0
VERTEX
  8
0
  5
70E
 10
-5288.92
 20
22020.4
 30
0.000000
  70
    32
  0
VERTEX
  8
0
  5
70F
 10
-5432.02
 20
22077.8
 30
0.000000
  70
    32
  0
VERTEX
  8
0
  5
710
 10
-5574.78
 20
22135.8
 30
0.000000
  70
    32
  0
VERTEX
  8
0
  5
711
 10
-5717.19
 20
22194.3
 30
0.000000
  70
    32
  0
VERTEX
  8
0
  5
712
 10
-5859.24
 20
22253.4
 30
0.000000
  70
    32
  0
VERTEX
  8
0
  5
713
 10
-6000.92
 20
22313.1
 30
0.000000
  70
    32
  0
VERTEX
  8
0
  5
714
 10
-6142.22
 20
22373.3
 30
0.000000
  70
    32
  0
VERTEX
  8
0
  5
715
 10
-6283.13
 20
22434.1
 30
0.000000
  70
    32
  0
VERTEX
  8
0
  5
716
 10
-6423.64
 20
22495.4
 30
0.000000
  70
    32
  0
VERTEX
  8
0
  5
717
 10
-6563.74
 20
22557.2
 30
0.000000
  70
    32
  0
VERTEX
  8
0
  5
718
 10
-6703.42
 20
22619.5
 30
0.000000
  70
    32
  0
VERTEX
  8
0
  5
719
 10
-6842.67
 20
22682.3
 30
0.000000
  70
    32
  0
VERTEX
  8
0
  5
71A
 10
-6981.47
 20
22745.6
 30
0.000000
  70
    32
  0
VERTEX
  8
0
  5
71B
 10
-7119.83
 20
22809.4
 30
0.000000
  70
    32
  0
VERTEX
  8
0
  5
71C
 10
-7257.72
 20
22873.7
 30
0.000000
  70
    32
  0
VERTEX
  8
0
  5
71D
 10
-7395.15
 20
22938.4
 30
0.000000
  70
    32
  0
VERTEX
  8
0
  5
71E
 10
-7532.09
 20
23003.5
 30
0.000000
  70
    32
  0
VERTEX
  8
0
  5
71F
 10
-7668.55
 20
23069.1
 30
0.000000
  70
    32
  0
VERTEX
  8
0
  5
720
 10
-7804.50
 20
23135.1
 30
0.000000
  70
    32
  0
VERTEX
  8
0
  5
721
 10
-7939.94
 20
23201.6
 30
0.000000
  70
    32
  0
VERTEX
  8
0
  5
722
 10
-8074.87
 20
23268.4
 30
0.000000
  70
    32
  0
VERTEX
  8
0
  5
723
 10
-8209.26
 20
23335.7
 30
0.000000
  70
    32
  0
VERTEX
  8
0
  5
724
 10
-8343.11
 20
23403.3
 30
0.000000
  70
    32
  0
VERTEX
  8
0
  5
725
 10
-8476.41
 20
23471.3
 30
0.000000
  70
    32
  0
VERTEX
  8
0
  5
726
 10
-8609.14
 20
23539.7
 30
0.000000
  70
    32
  0
VERTEX
  8
0
  5
727
 10
-8741.31
 20
23608.4
 30
0.000000
  70
    32
  0
VERTEX
  8
0
  5
728
 10
-8872.90
 20
23677.5
 30
0.000000
  70
    32
  0
VERTEX
  8
0
  5
729
 10
-9003.89
 20
23746.9
 30
0.000000
  70
    32
  0
VERTEX
  8
0
  5
72A
 10
-9134.29
 20
23816.6
 30
0.000000
  70
    32
  0
VERTEX
  8
0
  5
72B
 10
-9264.07
 20
23886.7
 30
0.000000
  70
    32
  0
VERTEX
  8
0
  5
72C
 10
-9393.24
 20
23957.0
 30
0.000000
  70
    32
  0
VERTEX
  8
0
  5
72D
 10
-9521.77
 20
24027.7
 30
0.000000
  70
    32
  0
VERTEX
  8
0
  5
72E
 10
-9649.66
 20
24098.6
 30
0.000000
  70
    32
  0
VERTEX
  8
0
  5
72F
 10
-9776.90
 20
24169.8
 30
0.000000
  70
    32
  0
VERTEX
  8
0
  5
730
 10
-9903.48
 20
24241.3
 30
0.000000
  70
    32
  0
VERTEX
  8
0
  5
731
 10
-10029.4
 20
24313.0
 30
0.000000
  70
    32
  0
VERTEX
  8
0
  5
732
 10
-10154.6
 20
24385.0
 30
0.000000
  70
    32
  0
VERTEX
  8
0
  5
733
 10
-10279.1
 20
24457.2
 30
0.000000
  70
    32
  0
VERTEX
  8
0
  5
734
 10
-10403.0
 20
24529.6
 30
0.000000
  70
    32
  0
SEQEND
  8
0
  5
735
  0
POLYLINE
  8
0
  5
736
  66
     1
 10
0.000000
 20
0.000000
 30
0.000000
  70
     8
  0
VERTEX
  8
0
  5
737
 10
23825.7
 20
27782.4
 30
0.000000
  70
    32
  0
VERTEX
  8
0
  5
738
 10
23797.4
 20
27739.6
 30
0.000000
  70
    32
  0
VERTEX
  8
0
  5
739
 10
23768.1
 20
27697.3
 30
0.000000
  70
    32
  0
VERTEX
  8
0
  5
73A
 10
23737.8
 20
27655.5
 30
0.000000
  70
    32
  0
VERTEX
  8
0
  5
73B
 10
23706.6
 20
27614.3
 30
0.000000
  70
    32
  0
VERTEX
  8
0
  5
73C
 10
23674.3
 20
27573.6
 30
0.000000
  70
    32
  0
VERTEX
  8
0
  5
73D
 10
23641.1
 20
27533.6
 30
0.000000
  70
    32
  0
VERTEX
  8
0
  5
73E
 10
23607.0
 20
27494.1
 30
0.000000
  70
    32
  0
VERTEX
  8
0
  5
73F
 10
23572.1
 20
27455.3
 30
0.000000
  70
    32
  0
VERTEX
  8
0
  5
740
 10
23536.2
 20
27417.1
 30
0.000000
  70
    32
  0
VERTEX
  8
0
  5
741
 10
23499.5
 20
27379.5
 30
0.000000
  70
    32
  0
VERTEX
  8
0
  5
742
 10
23462.0
 20
27342.7
 30
0.000000
  70
    32
  0
VERTEX
  8
0
  5
743
 10
23423.7
 20
27306.5
 30
0.000000
  70
    32
  0
VERTEX
  8
0
  5
744
 10
23384.7
 20
27271.0
 30
0.000000
  70
    32
  0
VERTEX
  8
0
  5
745
 10
23344.9
 20
27236.3
 30
0.000000
  70
    32
  0
VERTEX
  8
0
  5
746
 10
23304.4
 20
27202.2
 30
0.000000
  70
    32
  0
VERTEX
  8
0
  5
747
 10
23263.2
 20
27169.0
 30
0.000000
  70
    32
  0
VERTEX
  8
0
  5
748
 10
23221.4
 20
27136.5
 30
0.000000
  70
    32
  0
VERTEX
  8
0
  5
749
 10
23178.9
 20
27104.8
 30
0.000000
  70
    32
  0
VERTEX
  8
0
  5
74A
 10
23135.8
 20
27073.9
 30
0.000000
  70
    32
  0
VERTEX
  8
0
  5
74B
 10
23092.1
 20
27043.8
 30
0.000000
  70
    32
  0
VERTEX
  8
0
  5
74C
 10
23047.9
 20
27014.5
 30
0.000000
  70
    32
  0
VERTEX
  8
0
  5
74D
 10
23003.1
 20
26986.1
 30
0.000000
  70
    32
  0
VERTEX
  8
0
  5
74E
 10
22957.8
 20
26958.6
 30
0.000000
  70
    32
  0
VERTEX
  8
0
  5
74F
 10
22912.0
 20
26932.0
 30
0.000000
  70
    32
  0
VERTEX
  8
0
  5
750
 10
22865.8
 20
26906.2
 30
0.000000
  70
    32
  0
VERTEX
  8
0
  5
751
 10
22819.1
 20
26881.4
 30
0.000000
  70
    32
  0
VERTEX
  8
0
  5
752
 10
22772.0
 20
26857.5
 30
0.000000
  70
    32
  0
VERTEX
  8
0
  5
753
 10
22724.5
 20
26834.6
 30
0.000000
  70
    32
  0
VERTEX
  8
0
  5
754
 10
22676.6
 20
26812.6
 30
0.000000
  70
    32
  0
VERTEX
  8
0
  5
755
 10
22628.5
 20
26791.6
 30
0.000000
  70
    32
  0
VERTEX
  8
0
  5
756
 10
22580.0
 20
26771.6
 30
0.000000
  70
    32
  0
VERTEX
  8
0
  5
757
 10
22531.2
 20
26752.7
 30
0.000000
  70
    32
  0
VERTEX
  8
0
  5
758
 10
22482.1
 20
26734.8
 30
0.000000
  70
    32
  0
VERTEX
  8
0
  5
759
 10
22432.8
 20
26717.9
 30
0.000000
  70
    32
  0
VERTEX
  8
0
  5
75A
 10
22383.3
 20
26702.1
 30
0.000000
  70
    32
  0
VERTEX
  8
0
  5
75B
 10
22333.6
 20
26687.3
 30
0.000000
  70
    32
  0
VERTEX
  8
0
  5
75C
 10
22283.8
 20
26673.7
 30
0.000000
  70
    32
  0
VERTEX
  8
0
  5
75D
 10
22233.8
 20
26661.2
 30
0.000000
  70
    32
  0
VERTEX
  8
0
  5
75E
 10
22183.7
 20
26649.8
 30
0.000000
  70
    32
  0
VERTEX
  8
0
  5
75F
 10
22133.5
 20
26639.5
 30
0.000000
  70
    32
  0
VERTEX
  8
0
  5
760
 10
22083.1
 20
26630.3
 30
0.000000
  70
    32
  0
VERTEX
  8
0
  5
761
 10
22032.7
 20
26622.2
 30
0.000000
  70
    32
  0
VERTEX
  8
0
  5
762
 10
21982.2
 20
26615.0
 30
0.000000
  70
    32
  0
VERTEX
  8
0
  5
763
 10
21931.6
 20
26608.8
 30
0.000000
  70
    32
  0
VERTEX
  8
0
  5
764
 10
21880.9
 20
26603.5
 30
0.000000
  70
    32
  0
VERTEX
  8
0
  5
765
 10
21830.1
 20
26599.2
 30
0.000000
  70
    32
  0
VERTEX
  8
0
  5
766
 10
21779.2
 20
26595.7
 30
0.000000
  70
    32
  0
VERTEX
  8
0
  5
767
 10
21728.3
 20
26593.0
 30
0.000000
  70
    32
  0
VERTEX
  8
0
  5
768
 10
21677.3
 20
26591.1
 30
0.000000
  70
    32
  0
VERTEX
  8
0
  5
769
 10
21626.2
 20
26590.0
 30
0.000000
  70
    32
  0
VERTEX
  8
0
  5
76A
 10
21575.0
 20
26589.7
 30
0.000000
  70
    32
  0
VERTEX
  8
0
  5
76B
 10
21523.8
 20
26590.0
 30
0.000000
  70
    32
  0
VERTEX
  8
0
  5
76C
 10
21472.5
 20
26591.0
 30
0.000000
  70
    32
  0
VERTEX
  8
0
  5
76D
 10
21421.2
 20
26592.7
 30
0.000000
  70
    32
  0
VERTEX
  8
0
  5
76E
 10
21369.8
 20
26594.9
 30
0.000000
  70
    32
  0
VERTEX
  8
0
  5
76F
 10
21318.4
 20
26597.7
 30
0.000000
  70
    32
  0
VERTEX
  8
0
  5
770
 10
21266.9
 20
26601.1
 30
0.000000
  70
    32
  0
VERTEX
  8
0
  5
771
 10
21215.4
 20
26605.0
 30
0.000000
  70
    32
  0
VERTEX
  8
0
  5
772
 10
21163.8
 20
26609.3
 30
0.000000
  70
    32
  0
VERTEX
  8
0
  5
773
 10
21112.2
 20
26614.0
 30
0.000000
  70
    32
  0
VERTEX
  8
0
  5
774
 10
21060.6
 20
26619.2
 30
0.000000
  70
    32
  0
VERTEX
  8
0
  5
775
 10
21009.0
 20
26624.7
 30
0.000000
  70
    32
  0
VERTEX
  8
0
  5
776
 10
20957.4
 20
26630.6
 30
0.000000
  70
    32
  0
VERTEX
  8
0
  5
777
 10
20905.7
 20
26636.7
 30
0.000000
  70
    32
  0
VERTEX
  8
0
  5
778
 10
20854.0
 20
26643.2
 30
0.000000
  70
    32
  0
VERTEX
  8
0
  5
779
 10
20802.3
 20
26649.8
 30
0.000000
  70
    32
  0
VERTEX
  8
0
  5
77A
 10
20750.6
 20
26656.7
 30
0.000000
  70
    32
  0
VERTEX
  8
0
  5
77B
 10
20698.9
 20
26663.7
 30
0.000000
  70
    32
  0
VERTEX
  8
0
  5
77C
 10
20647.2
 20
26670.9
 30
0.000000
  70
    32
  0
VERTEX
  8
0
  5
77D
 10
20595.5
 20
26678.1
 30
0.000000
  70
    32
  0
VERTEX
  8
0
  5
77E
 10
20543.9
 20
26685.5
 30
0.000000
  70
    32
  0
VERTEX
  8
0
  5
77F
 10
20492.2
 20
26692.8
 30
0.000000
  70
    32
  0
VERTEX
  8
0
  5
780
 10
20440.6
 20
26700.2
 30
0.000000
  70
    32
  0
VERTEX
  8
0
  5
781
 10
20389.0
 20
26707.5
 30
0.000000
  70
    32
  0
VERTEX
  8
0
  5
782
 10
20337.4
 20
26714.8
 30
0.000000
  70
    32
  0
VERTEX
  8
0
  5
783
 10
20285.8
 20
26722.0
 30
0.000000
  70
    32
  0
VERTEX
  8
0
  5
784
 10
20234.3
 20
26729.0
 30
0.000000
  70
    32
  0
VERTEX
  8
0
  5
785
 10
20182.8
 20
26735.9
 30
0.000000
  70
    32
  0
VERTEX
  8
0
  5
786
 10
20131.3
 20
26742.5
 30
0.000000
  70
    32
  0
VERTEX
  8
0
  5
787
 10
20079.9
 20
26749.0
 30
0.000000
  70
    32
  0
VERTEX
  8
0
  5
788
 10
20028.6
 20
26755.1
 30
0.000000
  70
    32
  0
VERTEX
  8
0
  5
789
 10
19977.3
 20
26761.0
 30
0.000000
  70
    32
  0
VERTEX
  8
0
  5
78A
 10
19926.0
 20
26766.6
 30
0.000000
  70
    32
  0
VERTEX
  8
0
  5
78B
 10
19874.8
 20
26771.7
 30
0.000000
  70
    32
  0
VERTEX
  8
0
  5
78C
 10
19823.7
 20
26776.5
 30
0.000000
  70
    32
  0
VERTEX
  8
0
  5
78D
 10
19772.7
 20
26780.8
 30
0.000000
  70
    32
  0
VERTEX
  8
0
  5
78E
 10
19721.7
 20
26784.7
 30
0.000000
  70
    32
  0
VERTEX
  8
0
  5
78F
 10
19670.8
 20
26788.1
 30
0.000000
  70
    32
  0
VERTEX
  8
0
  5
790
 10
19619.9
 20
26790.9
 30
0.000000
  70
    32
  0
VERTEX
  8
0
  5
791
 10
19569.2
 20
26793.2
 30
0.000000
  70
    32
  0
VERTEX
  8
0
  5
792
 10
19518.6
 20
26794.8
 30
0.000000
  70
    32
  0
VERTEX
  8
0
  5
793
 10
19468.0
 20
26795.9
 30
0.000000
  70
    32
  0
VERTEX
  8
0
  5
794
 10
19417.5
 20
26796.3
 30
0.000000
  70
    32
  0
VERTEX
  8
0
  5
795
 10
19367.2
 20
26795.9
 30
0.000000
  70
    32
  0
VERTEX
  8
0
  5
796
 10
19316.9
 20
26794.9
 30
0.000000
  70
    32
  0
VERTEX
  8
0
  5
797
 10
19266.7
 20
26793.0
 30
0.000000
  70
    32
  0
VERTEX
  8
0
  5
798
 10
19216.7
 20
26790.5
 30
0.000000
  70
    32
  0
VERTEX
  8
0
  5
799
 10
19166.7
 20
26787.2
 30
0.000000
  70
    32
  0
VERTEX
  8
0
  5
79A
 10
19116.9
 20
26783.2
 30
0.000000
  70
    32
  0
VERTEX
  8
0
  5
79B
 10
19067.1
 20
26778.5
 30
0.000000
  70
    32
  0
VERTEX
  8
0
  5
79C
 10
19017.5
 20
26773.0
 30
0.000000
  70
    32
  0
VERTEX
  8
0
  5
79D
 10
18968.0
 20
26766.9
 30
0.000000
  70
    32
  0
VERTEX
  8
0
  5
79E
 10
18918.5
 20
26760.1
 30
0.000000
  70
    32
  0
VERTEX
  8
0
  5
79F
 10
18869.2
 20
26752.6
 30
0.000000
  70
    32
  0
VERTEX
  8
0
  5
7A0
 10
18819.9
 20
26744.5
 30
0.000000
  70
    32
  0
VERTEX
  8
0
  5
7A1
 10
18770.8
 20
26735.6
 30
0.000000
  70
    32
  0
VERTEX
  8
0
  5
7A2
 10
18721.8
 20
26726.2
 30
0.000000
  70
    32
  0
VERTEX
  8
0
  5
7A3
 10
18672.8
 20
26716.1
 30
0.000000
  70
    32
  0
VERTEX
  8
0
  5
7A4
 10
18624.0
 20
26705.4
 30
0.000000
  70
    32
  0
VERTEX
  8
0
  5
7A5
 10
18575.2
 20
26694.0
 30
0.000000
  70
    32
  0
VERTEX
  8
0
  5
7A6
 10
18526.6
 20
26682.0
 30
0.000000
  70
    32
  0
VERTEX
  8
0
  5
7A7
 10
18478.0
 20
26669.5
 30
0.000000
  70
    32
  0
VERTEX
  8
0
  5
7A8
 10
18429.6
 20
26656.3
 30
0.000000
  70
    32
  0
VERTEX
  8
0
  5
7A9
 10
18381.2
 20
26642.6
 30
0.000000
  70
    32
  0
VERTEX
  8
0
  5
7AA
 10
18333.0
 20
26628.2
 30
0.000000
  70
    32
  0
VERTEX
  8
0
  5
7AB
 10
18284.8
 20
26613.4
 30
0.000000
  70
    32
  0
VERTEX
  8
0
  5
7AC
 10
18236.7
 20
26597.9
 30
0.000000
  70
    32
  0
VERTEX
  8
0
  5
7AD
 10
18188.8
 20
26581.9
 30
0.000000
  70
    32
  0
VERTEX
  8
0
  5
7AE
 10
18140.9
 20
26565.4
 30
0.000000
  70
    32
  0
VERTEX
  8
0
  5
7AF
 10
18093.1
 20
26548.4
 30
0.000000
  70
    32
  0
VERTEX
  8
0
  5
7B0
 10
18045.4
 20
26530.8
 30
0.000000
  70
    32
  0
VERTEX
  8
0
  5
7B1
 10
17997.8
 20
26512.7
 30
0.000000
  70
    32
  0
VERTEX
  8
0
  5
7B2
 10
17950.2
 20
26494.1
 30
0.000000
  70
    32
  0
VERTEX
  8
0
  5
7B3
 10
17902.8
 20
26475.1
 30
0.000000
  70
    32
  0
VERTEX
  8
0
  5
7B4
 10
17855.5
 20
26455.5
 30
0.000000
  70
    32
  0
VERTEX
  8
0
  5
7B5
 10
17808.2
 20
26435.5
 30
0.000000
  70
    32
  0
VERTEX
  8
0
  5
7B6
 10
17761.0
 20
26415.0
 30
0.000000
  70
    32
  0
VERTEX
  8
0
  5
7B7
 10
17714.0
 20
26394.0
 30
0.000000
  70
    32
  0
VERTEX
  8
0
  5
7B8
 10
17667.0
 20
26372.6
 30
0.000000
  70
    32
  0
VERTEX
  8
0
  5
7B9
 10
17620.1
 20
26350.8
 30
0.000000
  70
    32
  0
VERTEX
  8
0
  5
7BA
 10
17573.3
 20
26328.6
 30
0.000000
  70
    32
  0
VERTEX
  8
0
  5
7BB
 10
17526.5
 20
26305.9
 30
0.000000
  70
    32
  0
VERTEX
  8
0
  5
7BC
 10
17479.9
 20
26282.8
 30
0.000000
  70
    32
  0
VERTEX
  8
0
  5
7BD
 10
17433.3
 20
26259.4
 30
0.000000
  70
    32
  0
VERTEX
  8
0
  5
7BE
 10
17386.8
 20
26235.5
 30
0.000000
  70
    32
  0
VERTEX
  8
0
  5
7BF
 10
17340.5
 20
26211.2
 30
0.000000
  70
    32
  0
VERTEX
  8
0
  5
7C0
 10
17294.2
 20
26186.6
 30
0.000000
  70
    32
  0
VERTEX
  8
0
  5
7C1
 10
17247.9
 20
26161.7
 30
0.000000
  70
    32
  0
VERTEX
  8
0
  5
7C2
 10
17201.8
 20
26136.3
 30
0.000000
  70
    32
  0
VERTEX
  8
0
  5
7C3
 10
17155.7
 20
26110.7
 30
0.000000
  70
    32
  0
VERTEX
  8
0
  5
7C4
 10
17109.7
 20
26084.7
 30
0.000000
  70
    32
  0
VERTEX
  8
0
  5
7C5
 10
17063.8
 20
26058.3
 30
0.000000
  70
    32
  0
VERTEX
  8
0
  5
7C6
 10
17018.0
 20
26031.7
 30
0.000000
  70
    32
  0
VERTEX
  8
0
  5
7C7
 10
16972.3
 20
26004.7
 30
0.000000
  70
    32
  0
VERTEX
  8
0
  5
7C8
 10
16926.6
 20
25977.5
 30
0.000000
  70
    32
  0
VERTEX
  8
0
  5
7C9
 10
16881.0
 20
25950.0
 30
0.000000
  70
    32
  0
VERTEX
  8
0
  5
7CA
 10
16835.5
 20
25922.1
 30
0.000000
  70
    32
  0
VERTEX
  8
0
  5
7CB
 10
16790.1
 20
25894.1
 30
0.000000
  70
    32
  0
VERTEX
  8
0
  5
7CC
 10
16744.8
 20
25865.7
 30
0.000000
  70
    32
  0
VERTEX
  8
0
  5
7CD
 10
16699.5
 20
25837.1
 30
0.000000
  70
    32
  0
VERTEX
  8
0
  5
7CE
 10
16654.3
 20
25808.3
 30
0.000000
  70
    32
  0
VERTEX
  8
0
  5
7CF
 10
16609.2
 20
25779.2
 30
0.000000
  70
    32
  0
VERTEX
  8
0
  5
7D0
 10
16564.1
 20
25750.0
 30
0.000000
  70
    32
  0
VERTEX
  8
0
  5
7D1
 10
16519.1
 20
25720.5
 30
0.000000
  70
    32
  0
VERTEX
  8
0
  5
7D2
 10
16474.2
 20
25690.8
 30
0.000000
  70
    32
  0
VERTEX
  8
0
  5
7D3
 10
16429.4
 20
25660.9
 30
0.000000
  70
    32
  0
VERTEX
  8
0
  5
7D4
 10
16384.7
 20
25630.8
 30
0.000000
  70
    32
  0
VERTEX
  8
0
  5
7D5
 10
16340.0
 20
25600.5
 30
0.000000
  70
    32
  0
VERTEX
  8
0
  5
7D6
 10
16295.4
 20
25570.1
 30
0.000000
  70
    32
  0
VERTEX
  8
0
  5
7D7
 10
16250.8
 20
25539.5
 30
0.000000
  70
    32
  0
VERTEX
  8
0
  5
7D8
 10
16206.4
 20
25508.8
 30
0.000000
  70
    32
  0
VERTEX
  8
0
  5
7D9
 10
16162.0
 20
25477.9
 30
0.000000
  70
    32
  0
VERTEX
  8
0
  5
7DA
 10
16117.6
 20
25446.9
 30
0.000000
  70
    32
  0
VERTEX
  8
0
  5
7DB
 10
16073.4
 20
25415.8
 30
0.000000
  70
    32
  0
VERTEX
  8
0
  5
7DC
 10
16029.2
 20
25384.6
 30
0.000000
  70
    32
  0
VERTEX
  8
0
  5
7DD
 10
15985.1
 20
25353.3
 30
0.000000
  70
    32
  0
VERTEX
  8
0
  5
7DE
 10
15941.0
 20
25321.9
 30
0.000000
  70
    32
  0
VERTEX
  8
0
  5
7DF
 10
15897.0
 20
25290.4
 30
0.000000
  70
    32
  0
VERTEX
  8
0
  5
7E0
 10
15853.1
 20
25258.8
 30
0.000000
  70
    32
  0
VERTEX
  8
0
  5
7E1
 10
15809.2
 20
25227.1
 30
0.000000
  70
    32
  0
VERTEX
  8
0
  5
7E2
 10
15765.4
 20
25195.4
 30
0.000000
  70
    32
  0
VERTEX
  8
0
  5
7E3
 10
15721.7
 20
25163.7
 30
0.000000
  70
    32
  0
VERTEX
  8
0
  5
7E4
 10
15678.1
 20
25131.9
 30
0.000000
  70
    32
  0
VERTEX
  8
0
  5
7E5
 10
15634.4
 20
25100.1
 30
0.000000
  70
    32
  0
VERTEX
  8
0
  5
7E6
 10
15590.9
 20
25068.2
 30
0.000000
  70
    32
  0
VERTEX
  8
0
  5
7E7
 10
15547.4
 20
25036.3
 30
0.000000
  70
    32
  0
VERTEX
  8
0
  5
7E8
 10
15504.0
 20
25004.4
 30
0.000000
  70
    32
  0
VERTEX
  8
0
  5
7E9
 10
15460.7
 20
24972.4
 30
0.000000
  70
    32
  0
VERTEX
  8
0
  5
7EA
 10
15417.4
 20
24940.4
 30
0.000000
  70
    32
  0
VERTEX
  8
0
  5
7EB
 10
15374.1
 20
24908.4
 30
0.000000
  70
    32
  0
VERTEX
  8
0
  5
7EC
 10
15330.9
 20
24876.3
 30
0.000000
  70
    32
  0
VERTEX
  8
0
  5
7ED
 10
15287.8
 20
24844.3
 30
0.000000
  70
    32
  0
VERTEX
  8
0
  5
7EE
 10
15244.7
 20
24812.2
 30
0.000000
  70
    32
  0
VERTEX
  8
0
  5
7EF
 10
15201.7
 20
24780.0
 30
0.000000
  70
    32
  0
VERTEX
  8
0
  5
7F0
 10
15158.7
 20
24747.9
 30
0.000000
  70
    32
  0
VERTEX
  8
0
  5
7F1
 10
15115.8
 20
24715.7
 30
0.000000
  70
    32
  0
VERTEX
  8
0
  5
7F2
 10
15072.9
 20
24683.5
 30
0.000000
  70
    32
  0
VERTEX
  8
0
  5
7F3
 10
15030.1
 20
24651.3
 30
0.000000
  70
    32
  0
VERTEX
  8
0
  5
7F4
 10
14987.3
 20
24619.1
 30
0.000000
  70
    32
  0
VERTEX
  8
0
  5
7F5
 10
14944.6
 20
24586.8
 30
0.000000
  70
    32
  0
VERTEX
  8
0
  5
7F6
 10
14901.9
 20
24554.6
 30
0.000000
  70
    32
  0
VERTEX
  8
0
  5
7F7
 10
14859.3
 20
24522.3
 30
0.000000
  70
    32
  0
VERTEX
  8
0
  5
7F8
 10
14816.7
 20
24490.0
 30
0.000000
  70
    32
  0
VERTEX
  8
0
  5
7F9
 10
14774.2
 20
24457.8
 30
0.000000
  70
    32
  0
VERTEX
  8
0
  5
7FA
 10
14731.7
 20
24425.5
 30
0.000000
  70
    32
  0
VERTEX
  8
0
  5
7FB
 10
14689.2
 20
24393.2
 30
0.000000
  70
    32
  0
VERTEX
  8
0
  5
7FC
 10
14646.8
 20
24360.9
 30
0.000000
  70
    32
  0
VERTEX
  8
0
  5
7FD
 10
14604.4
 20
24328.6
 30
0.000000
  70
    32
  0
VERTEX
  8
0
  5
7FE
 10
14562.1
 20
24296.3
 30
0.000000
  70
    32
  0
VERTEX
  8
0
  5
7FF
 10
14519.8
 20
24264.0
 30
0.000000
  70
    32
  0
VERTEX
  8
0
  5
800
 10
14477.5
 20
24231.7
 30
0.000000
  70
    32
  0
VERTEX
  8
0
  5
801
 10
14435.3
 20
24199.4
 30
0.000000
  70
    32
  0
VERTEX
  8
0
  5
802
 10
14393.1
 20
24167.1
 30
0.000000
  70
    32
  0
VERTEX
  8
0
  5
803
 10
14351.0
 20
24134.9
 30
0.000000
  70
    32
  0
VERTEX
  8
0
  5
804
 10
14308.9
 20
24102.6
 30
0.000000
  70
    32
  0
VERTEX
  8
0
  5
805
 10
14266.8
 20
24070.4
 30
0.000000
  70
    32
  0
VERTEX
  8
0
  5
806
 10
14224.7
 20
24038.1
 30
0.000000
  70
    32
  0
VERTEX
  8
0
  5
807
 10
14182.7
 20
24005.9
 30
0.000000
  70
    32
  0
VERTEX
  8
0
  5
808
 10
14140.7
 20
23973.7
 30
0.000000
  70
    32
  0
VERTEX
  8
0
  5
809
 10
14098.7
 20
23941.5
 30
0.000000
  70
    32
  0
VERTEX
  8
0
  5
80A
 10
14056.8
 20
23909.3
 30
0.000000
  70
    32
  0
VERTEX
  8
0
  5
80B
 10
14014.9
 20
23877.2
 30
0.000000
  70
    32
  0
VERTEX
  8
0
  5
80C
 10
13973.0
 20
23845.0
 30
0.000000
  70
    32
  0
VERTEX
  8
0
  5
80D
 10
13931.2
 20
23812.9
 30
0.000000
  70
    32
  0
VERTEX
  8
0
  5
80E
 10
13889.3
 20
23780.8
 30
0.000000
  70
    32
  0
VERTEX
  8
0
  5
80F
 10
13847.5
 20
23748.8
 30
0.000000
  70
    32
  0
VERTEX
  8
0
  5
810
 10
13805.7
 20
23716.7
 30
0.000000
  70
    32
  0
VERTEX
  8
0
  5
811
 10
13764.0
 20
23684.7
 30
0.000000
  70
    32
  0
VERTEX
  8
0
  5
812
 10
13722.2
 20
23652.8
 30
0.000000
  70
    32
  0
VERTEX
  8
0
  5
813
 10
13680.5
 20
23620.8
 30
0.000000
  70
    32
  0
VERTEX
  8
0
  5
814
 10
13638.8
 20
23588.9
 30
0.000000
  70
    32
  0
VERTEX
  8
0
  5
815
 10
13597.1
 20
23557.1
 30
0.000000
  70
    32
  0
VERTEX
  8
0
  5
816
 10
13555.4
 20
23525.2
 30
0.000000
  70
    32
  0
SEQEND
  8
0
  5
817
  0
POLYLINE
  8
0
  5
818
  66
     1
 10
0.000000
 20
0.000000
 30
0.000000
  70
     8
  0
VERTEX
  8
0
  5
819
 10
23394.4
 20
28065.4
 30
0.000000
  70
    32
  0
VERTEX
  8
0
  5
81A
 10
23359.7
 20
28027.3
 30
0.000000
  70
    32
  0
VERTEX
  8
0
  5
81B
 10
23324.1
 20
27989.9
 30
0.000000
  70
    32
  0
VERTEX
  8
0
  5
81C
 10
23287.8
 20
27953.1
 30
0.000000
  70
    32
  0
VERTEX
  8
0
  5
81D
 10
23250.7
 20
27917.0
 30
0.000000
  70
    32
  0
VERTEX
  8
0
  5
81E
 10
23212.8
 20
27881.5
 30
0.000000
  70
    32
  0
VERTEX
  8
0
  5
81F
 10
23174.2
 20
27846.8
 30
0.000000
  70
    32
  0
VERTEX
  8
0
  5
820
 10
23134.9
 20
27812.7
 30
0.000000
  70
    32
  0
VERTEX
  8
0
  5
821
 10
23094.9
 20
27779.3
 30
0.000000
  70
    32
  0
VERTEX
  8
0
  5
822
 10
23054.2
 20
27746.7
 30
0.000000
  70
    32
  0
VERTEX
  8
0
  5
823
 10
23012.9
 20
27714.8
 30
0.000000
  70
    32
  0
VERTEX
  8
0
  5
824
 10
22971.0
 20
27683.7
 30
0.000000
  70
    32
  0
VERTEX
  8
0
  5
825
 10
22928.5
 20
27653.4
 30
0.000000
  70
    32
  0
VERTEX
  8
0
  5
826
 10
22885.4
 20
27623.9
 30
0.000000
  70
    32
  0
VERTEX
  8
0
  5
827
 10
22841.8
 20
27595.2
 30
0.000000
  70
    32
  0
VERTEX
  8
0
  5
828
 10
22797.7
 20
27567.3
 30
0.000000
  70
    32
  0
VERTEX
  8
0
  5
829
 10
22753.0
 20
27540.2
 30
0.000000
  70
    32
  0
VERTEX
  8
0
  5
82A
 10
22707.9
 20
27514.0
 30
0.000000
  70
    32
  0
VERTEX
  8
0
  5
82B
 10
22662.4
 20
27488.7
 30
0.000000
  70
    32
  0
VERTEX
  8
0
  5
82C
 10
22616.4
 20
27464.3
 30
0.000000
  70
    32
  0
VERTEX
  8
0
  5
82D
 10
22570.0
 20
27440.8
 30
0.000000
  70
    32
  0
VERTEX
  8
0
  5
82E
 10
22523.3
 20
27418.2
 30
0.000000
  70
    32
  0
VERTEX
  8
0
  5
82F
 10
22476.2
 20
27396.6
 30
0.000000
  70
    32
  0
VERTEX
  8
0
  5
830
 10
22428.7
 20
27375.9
 30
0.000000
  70
    32
  0
VERTEX
  8
0
  5
831
 10
22381.0
 20
27356.1
 30
0.000000
  70
    32
  0
VERTEX
  8
0
  5
832
 10
22333.0
 20
27337.4
 30
0.000000
  70
    32
  0
VERTEX
  8
0
  5
833
 10
22284.7
 20
27319.7
 30
0.000000
  70
    32
  0
VERTEX
  8
0
  5
834
 10
22236.2
 20
27302.9
 30
0.000000
  70
    32
  0
VERTEX
  8
0
  5
835
 10
22187.5
 20
27287.2
 30
0.000000
  70
    32
  0
VERTEX
  8
0
  5
836
 10
22138.6
 20
27272.6
 30
0.000000
  70
    32
  0
VERTEX
  8
0
  5
837
 10
22089.5
 20
27259.0
 30
0.000000
  70
    32
  0
VERTEX
  8
0
  5
838
 10
22040.3
 20
27246.5
 30
0.000000
  70
    32
  0
VERTEX
  8
0
  5
839
 10
21991.0
 20
27235.1
 30
0.000000
  70
    32
  0
VERTEX
  8
0
  5
83A
 10
21941.6
 20
27224.8
 30
0.000000
  70
    32
  0
VERTEX
  8
0
  5
83B
 10
21892.1
 20
27215.5
 30
0.000000
  70
    32
  0
VERTEX
  8
0
  5
83C
 10
21842.5
 20
27207.2
 30
0.000000
  70
    32
  0
VERTEX
  8
0
  5
83D
 10
21792.7
 20
27199.9
 30
0.000000
  70
    32
  0
VERTEX
  8
0
  5
83E
 10
21742.9
 20
27193.6
 30
0.000000
  70
    32
  0
VERTEX
  8
0
  5
83F
 10
21693.0
 20
27188.2
 30
0.000000
  70
    32
  0
VERTEX
  8
0
  5
840
 10
21643.1
 20
27183.6
 30
0.000000
  70
    32
  0
VERTEX
  8
0
  5
841
 10
21593.0
 20
27179.9
 30
0.000000
  70
    32
  0
VERTEX
  8
0
  5
842
 10
21542.9
 20
27177.0
 30
0.000000
  70
    32
  0
VERTEX
  8
0
  5
843
 10
21492.6
 20
27174.9
 30
0.000000
  70
    32
  0
VERTEX
  8
0
  5
844
 10
21442.4
 20
27173.6
 30
0.000000
  70
    32
  0
VERTEX
  8
0
  5
845
 10
21392.0
 20
27173.0
 30
0.000000
  70
    32
  0
VERTEX
  8
0
  5
846
 10
21341.6
 20
27173.1
 30
0.000000
  70
    32
  0
VERTEX
  8
0
  5
847
 10
21291.2
 20
27173.8
 30
0.000000
  70
    32
  0
VERTEX
  8
0
  5
848
 10
21240.6
 20
27175.2
 30
0.000000
  70
    32
  0
VERTEX
  8
0
  5
849
 10
21190.1
 20
27177.1
 30
0.000000
  70
    32
  0
VERTEX
  8
0
  5
84A
 10
21139.4
 20
27179.7
 30
0.000000
  70
    32
  0
VERTEX
  8
0
  5
84B
 10
21088.8
 20
27182.7
 30
0.000000
  70
    32
  0
VERTEX
  8
0
  5
84C
 10
21038.1
 20
27186.3
 30
0.000000
  70
    32
  0
VERTEX
  8
0
  5
84D
 10
20987.4
 20
27190.3
 30
0.000000
  70
    32
  0
VERTEX
  8
0
  5
84E
 10
20936.6
 20
27194.8
 30
0.000000
  70
    32
  0
VERTEX
  8
0
  5
84F
 10
20885.8
 20
27199.7
 30
0.000000
  70
    32
  0
VERTEX
  8
0
  5
850
 10
20835.0
 20
27204.9
 30
0.000000
  70
    32
  0
VERTEX
  8
0
  5
851
 10
20784.1
 20
27210.5
 30
0.000000
  70
    32
  0
VERTEX
  8
0
  5
852
 10
20733.3
 20
27216.4
 30
0.000000
  70
    32
  0
VERTEX
  8
0
  5
853
 10
20682.4
 20
27222.6
 30
0.000000
  70
    32
  0
VERTEX
  8
0
  5
854
 10
20631.5
 20
27229.0
 30
0.000000
  70
    32
  0
VERTEX
  8
0
  5
855
 10
20580.6
 20
27235.7
 30
0.000000
  70
    32
  0
VERTEX
  8
0
  5
856
 10
20529.7
 20
27242.5
 30
0.000000
  70
    32
  0
VERTEX
  8
0
  5
857
 10
20478.8
 20
27249.5
 30
0.000000
  70
    32
  0
VERTEX
  8
0
  5
858
 10
20427.9
 20
27256.5
 30
0.000000
  70
    32
  0
VERTEX
  8
0
  5
859
 10
20377.0
 20
27263.7
 30
0.000000
  70
    32
  0
VERTEX
  8
0
  5
85A
 10
20326.2
 20
27271.0
 30
0.000000
  70
    32
  0
VERTEX
  8
0
  5
85B
 10
20275.3
 20
27278.2
 30
0.000000
  70
    32
  0
VERTEX
  8
0
  5
85C
 10
20224.5
 20
27285.5
 30
0.000000
  70
    32
  0
VERTEX
  8
0
  5
85D
 10
20173.7
 20
27292.7
 30
0.000000
  70
    32
  0
VERTEX
  8
0
  5
85E
 10
20122.9
 20
27299.8
 30
0.000000
  70
    32
  0
VERTEX
  8
0
  5
85F
 10
20072.1
 20
27306.8
 30
0.000000
  70
    32
  0
VERTEX
  8
0
  5
860
 10
20021.4
 20
27313.7
 30
0.000000
  70
    32
  0
VERTEX
  8
0
  5
861
 10
19970.7
 20
27320.4
 30
0.000000
  70
    32
  0
VERTEX
  8
0
  5
862
 10
19920.0
 20
27327.0
 30
0.000000
  70
    32
  0
VERTEX
  8
0
  5
863
 10
19869.4
 20
27333.3
 30
0.000000
  70
    32
  0
VERTEX
  8
0
  5
864
 10
19818.9
 20
27339.3
 30
0.000000
  70
    32
  0
VERTEX
  8
0
  5
865
 10
19768.4
 20
27345.0
 30
0.000000
  70
    32
  0
VERTEX
  8
0
  5
866
 10
19717.9
 20
27350.4
 30
0.000000
  70
    32
  0
VERTEX
  8
0
  5
867
 10
19667.5
 20
27355.5
 30
0.000000
  70
    32
  0
VERTEX
  8
0
  5
868
 10
19617.2
 20
27360.1
 30
0.000000
  70
    32
  0
VERTEX
  8
0
  5
869
 10
19567.0
 20
27364.4
 30
0.000000
  70
    32
  0
VERTEX
  8
0
  5
86A
 10
19516.8
 20
27368.2
 30
0.000000
  70
    32
  0
VERTEX
  8
0
  5
86B
 10
19466.7
 20
27371.5
 30
0.000000
  70
    32
  0
VERTEX
  8
0
  5
86C
 10
19416.6
 20
27374.2
 30
0.000000
  70
    32
  0
VERTEX
  8
0
  5
86D
 10
19366.7
 20
27376.5
 30
0.000000
  70
    32
  0
VERTEX
  8
0
  5
86E
 10
19316.8
 20
27378.1
 30
0.000000
  70
    32
  0
VERTEX
  8
0
  5
86F
 10
19267.0
 20
27379.1
 30
0.000000
  70
    32
  0
VERTEX
  8
0
  5
870
 10
19217.3
 20
27379.5
 30
0.000000
  70
    32
  0
VERTEX
  8
0
  5
871
 10
19167.7
 20
27379.2
 30
0.000000
  70
    32
  0
VERTEX
  8
0
  5
872
 10
19118.2
 20
27378.2
 30
0.000000
  70
    32
  0
VERTEX
  8
0
  5
873
 10
19068.8
 20
27376.5
 30
0.000000
  70
    32
  0
VERTEX
  8
0
  5
874
 10
19019.6
 20
27374.0
 30
0.000000
  70
    32
  0
VERTEX
  8
0
  5
875
 10
18970.4
 20
27370.9
 30
0.000000
  70
    32
  0
VERTEX
  8
0
  5
876
 10
18921.3
 20
27367.0
 30
0.000000
  70
    32
  0
VERTEX
  8
0
  5
877
 10
18872.3
 20
27362.4
 30
0.000000
  70
    32
  0
VERTEX
  8
0
  5
878
 10
18823.4
 20
27357.2
 30
0.000000
  70
    32
  0
VERTEX
  8
0
  5
879
 10
18774.6
 20
27351.3
 30
0.000000
  70
    32
  0
VERTEX
  8
0
  5
87A
 10
18725.9
 20
27344.7
 30
0.000000
  70
    32
  0
VERTEX
  8
0
  5
87B
 10
18677.3
 20
27337.5
 30
0.000000
  70
    32
  0
VERTEX
  8
0
  5
87C
 10
18628.8
 20
27329.6
 30
0.000000
  70
    32
  0
VERTEX
  8
0
  5
87D
 10
18580.4
 20
27321.1
 30
0.000000
  70
    32
  0
VERTEX
  8
0
  5
87E
 10
18532.1
 20
27311.9
 30
0.000000
  70
    32
  0
VERTEX
  8
0
  5
87F
 10
18483.9
 20
27302.1
 30
0.000000
  70
    32
  0
VERTEX
  8
0
  5
880
 10
18435.8
 20
27291.7
 30
0.000000
  70
    32
  0
VERTEX
  8
0
  5
881
 10
18387.8
 20
27280.7
 30
0.000000
  70
    32
  0
VERTEX
  8
0
  5
882
 10
18339.8
 20
27269.1
 30
0.000000
  70
    32
  0
VERTEX
  8
0
  5
883
 10
18292.0
 20
27256.9
 30
0.000000
  70
    32
  0
VERTEX
  8
0
  5
884
 10
18244.3
 20
27244.2
 30
0.000000
  70
    32
  0
VERTEX
  8
0
  5
885
 10
18196.6
 20
27230.8
 30
0.000000
  70
    32
  0
VERTEX
  8
0
  5
886
 10
18149.1
 20
27217.0
 30
0.000000
  70
    32
  0
VERTEX
  8
0
  5
887
 10
18101.6
 20
27202.5
 30
0.000000
  70
    32
  0
VERTEX
  8
0
  5
888
 10
18054.3
 20
27187.5
 30
0.000000
  70
    32
  0
VERTEX
  8
0
  5
889
 10
18007.0
 20
27172.0
 30
0.000000
  70
    32
  0
VERTEX
  8
0
  5
88A
 10
17959.8
 20
27156.0
 30
0.000000
  70
    32
  0
VERTEX
  8
0
  5
88B
 10
17912.7
 20
27139.4
 30
0.000000
  70
    32
  0
VERTEX
  8
0
  5
88C
 10
17865.7
 20
27122.3
 30
0.000000
  70
    32
  0
VERTEX
  8
0
  5
88D
 10
17818.8
 20
27104.8
 30
0.000000
  70
    32
  0
VERTEX
  8
0
  5
88E
 10
17771.9
 20
27086.7
 30
0.000000
  70
    32
  0
VERTEX
  8
0
  5
88F
 10
17725.2
 20
27068.2
 30
0.000000
  70
    32
  0
VERTEX
  8
0
  5
890
 10
17678.5
 20
27049.2
 30
0.000000
  70
    32
  0
VERTEX
  8
0
  5
891
 10
17632.0
 20
27029.7
 30
0.000000
  70
    32
  0
VERTEX
  8
0
  5
892
 10
17585.5
 20
27009.8
 30
0.000000
  70
    32
  0
VERTEX
  8
0
  5
893
 10
17539.1
 20
26989.4
 30
0.000000
  70
    32
  0
VERTEX
  8
0
  5
894
 10
17492.8
 20
26968.6
 30
0.000000
  70
    32
  0
VERTEX
  8
0
  5
895
 10
17446.5
 20
26947.4
 30
0.000000
  70
    32
  0
VERTEX
  8
0
  5
896
 10
17400.4
 20
26925.7
 30
0.000000
  70
    32
  0
VERTEX
  8
0
  5
897
 10
17354.3
 20
26903.7
 30
0.000000
  70
    32
  0
VERTEX
  8
0
  5
898
 10
17308.3
 20
26881.2
 30
0.000000
  70
    32
  0
VERTEX
  8
0
  5
899
 10
17262.5
 20
26858.4
 30
0.000000
  70
    32
  0
VERTEX
  8
0
  5
89A
 10
17216.6
 20
26835.1
 30
0.000000
  70
    32
  0
VERTEX
  8
0
  5
89B
 10
17170.9
 20
26811.5
 30
0.000000
  70
    32
  0
VERTEX
  8
0
  5
89C
 10
17125.3
 20
26787.5
 30
0.000000
  70
    32
  0
VERTEX
  8
0
  5
89D
 10
17079.7
 20
26763.2
 30
0.000000
  70
    32
  0
VERTEX
  8
0
  5
89E
 10
17034.2
 20
26738.5
 30
0.000000
  70
    32
  0
VERTEX
  8
0
  5
89F
 10
16988.8
 20
26713.5
 30
0.000000
  70
    32
  0
VERTEX
  8
0
  5
8A0
 10
16943.5
 20
26688.2
 30
0.000000
  70
    32
  0
VERTEX
  8
0
  5
8A1
 10
16898.2
 20
26662.5
 30
0.000000
  70
    32
  0
VERTEX
  8
0
  5
8A2
 10
16853.0
 20
26636.5
 30
0.000000
  70
    32
  0
VERTEX
  8
0
  5
8A3
 10
16807.9
 20
26610.2
 30
0.000000
  70
    32
  0
VERTEX
  8
0
  5
8A4
 10
16762.9
 20
26583.6
 30
0.000000
  70
    32
  0
VERTEX
  8
0
  5
8A5
 10
16718.0
 20
26556.8
 30
0.000000
  70
    32
  0
VERTEX
  8
0
  5
8A6
 10
16673.1
 20
26529.6
 30
0.000000
  70
    32
  0
VERTEX
  8
0
  5
8A7
 10
16628.3
 20
26502.2
 30
0.000000
  70
    32
  0
VERTEX
  8
0
  5
8A8
 10
16583.6
 20
26474.5
 30
0.000000
  70
    32
  0
VERTEX
  8
0
  5
8A9
 10
16538.9
 20
26446.6
 30
0.000000
  70
    32
  0
VERTEX
  8
0
  5
8AA
 10
16494.4
 20
26418.4
 30
0.000000
  70
    32
  0
VERTEX
  8
0
  5
8AB
 10
16449.9
 20
26390.0
 30
0.000000
  70
    32
  0
VERTEX
  8
0
  5
8AC
 10
16405.5
 20
26361.4
 30
0.000000
  70
    32
  0
VERTEX
  8
0
  5
8AD
 10
16361.1
 20
26332.6
 30
0.000000
  70
    32
  0
VERTEX
  8
0
  5
8AE
 10
16316.8
 20
26303.5
 30
0.000000
  70
    32
  0
VERTEX
  8
0
  5
8AF
 10
16272.6
 20
26274.3
 30
0.000000
  70
    32
  0
VERTEX
  8
0
  5
8B0
 10
16228.5
 20
26244.9
 30
0.000000
  70
    32
  0
VERTEX
  8
0
  5
8B1
 10
16184.4
 20
26215.3
 30
0.000000
  70
    32
  0
VERTEX
  8
0
  5
8B2
 10
16140.4
 20
26185.5
 30
0.000000
  70
    32
  0
VERTEX
  8
0
  5
8B3
 10
16096.5
 20
26155.5
 30
0.000000
  70
    32
  0
VERTEX
  8
0
  5
8B4
 10
16052.7
 20
26125.4
 30
0.000000
  70
    32
  0
VERTEX
  8
0
  5
8B5
 10
16008.9
 20
26095.2
 30
0.000000
  70
    32
  0
VERTEX
  8
0
  5
8B6
 10
15965.1
 20
26064.8
 30
0.000000
  70
    32
  0
VERTEX
  8
0
  5
8B7
 10
15921.5
 20
26034.3
 30
0.000000
  70
    32
  0
VERTEX
  8
0
  5
8B8
 10
15877.9
 20
26003.7
 30
0.000000
  70
    32
  0
VERTEX
  8
0
  5
8B9
 10
15834.4
 20
25973.0
 30
0.000000
  70
    32
  0
VERTEX
  8
0
  5
8BA
 10
15790.9
 20
25942.2
 30
0.000000
  70
    32
  0
VERTEX
  8
0
  5
8BB
 10
15747.5
 20
25911.2
 30
0.000000
  70
    32
  0
VERTEX
  8
0
  5
8BC
 10
15704.2
 20
25880.2
 30
0.000000
  70
    32
  0
VERTEX
  8
0
  5
8BD
 10
15661.0
 20
25849.2
 30
0.000000
  70
    32
  0
VERTEX
  8
0
  5
8BE
 10
15617.8
 20
25818.0
 30
0.000000
  70
    32
  0
VERTEX
  8
0
  5
8BF
 10
15574.6
 20
25786.8
 30
0.000000
  70
    32
  0
VERTEX
  8
0
  5
8C0
 10
15531.6
 20
25755.6
 30
0.000000
  70
    32
  0
VERTEX
  8
0
  5
8C1
 10
15488.6
 20
25724.3
 30
0.000000
  70
    32
  0
VERTEX
  8
0
  5
8C2
 10
15445.6
 20
25693.0
 30
0.000000
  70
    32
  0
VERTEX
  8
0
  5
8C3
 10
15402.7
 20
25661.6
 30
0.000000
  70
    32
  0
VERTEX
  8
0
  5
8C4
 10
15359.9
 20
25630.2
 30
0.000000
  70
    32
  0
VERTEX
  8
0
  5
8C5
 10
15317.1
 20
25598.8
 30
0.000000
  70
    32
  0
VERTEX
  8
0
  5
8C6
 10
15274.4
 20
25567.3
 30
0.000000
  70
    32
  0
VERTEX
  8
0
  5
8C7
 10
15231.8
 20
25535.8
 30
0.000000
  70
    32
  0
VERTEX
  8
0
  5
8C8
 10
15189.2
 20
25504.3
 30
0.000000
  70
    32
  0
VERTEX
  8
0
  5
8C9
 10
15146.6
 20
25472.8
 30
0.000000
  70
    32
  0
VERTEX
  8
0
  5
8CA
 10
15104.1
 20
25441.2
 30
0.000000
  70
    32
  0
VERTEX
  8
0
  5
8CB
 10
15061.7
 20
25409.6
 30
0.000000
  70
    32
  0
VERTEX
  8
0
  5
8CC
 10
15019.3
 20
25378.0
 30
0.000000
  70
    32
  0
VERTEX
  8
0
  5
8CD
 10
14977.0
 20
25346.3
 30
0.000000
  70
    32
  0
VERTEX
  8
0
  5
8CE
 10
14934.7
 20
25314.7
 30
0.000000
  70
    32
  0
VERTEX
  8
0
  5
8CF
 10
14892.5
 20
25283.0
 30
0.000000
  70
    32
  0
VERTEX
  8
0
  5
8D0
 10
14850.3
 20
25251.3
 30
0.000000
  70
    32
  0
VERTEX
  8
0
  5
8D1
 10
14808.1
 20
25219.5
 30
0.000000
  70
    32
  0
VERTEX
  8
0
  5
8D2
 10
14766.1
 20
25187.8
 30
0.000000
  70
    32
  0
VERTEX
  8
0
  5
8D3
 10
14724.0
 20
25156.1
 30
0.000000
  70
    32
  0
VERTEX
  8
0
  5
8D4
 10
14682.0
 20
25124.3
 30
0.000000
  70
    32
  0
VERTEX
  8
0
  5
8D5
 10
14640.1
 20
25092.5
 30
0.000000
  70
    32
  0
VERTEX
  8
0
  5
8D6
 10
14598.2
 20
25060.8
 30
0.000000
  70
    32
  0
VERTEX
  8
0
  5
8D7
 10
14556.3
 20
25029.0
 30
0.000000
  70
    32
  0
VERTEX
  8
0
  5
8D8
 10
14514.5
 20
24997.2
 30
0.000000
  70
    32
  0
VERTEX
  8
0
  5
8D9
 10
14472.7
 20
24965.4
 30
0.000000
  70
    32
  0
VERTEX
  8
0
  5
8DA
 10
14430.9
 20
24933.6
 30
0.000000
  70
    32
  0
VERTEX
  8
0
  5
8DB
 10
14389.2
 20
24901.8
 30
0.000000
  70
    32
  0
VERTEX
  8
0
  5
8DC
 10
14347.6
 20
24870.0
 30
0.000000
  70
    32
  0
VERTEX
  8
0
  5
8DD
 10
14305.9
 20
24838.2
 30
0.000000
  70
    32
  0
VERTEX
  8
0
  5
8DE
 10
14264.3
 20
24806.4
 30
0.000000
  70
    32
  0
VERTEX
  8
0
  5
8DF
 10
14222.8
 20
24774.6
 30
0.000000
  70
    32
  0
VERTEX
  8
0
  5
8E0
 10
14181.2
 20
24742.9
 30
0.000000
  70
    32
  0
VERTEX
  8
0
  5
8E1
 10
14139.7
 20
24711.1
 30
0.000000
  70
    32
  0
VERTEX
  8
0
  5
8E2
 10
14098.3
 20
24679.3
 30
0.000000
  70
    32
  0
VERTEX
  8
0
  5
8E3
 10
14056.9
 20
24647.6
 30
0.000000
  70
    32
  0
VERTEX
  8
0
  5
8E4
 10
14015.5
 20
24615.8
 30
0.000000
  70
    32
  0
VERTEX
  8
0
  5
8E5
 10
13974.1
 20
24584.1
 30
0.000000
  70
    32
  0
VERTEX
  8
0
  5
8E6
 10
13932.7
 20
24552.4
 30
0.000000
  70
    32
  0
VERTEX
  8
0
  5
8E7
 10
13891.4
 20
24520.7
 30
0.000000
  70
    32
  0
VERTEX
  8
0
  5
8E8
 10
13850.1
 20
24489.0
 30
0.000000
  70
    32
  0
VERTEX
  8
0
  5
8E9
 10
13808.9
 20
24457.4
 30
0.000000
  70
    32
  0
VERTEX
  8
0
  5
8EA
 10
13767.6
 20
24425.7
 30
0.000000
  70
    32
  0
VERTEX
  8
0
  5
8EB
 10
13726.4
 20
24394.1
 30
0.000000
  70
    32
  0
VERTEX
  8
0
  5
8EC
 10
13685.3
 20
24362.5
 30
0.000000
  70
    32
  0
VERTEX
  8
0
  5
8ED
 10
13644.1
 20
24331.0
 30
0.000000
  70
    32
  0
VERTEX
  8
0
  5
8EE
 10
13602.9
 20
24299.4
 30
0.000000
  70
    32
  0
VERTEX
  8
0
  5
8EF
 10
13561.8
 20
24267.9
 30
0.000000
  70
    32
  0
VERTEX
  8
0
  5
8F0
 10
13520.7
 20
24236.4
 30
0.000000
  70
    32
  0
VERTEX
  8
0
  5
8F1
 10
13479.6
 20
24205.0
 30
0.000000
  70
    32
  0
VERTEX
  8
0
  5
8F2
 10
13438.6
 20
24173.6
 30
0.000000
  70
    32
  0
VERTEX
  8
0
  5
8F3
 10
13397.5
 20
24142.2
 30
0.000000
  70
    32
  0
VERTEX
  8
0
  5
8F4
 10
13356.5
 20
24110.9
 30
0.000000
  70
    32
  0
VERTEX
  8
0
  5
8F5
 10
13315.5
 20
24079.6
 30
0.000000
  70
    32
  0
VERTEX
  8
0
  5
8F6
 10
13274.5
 20
24048.3
 30
0.000000
  70
    32
  0
VERTEX
  8
0
  5
8F7
 10
13233.5
 20
24017.1
 30
0.000000
  70
    32
  0
VERTEX
  8
0
  5
8F8
 10
13192.5
 20
23985.9
 30
0.000000
  70
    32
  0
SEQEND
  8
0
  5
8F9
  0
POLYLINE
  8
0
  5
8FA
  66
     1
 10
0.000000
 20
0.000000
 30
0.000000
  70
     8
  0
VERTEX
  8
0
  5
8FB
 10
23825.7
 20
27782.4
 30
0.000000
  70
    32
  0
VERTEX
  8
0
  5
8FC
 10
23826.7
 20
27783.9
 30
0.000000
  70
    32
  0
VERTEX
  8
0
  5
8FD
 10
23827.7
 20
27785.4
 30
0.000000
  70
    32
  0
VERTEX
  8
0
  5
8FE
 10
23828.7
 20
27786.9
 30
0.000000
  70
    32
  0
VERTEX
  8
0
  5
8FF
 10
23829.8
 20
27788.4
 30
0.000000
  70
    32
  0
VERTEX
  8
0
  5
900
 10
23830.8
 20
27789.9
 30
0.000000
  70
    32
  0
VERTEX
  8
0
  5
901
 10
23831.9
 20
27791.4
 30
0.000000
  70
    32
  0
VERTEX
  8
0
  5
902
 10
23832.9
 20
27793.0
 30
0.000000
  70
    32
  0
VERTEX
  8
0
  5
903
 10
23833.9
 20
27794.6
 30
0.000000
  70
    32
  0
VERTEX
  8
0
  5
904
 10
23834.9
 20
27796.1
 30
0.000000
  70
    32
  0
VERTEX
  8
0
  5
905
 10
23836.0
 20
27797.7
 30
0.000000
  70
    32
  0
VERTEX
  8
0
  5
906
 10
23837.0
 20
27799.3
 30
0.000000
  70
    32
  0
VERTEX
  8
0
  5
907
 10
23838.0
 20
27800.9
 30
0.000000
  70
    32
  0
VERTEX
  8
0
  5
908
 10
23839.0
 20
27802.5
 30
0.000000
  70
    32
  0
VERTEX
  8
0
  5
909
 10
23840.0
 20
27804.2
 30
0.000000
  70
    32
  0
VERTEX
  8
0
  5
90A
 10
23840.9
 20
27805.8
 30
0.000000
  70
    32
  0
VERTEX
  8
0
  5
90B
 10
23841.9
 20
27807.4
 30
0.000000
  70
    32
  0
VERTEX
  8
0
  5
90C
 10
23842.8
 20
27809.1
 30
0.000000
  70
    32
  0
VERTEX
  8
0
  5
90D
 10
23843.7
 20
27810.7
 30
0.000000
  70
    32
  0
VERTEX
  8
0
  5
90E
 10
23844.6
 20
27812.3
 30
0.000000
  70
    32
  0
VERTEX
  8
0
  5
90F
 10
23845.5
 20
27814.0
 30
0.000000
  70
    32
  0
VERTEX
  8
0
  5
910
 10
23846.4
 20
27815.6
 30
0.000000
  70
    32
  0
VERTEX
  8
0
  5
911
 10
23847.2
 20
27817.3
 30
0.000000
  70
    32
  0
VERTEX
  8
0
  5
912
 10
23848.0
 20
27819.0
 30
0.000000
  70
    32
  0
VERTEX
  8
0
  5
913
 10
23848.8
 20
27820.6
 30
0.000000
  70
    32
  0
VERTEX
  8
0
  5
914
 10
23849.5
 20
27822.3
 30
0.000000
  70
    32
  0
VERTEX
  8
0
  5
915
 10
23850.3
 20
27823.9
 30
0.000000
  70
    32
  0
VERTEX
  8
0
  5
916
 10
23851.0
 20
27825.6
 30
0.000000
  70
    32
  0
VERTEX
  8
0
  5
917
 10
23851.6
 20
27827.2
 30
0.000000
  70
    32
  0
VERTEX
  8
0
  5
918
 10
23852.2
 20
27828.9
 30
0.000000
  70
    32
  0
VERTEX
  8
0
  5
919
 10
23852.8
 20
27830.5
 30
0.000000
  70
    32
  0
VERTEX
  8
0
  5
91A
 10
23853.4
 20
27832.1
 30
0.000000
  70
    32
  0
VERTEX
  8
0
  5
91B
 10
23853.9
 20
27833.8
 30
0.000000
  70
    32
  0
VERTEX
  8
0
  5
91C
 10
23854.3
 20
27835.4
 30
0.000000
  70
    32
  0
VERTEX
  8
0
  5
91D
 10
23854.8
 20
27837.0
 30
0.000000
  70
    32
  0
VERTEX
  8
0
  5
91E
 10
23855.2
 20
27838.6
 30
0.000000
  70
    32
  0
VERTEX
  8
0
  5
91F
 10
23855.5
 20
27840.2
 30
0.000000
  70
    32
  0
VERTEX
  8
0
  5
920
 10
23855.8
 20
27841.8
 30
0.000000
  70
    32
  0
VERTEX
  8
0
  5
921
 10
23856.0
 20
27843.4
 30
0.000000
  70
    32
  0
VERTEX
  8
0
  5
922
 10
23856.2
 20
27845.0
 30
0.000000
  70
    32
  0
VERTEX
  8
0
  5
923
 10
23856.4
 20
27846.5
 30
0.000000
  70
    32
  0
VERTEX
  8
0
  5
924
 10
23856.5
 20
27848.1
 30
0.000000
  70
    32
  0
VERTEX
  8
0
  5
925
 10
23856.5
 20
27849.6
 30
0.000000
  70
    32
  0
VERTEX
  8
0
  5
926
 10
23856.5
 20
27851.1
 30
0.000000
  70
    32
  0
VERTEX
  8
0
  5
927
 10
23856.4
 20
27852.7
 30
0.000000
  70
    32
  0
VERTEX
  8
0
  5
928
 10
23856.3
 20
27854.2
 30
0.000000
  70
    32
  0
VERTEX
  8
0
  5
929
 10
23856.1
 20
27855.7
 30
0.000000
  70
    32
  0
VERTEX
  8
0
  5
92A
 10
23855.9
 20
27857.1
 30
0.000000
  70
    32
  0
VERTEX
  8
0
  5
92B
 10
23855.7
 20
27858.6
 30
0.000000
  70
    32
  0
VERTEX
  8
0
  5
92C
 10
23855.4
 20
27860.1
 30
0.000000
  70
    32
  0
VERTEX
  8
0
  5
92D
 10
23855.0
 20
27861.5
 30
0.000000
  70
    32
  0
VERTEX
  8
0
  5
92E
 10
23854.7
 20
27863.0
 30
0.000000
  70
    32
  0
VERTEX
  8
0
  5
92F
 10
23854.2
 20
27864.4
 30
0.000000
  70
    32
  0
VERTEX
  8
0
  5
930
 10
23853.7
 20
27865.8
 30
0.000000
  70
    32
  0
VERTEX
  8
0
  5
931
 10
23853.2
 20
27867.2
 30
0.000000
  70
    32
  0
VERTEX
  8
0
  5
932
 10
23852.7
 20
27868.6
 30
0.000000
  70
    32
  0
VERTEX
  8
0
  5
933
 10
23852.1
 20
27870.0
 30
0.000000
  70
    32
  0
VERTEX
  8
0
  5
934
 10
23851.4
 20
27871.4
 30
0.000000
  70
    32
  0
VERTEX
  8
0
  5
935
 10
23850.8
 20
27872.8
 30
0.000000
  70
    32
  0
VERTEX
  8
0
  5
936
 10
23850.1
 20
27874.2
 30
0.000000
  70
    32
  0
VERTEX
  8
0
  5
937
 10
23849.3
 20
27875.6
 30
0.000000
  70
    32
  0
VERTEX
  8
0
  5
938
 10
23848.5
 20
27876.9
 30
0.000000
  70
    32
  0
VERTEX
  8
0
  5
939
 10
23847.7
 20
27878.3
 30
0.000000
  70
    32
  0
VERTEX
  8
0
  5
93A
 10
23846.9
 20
27879.6
 30
0.000000
  70
    32
  0
VERTEX
  8
0
  5
93B
 10
23846.0
 20
27881.0
 30
0.000000
  70
    32
  0
VERTEX
  8
0
  5
93C
 10
23845.1
 20
27882.3
 30
0.000000
  70
    32
  0
VERTEX
  8
0
  5
93D
 10
23844.1
 20
27883.7
 30
0.000000
  70
    32
  0
VERTEX
  8
0
  5
93E
 10
23843.1
 20
27885.0
 30
0.000000
  70
    32
  0
VERTEX
  8
0
  5
93F
 10
23842.1
 20
27886.3
 30
0.000000
  70
    32
  0
VERTEX
  8
0
  5
940
 10
23841.1
 20
27887.6
 30
0.000000
  70
    32
  0
VERTEX
  8
0
  5
941
 10
23840.0
 20
27889.0
 30
0.000000
  70
    32
  0
VERTEX
  8
0
  5
942
 10
23838.9
 20
27890.3
 30
0.000000
  70
    32
  0
VERTEX
  8
0
  5
943
 10
23837.8
 20
27891.6
 30
0.000000
  70
    32
  0
VERTEX
  8
0
  5
944
 10
23836.7
 20
27892.9
 30
0.000000
  70
    32
  0
VERTEX
  8
0
  5
945
 10
23835.5
 20
27894.2
 30
0.000000
  70
    32
  0
VERTEX
  8
0
  5
946
 10
23834.3
 20
27895.5
 30
0.000000
  70
    32
  0
VERTEX
  8
0
  5
947
 10
23833.1
 20
27896.8
 30
0.000000
  70
    32
  0
VERTEX
  8
0
  5
948
 10
23831.9
 20
27898.1
 30
0.000000
  70
    32
  0
VERTEX
  8
0
  5
949
 10
23830.6
 20
27899.4
 30
0.000000
  70
    32
  0
VERTEX
  8
0
  5
94A
 10
23829.3
 20
27900.7
 30
0.000000
  70
    32
  0
VERTEX
  8
0
  5
94B
 10
23828.1
 20
27902.0
 30
0.000000
  70
    32
  0
VERTEX
  8
0
  5
94C
 10
23826.7
 20
27903.3
 30
0.000000
  70
    32
  0
VERTEX
  8
0
  5
94D
 10
23825.4
 20
27904.6
 30
0.000000
  70
    32
  0
VERTEX
  8
0
  5
94E
 10
23824.1
 20
27905.9
 30
0.000000
  70
    32
  0
VERTEX
  8
0
  5
94F
 10
23822.7
 20
27907.2
 30
0.000000
  70
    32
  0
VERTEX
  8
0
  5
950
 10
23821.3
 20
27908.4
 30
0.000000
  70
    32
  0
VERTEX
  8
0
  5
951
 10
23819.9
 20
27909.7
 30
0.000000
  70
    32
  0
VERTEX
  8
0
  5
952
 10
23818.5
 20
27911.0
 30
0.000000
  70
    32
  0
VERTEX
  8
0
  5
953
 10
23817.1
 20
27912.3
 30
0.000000
  70
    32
  0
VERTEX
  8
0
  5
954
 10
23815.7
 20
27913.6
 30
0.000000
  70
    32
  0
VERTEX
  8
0
  5
955
 10
23814.3
 20
27914.9
 30
0.000000
  70
    32
  0
VERTEX
  8
0
  5
956
 10
23812.8
 20
27916.2
 30
0.000000
  70
    32
  0
VERTEX
  8
0
  5
957
 10
23811.3
 20
27917.5
 30
0.000000
  70
    32
  0
VERTEX
  8
0
  5
958
 10
23809.9
 20
27918.8
 30
0.000000
  70
    32
  0
VERTEX
  8
0
  5
959
 10
23808.4
 20
27920.1
 30
0.000000
  70
    32
  0
VERTEX
  8
0
  5
95A
 10
23806.9
 20
27921.5
 30
0.000000
  70
    32
  0
VERTEX
  8
0
  5
95B
 10
23805.5
 20
27922.8
 30
0.000000
  70
    32
  0
VERTEX
  8
0
  5
95C
 10
23804.0
 20
27924.1
 30
0.000000
  70
    32
  0
VERTEX
  8
0
  5
95D
 10
23802.5
 20
27925.4
 30
0.000000
  70
    32
  0
VERTEX
  8
0
  5
95E
 10
23801.0
 20
27926.7
 30
0.000000
  70
    32
  0
VERTEX
  8
0
  5
95F
 10
23799.5
 20
27928.1
 30
0.000000
  70
    32
  0
VERTEX
  8
0
  5
960
 10
23798.0
 20
27929.4
 30
0.000000
  70
    32
  0
VERTEX
  8
0
  5
961
 10
23796.5
 20
27930.8
 30
0.000000
  70
    32
  0
VERTEX
  8
0
  5
962
 10
23795.0
 20
27932.1
 30
0.000000
  70
    32
  0
VERTEX
  8
0
  5
963
 10
23793.5
 20
27933.5
 30
0.000000
  70
    32
  0
VERTEX
  8
0
  5
964
 10
23792.0
 20
27934.8
 30
0.000000
  70
    32
  0
VERTEX
  8
0
  5
965
 10
23790.5
 20
27936.2
 30
0.000000
  70
    32
  0
VERTEX
  8
0
  5
966
 10
23789.0
 20
27937.5
 30
0.000000
  70
    32
  0
VERTEX
  8
0
  5
967
 10
23787.5
 20
27938.9
 30
0.000000
  70
    32
  0
VERTEX
  8
0
  5
968
 10
23786.1
 20
27940.3
 30
0.000000
  70
    32
  0
VERTEX
  8
0
  5
969
 10
23784.6
 20
27941.7
 30
0.000000
  70
    32
  0
VERTEX
  8
0
  5
96A
 10
23783.1
 20
27943.1
 30
0.000000
  70
    32
  0
VERTEX
  8
0
  5
96B
 10
23781.7
 20
27944.5
 30
0.000000
  70
    32
  0
VERTEX
  8
0
  5
96C
 10
23780.3
 20
27945.9
 30
0.000000
  70
    32
  0
VERTEX
  8
0
  5
96D
 10
23778.8
 20
27947.4
 30
0.000000
  70
    32
  0
VERTEX
  8
0
  5
96E
 10
23777.4
 20
27948.8
 30
0.000000
  70
    32
  0
VERTEX
  8
0
  5
96F
 10
23776.0
 20
27950.2
 30
0.000000
  70
    32
  0
VERTEX
  8
0
  5
970
 10
23774.6
 20
27951.7
 30
0.000000
  70
    32
  0
VERTEX
  8
0
  5
971
 10
23773.2
 20
27953.2
 30
0.000000
  70
    32
  0
VERTEX
  8
0
  5
972
 10
23771.8
 20
27954.6
 30
0.000000
  70
    32
  0
VERTEX
  8
0
  5
973
 10
23770.5
 20
27956.1
 30
0.000000
  70
    32
  0
VERTEX
  8
0
  5
974
 10
23769.1
 20
27957.6
 30
0.000000
  70
    32
  0
VERTEX
  8
0
  5
975
 10
23767.8
 20
27959.1
 30
0.000000
  70
    32
  0
VERTEX
  8
0
  5
976
 10
23766.5
 20
27960.6
 30
0.000000
  70
    32
  0
VERTEX
  8
0
  5
977
 10
23765.2
 20
27962.2
 30
0.000000
  70
    32
  0
VERTEX
  8
0
  5
978
 10
23764.0
 20
27963.7
 30
0.000000
  70
    32
  0
VERTEX
  8
0
  5
979
 10
23762.7
 20
27965.2
 30
0.000000
  70
    32
  0
VERTEX
  8
0
  5
97A
 10
23761.5
 20
27966.8
 30
0.000000
  70
    32
  0
VERTEX
  8
0
  5
97B
 10
23760.3
 20
27968.4
 30
0.000000
  70
    32
  0
VERTEX
  8
0
  5
97C
 10
23759.1
 20
27970.0
 30
0.000000
  70
    32
  0
VERTEX
  8
0
  5
97D
 10
23758.0
 20
27971.6
 30
0.000000
  70
    32
  0
VERTEX
  8
0
  5
97E
 10
23756.8
 20
27973.2
 30
0.000000
  70
    32
  0
VERTEX
  8
0
  5
97F
 10
23755.7
 20
27974.8
 30
0.000000
  70
    32
  0
VERTEX
  8
0
  5
980
 10
23754.7
 20
27976.5
 30
0.000000
  70
    32
  0
VERTEX
  8
0
  5
981
 10
23753.6
 20
27978.1
 30
0.000000
  70
    32
  0
VERTEX
  8
0
  5
982
 10
23752.6
 20
27979.8
 30
0.000000
  70
    32
  0
VERTEX
  8
0
  5
983
 10
23751.6
 20
27981.5
 30
0.000000
  70
    32
  0
VERTEX
  8
0
  5
984
 10
23750.6
 20
27983.2
 30
0.000000
  70
    32
  0
VERTEX
  8
0
  5
985
 10
23749.7
 20
27984.9
 30
0.000000
  70
    32
  0
VERTEX
  8
0
  5
986
 10
23748.8
 20
27986.6
 30
0.000000
  70
    32
  0
VERTEX
  8
0
  5
987
 10
23747.9
 20
27988.4
 30
0.000000
  70
    32
  0
VERTEX
  8
0
  5
988
 10
23747.1
 20
27990.1
 30
0.000000
  70
    32
  0
VERTEX
  8
0
  5
989
 10
23746.3
 20
27991.9
 30
0.000000
  70
    32
  0
VERTEX
  8
0
  5
98A
 10
23745.5
 20
27993.6
 30
0.000000
  70
    32
  0
VERTEX
  8
0
  5
98B
 10
23744.7
 20
27995.4
 30
0.000000
  70
    32
  0
VERTEX
  8
0
  5
98C
 10
23744.0
 20
27997.2
 30
0.000000
  70
    32
  0
VERTEX
  8
0
  5
98D
 10
23743.3
 20
27999.0
 30
0.000000
  70
    32
  0
VERTEX
  8
0
  5
98E
 10
23742.6
 20
28000.8
 30
0.000000
  70
    32
  0
VERTEX
  8
0
  5
98F
 10
23742.0
 20
28002.6
 30
0.000000
  70
    32
  0
VERTEX
  8
0
  5
990
 10
23741.4
 20
28004.4
 30
0.000000
  70
    32
  0
VERTEX
  8
0
  5
991
 10
23740.8
 20
28006.3
 30
0.000000
  70
    32
  0
VERTEX
  8
0
  5
992
 10
23740.3
 20
28008.1
 30
0.000000
  70
    32
  0
VERTEX
  8
0
  5
993
 10
23739.8
 20
28009.9
 30
0.000000
  70
    32
  0
VERTEX
  8
0
  5
994
 10
23739.3
 20
28011.8
 30
0.000000
  70
    32
  0
VERTEX
  8
0
  5
995
 10
23738.8
 20
28013.6
 30
0.000000
  70
    32
  0
VERTEX
  8
0
  5
996
 10
23738.4
 20
28015.5
 30
0.000000
  70
    32
  0
VERTEX
  8
0
  5
997
 10
23738.0
 20
28017.3
 30
0.000000
  70
    32
  0
VERTEX
  8
0
  5
998
 10
23737.7
 20
28019.2
 30
0.000000
  70
    32
  0
VERTEX
  8
0
  5
999
 10
23737.4
 20
28021.0
 30
0.000000
  70
    32
  0
VERTEX
  8
0
  5
99A
 10
23737.1
 20
28022.9
 30
0.000000
  70
    32
  0
VERTEX
  8
0
  5
99B
 10
23736.8
 20
28024.7
 30
0.000000
  70
    32
  0
VERTEX
  8
0
  5
99C
 10
23736.6
 20
28026.6
 30
0.000000
  70
    32
  0
VERTEX
  8
0
  5
99D
 10
23736.4
 20
28028.5
 30
0.000000
  70
    32
  0
VERTEX
  8
0
  5
99E
 10
23736.3
 20
28030.3
 30
0.000000
  70
    32
  0
VERTEX
  8
0
  5
99F
 10
23736.1
 20
28032.2
 30
0.000000
  70
    32
  0
VERTEX
  8
0
  5
9A0
 10
23736.1
 20
28034.0
 30
0.000000
  70
    32
  0
VERTEX
  8
0
  5
9A1
 10
23736.0
 20
28035.9
 30
0.000000
  70
    32
  0
VERTEX
  8
0
  5
9A2
 10
23736.0
 20
28037.7
 30
0.000000
  70
    32
  0
VERTEX
  8
0
  5
9A3
 10
23736.0
 20
28039.5
 30
0.000000
  70
    32
  0
VERTEX
  8
0
  5
9A4
 10
23736.0
 20
28041.4
 30
0.000000
  70
    32
  0
VERTEX
  8
0
  5
9A5
 10
23736.1
 20
28043.2
 30
0.000000
  70
    32
  0
VERTEX
  8
0
  5
9A6
 10
23736.2
 20
28045.0
 30
0.000000
  70
    32
  0
VERTEX
  8
0
  5
9A7
 10
23736.4
 20
28046.8
 30
0.000000
  70
    32
  0
VERTEX
  8
0
  5
9A8
 10
23736.6
 20
28048.6
 30
0.000000
  70
    32
  0
VERTEX
  8
0
  5
9A9
 10
23736.8
 20
28050.4
 30
0.000000
  70
    32
  0
VERTEX
  8
0
  5
9AA
 10
23737.1
 20
28052.2
 30
0.000000
  70
    32
  0
VERTEX
  8
0
  5
9AB
 10
23737.3
 20
28054.0
 30
0.000000
  70
    32
  0
VERTEX
  8
0
  5
9AC
 10
23737.7
 20
28055.7
 30
0.000000
  70
    32
  0
VERTEX
  8
0
  5
9AD
 10
23738.0
 20
28057.5
 30
0.000000
  70
    32
  0
VERTEX
  8
0
  5
9AE
 10
23738.4
 20
28059.3
 30
0.000000
  70
    32
  0
VERTEX
  8
0
  5
9AF
 10
23738.9
 20
28061.0
 30
0.000000
  70
    32
  0
VERTEX
  8
0
  5
9B0
 10
23739.3
 20
28062.7
 30
0.000000
  70
    32
  0
VERTEX
  8
0
  5
9B1
 10
23739.8
 20
28064.4
 30
0.000000
  70
    32
  0
VERTEX
  8
0
  5
9B2
 10
23740.4
 20
28066.1
 30
0.000000
  70
    32
  0
VERTEX
  8
0
  5
9B3
 10
23741.0
 20
28067.8
 30
0.000000
  70
    32
  0
VERTEX
  8
0
  5
9B4
 10
23741.6
 20
28069.5
 30
0.000000
  70
    32
  0
VERTEX
  8
0
  5
9B5
 10
23742.2
 20
28071.1
 30
0.000000
  70
    32
  0
VERTEX
  8
0
  5
9B6
 10
23742.9
 20
28072.7
 30
0.000000
  70
    32
  0
VERTEX
  8
0
  5
9B7
 10
23743.6
 20
28074.4
 30
0.000000
  70
    32
  0
VERTEX
  8
0
  5
9B8
 10
23744.4
 20
28076.0
 30
0.000000
  70
    32
  0
VERTEX
  8
0
  5
9B9
 10
23745.2
 20
28077.6
 30
0.000000
  70
    32
  0
VERTEX
  8
0
  5
9BA
 10
23746.0
 20
28079.1
 30
0.000000
  70
    32
  0
SEQEND
  8
0
  5
9BB
  0
POLYLINE
  8
0
  5
9BC
  66
     1
 10
0.000000
 20
0.000000
 30
0.000000
  70
     8
  0
VERTEX
  8
0
  5
9BD
 10
23713.4
 20
28074.0
 30
0.000000
  70
    32
  0
VERTEX
  8
0
  5
9BE
 10
23713.5
 20
28074.2
 30
0.000000
  70
    32
  0
VERTEX
  8
0
  5
9BF
 10
23713.6
 20
28074.3
 30
0.000000
  70
    32
  0
VERTEX
  8
0
  5
9C0
 10
23713.7
 20
28074.4
 30
0.000000
  70
    32
  0
VERTEX
  8
0
  5
9C1
 10
23713.8
 20
28074.6
 30
0.000000
  70
    32
  0
VERTEX
  8
0
  5
9C2
 10
23713.9
 20
28074.7
 30
0.000000
  70
    32
  0
VERTEX
  8
0
  5
9C3
 10
23714.0
 20
28074.8
 30
0.000000
  70
    32
  0
VERTEX
  8
0
  5
9C4
 10
23714.1
 20
28074.9
 30
0.000000
  70
    32
  0
VERTEX
  8
0
  5
9C5
 10
23714.2
 20
28075.0
 30
0.000000
  70
    32
  0
VERTEX
  8
0
  5
9C6
 10
23714.3
 20
28075.1
 30
0.000000
  70
    32
  0
VERTEX
  8
0
  5
9C7
 10
23714.4
 20
28075.2
 30
0.000000
  70
    32
  0
VERTEX
  8
0
  5
9C8
 10
23714.6
 20
28075.4
 30
0.000000
  70
    32
  0
VERTEX
  8
0
  5
9C9
 10
23714.7
 20
28075.5
 30
0.000000
  70
    32
  0
VERTEX
  8
0
  5
9CA
 10
23714.8
 20
28075.6
 30
0.000000
  70
    32
  0
VERTEX
  8
0
  5
9CB
 10
23714.9
 20
28075.7
 30
0.000000
  70
    32
  0
VERTEX
  8
0
  5
9CC
 10
23715.0
 20
28075.7
 30
0.000000
  70
    32
  0
VERTEX
  8
0
  5
9CD
 10
23715.2
 20
28075.8
 30
0.000000
  70
    32
  0
VERTEX
  8
0
  5
9CE
 10
23715.3
 20
28075.9
 30
0.000000
  70
    32
  0
VERTEX
  8
0
  5
9CF
 10
23715.4
 20
28076.0
 30
0.000000
  70
    32
  0
VERTEX
  8
0
  5
9D0
 10
23715.6
 20
28076.1
 30
0.000000
  70
    32
  0
VERTEX
  8
0
  5
9D1
 10
23715.7
 20
28076.2
 30
0.000000
  70
    32
  0
VERTEX
  8
0
  5
9D2
 10
23715.8
 20
28076.3
 30
0.000000
  70
    32
  0
VERTEX
  8
0
  5
9D3
 10
23716.0
 20
28076.3
 30
0.000000
  70
    32
  0
VERTEX
  8
0
  5
9D4
 10
23716.1
 20
28076.4
 30
0.000000
  70
    32
  0
VERTEX
  8
0
  5
9D5
 10
23716.3
 20
28076.5
 30
0.000000
  70
    32
  0
VERTEX
  8
0
  5
9D6
 10
23716.4
 20
28076.6
 30
0.000000
  70
    32
  0
VERTEX
  8
0
  5
9D7
 10
23716.6
 20
28076.6
 30
0.000000
  70
    32
  0
VERTEX
  8
0
  5
9D8
 10
23716.7
 20
28076.7
 30
0.000000
  70
    32
  0
VERTEX
  8
0
  5
9D9
 10
23716.9
 20
28076.8
 30
0.000000
  70
    32
  0
VERTEX
  8
0
  5
9DA
 10
23717.0
 20
28076.8
 30
0.000000
  70
    32
  0
VERTEX
  8
0
  5
9DB
 10
23717.2
 20
28076.9
 30
0.000000
  70
    32
  0
VERTEX
  8
0
  5
9DC
 10
23717.3
 20
28076.9
 30
0.000000
  70
    32
  0
VERTEX
  8
0
  5
9DD
 10
23717.5
 20
28077.0
 30
0.000000
  70
    32
  0
VERTEX
  8
0
  5
9DE
 10
23717.6
 20
28077.1
 30
0.000000
  70
    32
  0
VERTEX
  8
0
  5
9DF
 10
23717.8
 20
28077.1
 30
0.000000
  70
    32
  0
VERTEX
  8
0
  5
9E0
 10
23718.0
 20
28077.2
 30
0.000000
  70
    32
  0
VERTEX
  8
0
  5
9E1
 10
23718.1
 20
28077.2
 30
0.000000
  70
    32
  0
VERTEX
  8
0
  5
9E2
 10
23718.3
 20
28077.3
 30
0.000000
  70
    32
  0
VERTEX
  8
0
  5
9E3
 10
23718.4
 20
28077.3
 30
0.000000
  70
    32
  0
VERTEX
  8
0
  5
9E4
 10
23718.6
 20
28077.4
 30
0.000000
  70
    32
  0
VERTEX
  8
0
  5
9E5
 10
23718.8
 20
28077.4
 30
0.000000
  70
    32
  0
VERTEX
  8
0
  5
9E6
 10
23718.9
 20
28077.5
 30
0.000000
  70
    32
  0
VERTEX
  8
0
  5
9E7
 10
23719.1
 20
28077.5
 30
0.000000
  70
    32
  0
VERTEX
  8
0
  5
9E8
 10
23719.3
 20
28077.5
 30
0.000000
  70
    32
  0
VERTEX
  8
0
  5
9E9
 10
23719.5
 20
28077.6
 30
0.000000
  70
    32
  0
VERTEX
  8
0
  5
9EA
 10
23719.6
 20
28077.6
 30
0.000000
  70
    32
  0
VERTEX
  8
0
  5
9EB
 10
23719.8
 20
28077.7
 30
0.000000
  70
    32
  0
VERTEX
  8
0
  5
9EC
 10
23720.0
 20
28077.7
 30
0.000000
  70
    32
  0
VERTEX
  8
0
  5
9ED
 10
23720.1
 20
28077.7
 30
0.000000
  70
    32
  0
VERTEX
  8
0
  5
9EE
 10
23720.3
 20
28077.8
 30
0.000000
  70
    32
  0
VERTEX
  8
0
  5
9EF
 10
23720.5
 20
28077.8
 30
0.000000
  70
    32
  0
VERTEX
  8
0
  5
9F0
 10
23720.7
 20
28077.9
 30
0.000000
  70
    32
  0
VERTEX
  8
0
  5
9F1
 10
23720.8
 20
28077.9
 30
0.000000
  70
    32
  0
VERTEX
  8
0
  5
9F2
 10
23721.0
 20
28077.9
 30
0.000000
  70
    32
  0
VERTEX
  8
0
  5
9F3
 10
23721.2
 20
28078.0
 30
0.000000
  70
    32
  0
VERTEX
  8
0
  5
9F4
 10
23721.4
 20
28078.0
 30
0.000000
  70
    32
  0
VERTEX
  8
0
  5
9F5
 10
23721.6
 20
28078.0
 30
0.000000
  70
    32
  0
VERTEX
  8
0
  5
9F6
 10
23721.7
 20
28078.1
 30
0.000000
  70
    32
  0
VERTEX
  8
0
  5
9F7
 10
23721.9
 20
28078.1
 30
0.000000
  70
    32
  0
VERTEX
  8
0
  5
9F8
 10
23722.1
 20
28078.1
 30
0.000000
  70
    32
  0
VERTEX
  8
0
  5
9F9
 10
23722.3
 20
28078.2
 30
0.000000
  70
    32
  0
VERTEX
  8
0
  5
9FA
 10
23722.5
 20
28078.2
 30
0.000000
  70
    32
  0
VERTEX
  8
0
  5
9FB
 10
23722.6
 20
28078.2
 30
0.000000
  70
    32
  0
VERTEX
  8
0
  5
9FC
 10
23722.8
 20
28078.2
 30
0.000000
  70
    32
  0
VERTEX
  8
0
  5
9FD
 10
23723.0
 20
28078.3
 30
0.000000
  70
    32
  0
VERTEX
  8
0
  5
9FE
 10
23723.2
 20
28078.3
 30
0.000000
  70
    32
  0
VERTEX
  8
0
  5
9FF
 10
23723.4
 20
28078.3
 30
0.000000
  70
    32
  0
VERTEX
  8
0
  5
A00
 10
23723.5
 20
28078.4
 30
0.000000
  70
    32
  0
VERTEX
  8
0
  5
A01
 10
23723.7
 20
28078.4
 30
0.000000
  70
    32
  0
VERTEX
  8
0
  5
A02
 10
23723.9
 20
28078.4
 30
0.000000
  70
    32
  0
VERTEX
  8
0
  5
A03
 10
23724.1
 20
28078.5
 30
0.000000
  70
    32
  0
VERTEX
  8
0
  5
A04
 10
23724.2
 20
28078.5
 30
0.000000
  70
    32
  0
VERTEX
  8
0
  5
A05
 10
23724.4
 20
28078.5
 30
0.000000
  70
    32
  0
VERTEX
  8
0
  5
A06
 10
23724.6
 20
28078.6
 30
0.000000
  70
    32
  0
VERTEX
  8
0
  5
A07
 10
23724.8
 20
28078.6
 30
0.000000
  70
    32
  0
VERTEX
  8
0
  5
A08
 10
23725.0
 20
28078.6
 30
0.000000
  70
    32
  0
VERTEX
  8
0
  5
A09
 10
23725.1
 20
28078.7
 30
0.000000
  70
    32
  0
VERTEX
  8
0
  5
A0A
 10
23725.3
 20
28078.7
 30
0.000000
  70
    32
  0
VERTEX
  8
0
  5
A0B
 10
23725.5
 20
28078.8
 30
0.000000
  70
    32
  0
VERTEX
  8
0
  5
A0C
 10
23725.7
 20
28078.8
 30
0.000000
  70
    32
  0
VERTEX
  8
0
  5
A0D
 10
23725.8
 20
28078.8
 30
0.000000
  70
    32
  0
VERTEX
  8
0
  5
A0E
 10
23726.0
 20
28078.9
 30
0.000000
  70
    32
  0
VERTEX
  8
0
  5
A0F
 10
23726.2
 20
28078.9
 30
0.000000
  70
    32
  0
VERTEX
  8
0
  5
A10
 10
23726.3
 20
28078.9
 30
0.000000
  70
    32
  0
VERTEX
  8
0
  5
A11
 10
23726.5
 20
28079.0
 30
0.000000
  70
    32
  0
VERTEX
  8
0
  5
A12
 10
23726.7
 20
28079.0
 30
0.000000
  70
    32
  0
VERTEX
  8
0
  5
A13
 10
23726.8
 20
28079.1
 30
0.000000
  70
    32
  0
VERTEX
  8
0
  5
A14
 10
23727.0
 20
28079.1
 30
0.000000
  70
    32
  0
VERTEX
  8
0
  5
A15
 10
23727.2
 20
28079.2
 30
0.000000
  70
    32
  0
VERTEX
  8
0
  5
A16
 10
23727.3
 20
28079.2
 30
0.000000
  70
    32
  0
VERTEX
  8
0
  5
A17
 10
23727.5
 20
28079.3
 30
0.000000
  70
    32
  0
VERTEX
  8
0
  5
A18
 10
23727.7
 20
28079.3
 30
0.000000
  70
    32
  0
VERTEX
  8
0
  5
A19
 10
23727.8
 20
28079.4
 30
0.000000
  70
    32
  0
VERTEX
  8
0
  5
A1A
 10
23728.0
 20
28079.4
 30
0.000000
  70
    32
  0
VERTEX
  8
0
  5
A1B
 10
23728.1
 20
28079.5
 30
0.000000
  70
    32
  0
VERTEX
  8
0
  5
A1C
 10
23728.3
 20
28079.5
 30
0.000000
  70
    32
  0
VERTEX
  8
0
  5
A1D
 10
23728.5
 20
28079.6
 30
0.000000
  70
    32
  0
VERTEX
  8
0
  5
A1E
 10
23728.6
 20
28079.7
 30
0.000000
  70
    32
  0
VERTEX
  8
0
  5
A1F
 10
23728.8
 20
28079.7
 30
0.000000
  70
    32
  0
VERTEX
  8
0
  5
A20
 10
23728.9
 20
28079.8
 30
0.000000
  70
    32
  0
VERTEX
  8
0
  5
A21
 10
23729.1
 20
28079.9
 30
0.000000
  70
    32
  0
VERTEX
  8
0
  5
A22
 10
23729.2
 20
28079.9
 30
0.000000
  70
    32
  0
VERTEX
  8
0
  5
A23
 10
23729.4
 20
28080.0
 30
0.000000
  70
    32
  0
VERTEX
  8
0
  5
A24
 10
23729.5
 20
28080.1
 30
0.000000
  70
    32
  0
VERTEX
  8
0
  5
A25
 10
23729.6
 20
28080.1
 30
0.000000
  70
    32
  0
VERTEX
  8
0
  5
A26
 10
23729.8
 20
28080.2
 30
0.000000
  70
    32
  0
VERTEX
  8
0
  5
A27
 10
23729.9
 20
28080.3
 30
0.000000
  70
    32
  0
VERTEX
  8
0
  5
A28
 10
23730.0
 20
28080.4
 30
0.000000
  70
    32
  0
VERTEX
  8
0
  5
A29
 10
23730.2
 20
28080.5
 30
0.000000
  70
    32
  0
VERTEX
  8
0
  5
A2A
 10
23730.3
 20
28080.6
 30
0.000000
  70
    32
  0
VERTEX
  8
0
  5
A2B
 10
23730.4
 20
28080.6
 30
0.000000
  70
    32
  0
VERTEX
  8
0
  5
A2C
 10
23730.6
 20
28080.7
 30
0.000000
  70
    32
  0
VERTEX
  8
0
  5
A2D
 10
23730.7
 20
28080.8
 30
0.000000
  70
    32
  0
VERTEX
  8
0
  5
A2E
 10
23730.8
 20
28080.9
 30
0.000000
  70
    32
  0
VERTEX
  8
0
  5
A2F
 10
23730.9
 20
28081.0
 30
0.000000
  70
    32
  0
VERTEX
  8
0
  5
A30
 10
23731.1
 20
28081.1
 30
0.000000
  70
    32
  0
VERTEX
  8
0
  5
A31
 10
23731.2
 20
28081.2
 30
0.000000
  70
    32
  0
VERTEX
  8
0
  5
A32
 10
23731.3
 20
28081.3
 30
0.000000
  70
    32
  0
VERTEX
  8
0
  5
A33
 10
23731.4
 20
28081.4
 30
0.000000
  70
    32
  0
VERTEX
  8
0
  5
A34
 10
23731.5
 20
28081.6
 30
0.000000
  70
    32
  0
VERTEX
  8
0
  5
A35
 10
23731.6
 20
28081.7
 30
0.000000
  70
    32
  0
VERTEX
  8
0
  5
A36
 10
23731.7
 20
28081.8
 30
0.000000
  70
    32
  0
VERTEX
  8
0
  5
A37
 10
23731.8
 20
28081.9
 30
0.000000
  70
    32
  0
VERTEX
  8
0
  5
A38
 10
23731.9
 20
28082.0
 30
0.000000
  70
    32
  0
VERTEX
  8
0
  5
A39
 10
23732.0
 20
28082.2
 30
0.000000
  70
    32
  0
VERTEX
  8
0
  5
A3A
 10
23732.1
 20
28082.3
 30
0.000000
  70
    32
  0
VERTEX
  8
0
  5
A3B
 10
23732.2
 20
28082.4
 30
0.000000
  70
    32
  0
VERTEX
  8
0
  5
A3C
 10
23732.3
 20
28082.6
 30
0.000000
  70
    32
  0
SEQEND
  8
0
  5
A3D
  0
POLYLINE
  8
0
  5
A3E
  66
     1
 10
0.000000
 20
0.000000
 30
0.000000
  70
     8
  0
VERTEX
  8
0
  5
A3F
 10
23394.4
 20
28065.4
 30
0.000000
  70
    32
  0
VERTEX
  8
0
  5
A40
 10
23395.6
 20
28066.6
 30
0.000000
  70
    32
  0
VERTEX
  8
0
  5
A41
 10
23396.9
 20
28067.9
 30
0.000000
  70
    32
  0
VERTEX
  8
0
  5
A42
 10
23398.2
 20
28069.1
 30
0.000000
  70
    32
  0
VERTEX
  8
0
  5
A43
 10
23399.5
 20
28070.3
 30
0.000000
  70
    32
  0
VERTEX
  8
0
  5
A44
 10
23400.9
 20
28071.5
 30
0.000000
  70
    32
  0
VERTEX
  8
0
  5
A45
 10
23402.3
 20
28072.7
 30
0.000000
  70
    32
  0
VERTEX
  8
0
  5
A46
 10
23403.7
 20
28073.9
 30
0.000000
  70
    32
  0
VERTEX
  8
0
  5
A47
 10
23405.1
 20
28075.0
 30
0.000000
  70
    32
  0
VERTEX
  8
0
  5
A48
 10
23406.5
 20
28076.2
 30
0.000000
  70
    32
  0
VERTEX
  8
0
  5
A49
 10
23408.0
 20
28077.3
 30
0.000000
  70
    32
  0
VERTEX
  8
0
  5
A4A
 10
23409.5
 20
28078.4
 30
0.000000
  70
    32
  0
VERTEX
  8
0
  5
A4B
 10
23411.0
 20
28079.4
 30
0.000000
  70
    32
  0
VERTEX
  8
0
  5
A4C
 10
23412.5
 20
28080.5
 30
0.000000
  70
    32
  0
VERTEX
  8
0
  5
A4D
 10
23414.0
 20
28081.5
 30
0.000000
  70
    32
  0
VERTEX
  8
0
  5
A4E
 10
23415.6
 20
28082.5
 30
0.000000
  70
    32
  0
VERTEX
  8
0
  5
A4F
 10
23417.2
 20
28083.5
 30
0.000000
  70
    32
  0
VERTEX
  8
0
  5
A50
 10
23418.8
 20
28084.5
 30
0.000000
  70
    32
  0
VERTEX
  8
0
  5
A51
 10
23420.4
 20
28085.4
 30
0.000000
  70
    32
  0
VERTEX
  8
0
  5
A52
 10
23422.0
 20
28086.3
 30
0.000000
  70
    32
  0
VERTEX
  8
0
  5
A53
 10
23423.6
 20
28087.3
 30
0.000000
  70
    32
  0
VERTEX
  8
0
  5
A54
 10
23425.3
 20
28088.1
 30
0.000000
  70
    32
  0
VERTEX
  8
0
  5
A55
 10
23426.9
 20
28089.0
 30
0.000000
  70
    32
  0
VERTEX
  8
0
  5
A56
 10
23428.6
 20
28089.8
 30
0.000000
  70
    32
  0
VERTEX
  8
0
  5
A57
 10
23430.3
 20
28090.7
 30
0.000000
  70
    32
  0
VERTEX
  8
0
  5
A58
 10
23432.0
 20
28091.4
 30
0.000000
  70
    32
  0
VERTEX
  8
0
  5
A59
 10
23433.7
 20
28092.2
 30
0.000000
  70
    32
  0
VERTEX
  8
0
  5
A5A
 10
23435.4
 20
28093.0
 30
0.000000
  70
    32
  0
VERTEX
  8
0
  5
A5B
 10
23437.1
 20
28093.7
 30
0.000000
  70
    32
  0
VERTEX
  8
0
  5
A5C
 10
23438.9
 20
28094.4
 30
0.000000
  70
    32
  0
VERTEX
  8
0
  5
A5D
 10
23440.6
 20
28095.1
 30
0.000000
  70
    32
  0
VERTEX
  8
0
  5
A5E
 10
23442.4
 20
28095.7
 30
0.000000
  70
    32
  0
VERTEX
  8
0
  5
A5F
 10
23444.1
 20
28096.3
 30
0.000000
  70
    32
  0
VERTEX
  8
0
  5
A60
 10
23445.9
 20
28096.9
 30
0.000000
  70
    32
  0
VERTEX
  8
0
  5
A61
 10
23447.7
 20
28097.5
 30
0.000000
  70
    32
  0
VERTEX
  8
0
  5
A62
 10
23449.5
 20
28098.1
 30
0.000000
  70
    32
  0
VERTEX
  8
0
  5
A63
 10
23451.2
 20
28098.6
 30
0.000000
  70
    32
  0
VERTEX
  8
0
  5
A64
 10
23453.0
 20
28099.1
 30
0.000000
  70
    32
  0
VERTEX
  8
0
  5
A65
 10
23454.8
 20
28099.6
 30
0.000000
  70
    32
  0
VERTEX
  8
0
  5
A66
 10
23456.6
 20
28100.0
 30
0.000000
  70
    32
  0
VERTEX
  8
0
  5
A67
 10
23458.4
 20
28100.4
 30
0.000000
  70
    32
  0
VERTEX
  8
0
  5
A68
 10
23460.2
 20
28100.8
 30
0.000000
  70
    32
  0
VERTEX
  8
0
  5
A69
 10
23462.0
 20
28101.2
 30
0.000000
  70
    32
  0
VERTEX
  8
0
  5
A6A
 10
23463.8
 20
28101.5
 30
0.000000
  70
    32
  0
VERTEX
  8
0
  5
A6B
 10
23465.6
 20
28101.8
 30
0.000000
  70
    32
  0
VERTEX
  8
0
  5
A6C
 10
23467.4
 20
28102.1
 30
0.000000
  70
    32
  0
VERTEX
  8
0
  5
A6D
 10
23469.1
 20
28102.4
 30
0.000000
  70
    32
  0
VERTEX
  8
0
  5
A6E
 10
23470.9
 20
28102.6
 30
0.000000
  70
    32
  0
VERTEX
  8
0
  5
A6F
 10
23472.7
 20
28102.8
 30
0.000000
  70
    32
  0
VERTEX
  8
0
  5
A70
 10
23474.5
 20
28102.9
 30
0.000000
  70
    32
  0
VERTEX
  8
0
  5
A71
 10
23476.3
 20
28103.1
 30
0.000000
  70
    32
  0
VERTEX
  8
0
  5
A72
 10
23478.0
 20
28103.2
 30
0.000000
  70
    32
  0
VERTEX
  8
0
  5
A73
 10
23479.8
 20
28103.3
 30
0.000000
  70
    32
  0
VERTEX
  8
0
  5
A74
 10
23481.6
 20
28103.3
 30
0.000000
  70
    32
  0
VERTEX
  8
0
  5
A75
 10
23483.3
 20
28103.3
 30
0.000000
  70
    32
  0
VERTEX
  8
0
  5
A76
 10
23485.1
 20
28103.3
 30
0.000000
  70
    32
  0
VERTEX
  8
0
  5
A77
 10
23486.8
 20
28103.3
 30
0.000000
  70
    32
  0
VERTEX
  8
0
  5
A78
 10
23488.6
 20
28103.2
 30
0.000000
  70
    32
  0
VERTEX
  8
0
  5
A79
 10
23490.3
 20
28103.1
 30
0.000000
  70
    32
  0
VERTEX
  8
0
  5
A7A
 10
23492.0
 20
28102.9
 30
0.000000
  70
    32
  0
VERTEX
  8
0
  5
A7B
 10
23493.7
 20
28102.8
 30
0.000000
  70
    32
  0
VERTEX
  8
0
  5
A7C
 10
23495.4
 20
28102.6
 30
0.000000
  70
    32
  0
VERTEX
  8
0
  5
A7D
 10
23497.1
 20
28102.4
 30
0.000000
  70
    32
  0
VERTEX
  8
0
  5
A7E
 10
23498.8
 20
28102.1
 30
0.000000
  70
    32
  0
VERTEX
  8
0
  5
A7F
 10
23500.4
 20
28101.8
 30
0.000000
  70
    32
  0
VERTEX
  8
0
  5
A80
 10
23502.1
 20
28101.5
 30
0.000000
  70
    32
  0
VERTEX
  8
0
  5
A81
 10
23503.8
 20
28101.2
 30
0.000000
  70
    32
  0
VERTEX
  8
0
  5
A82
 10
23505.4
 20
28100.8
 30
0.000000
  70
    32
  0
VERTEX
  8
0
  5
A83
 10
23507.1
 20
28100.5
 30
0.000000
  70
    32
  0
VERTEX
  8
0
  5
A84
 10
23508.7
 20
28100.1
 30
0.000000
  70
    32
  0
VERTEX
  8
0
  5
A85
 10
23510.4
 20
28099.6
 30
0.000000
  70
    32
  0
VERTEX
  8
0
  5
A86
 10
23512.0
 20
28099.2
 30
0.000000
  70
    32
  0
VERTEX
  8
0
  5
A87
 10
23513.7
 20
28098.7
 30
0.000000
  70
    32
  0
VERTEX
  8
0
  5
A88
 10
23515.3
 20
28098.2
 30
0.000000
  70
    32
  0
VERTEX
  8
0
  5
A89
 10
23516.9
 20
28097.7
 30
0.000000
  70
    32
  0
VERTEX
  8
0
  5
A8A
 10
23518.5
 20
28097.2
 30
0.000000
  70
    32
  0
VERTEX
  8
0
  5
A8B
 10
23520.2
 20
28096.7
 30
0.000000
  70
    32
  0
VERTEX
  8
0
  5
A8C
 10
23521.8
 20
28096.1
 30
0.000000
  70
    32
  0
VERTEX
  8
0
  5
A8D
 10
23523.4
 20
28095.5
 30
0.000000
  70
    32
  0
VERTEX
  8
0
  5
A8E
 10
23525.0
 20
28094.9
 30
0.000000
  70
    32
  0
VERTEX
  8
0
  5
A8F
 10
23526.6
 20
28094.3
 30
0.000000
  70
    32
  0
VERTEX
  8
0
  5
A90
 10
23528.2
 20
28093.7
 30
0.000000
  70
    32
  0
VERTEX
  8
0
  5
A91
 10
23529.8
 20
28093.1
 30
0.000000
  70
    32
  0
VERTEX
  8
0
  5
A92
 10
23531.4
 20
28092.4
 30
0.000000
  70
    32
  0
VERTEX
  8
0
  5
A93
 10
23533.0
 20
28091.8
 30
0.000000
  70
    32
  0
VERTEX
  8
0
  5
A94
 10
23534.6
 20
28091.1
 30
0.000000
  70
    32
  0
VERTEX
  8
0
  5
A95
 10
23536.2
 20
28090.4
 30
0.000000
  70
    32
  0
VERTEX
  8
0
  5
A96
 10
23537.8
 20
28089.7
 30
0.000000
  70
    32
  0
VERTEX
  8
0
  5
A97
 10
23539.5
 20
28089.0
 30
0.000000
  70
    32
  0
VERTEX
  8
0
  5
A98
 10
23541.1
 20
28088.3
 30
0.000000
  70
    32
  0
VERTEX
  8
0
  5
A99
 10
23542.7
 20
28087.6
 30
0.000000
  70
    32
  0
VERTEX
  8
0
  5
A9A
 10
23544.3
 20
28086.9
 30
0.000000
  70
    32
  0
VERTEX
  8
0
  5
A9B
 10
23545.9
 20
28086.1
 30
0.000000
  70
    32
  0
VERTEX
  8
0
  5
A9C
 10
23547.5
 20
28085.4
 30
0.000000
  70
    32
  0
VERTEX
  8
0
  5
A9D
 10
23549.1
 20
28084.6
 30
0.000000
  70
    32
  0
VERTEX
  8
0
  5
A9E
 10
23550.7
 20
28083.9
 30
0.000000
  70
    32
  0
VERTEX
  8
0
  5
A9F
 10
23552.4
 20
28083.1
 30
0.000000
  70
    32
  0
VERTEX
  8
0
  5
AA0
 10
23554.0
 20
28082.4
 30
0.000000
  70
    32
  0
VERTEX
  8
0
  5
AA1
 10
23555.6
 20
28081.6
 30
0.000000
  70
    32
  0
VERTEX
  8
0
  5
AA2
 10
23557.2
 20
28080.9
 30
0.000000
  70
    32
  0
VERTEX
  8
0
  5
AA3
 10
23558.9
 20
28080.1
 30
0.000000
  70
    32
  0
VERTEX
  8
0
  5
AA4
 10
23560.5
 20
28079.4
 30
0.000000
  70
    32
  0
VERTEX
  8
0
  5
AA5
 10
23562.2
 20
28078.6
 30
0.000000
  70
    32
  0
VERTEX
  8
0
  5
AA6
 10
23563.8
 20
28077.8
 30
0.000000
  70
    32
  0
VERTEX
  8
0
  5
AA7
 10
23565.5
 20
28077.1
 30
0.000000
  70
    32
  0
VERTEX
  8
0
  5
AA8
 10
23567.1
 20
28076.3
 30
0.000000
  70
    32
  0
VERTEX
  8
0
  5
AA9
 10
23568.8
 20
28075.6
 30
0.000000
  70
    32
  0
VERTEX
  8
0
  5
AAA
 10
23570.5
 20
28074.9
 30
0.000000
  70
    32
  0
VERTEX
  8
0
  5
AAB
 10
23572.2
 20
28074.1
 30
0.000000
  70
    32
  0
VERTEX
  8
0
  5
AAC
 10
23573.9
 20
28073.4
 30
0.000000
  70
    32
  0
VERTEX
  8
0
  5
AAD
 10
23575.5
 20
28072.7
 30
0.000000
  70
    32
  0
VERTEX
  8
0
  5
AAE
 10
23577.3
 20
28071.9
 30
0.000000
  70
    32
  0
VERTEX
  8
0
  5
AAF
 10
23579.0
 20
28071.2
 30
0.000000
  70
    32
  0
VERTEX
  8
0
  5
AB0
 10
23580.7
 20
28070.5
 30
0.000000
  70
    32
  0
VERTEX
  8
0
  5
AB1
 10
23582.4
 20
28069.8
 30
0.000000
  70
    32
  0
VERTEX
  8
0
  5
AB2
 10
23584.1
 20
28069.1
 30
0.000000
  70
    32
  0
VERTEX
  8
0
  5
AB3
 10
23585.9
 20
28068.5
 30
0.000000
  70
    32
  0
VERTEX
  8
0
  5
AB4
 10
23587.6
 20
28067.8
 30
0.000000
  70
    32
  0
VERTEX
  8
0
  5
AB5
 10
23589.4
 20
28067.2
 30
0.000000
  70
    32
  0
VERTEX
  8
0
  5
AB6
 10
23591.2
 20
28066.5
 30
0.000000
  70
    32
  0
VERTEX
  8
0
  5
AB7
 10
23593.0
 20
28065.9
 30
0.000000
  70
    32
  0
VERTEX
  8
0
  5
AB8
 10
23594.8
 20
28065.3
 30
0.000000
  70
    32
  0
VERTEX
  8
0
  5
AB9
 10
23596.6
 20
28064.7
 30
0.000000
  70
    32
  0
VERTEX
  8
0
  5
ABA
 10
23598.4
 20
28064.1
 30
0.000000
  70
    32
  0
VERTEX
  8
0
  5
ABB
 10
23600.2
 20
28063.6
 30
0.000000
  70
    32
  0
VERTEX
  8
0
  5
ABC
 10
23602.1
 20
28063.0
 30
0.000000
  70
    32
  0
VERTEX
  8
0
  5
ABD
 10
23603.9
 20
28062.5
 30
0.000000
  70
    32
  0
VERTEX
  8
0
  5
ABE
 10
23605.8
 20
28062.0
 30
0.000000
  70
    32
  0
VERTEX
  8
0
  5
ABF
 10
23607.7
 20
28061.5
 30
0.000000
  70
    32
  0
VERTEX
  8
0
  5
AC0
 10
23609.5
 20
28061.0
 30
0.000000
  70
    32
  0
VERTEX
  8
0
  5
AC1
 10
23611.5
 20
28060.6
 30
0.000000
  70
    32
  0
VERTEX
  8
0
  5
AC2
 10
23613.4
 20
28060.2
 30
0.000000
  70
    32
  0
VERTEX
  8
0
  5
AC3
 10
23615.3
 20
28059.8
 30
0.000000
  70
    32
  0
VERTEX
  8
0
  5
AC4
 10
23617.2
 20
28059.4
 30
0.000000
  70
    32
  0
VERTEX
  8
0
  5
AC5
 10
23619.2
 20
28059.0
 30
0.000000
  70
    32
  0
VERTEX
  8
0
  5
AC6
 10
23621.2
 20
28058.7
 30
0.000000
  70
    32
  0
VERTEX
  8
0
  5
AC7
 10
23623.2
 20
28058.4
 30
0.000000
  70
    32
  0
VERTEX
  8
0
  5
AC8
 10
23625.1
 20
28058.1
 30
0.000000
  70
    32
  0
VERTEX
  8
0
  5
AC9
 10
23627.1
 20
28057.8
 30
0.000000
  70
    32
  0
VERTEX
  8
0
  5
ACA
 10
23629.1
 20
28057.6
 30
0.000000
  70
    32
  0
VERTEX
  8
0
  5
ACB
 10
23631.1
 20
28057.4
 30
0.000000
  70
    32
  0
VERTEX
  8
0
  5
ACC
 10
23633.1
 20
28057.2
 30
0.000000
  70
    32
  0
VERTEX
  8
0
  5
ACD
 10
23635.2
 20
28057.0
 30
0.000000
  70
    32
  0
VERTEX
  8
0
  5
ACE
 10
23637.2
 20
28056.9
 30
0.000000
  70
    32
  0
VERTEX
  8
0
  5
ACF
 10
23639.2
 20
28056.8
 30
0.000000
  70
    32
  0
VERTEX
  8
0
  5
AD0
 10
23641.2
 20
28056.7
 30
0.000000
  70
    32
  0
VERTEX
  8
0
  5
AD1
 10
23643.2
 20
28056.6
 30
0.000000
  70
    32
  0
VERTEX
  8
0
  5
AD2
 10
23645.3
 20
28056.6
 30
0.000000
  70
    32
  0
VERTEX
  8
0
  5
AD3
 10
23647.3
 20
28056.6
 30
0.000000
  70
    32
  0
VERTEX
  8
0
  5
AD4
 10
23649.3
 20
28056.6
 30
0.000000
  70
    32
  0
VERTEX
  8
0
  5
AD5
 10
23651.3
 20
28056.7
 30
0.000000
  70
    32
  0
VERTEX
  8
0
  5
AD6
 10
23653.3
 20
28056.8
 30
0.000000
  70
    32
  0
VERTEX
  8
0
  5
AD7
 10
23655.3
 20
28056.9
 30
0.000000
  70
    32
  0
VERTEX
  8
0
  5
AD8
 10
23657.3
 20
28057.0
 30
0.000000
  70
    32
  0
VERTEX
  8
0
  5
AD9
 10
23659.2
 20
28057.2
 30
0.000000
  70
    32
  0
VERTEX
  8
0
  5
ADA
 10
23661.2
 20
28057.4
 30
0.000000
  70
    32
  0
VERTEX
  8
0
  5
ADB
 10
23663.2
 20
28057.7
 30
0.000000
  70
    32
  0
VERTEX
  8
0
  5
ADC
 10
23665.1
 20
28057.9
 30
0.000000
  70
    32
  0
VERTEX
  8
0
  5
ADD
 10
23667.0
 20
28058.2
 30
0.000000
  70
    32
  0
VERTEX
  8
0
  5
ADE
 10
23669.0
 20
28058.5
 30
0.000000
  70
    32
  0
VERTEX
  8
0
  5
ADF
 10
23670.9
 20
28058.9
 30
0.000000
  70
    32
  0
VERTEX
  8
0
  5
AE0
 10
23672.7
 20
28059.3
 30
0.000000
  70
    32
  0
VERTEX
  8
0
  5
AE1
 10
23674.6
 20
28059.7
 30
0.000000
  70
    32
  0
VERTEX
  8
0
  5
AE2
 10
23676.5
 20
28060.2
 30
0.000000
  70
    32
  0
VERTEX
  8
0
  5
AE3
 10
23678.3
 20
28060.7
 30
0.000000
  70
    32
  0
VERTEX
  8
0
  5
AE4
 10
23680.1
 20
28061.2
 30
0.000000
  70
    32
  0
VERTEX
  8
0
  5
AE5
 10
23681.9
 20
28061.8
 30
0.000000
  70
    32
  0
VERTEX
  8
0
  5
AE6
 10
23683.7
 20
28062.3
 30
0.000000
  70
    32
  0
VERTEX
  8
0
  5
AE7
 10
23685.4
 20
28063.0
 30
0.000000
  70
    32
  0
VERTEX
  8
0
  5
AE8
 10
23687.1
 20
28063.6
 30
0.000000
  70
    32
  0
VERTEX
  8
0
  5
AE9
 10
23688.8
 20
28064.3
 30
0.000000
  70
    32
  0
VERTEX
  8
0
  5
AEA
 10
23690.5
 20
28065.1
 30
0.000000
  70
    32
  0
VERTEX
  8
0
  5
AEB
 10
23692.1
 20
28065.8
 30
0.000000
  70
    32
  0
VERTEX
  8
0
  5
AEC
 10
23693.8
 20
28066.6
 30
0.000000
  70
    32
  0
VERTEX
  8
0
  5
AED
 10
23695.3
 20
28067.5
 30
0.000000
  70
    32
  0
VERTEX
  8
0
  5
AEE
 10
23696.9
 20
28068.4
 30
0.000000
  70
    32
  0
VERTEX
  8
0
  5
AEF
 10
23698.4
 20
28069.3
 30
0.000000
  70
    32
  0
VERTEX
  8
0
  5
AF0
 10
23699.9
 20
28070.2
 30
0.000000
  70
    32
  0
VERTEX
  8
0
  5
AF1
 10
23701.4
 20
28071.2
 30
0.000000
  70
    32
  0
VERTEX
  8
0
  5
AF2
 10
23702.8
 20
28072.3
 30
0.000000
  70
    32
  0
VERTEX
  8
0
  5
AF3
 10
23704.2
 20
28073.3
 30
0.000000
  70
    32
  0
VERTEX
  8
0
  5
AF4
 10
23705.5
 20
28074.4
 30
0.000000
  70
    32
  0
VERTEX
  8
0
  5
AF5
 10
23706.8
 20
28075.6
 30
0.000000
  70
    32
  0
VERTEX
  8
0
  5
AF6
 10
23708.1
 20
28076.8
 30
0.000000
  70
    32
  0
VERTEX
  8
0
  5
AF7
 10
23709.3
 20
28078.0
 30
0.000000
  70
    32
  0
VERTEX
  8
0
  5
AF8
 10
23710.5
 20
28079.3
 30
0.000000
  70
    32
  0
VERTEX
  8
0
  5
AF9
 10
23711.7
 20
28080.6
 30
0.000000
  70
    32
  0
VERTEX
  8
0
  5
AFA
 10
23712.8
 20
28081.9
 30
0.000000
  70
    32
  0
VERTEX
  8
0
  5
AFB
 10
23713.8
 20
28083.3
 30
0.000000
  70
    32
  0
VERTEX
  8
0
  5
AFC
 10
23714.8
 20
28084.7
 30
0.000000
  70
    32
  0
VERTEX
  8
0
  5
AFD
 10
23715.8
 20
28086.2
 30
0.000000
  70
    32
  0
VERTEX
  8
0
  5
AFE
 10
23716.7
 20
28087.7
 30
0.000000
  70
    32
  0
SEQEND
  8
0
  5
AFF
  0
POLYLINE
  8
0
  5
B00
  66
     1
 10
0.000000
 20
0.000000
 30
0.000000
  70
     8
  0
VERTEX
  8
0
  5
B01
 10
13555.4
 20
23525.2
 30
0.000000
  70
    32
  0
VERTEX
  8
0
  5
B02
 10
13465.7
 20
23459.1
 30
0.000000
  70
    32
  0
VERTEX
  8
0
  5
B03
 10
13378.3
 20
23390.5
 30
0.000000
  70
    32
  0
VERTEX
  8
0
  5
B04
 10
13293.2
 20
23319.6
 30
0.000000
  70
    32
  0
VERTEX
  8
0
  5
B05
 10
13210.3
 20
23246.4
 30
0.000000
  70
    32
  0
VERTEX
  8
0
  5
B06
 10
13129.6
 20
23171.1
 30
0.000000
  70
    32
  0
VERTEX
  8
0
  5
B07
 10
13050.9
 20
23093.6
 30
0.000000
  70
    32
  0
VERTEX
  8
0
  5
B08
 10
12974.2
 20
23014.1
 30
0.000000
  70
    32
  0
VERTEX
  8
0
  5
B09
 10
12899.5
 20
22932.7
 30
0.000000
  70
    32
  0
VERTEX
  8
0
  5
B0A
 10
12826.7
 20
22849.4
 30
0.000000
  70
    32
  0
VERTEX
  8
0
  5
B0B
 10
12755.7
 20
22764.3
 30
0.000000
  70
    32
  0
VERTEX
  8
0
  5
B0C
 10
12686.4
 20
22677.4
 30
0.000000
  70
    32
  0
VERTEX
  8
0
  5
B0D
 10
12618.9
 20
22588.9
 30
0.000000
  70
    32
  0
VERTEX
  8
0
  5
B0E
 10
12553.0
 20
22498.8
 30
0.000000
  70
    32
  0
VERTEX
  8
0
  5
B0F
 10
12488.6
 20
22407.2
 30
0.000000
  70
    32
  0
VERTEX
  8
0
  5
B10
 10
12425.7
 20
22314.2
 30
0.000000
  70
    32
  0
VERTEX
  8
0
  5
B11
 10
12364.3
 20
22219.8
 30
0.000000
  70
    32
  0
VERTEX
  8
0
  5
B12
 10
12304.2
 20
22124.1
 30
0.000000
  70
    32
  0
VERTEX
  8
0
  5
B13
 10
12245.5
 20
22027.2
 30
0.000000
  70
    32
  0
VERTEX
  8
0
  5
B14
 10
12187.9
 20
21929.2
 30
0.000000
  70
    32
  0
VERTEX
  8
0
  5
B15
 10
12131.6
 20
21830.2
 30
0.000000
  70
    32
  0
VERTEX
  8
0
  5
B16
 10
12076.4
 20
21730.1
 30
0.000000
  70
    32
  0
VERTEX
  8
0
  5
B17
 10
12022.2
 20
21629.2
 30
0.000000
  70
    32
  0
VERTEX
  8
0
  5
B18
 10
11969.0
 20
21527.4
 30
0.000000
  70
    32
  0
VERTEX
  8
0
  5
B19
 10
11916.7
 20
21424.8
 30
0.000000
  70
    32
  0
VERTEX
  8
0
  5
B1A
 10
11865.3
 20
21321.6
 30
0.000000
  70
    32
  0
VERTEX
  8
0
  5
B1B
 10
11814.7
 20
21217.8
 30
0.000000
  70
    32
  0
VERTEX
  8
0
  5
B1C
 10
11764.8
 20
21113.4
 30
0.000000
  70
    32
  0
VERTEX
  8
0
  5
B1D
 10
11715.5
 20
21008.6
 30
0.000000
  70
    32
  0
VERTEX
  8
0
  5
B1E
 10
11666.9
 20
20903.4
 30
0.000000
  70
    32
  0
VERTEX
  8
0
  5
B1F
 10
11618.8
 20
20797.9
 30
0.000000
  70
    32
  0
VERTEX
  8
0
  5
B20
 10
11571.1
 20
20692.1
 30
0.000000
  70
    32
  0
VERTEX
  8
0
  5
B21
 10
11523.9
 20
20586.2
 30
0.000000
  70
    32
  0
VERTEX
  8
0
  5
B22
 10
11477.0
 20
20480.2
 30
0.000000
  70
    32
  0
VERTEX
  8
0
  5
B23
 10
11430.4
 20
20374.2
 30
0.000000
  70
    32
  0
VERTEX
  8
0
  5
B24
 10
11384.1
 20
20268.2
 30
0.000000
  70
    32
  0
VERTEX
  8
0
  5
B25
 10
11338.0
 20
20162.2
 30
0.000000
  70
    32
  0
VERTEX
  8
0
  5
B26
 10
11292.3
 20
20056.1
 30
0.000000
  70
    32
  0
VERTEX
  8
0
  5
B27
 10
11246.8
 20
19950.1
 30
0.000000
  70
    32
  0
VERTEX
  8
0
  5
B28
 10
11201.6
 20
19844.0
 30
0.000000
  70
    32
  0
VERTEX
  8
0
  5
B29
 10
11156.7
 20
19737.9
 30
0.000000
  70
    32
  0
VERTEX
  8
0
  5
B2A
 10
11112.0
 20
19631.8
 30
0.000000
  70
    32
  0
VERTEX
  8
0
  5
B2B
 10
11067.7
 20
19525.7
 30
0.000000
  70
    32
  0
VERTEX
  8
0
  5
B2C
 10
11023.6
 20
19419.5
 30
0.000000
  70
    32
  0
VERTEX
  8
0
  5
B2D
 10
10979.8
 20
19313.4
 30
0.000000
  70
    32
  0
VERTEX
  8
0
  5
B2E
 10
10936.3
 20
19207.2
 30
0.000000
  70
    32
  0
VERTEX
  8
0
  5
B2F
 10
10893.1
 20
19101.0
 30
0.000000
  70
    32
  0
VERTEX
  8
0
  5
B30
 10
10850.2
 20
18994.8
 30
0.000000
  70
    32
  0
VERTEX
  8
0
  5
B31
 10
10807.5
 20
18888.6
 30
0.000000
  70
    32
  0
VERTEX
  8
0
  5
B32
 10
10765.1
 20
18782.3
 30
0.000000
  70
    32
  0
VERTEX
  8
0
  5
B33
 10
10723.0
 20
18676.1
 30
0.000000
  70
    32
  0
VERTEX
  8
0
  5
B34
 10
10681.2
 20
18569.8
 30
0.000000
  70
    32
  0
VERTEX
  8
0
  5
B35
 10
10639.7
 20
18463.5
 30
0.000000
  70
    32
  0
VERTEX
  8
0
  5
B36
 10
10598.5
 20
18357.1
 30
0.000000
  70
    32
  0
VERTEX
  8
0
  5
B37
 10
10557.5
 20
18250.8
 30
0.000000
  70
    32
  0
VERTEX
  8
0
  5
B38
 10
10516.9
 20
18144.4
 30
0.000000
  70
    32
  0
VERTEX
  8
0
  5
B39
 10
10476.5
 20
18038.0
 30
0.000000
  70
    32
  0
VERTEX
  8
0
  5
B3A
 10
10436.4
 20
17931.6
 30
0.000000
  70
    32
  0
VERTEX
  8
0
  5
B3B
 10
10396.6
 20
17825.2
 30
0.000000
  70
    32
  0
VERTEX
  8
0
  5
B3C
 10
10357.1
 20
17718.7
 30
0.000000
  70
    32
  0
VERTEX
  8
0
  5
B3D
 10
10317.8
 20
17612.2
 30
0.000000
  70
    32
  0
VERTEX
  8
0
  5
B3E
 10
10278.9
 20
17505.7
 30
0.000000
  70
    32
  0
VERTEX
  8
0
  5
B3F
 10
10240.2
 20
17399.1
 30
0.000000
  70
    32
  0
VERTEX
  8
0
  5
B40
 10
10201.9
 20
17292.6
 30
0.000000
  70
    32
  0
VERTEX
  8
0
  5
B41
 10
10163.8
 20
17186.0
 30
0.000000
  70
    32
  0
VERTEX
  8
0
  5
B42
 10
10126.0
 20
17079.4
 30
0.000000
  70
    32
  0
VERTEX
  8
0
  5
B43
 10
10088.5
 20
16972.7
 30
0.000000
  70
    32
  0
VERTEX
  8
0
  5
B44
 10
10051.2
 20
16866.0
 30
0.000000
  70
    32
  0
VERTEX
  8
0
  5
B45
 10
10014.3
 20
16759.3
 30
0.000000
  70
    32
  0
VERTEX
  8
0
  5
B46
 10
9977.65
 20
16652.6
 30
0.000000
  70
    32
  0
VERTEX
  8
0
  5
B47
 10
9941.29
 20
16545.8
 30
0.000000
  70
    32
  0
VERTEX
  8
0
  5
B48
 10
9905.22
 20
16439.0
 30
0.000000
  70
    32
  0
VERTEX
  8
0
  5
B49
 10
9869.44
 20
16332.2
 30
0.000000
  70
    32
  0
VERTEX
  8
0
  5
B4A
 10
9833.95
 20
16225.4
 30
0.000000
  70
    32
  0
VERTEX
  8
0
  5
B4B
 10
9798.75
 20
16118.5
 30
0.000000
  70
    32
  0
VERTEX
  8
0
  5
B4C
 10
9763.84
 20
16011.6
 30
0.000000
  70
    32
  0
VERTEX
  8
0
  5
B4D
 10
9729.22
 20
15904.6
 30
0.000000
  70
    32
  0
VERTEX
  8
0
  5
B4E
 10
9694.89
 20
15797.6
 30
0.000000
  70
    32
  0
VERTEX
  8
0
  5
B4F
 10
9660.85
 20
15690.6
 30
0.000000
  70
    32
  0
VERTEX
  8
0
  5
B50
 10
9627.10
 20
15583.6
 30
0.000000
  70
    32
  0
VERTEX
  8
0
  5
B51
 10
9593.64
 20
15476.5
 30
0.000000
  70
    32
  0
VERTEX
  8
0
  5
B52
 10
9560.47
 20
15369.4
 30
0.000000
  70
    32
  0
VERTEX
  8
0
  5
B53
 10
9527.60
 20
15262.2
 30
0.000000
  70
    32
  0
VERTEX
  8
0
  5
B54
 10
9495.01
 20
15155.0
 30
0.000000
  70
    32
  0
VERTEX
  8
0
  5
B55
 10
9462.72
 20
15047.8
 30
0.000000
  70
    32
  0
VERTEX
  8
0
  5
B56
 10
9430.72
 20
14940.5
 30
0.000000
  70
    32
  0
VERTEX
  8
0
  5
B57
 10
9399.02
 20
14833.2
 30
0.000000
  70
    32
  0
VERTEX
  8
0
  5
B58
 10
9367.60
 20
14725.9
 30
0.000000
  70
    32
  0
VERTEX
  8
0
  5
B59
 10
9336.48
 20
14618.5
 30
0.000000
  70
    32
  0
VERTEX
  8
0
  5
B5A
 10
9305.65
 20
14511.1
 30
0.000000
  70
    32
  0
VERTEX
  8
0
  5
B5B
 10
9275.12
 20
14403.7
 30
0.000000
  70
    32
  0
VERTEX
  8
0
  5
B5C
 10
9244.88
 20
14296.2
 30
0.000000
  70
    32
  0
VERTEX
  8
0
  5
B5D
 10
9214.93
 20
14188.7
 30
0.000000
  70
    32
  0
VERTEX
  8
0
  5
B5E
 10
9185.28
 20
14081.1
 30
0.000000
  70
    32
  0
VERTEX
  8
0
  5
B5F
 10
9155.92
 20
13973.5
 30
0.000000
  70
    32
  0
VERTEX
  8
0
  5
B60
 10
9126.86
 20
13865.8
 30
0.000000
  70
    32
  0
VERTEX
  8
0
  5
B61
 10
9098.09
 20
13758.1
 30
0.000000
  70
    32
  0
VERTEX
  8
0
  5
B62
 10
9069.61
 20
13650.4
 30
0.000000
  70
    32
  0
VERTEX
  8
0
  5
B63
 10
9041.44
 20
13542.6
 30
0.000000
  70
    32
  0
VERTEX
  8
0
  5
B64
 10
9013.55
 20
13434.8
 30
0.000000
  70
    32
  0
VERTEX
  8
0
  5
B65
 10
8985.97
 20
13327.0
 30
0.000000
  70
    32
  0
VERTEX
  8
0
  5
B66
 10
8958.68
 20
13219.0
 30
0.000000
  70
    32
  0
VERTEX
  8
0
  5
B67
 10
8931.68
 20
13111.1
 30
0.000000
  70
    32
  0
VERTEX
  8
0
  5
B68
 10
8904.98
 20
13003.1
 30
0.000000
  70
    32
  0
VERTEX
  8
0
  5
B69
 10
8878.58
 20
12895.1
 30
0.000000
  70
    32
  0
VERTEX
  8
0
  5
B6A
 10
8852.48
 20
12787.0
 30
0.000000
  70
    32
  0
VERTEX
  8
0
  5
B6B
 10
8826.67
 20
12678.8
 30
0.000000
  70
    32
  0
VERTEX
  8
0
  5
B6C
 10
8801.16
 20
12570.7
 30
0.000000
  70
    32
  0
VERTEX
  8
0
  5
B6D
 10
8775.95
 20
12462.4
 30
0.000000
  70
    32
  0
VERTEX
  8
0
  5
B6E
 10
8751.03
 20
12354.2
 30
0.000000
  70
    32
  0
VERTEX
  8
0
  5
B6F
 10
8726.42
 20
12245.8
 30
0.000000
  70
    32
  0
VERTEX
  8
0
  5
B70
 10
8702.10
 20
12137.5
 30
0.000000
  70
    32
  0
VERTEX
  8
0
  5
B71
 10
8678.08
 20
12029.0
 30
0.000000
  70
    32
  0
VERTEX
  8
0
  5
B72
 10
8654.36
 20
11920.6
 30
0.000000
  70
    32
  0
VERTEX
  8
0
  5
B73
 10
8630.94
 20
11812.0
 30
0.000000
  70
    32
  0
VERTEX
  8
0
  5
B74
 10
8607.81
 20
11703.5
 30
0.000000
  70
    32
  0
VERTEX
  8
0
  5
B75
 10
8584.99
 20
11594.8
 30
0.000000
  70
    32
  0
VERTEX
  8
0
  5
B76
 10
8562.47
 20
11486.2
 30
0.000000
  70
    32
  0
VERTEX
  8
0
  5
B77
 10
8540.25
 20
11377.4
 30
0.000000
  70
    32
  0
VERTEX
  8
0
  5
B78
 10
8518.33
 20
11268.7
 30
0.000000
  70
    32
  0
VERTEX
  8
0
  5
B79
 10
8496.70
 20
11159.8
 30
0.000000
  70
    32
  0
VERTEX
  8
0
  5
B7A
 10
8475.38
 20
11050.9
 30
0.000000
  70
    32
  0
VERTEX
  8
0
  5
B7B
 10
8454.36
 20
10942.0
 30
0.000000
  70
    32
  0
VERTEX
  8
0
  5
B7C
 10
8433.64
 20
10833.0
 30
0.000000
  70
    32
  0
VERTEX
  8
0
  5
B7D
 10
8413.23
 20
10724.0
 30
0.000000
  70
    32
  0
VERTEX
  8
0
  5
B7E
 10
8393.11
 20
10614.9
 30
0.000000
  70
    32
  0
VERTEX
  8
0
  5
B7F
 10
8373.30
 20
10505.7
 30
0.000000
  70
    32
  0
VERTEX
  8
0
  5
B80
 10
8353.78
 20
10396.5
 30
0.000000
  70
    32
  0
VERTEX
  8
0
  5
B81
 10
8334.57
 20
10287.2
 30
0.000000
  70
    32
  0
VERTEX
  8
0
  5
B82
 10
8315.67
 20
10177.9
 30
0.000000
  70
    32
  0
VERTEX
  8
0
  5
B83
 10
8297.06
 20
10068.5
 30
0.000000
  70
    32
  0
VERTEX
  8
0
  5
B84
 10
8278.76
 20
9959.04
 30
0.000000
  70
    32
  0
VERTEX
  8
0
  5
B85
 10
8260.77
 20
9849.54
 30
0.000000
  70
    32
  0
VERTEX
  8
0
  5
B86
 10
8243.07
 20
9739.97
 30
0.000000
  70
    32
  0
VERTEX
  8
0
  5
B87
 10
8225.68
 20
9630.35
 30
0.000000
  70
    32
  0
VERTEX
  8
0
  5
B88
 10
8208.60
 20
9520.67
 30
0.000000
  70
    32
  0
VERTEX
  8
0
  5
B89
 10
8191.81
 20
9410.92
 30
0.000000
  70
    32
  0
VERTEX
  8
0
  5
B8A
 10
8175.34
 20
9301.12
 30
0.000000
  70
    32
  0
VERTEX
  8
0
  5
B8B
 10
8159.16
 20
9191.25
 30
0.000000
  70
    32
  0
VERTEX
  8
0
  5
B8C
 10
8143.30
 20
9081.32
 30
0.000000
  70
    32
  0
VERTEX
  8
0
  5
B8D
 10
8127.73
 20
8971.33
 30
0.000000
  70
    32
  0
VERTEX
  8
0
  5
B8E
 10
8112.48
 20
8861.27
 30
0.000000
  70
    32
  0
VERTEX
  8
0
  5
B8F
 10
8097.53
 20
8751.16
 30
0.000000
  70
    32
  0
VERTEX
  8
0
  5
B90
 10
8082.88
 20
8640.97
 30
0.000000
  70
    32
  0
VERTEX
  8
0
  5
B91
 10
8068.54
 20
8530.73
 30
0.000000
  70
    32
  0
VERTEX
  8
0
  5
B92
 10
8054.51
 20
8420.42
 30
0.000000
  70
    32
  0
VERTEX
  8
0
  5
B93
 10
8040.78
 20
8310.04
 30
0.000000
  70
    32
  0
VERTEX
  8
0
  5
B94
 10
8027.36
 20
8199.60
 30
0.000000
  70
    32
  0
VERTEX
  8
0
  5
B95
 10
8014.25
 20
8089.09
 30
0.000000
  70
    32
  0
VERTEX
  8
0
  5
B96
 10
8001.45
 20
7978.51
 30
0.000000
  70
    32
  0
VERTEX
  8
0
  5
B97
 10
7988.95
 20
7867.87
 30
0.000000
  70
    32
  0
VERTEX
  8
0
  5
B98
 10
7976.76
 20
7757.16
 30
0.000000
  70
    32
  0
VERTEX
  8
0
  5
B99
 10
7964.88
 20
7646.38
 30
0.000000
  70
    32
  0
VERTEX
  8
0
  5
B9A
 10
7953.31
 20
7535.54
 30
0.000000
  70
    32
  0
VERTEX
  8
0
  5
B9B
 10
7942.04
 20
7424.62
 30
0.000000
  70
    32
  0
VERTEX
  8
0
  5
B9C
 10
7931.08
 20
7313.64
 30
0.000000
  70
    32
  0
VERTEX
  8
0
  5
B9D
 10
7920.44
 20
7202.58
 30
0.000000
  70
    32
  0
VERTEX
  8
0
  5
B9E
 10
7910.10
 20
7091.45
 30
0.000000
  70
    32
  0
VERTEX
  8
0
  5
B9F
 10
7900.07
 20
6980.26
 30
0.000000
  70
    32
  0
VERTEX
  8
0
  5
BA0
 10
7890.35
 20
6868.99
 30
0.000000
  70
    32
  0
SEQEND
  8
0
  5
BA1
  0
POLYLINE
  8
0
  5
BA2
  66
     1
 10
0.000000
 20
0.000000
 30
0.000000
  70
     8
  0
VERTEX
  8
0
  5
BA3
 10
13192.5
 20
23985.9
 30
0.000000
  70
    32
  0
VERTEX
  8
0
  5
BA4
 10
13053.9
 20
23884.4
 30
0.000000
  70
    32
  0
VERTEX
  8
0
  5
BA5
 10
12912.1
 20
23787.5
 30
0.000000
  70
    32
  0
VERTEX
  8
0
  5
BA6
 10
12767.2
 20
23695.1
 30
0.000000
  70
    32
  0
VERTEX
  8
0
  5
BA7
 10
12619.5
 20
23607.2
 30
0.000000
  70
    32
  0
VERTEX
  8
0
  5
BA8
 10
12468.9
 20
23523.7
 30
0.000000
  70
    32
  0
VERTEX
  8
0
  5
BA9
 10
12315.7
 20
23444.6
 30
0.000000
  70
    32
  0
VERTEX
  8
0
  5
BAA
 10
12159.9
 20
23369.9
 30
0.000000
  70
    32
  0
VERTEX
  8
0
  5
BAB
 10
12001.7
 20
23299.4
 30
0.000000
  70
    32
  0
VERTEX
  8
0
  5
BAC
 10
11841.3
 20
23233.2
 30
0.000000
  70
    32
  0
VERTEX
  8
0
  5
BAD
 10
11678.6
 20
23171.3
 30
0.000000
  70
    32
  0
VERTEX
  8
0
  5
BAE
 10
11513.9
 20
23113.4
 30
0.000000
  70
    32
  0
VERTEX
  8
0
  5
BAF
 10
11347.3
 20
23059.8
 30
0.000000
  70
    32
  0
VERTEX
  8
0
  5
BB0
 10
11178.9
 20
23010.1
 30
0.000000
  70
    32
  0
VERTEX
  8
0
  5
BB1
 10
11008.8
 20
22964.6
 30
0.000000
  70
    32
  0
VERTEX
  8
0
  5
BB2
 10
10837.1
 20
22923.0
 30
0.000000
  70
    32
  0
VERTEX
  8
0
  5
BB3
 10
10664.1
 20
22885.3
 30
0.000000
  70
    32
  0
VERTEX
  8
0
  5
BB4
 10
10489.7
 20
22851.6
 30
0.000000
  70
    32
  0
VERTEX
  8
0
  5
BB5
 10
10314.1
 20
22821.7
 30
0.000000
  70
    32
  0
VERTEX
  8
0
  5
BB6
 10
10137.5
 20
22795.6
 30
0.000000
  70
    32
  0
VERTEX
  8
0
  5
BB7
 10
9959.96
 20
22773.3
 30
0.000000
  70
    32
  0
VERTEX
  8
0
  5
BB8
 10
9781.60
 20
22754.7
 30
0.000000
  70
    32
  0
VERTEX
  8
0
  5
BB9
 10
9602.57
 20
22739.8
 30
0.000000
  70
    32
  0
VERTEX
  8
0
  5
BBA
 10
9422.97
 20
22728.6
 30
0.000000
  70
    32
  0
VERTEX
  8
0
  5
BBB
 10
9242.94
 20
22720.9
 30
0.000000
  70
    32
  0
VERTEX
  8
0
  5
BBC
 10
9062.60
 20
22716.8
 30
0.000000
  70
    32
  0
VERTEX
  8
0
  5
BBD
 10
8882.07
 20
22716.1
 30
0.000000
  70
    32
  0
VERTEX
  8
0
  5
BBE
 10
8701.48
 20
22719.0
 30
0.000000
  70
    32
  0
VERTEX
  8
0
  5
BBF
 10
8520.95
 20
22725.2
 30
0.000000
  70
    32
  0
VERTEX
  8
0
  5
BC0
 10
8340.60
 20
22734.8
 30
0.000000
  70
    32
  0
VERTEX
  8
0
  5
BC1
 10
8160.56
 20
22747.8
 30
0.000000
  70
    32
  0
VERTEX
  8
0
  5
BC2
 10
7980.96
 20
22764.0
 30
0.000000
  70
    32
  0
VERTEX
  8
0
  5
BC3
 10
7801.91
 20
22783.4
 30
0.000000
  70
    32
  0
VERTEX
  8
0
  5
BC4
 10
7623.54
 20
22806.1
 30
0.000000
  70
    32
  0
VERTEX
  8
0
  5
BC5
 10
7445.97
 20
22831.9
 30
0.000000
  70
    32
  0
VERTEX
  8
0
  5
BC6
 10
7269.34
 20
22860.8
 30
0.000000
  70
    32
  0
VERTEX
  8
0
  5
BC7
 10
7093.76
 20
22892.8
 30
0.000000
  70
    32
  0
VERTEX
  8
0
  5
BC8
 10
6919.35
 20
22927.7
 30
0.000000
  70
    32
  0
VERTEX
  8
0
  5
BC9
 10
6746.24
 20
22965.7
 30
0.000000
  70
    32
  0
VERTEX
  8
0
  5
BCA
 10
6574.46
 20
23006.6
 30
0.000000
  70
    32
  0
VERTEX
  8
0
  5
BCB
 10
6403.99
 20
23050.3
 30
0.000000
  70
    32
  0
VERTEX
  8
0
  5
BCC
 10
6234.83
 20
23096.9
 30
0.000000
  70
    32
  0
VERTEX
  8
0
  5
BCD
 10
6066.95
 20
23146.2
 30
0.000000
  70
    32
  0
VERTEX
  8
0
  5
BCE
 10
5900.35
 20
23198.3
 30
0.000000
  70
    32
  0
VERTEX
  8
0
  5
BCF
 10
5735.01
 20
23253.1
 30
0.000000
  70
    32
  0
VERTEX
  8
0
  5
BD0
 10
5570.92
 20
23310.5
 30
0.000000
  70
    32
  0
VERTEX
  8
0
  5
BD1
 10
5408.06
 20
23370.5
 30
0.000000
  70
    32
  0
VERTEX
  8
0
  5
BD2
 10
5246.42
 20
23433.1
 30
0.000000
  70
    32
  0
VERTEX
  8
0
  5
BD3
 10
5085.99
 20
23498.1
 30
0.000000
  70
    32
  0
VERTEX
  8
0
  5
BD4
 10
4926.75
 20
23565.6
 30
0.000000
  70
    32
  0
VERTEX
  8
0
  5
BD5
 10
4768.69
 20
23635.5
 30
0.000000
  70
    32
  0
VERTEX
  8
0
  5
BD6
 10
4611.80
 20
23707.8
 30
0.000000
  70
    32
  0
VERTEX
  8
0
  5
BD7
 10
4456.05
 20
23782.3
 30
0.000000
  70
    32
  0
VERTEX
  8
0
  5
BD8
 10
4301.45
 20
23859.2
 30
0.000000
  70
    32
  0
VERTEX
  8
0
  5
BD9
 10
4147.97
 20
23938.2
 30
0.000000
  70
    32
  0
VERTEX
  8
0
  5
BDA
 10
3995.60
 20
24019.4
 30
0.000000
  70
    32
  0
VERTEX
  8
0
  5
BDB
 10
3844.33
 20
24102.7
 30
0.000000
  70
    32
  0
VERTEX
  8
0
  5
BDC
 10
3694.14
 20
24188.0
 30
0.000000
  70
    32
  0
VERTEX
  8
0
  5
BDD
 10
3545.03
 20
24275.4
 30
0.000000
  70
    32
  0
VERTEX
  8
0
  5
BDE
 10
3396.97
 20
24364.8
 30
0.000000
  70
    32
  0
VERTEX
  8
0
  5
BDF
 10
3249.95
 20
24456.1
 30
0.000000
  70
    32
  0
VERTEX
  8
0
  5
BE0
 10
3103.96
 20
24549.3
 30
0.000000
  70
    32
  0
VERTEX
  8
0
  5
BE1
 10
2958.98
 20
24644.3
 30
0.000000
  70
    32
  0
VERTEX
  8
0
  5
BE2
 10
2815.01
 20
24741.0
 30
0.000000
  70
    32
  0
VERTEX
  8
0
  5
BE3
 10
2672.02
 20
24839.5
 30
0.000000
  70
    32
  0
VERTEX
  8
0
  5
BE4
 10
2530.01
 20
24939.7
 30
0.000000
  70
    32
  0
VERTEX
  8
0
  5
BE5
 10
2388.96
 20
25041.6
 30
0.000000
  70
    32
  0
VERTEX
  8
0
  5
BE6
 10
2248.86
 20
25145.0
 30
0.000000
  70
    32
  0
VERTEX
  8
0
  5
BE7
 10
2109.69
 20
25250.0
 30
0.000000
  70
    32
  0
VERTEX
  8
0
  5
BE8
 10
1971.44
 20
25356.5
 30
0.000000
  70
    32
  0
VERTEX
  8
0
  5
BE9
 10
1834.09
 20
25464.4
 30
0.000000
  70
    32
  0
VERTEX
  8
0
  5
BEA
 10
1697.64
 20
25573.7
 30
0.000000
  70
    32
  0
VERTEX
  8
0
  5
BEB
 10
1562.06
 20
25684.4
 30
0.000000
  70
    32
  0
VERTEX
  8
0
  5
BEC
 10
1427.35
 20
25796.4
 30
0.000000
  70
    32
  0
VERTEX
  8
0
  5
BED
 10
1293.49
 20
25909.6
 30
0.000000
  70
    32
  0
VERTEX
  8
0
  5
BEE
 10
1160.47
 20
26024.1
 30
0.000000
  70
    32
  0
VERTEX
  8
0
  5
BEF
 10
1028.27
 20
26139.7
 30
0.000000
  70
    32
  0
VERTEX
  8
0
  5
BF0
 10
896.885
 20
26256.5
 30
0.000000
  70
    32
  0
VERTEX
  8
0
  5
BF1
 10
766.294
 20
26374.3
 30
0.000000
  70
    32
  0
VERTEX
  8
0
  5
BF2
 10
636.486
 20
26493.1
 30
0.000000
  70
    32
  0
VERTEX
  8
0
  5
BF3
 10
507.447
 20
26612.9
 30
0.000000
  70
    32
  0
VERTEX
  8
0
  5
BF4
 10
379.163
 20
26733.6
 30
0.000000
  70
    32
  0
VERTEX
  8
0
  5
BF5
 10
251.621
 20
26855.2
 30
0.000000
  70
    32
  0
VERTEX
  8
0
  5
BF6
 10
124.807
 20
26977.7
 30
0.000000
  70
    32
  0
VERTEX
  8
0
  5
BF7
 10
-1.29285
 20
27100.9
 30
0.000000
  70
    32
  0
VERTEX
  8
0
  5
BF8
 10
-126.692
 20
27224.8
 30
0.000000
  70
    32
  0
VERTEX
  8
0
  5
BF9
 10
-251.403
 20
27349.5
 30
0.000000
  70
    32
  0
VERTEX
  8
0
  5
BFA
 10
-375.442
 20
27474.8
 30
0.000000
  70
    32
  0
VERTEX
  8
0
  5
BFB
 10
-498.820
 20
27600.7
 30
0.000000
  70
    32
  0
VERTEX
  8
0
  5
BFC
 10
-621.553
 20
27727.1
 30
0.000000
  70
    32
  0
VERTEX
  8
0
  5
BFD
 10
-743.653
 20
27854.0
 30
0.000000
  70
    32
  0
VERTEX
  8
0
  5
BFE
 10
-865.135
 20
27981.4
 30
0.000000
  70
    32
  0
VERTEX
  8
0
  5
BFF
 10
-986.011
 20
28109.1
 30
0.000000
  70
    32
  0
VERTEX
  8
0
  5
C00
 10
-1106.30
 20
28237.3
 30
0.000000
  70
    32
  0
VERTEX
  8
0
  5
C01
 10
-1226.00
 20
28365.7
 30
0.000000
  70
    32
  0
VERTEX
  8
0
  5
C02
 10
-1345.13
 20
28494.5
 30
0.000000
  70
    32
  0
VERTEX
  8
0
  5
C03
 10
-1463.68
 20
28623.6
 30
0.000000
  70
    32
  0
VERTEX
  8
0
  5
C04
 10
-1581.66
 20
28753.1
 30
0.000000
  70
    32
  0
VERTEX
  8
0
  5
C05
 10
-1699.08
 20
28882.8
 30
0.000000
  70
    32
  0
VERTEX
  8
0
  5
C06
 10
-1815.94
 20
29012.9
 30
0.000000
  70
    32
  0
VERTEX
  8
0
  5
C07
 10
-1932.25
 20
29143.2
 30
0.000000
  70
    32
  0
VERTEX
  8
0
  5
C08
 10
-2048.01
 20
29273.9
 30
0.000000
  70
    32
  0
VERTEX
  8
0
  5
C09
 10
-2163.21
 20
29404.9
 30
0.000000
  70
    32
  0
VERTEX
  8
0
  5
C0A
 10
-2277.88
 20
29536.2
 30
0.000000
  70
    32
  0
VERTEX
  8
0
  5
C0B
 10
-2392.01
 20
29667.8
 30
0.000000
  70
    32
  0
VERTEX
  8
0
  5
C0C
 10
-2505.61
 20
29799.7
 30
0.000000
  70
    32
  0
VERTEX
  8
0
  5
C0D
 10
-2618.67
 20
29931.9
 30
0.000000
  70
    32
  0
VERTEX
  8
0
  5
C0E
 10
-2731.22
 20
30064.4
 30
0.000000
  70
    32
  0
VERTEX
  8
0
  5
C0F
 10
-2843.24
 20
30197.2
 30
0.000000
  70
    32
  0
VERTEX
  8
0
  5
C10
 10
-2954.74
 20
30330.3
 30
0.000000
  70
    32
  0
VERTEX
  8
0
  5
C11
 10
-3065.74
 20
30463.7
 30
0.000000
  70
    32
  0
VERTEX
  8
0
  5
C12
 10
-3176.23
 20
30597.4
 30
0.000000
  70
    32
  0
VERTEX
  8
0
  5
C13
 10
-3286.21
 20
30731.4
 30
0.000000
  70
    32
  0
VERTEX
  8
0
  5
C14
 10
-3395.70
 20
30865.6
 30
0.000000
  70
    32
  0
VERTEX
  8
0
  5
C15
 10
-3504.69
 20
31000.1
 30
0.000000
  70
    32
  0
VERTEX
  8
0
  5
C16
 10
-3613.20
 20
31135.0
 30
0.000000
  70
    32
  0
VERTEX
  8
0
  5
C17
 10
-3721.22
 20
31270.0
 30
0.000000
  70
    32
  0
VERTEX
  8
0
  5
C18
 10
-3828.76
 20
31405.4
 30
0.000000
  70
    32
  0
VERTEX
  8
0
  5
C19
 10
-3935.82
 20
31541.1
 30
0.000000
  70
    32
  0
VERTEX
  8
0
  5
C1A
 10
-4042.41
 20
31677.0
 30
0.000000
  70
    32
  0
VERTEX
  8
0
  5
C1B
 10
-4148.53
 20
31813.2
 30
0.000000
  70
    32
  0
VERTEX
  8
0
  5
C1C
 10
-4254.19
 20
31949.6
 30
0.000000
  70
    32
  0
VERTEX
  8
0
  5
C1D
 10
-4359.40
 20
32086.3
 30
0.000000
  70
    32
  0
VERTEX
  8
0
  5
C1E
 10
-4464.14
 20
32223.3
 30
0.000000
  70
    32
  0
VERTEX
  8
0
  5
C1F
 10
-4568.44
 20
32360.6
 30
0.000000
  70
    32
  0
VERTEX
  8
0
  5
C20
 10
-4672.29
 20
32498.1
 30
0.000000
  70
    32
  0
VERTEX
  8
0
  5
C21
 10
-4775.70
 20
32635.9
 30
0.000000
  70
    32
  0
VERTEX
  8
0
  5
C22
 10
-4878.68
 20
32773.9
 30
0.000000
  70
    32
  0
VERTEX
  8
0
  5
C23
 10
-4981.22
 20
32912.1
 30
0.000000
  70
    32
  0
VERTEX
  8
0
  5
C24
 10
-5083.33
 20
33050.7
 30
0.000000
  70
    32
  0
VERTEX
  8
0
  5
C25
 10
-5185.02
 20
33189.4
 30
0.000000
  70
    32
  0
VERTEX
  8
0
  5
C26
 10
-5286.29
 20
33328.5
 30
0.000000
  70
    32
  0
VERTEX
  8
0
  5
C27
 10
-5387.15
 20
33467.7
 30
0.000000
  70
    32
  0
VERTEX
  8
0
  5
C28
 10
-5487.60
 20
33607.2
 30
0.000000
  70
    32
  0
VERTEX
  8
0
  5
C29
 10
-5587.64
 20
33747.0
 30
0.000000
  70
    32
  0
VERTEX
  8
0
  5
C2A
 10
-5687.27
 20
33887.0
 30
0.000000
  70
    32
  0
VERTEX
  8
0
  5
C2B
 10
-5786.52
 20
34027.2
 30
0.000000
  70
    32
  0
VERTEX
  8
0
  5
C2C
 10
-5885.36
 20
34167.6
 30
0.000000
  70
    32
  0
VERTEX
  8
0
  5
C2D
 10
-5983.82
 20
34308.3
 30
0.000000
  70
    32
  0
VERTEX
  8
0
  5
C2E
 10
-6081.90
 20
34449.2
 30
0.000000
  70
    32
  0
VERTEX
  8
0
  5
C2F
 10
-6179.60
 20
34590.4
 30
0.000000
  70
    32
  0
VERTEX
  8
0
  5
C30
 10
-6276.92
 20
34731.7
 30
0.000000
  70
    32
  0
VERTEX
  8
0
  5
C31
 10
-6373.87
 20
34873.3
 30
0.000000
  70
    32
  0
VERTEX
  8
0
  5
C32
 10
-6470.45
 20
35015.1
 30
0.000000
  70
    32
  0
VERTEX
  8
0
  5
C33
 10
-6566.67
 20
35157.2
 30
0.000000
  70
    32
  0
VERTEX
  8
0
  5
C34
 10
-6662.53
 20
35299.4
 30
0.000000
  70
    32
  0
VERTEX
  8
0
  5
C35
 10
-6758.04
 20
35441.9
 30
0.000000
  70
    32
  0
VERTEX
  8
0
  5
C36
 10
-6853.21
 20
35584.5
 30
0.000000
  70
    32
  0
VERTEX
  8
0
  5
C37
 10
-6948.02
 20
35727.4
 30
0.000000
  70
    32
  0
VERTEX
  8
0
  5
C38
 10
-7042.50
 20
35870.5
 30
0.000000
  70
    32
  0
VERTEX
  8
0
  5
C39
 10
-7136.64
 20
36013.8
 30
0.000000
  70
    32
  0
VERTEX
  8
0
  5
C3A
 10
-7230.45
 20
36157.3
 30
0.000000
  70
    32
  0
VERTEX
  8
0
  5
C3B
 10
-7323.93
 20
36301.0
 30
0.000000
  70
    32
  0
VERTEX
  8
0
  5
C3C
 10
-7417.09
 20
36444.9
 30
0.000000
  70
    32
  0
VERTEX
  8
0
  5
C3D
 10
-7509.93
 20
36589.0
 30
0.000000
  70
    32
  0
VERTEX
  8
0
  5
C3E
 10
-7602.46
 20
36733.3
 30
0.000000
  70
    32
  0
VERTEX
  8
0
  5
C3F
 10
-7694.68
 20
36877.7
 30
0.000000
  70
    32
  0
VERTEX
  8
0
  5
C40
 10
-7786.59
 20
37022.4
 30
0.000000
  70
    32
  0
VERTEX
  8
0
  5
C41
 10
-7878.20
 20
37167.3
 30
0.000000
  70
    32
  0
VERTEX
  8
0
  5
C42
 10
-7969.52
 20
37312.3
 30
0.000000
  70
    32
  0
VERTEX
  8
0
  5
C43
 10
-8060.54
 20
37457.5
 30
0.000000
  70
    32
  0
VERTEX
  8
0
  5
C44
 10
-8151.28
 20
37603.0
 30
0.000000
  70
    32
  0
VERTEX
  8
0
  5
C45
 10
-8241.74
 20
37748.5
 30
0.000000
  70
    32
  0
VERTEX
  8
0
  5
C46
 10
-8331.91
 20
37894.3
 30
0.000000
  70
    32
  0
VERTEX
  8
0
  5
C47
 10
-8421.81
 20
38040.3
 30
0.000000
  70
    32
  0
VERTEX
  8
0
  5
C48
 10
-8511.44
 20
38186.4
 30
0.000000
  70
    32
  0
VERTEX
  8
0
  5
C49
 10
-8600.81
 20
38332.7
 30
0.000000
  70
    32
  0
VERTEX
  8
0
  5
C4A
 10
-8689.91
 20
38479.1
 30
0.000000
  70
    32
  0
VERTEX
  8
0
  5
C4B
 10
-8778.76
 20
38625.7
 30
0.000000
  70
    32
  0
VERTEX
  8
0
  5
C4C
 10
-8867.35
 20
38772.5
 30
0.000000
  70
    32
  0
VERTEX
  8
0
  5
C4D
 10
-8955.70
 20
38919.5
 30
0.000000
  70
    32
  0
VERTEX
  8
0
  5
C4E
 10
-9043.80
 20
39066.6
 30
0.000000
  70
    32
  0
VERTEX
  8
0
  5
C4F
 10
-9131.67
 20
39213.8
 30
0.000000
  70
    32
  0
VERTEX
  8
0
  5
C50
 10
-9219.29
 20
39361.3
 30
0.000000
  70
    32
  0
VERTEX
  8
0
  5
C51
 10
-9306.69
 20
39508.9
 30
0.000000
  70
    32
  0
VERTEX
  8
0
  5
C52
 10
-9393.87
 20
39656.6
 30
0.000000
  70
    32
  0
VERTEX
  8
0
  5
C53
 10
-9480.82
 20
39804.5
 30
0.000000
  70
    32
  0
VERTEX
  8
0
  5
C54
 10
-9567.55
 20
39952.5
 30
0.000000
  70
    32
  0
VERTEX
  8
0
  5
C55
 10
-9654.07
 20
40100.7
 30
0.000000
  70
    32
  0
VERTEX
  8
0
  5
C56
 10
-9740.38
 20
40249.0
 30
0.000000
  70
    32
  0
VERTEX
  8
0
  5
C57
 10
-9826.49
 20
40397.4
 30
0.000000
  70
    32
  0
VERTEX
  8
0
  5
C58
 10
-9912.40
 20
40546.0
 30
0.000000
  70
    32
  0
VERTEX
  8
0
  5
C59
 10
-9998.11
 20
40694.7
 30
0.000000
  70
    32
  0
VERTEX
  8
0
  5
C5A
 10
-10083.6
 20
40843.6
 30
0.000000
  70
    32
  0
VERTEX
  8
0
  5
C5B
 10
-10169.0
 20
40992.6
 30
0.000000
  70
    32
  0
VERTEX
  8
0
  5
C5C
 10
-10254.1
 20
41141.7
 30
0.000000
  70
    32
  0
VERTEX
  8
0
  5
C5D
 10
-10339.1
 20
41291.0
 30
0.000000
  70
    32
  0
VERTEX
  8
0
  5
C5E
 10
-10423.9
 20
41440.4
 30
0.000000
  70
    32
  0
VERTEX
  8
0
  5
C5F
 10
-10508.5
 20
41589.9
 30
0.000000
  70
    32
  0
VERTEX
  8
0
  5
C60
 10
-10593.0
 20
41739.5
 30
0.000000
  70
    32
  0
VERTEX
  8
0
  5
C61
 10
-10677.3
 20
41889.2
 30
0.000000
  70
    32
  0
VERTEX
  8
0
  5
C62
 10
-10761.5
 20
42039.1
 30
0.000000
  70
    32
  0
SEQEND
  8
0
  5
C63
  0
TEXT
  8
0
  40
200
  5
C64
  72
0
  71
0
 10
12357.3
 20
23554.2
 30
0.000000
  1
15" Crude
  0
TEXT
  8
0
  40
200
  5
C65
  72
0
  71
0
 10
13290.8
 20
22921.6
 30
0.000000
  1
10"Natural Gas
  0
ENDSEC
  0
EOF
