  0
SECTION
  2
HEADER
  9
$ACADVER
  1
AC1009
  9
$INSBASE
 10
0.0
 20
0.0
 30
0.0
  9
$EXTMIN
 10
4070.140956
 20
16607.10093
 30
0.0
  9
$EXTMAX
 10
56009.882878
 20
50269.532728
 30
0.0
  9
$LIMMIN
 10
0.0
 20
0.0
  9
$LIMMAX
 10
12.0
 20
9.0
  9
$ORTHOMODE
 70
     0
  9
$REGENMODE
 70
     1
  9
$FILLMODE
 70
     1
  9
$QTEXTMODE
 70
     0
  9
$MIRRTEXT
 70
     1
  9
$DRAGMODE
 70
     2
  9
$LTSCALE
 40
1.0
  9
$OSMODE
 70
     0
  9
$ATTMODE
 70
     1
  9
$TEXTSIZE
 40
200.0
  9
$TRACEWID
 40
0.05
  9
$TEXTSTYLE
  7
STANDARD
  9
$CLAYER
  8
0
  9
$CELTYPE
  6
BYLAYER
  9
$CECOLOR
 62
   256
  9
$DIMSCALE
 40
1.0
  9
$DIMASZ
 40
0.18
  9
$DIMEXO
 40
0.0625
  9
$DIMDLI
 40
0.38
  9
$DIMRND
 40
0.0
  9
$DIMDLE
 40
0.0
  9
$DIMEXE
 40
0.18
  9
$DIMTP
 40
0.0
  9
$DIMTM
 40
0.0
  9
$DIMTXT
 40
0.18
  9
$DIMCEN
 40
0.09
  9
$DIMTSZ
 40
0.0
  9
$DIMTOL
 70
     0
  9
$DIMLIM
 70
     0
  9
$DIMTIH
 70
     1
  9
$DIMTOH
 70
     1
  9
$DIMSE1
 70
     0
  9
$DIMSE2
 70
     0
  9
$DIMTAD
 70
     0
  9
$DIMZIN
 70
     0
  9
$DIMBLK
  1

  9
$DIMASO
 70
     1
  9
$DIMSHO
 70
     1
  9
$DIMPOST
  1

  9
$DIMAPOST
  1

  9
$DIMALT
 70
     0
  9
$DIMALTD
 70
     2
  9
$DIMALTF
 40
25.4
  9
$DIMLFAC
 40
1.0
  9
$DIMTOFL
 70
     0
  9
$DIMTVP
 40
0.0
  9
$DIMTIX
 70
     0
  9
$DIMSOXD
 70
     0
  9
$DIMSAH
 70
     0
  9
$DIMBLK1
  1

  9
$DIMBLK2
  1

  9
$DIMSTYLE
  2
*UNNAMED
  9
$DIMCLRD
 70
     0
  9
$DIMCLRE
 70
     0
  9
$DIMCLRT
 70
     0
  9
$DIMTFAC
 40
1.0
  9
$DIMGAP
 40
0.09
  9
$LUNITS
 70
     2
  9
$LUPREC
 70
     4
  9
$SKETCHINC
 40
0.1
  9
$FILLETRAD
 40
0.0
  9
$AUNITS
 70
     0
  9
$AUPREC
 70
     0
  9
$MENU
  1
acad
  9
$ELEVATION
 40
0.0
  9
$PELEVATION
 40
0.0
  9
$THICKNESS
 40
0.0
  9
$LIMCHECK
 70
     0
  9
$BLIPMODE
 70
     0
  9
$CHAMFERA
 40
0.0
  9
$CHAMFERB
 40
0.0
  9
$SKPOLY
 70
     0
  9
$TDCREATE
 40
2450326.963131828
  9
$TDUPDATE
 40
2450326.963131828
  9
$TDINDWG
 40
0.0000000000
  9
$TDUSRTIMER
 40
0.0000000000
  9
$USRTIMER
 70
     1
  9
$ANGBASE
 50
0.0
  9
$ANGDIR
 70
     0
  9
$PDMODE
 70
     0
  9
$PDSIZE
 40
0.0
  9
$PLINEWID
 40
0.0
  9
$COORDS
 70
     1
  9
$SPLFRAME
 70
     0
  9
$SPLINETYPE
 70
     6
  9
$SPLINESEGS
 70
     8
  9
$ATTDIA
 70
     0
  9
$ATTREQ
 70
     1
  9
$HANDLING
 70
     0
  9
$HANDSEED
  5
0
  9
$SURFTAB1
 70
     6
  9
$SURFTAB2
 70
     6
  9
$SURFTYPE
 70
     6
  9
$SURFU
 70
     6
  9
$SURFV
 70
     6
  9
$UCSNAME
  2

  9
$UCSORG
 10
0.0
 20
0.0
 30
0.0
  9
$UCSXDIR
 10
1.0
 20
0.0
 30
0.0
  9
$UCSYDIR
 10
0.0
 20
1.0
 30
0.0
  9
$PUCSNAME
  2

  9
$PUCSORG
 10
0.0
 20
0.0
 30
0.0
  9
$PUCSXDIR
 10
1.0
 20
0.0
 30
0.0
  9
$PUCSYDIR
 10
0.0
 20
1.0
 30
0.0
  9
$USERI1
 70
     0
  9
$USERI2
 70
     0
  9
$USERI3
 70
     0
  9
$USERI4
 70
     0
  9
$USERI5
 70
     0
  9
$USERR1
 40
0.0
  9
$USERR2
 40
0.0
  9
$USERR3
 40
0.0
  9
$USERR4
 40
0.0
  9
$USERR5
 40
0.0
  9
$WORLDVIEW
 70
     1
  9
$SHADEDGE
 70
     3
  9
$SHADEDIF
 70
    70
  9
$TILEMODE
 70
     1
  9
$MAXACTVP
 70
    16
  9
$PINSBASE
 10
0.0
 20
0.0
 30
0.0
  9
$PLIMCHECK
 70
     0
  9
$PEXTMIN
 10
1.000000E+20
 20
1.000000E+20
 30
1.000000E+20
  9
$PEXTMAX
 10
-1.000000E+20
 20
-1.000000E+20
 30
-1.000000E+20
  9
$PLIMMIN
 10
0.0
 20
0.0
  9
$PLIMMAX
 10
12.0
 20
9.0
  9
$UNITMODE
 70
     0
  9
$VISRETAIN
 70
     0
  9
$PLINEGEN
 70
     0
  9
$PSLTSCALE
 70
     1
  9
$TREEDEPTH
 70
  3020
  9
$DWGCODEPAGE
  3
ascii
  0
ENDSEC
  0
SECTION
  2
TABLES
  0
TABLE
  2
VPORT
 70
     2
  0
VPORT
  2
*ACTIVE
 70
     0
 10
0.0
 20
0.0
 11
1.0
 21
1.0
 12
30619.49785
 22
34831.762027
 13
0.0
 23
0.0
 14
1.0
 24
1.0
 15
0.0
 25
0.0
 16
0.0
 26
0.0
 36
1.0
 17
0.0
 27
0.0
 37
0.0
 40
50357.109651
 41
1.387409
 42
50.0
 43
0.0
 44
0.0
 50
0.0
 51
0.0
 71
     0
 72
   100
 73
     1
 74
     1
 75
     0
 76
     0
 77
     0
 78
     0
  0
ENDTAB
  0
TABLE
  2
LTYPE
 70
     1
  0
LTYPE
  2
CONTINUOUS
 70
    64
  3
Solid line
 72
    65
 73
     0
 40
0.0
  0
ENDTAB
  0
TABLE
  2
LAYER
 70
     1
  0
LAYER
  2
0
 70
    64
 62
     7
  6
CONTINUOUS
  0
ENDTAB
  0
TABLE
  2
STYLE
 70
     1
  0
STYLE
  2
STANDARD
 70
    64
 40
0.0
 41
1.0
 50
0.0
 71
     0
 42
200.0
  3
txt
  4

  0
ENDTAB
  0
TABLE
  2
VIEW
 70
     0
  0
ENDTAB
  0
TABLE
  2
UCS
 70
     0
  0
ENDTAB
  0
TABLE
  2
APPID
 70
     1
  0
APPID
  2
ACAD
 70
    64
  0
ENDTAB
  0
TABLE
  2
DIMSTYLE
 70
     0
  0
ENDTAB
  0
ENDSEC
  0
SECTION
  2
BLOCKS
  0
ENDSEC
  0
SECTION
  2
ENTITIES
  0
LINE
  8
0
 10
48767.036004
 20
45006.33908
 30
0.0
 11
48672.959254
 21
44988.472114
 31
0.0
  0
LINE
  8
0
 10
48672.959254
 20
44988.472114
 30
0.0
 11
48657.778553
 21
44805.242508
 31
0.0
  0
LINE
  8
0
 10
48657.778553
 20
44805.242508
 30
0.0
 11
48493.881435
 21
44526.497801
 31
0.0
  0
LINE
  8
0
 10
48493.881435
 20
44526.497801
 30
0.0
 11
48375.718381
 21
44334.299283
 31
0.0
  0
LINE
  8
0
 10
48375.718381
 20
44334.299283
 30
0.0
 11
48417.76255
 21
44124.380364
 31
0.0
  0
LINE
  8
0
 10
48417.76255
 20
44124.380364
 30
0.0
 11
48467.38575
 21
44034.070185
 31
0.0
  0
LINE
  8
0
 10
48467.38575
 20
44034.070185
 30
0.0
 11
48565.324679
 21
43939.971568
 31
0.0
  0
LINE
  8
0
 10
48565.324679
 20
43939.971568
 30
0.0
 11
48683.609788
 21
43836.978599
 31
0.0
  0
LINE
  8
0
 10
48683.609788
 20
43836.978599
 30
0.0
 11
48850.205576
 21
43740.376729
 31
0.0
  0
LINE
  8
0
 10
48850.205576
 20
43740.376729
 30
0.0
 11
48856.567416
 21
43728.929083
 31
0.0
  0
LINE
  8
0
 10
48856.567416
 20
43728.929083
 30
0.0
 11
49386.708587
 21
43805.587912
 31
0.0
  0
LINE
  8
0
 10
49386.708587
 20
43805.587912
 30
0.0
 11
49435.024925
 21
43796.710131
 31
0.0
  0
LINE
  8
0
 10
49435.024925
 20
43796.710131
 30
0.0
 11
49466.798744
 21
43822.176397
 31
0.0
  0
LINE
  8
0
 10
49466.798744
 20
43822.176397
 30
0.0
 11
49485.849598
 21
43869.265257
 31
0.0
  0
LINE
  8
0
 10
49485.849598
 20
43869.265257
 30
0.0
 11
49559.559958
 21
43939.28902
 31
0.0
  0
LINE
  8
0
 10
49559.559958
 20
43939.28902
 30
0.0
 11
49456.397618
 21
44368.013346
 31
0.0
  0
LINE
  8
0
 10
49456.397618
 20
44368.013346
 30
0.0
 11
49349.536977
 21
44521.906183
 31
0.0
  0
LINE
  8
0
 10
49349.536977
 20
44521.906183
 30
0.0
 11
49240.158465
 21
44615.997082
 31
0.0
  0
LINE
  8
0
 10
49240.158465
 20
44615.997082
 30
0.0
 11
49160.054667
 21
44631.218935
 31
0.0
  0
LINE
  8
0
 10
49160.054667
 20
44631.218935
 30
0.0
 11
49001.081569
 21
44748.184124
 31
0.0
  0
LINE
  8
0
 10
49001.081569
 20
44748.184124
 30
0.0
 11
48955.310211
 21
44750.702418
 31
0.0
  0
LINE
  8
0
 10
48955.310211
 20
44750.702418
 30
0.0
 11
48851.056412
 21
44748.09749
 31
0.0
  0
LINE
  8
0
 10
48851.056412
 20
44748.09749
 30
0.0
 11
48786.172853
 21
44848.576934
 31
0.0
  0
LINE
  8
0
 10
48786.172853
 20
44848.576934
 30
0.0
 11
48769.58889
 21
44982.165645
 31
0.0
  0
LINE
  8
0
 10
48769.58889
 20
44982.165645
 30
0.0
 11
48683.131062
 21
44987.205575
 31
0.0
  0
LINE
  8
0
 10
48683.131062
 20
44987.205575
 30
0.0
 11
48655.178562
 21
44942.656743
 31
0.0
  0
LINE
  8
0
 10
48655.178562
 20
44942.656743
 30
0.0
 11
48662.868967
 21
44793.794121
 31
0.0
  0
LINE
  8
0
 10
49789.1354
 20
45219.404197
 30
0.0
 11
49737.035746
 21
45158.302484
 31
0.0
  0
LINE
  8
0
 10
49737.035746
 20
45158.302484
 30
0.0
 11
49735.823114
 21
45019.617025
 31
0.0
  0
LINE
  8
0
 10
49735.823114
 20
45019.617025
 30
0.0
 11
49784.325502
 21
44569.235968
 31
0.0
  0
LINE
  8
0
 10
49784.325502
 20
44569.235968
 30
0.0
 11
49928.139401
 21
44214.335337
 31
0.0
  0
LINE
  8
0
 10
49928.139401
 20
44214.335337
 30
0.0
 11
50036.340196
 21
43895.039612
 31
0.0
  0
LINE
  8
0
 10
50036.340196
 20
43895.039612
 30
0.0
 11
49941.087537
 21
43662.142028
 31
0.0
  0
LINE
  8
0
 10
49941.087537
 20
43662.142028
 30
0.0
 11
49646.308137
 21
43242.084055
 31
0.0
  0
LINE
  8
0
 10
49646.308137
 20
43242.084055
 30
0.0
 11
49720.093682
 21
43133.977301
 31
0.0
  0
LINE
  8
0
 10
49720.093682
 20
43133.977301
 30
0.0
 11
49837.146735
 21
42929.196886
 31
0.0
  0
LINE
  8
0
 10
49837.146735
 20
42929.196886
 30
0.0
 11
49889.278806
 21
42915.232757
 31
0.0
  0
LINE
  8
0
 10
49889.278806
 20
42915.232757
 30
0.0
 11
50160.133517
 21
42786.889899
 31
0.0
  0
LINE
  8
0
 10
50160.133517
 20
42786.889899
 30
0.0
 11
50231.358111
 21
42719.498364
 31
0.0
  0
LINE
  8
0
 10
50231.358111
 20
42719.498364
 30
0.0
 11
50293.657574
 21
42711.902618
 31
0.0
  0
LINE
  8
0
 10
50293.657574
 20
42711.902618
 30
0.0
 11
50416.975462
 21
42718.340542
 31
0.0
  0
LINE
  8
0
 10
50416.975462
 20
42718.340542
 30
0.0
 11
50420.818907
 21
42649.635345
 31
0.0
  0
LINE
  8
0
 10
50420.818907
 20
42649.635345
 30
0.0
 11
50537.837391
 21
42521.199232
 31
0.0
  0
LINE
  8
0
 10
50537.837391
 20
42521.199232
 30
0.0
 11
50694.366459
 21
42161.218099
 31
0.0
  0
LINE
  8
0
 10
50694.366459
 20
42161.218099
 30
0.0
 11
50779.609829
 21
42012.40505
 31
0.0
  0
LINE
  8
0
 10
50779.609829
 20
42012.40505
 30
0.0
 11
50736.42777
 21
41911.860801
 31
0.0
  0
LINE
  8
0
 10
50736.42777
 20
41911.860801
 30
0.0
 11
50825.46106
 21
41819.034379
 31
0.0
  0
LINE
  8
0
 10
50825.46106
 20
41819.034379
 30
0.0
 11
50919.537184
 21
41824.183545
 31
0.0
  0
LINE
  8
0
 10
50919.537184
 20
41824.183545
 30
0.0
 11
51040.281537
 21
41896.784764
 31
0.0
  0
LINE
  8
0
 10
51040.281537
 20
41896.784764
 30
0.0
 11
51237.350776
 21
41861.283563
 31
0.0
  0
LINE
  8
0
 10
51237.350776
 20
41861.283563
 30
0.0
 11
51243.733266
 21
41801.486835
 31
0.0
  0
LINE
  8
0
 10
51243.733266
 20
41801.486835
 30
0.0
 11
51012.374078
 21
41754.262471
 31
0.0
  0
LINE
  8
0
 10
51012.374078
 20
41754.262471
 30
0.0
 11
51112.890405
 21
41564.744285
 31
0.0
  0
LINE
  8
0
 10
51112.890405
 20
41564.744285
 30
0.0
 11
51354.583615
 21
41234.084842
 31
0.0
  0
LINE
  8
0
 10
51354.583615
 20
41234.084842
 30
0.0
 11
51489.421888
 21
41050.951711
 31
0.0
  0
LINE
  8
0
 10
51489.421888
 20
41050.951711
 30
0.0
 11
51601.358625
 21
40908.519788
 31
0.0
  0
LINE
  8
0
 10
51601.358625
 20
40908.519788
 30
0.0
 11
51855.766239
 21
40568.965441
 31
0.0
  0
LINE
  8
0
 10
51855.766239
 20
40568.965441
 30
0.0
 11
51971.521548
 21
40413.813537
 31
0.0
  0
LINE
  8
0
 10
51971.521548
 20
40413.813537
 30
0.0
 11
52101.273545
 21
40229.406956
 31
0.0
  0
LINE
  8
0
 10
52101.273545
 20
40229.406956
 30
0.0
 11
52269.105719
 21
40176.079565
 31
0.0
  0
LINE
  8
0
 10
52269.105719
 20
40176.079565
 30
0.0
 11
52448.323189
 21
40247.450952
 31
0.0
  0
LINE
  8
0
 10
52448.323189
 20
40247.450952
 30
0.0
 11
52716.493017
 21
40395.221598
 31
0.0
  0
LINE
  8
0
 10
52716.493017
 20
40395.221598
 30
0.0
 11
52660.542174
 21
40430.810235
 31
0.0
  0
LINE
  8
0
 10
52660.542174
 20
40430.810235
 30
0.0
 11
52643.954966
 21
40568.212563
 31
0.0
  0
LINE
  8
0
 10
52643.954966
 20
40568.212563
 30
0.0
 11
52665.526733
 21
40657.290783
 31
0.0
  0
LINE
  8
0
 10
52665.526733
 20
40657.290783
 30
0.0
 11
52765.909493
 21
40760.416206
 31
0.0
  0
LINE
  8
0
 10
52765.909493
 20
40760.416206
 30
0.0
 11
53007.386841
 21
40890.352186
 31
0.0
  0
LINE
  8
0
 10
53007.386841
 20
40890.352186
 30
0.0
 11
53298.453741
 21
40987.238628
 31
0.0
  0
LINE
  8
0
 10
53298.453741
 20
40987.238628
 30
0.0
 11
53567.90024
 21
41098.105245
 31
0.0
  0
LINE
  8
0
 10
53567.90024
 20
41098.105245
 30
0.0
 11
53858.943317
 21
41231.885941
 31
0.0
  0
LINE
  8
0
 10
53858.943317
 20
41231.885941
 30
0.0
 11
54216.085042
 21
41361.890537
 31
0.0
  0
LINE
  8
0
 10
54216.085042
 20
41361.890537
 30
0.0
 11
54512.213524
 21
41475.314314
 31
0.0
  0
LINE
  8
0
 10
54512.213524
 20
41475.314314
 30
0.0
 11
54707.972369
 21
41470.350767
 31
0.0
  0
LINE
  8
0
 10
54707.972369
 20
41470.350767
 30
0.0
 11
54752.482667
 21
41425.849643
 31
0.0
  0
LINE
  8
0
 10
54752.482667
 20
41425.849643
 30
0.0
 11
54922.879629
 21
41284.736702
 31
0.0
  0
LINE
  8
0
 10
54922.879629
 20
41284.736702
 30
0.0
 11
54924.167698
 21
41247.841546
 31
0.0
  0
LINE
  8
0
 10
54924.167698
 20
41247.841546
 30
0.0
 11
54982.640316
 21
41246.607036
 31
0.0
  0
LINE
  8
0
 10
54982.640316
 20
41246.607036
 30
0.0
 11
55151.665437
 21
41321.780103
 31
0.0
  0
LINE
  8
0
 10
55151.665437
 20
41321.780103
 30
0.0
 11
55178.333749
 21
41376.504797
 31
0.0
  0
LINE
  8
0
 10
55178.333749
 20
41376.504797
 30
0.0
 11
55305.422415
 21
41426.204838
 31
0.0
  0
LINE
  8
0
 10
55305.422415
 20
41426.204838
 30
0.0
 11
55417.249447
 21
41492.434182
 31
0.0
  0
LINE
  8
0
 10
55417.249447
 20
41492.434182
 30
0.0
 11
55461.731643
 21
41506.457537
 31
0.0
  0
LINE
  8
0
 10
55461.731643
 20
41506.457537
 30
0.0
 11
55478.225954
 21
41571.353208
 31
0.0
  0
LINE
  8
0
 10
55478.225954
 20
41571.353208
 30
0.0
 11
55515.024264
 21
41708.780196
 31
0.0
  0
LINE
  8
0
 10
55515.024264
 20
41708.780196
 30
0.0
 11
55556.864389
 21
41937.811834
 31
0.0
  0
LINE
  8
0
 10
55556.864389
 20
41937.811834
 30
0.0
 11
55606.347379
 21
42131.224372
 31
0.0
  0
LINE
  8
0
 10
55606.347379
 20
42131.224372
 30
0.0
 11
55657.102409
 21
42322.09234
 31
0.0
  0
LINE
  8
0
 10
55657.102409
 20
42322.09234
 30
0.0
 11
55705.297906
 21
42549.852621
 31
0.0
  0
LINE
  8
0
 10
55705.297906
 20
42549.852621
 30
0.0
 11
55761.130272
 21
42754.716355
 31
0.0
  0
LINE
  8
0
 10
55761.130272
 20
42754.716355
 30
0.0
 11
55806.805605
 21
42934.128362
 31
0.0
  0
LINE
  8
0
 10
55806.805605
 20
42934.128362
 30
0.0
 11
55848.659836
 21
43130.076138
 31
0.0
  0
LINE
  8
0
 10
55848.659836
 20
43130.076138
 30
0.0
 11
55797.808691
 21
43147.856257
 31
0.0
  0
LINE
  8
0
 10
55797.808691
 20
43147.856257
 30
0.0
 11
55792.69837
 21
43203.830846
 31
0.0
  0
LINE
  8
0
 10
55792.69837
 20
43203.830846
 30
0.0
 11
55915.947649
 21
43299.321947
 31
0.0
  0
LINE
  8
0
 10
55915.947649
 20
43299.321947
 30
0.0
 11
55995.95938
 21
43439.313742
 31
0.0
  0
LINE
  8
0
 10
55995.95938
 20
43439.313742
 30
0.0
 11
56009.882878
 21
43563.998656
 31
0.0
  0
LINE
  8
0
 10
56009.882878
 20
43563.998656
 30
0.0
 11
55952.65909
 21
43619.941489
 31
0.0
  0
LINE
  8
0
 10
55952.65909
 20
43619.941489
 30
0.0
 11
55875.062661
 21
43752.20475
 31
0.0
  0
LINE
  8
0
 10
55875.062661
 20
43752.20475
 30
0.0
 11
55811.444904
 21
43890.837518
 31
0.0
  0
LINE
  8
0
 10
55811.444904
 20
43890.837518
 30
0.0
 11
55730.017974
 21
44059.992795
 31
0.0
  0
LINE
  8
0
 10
55730.017974
 20
44059.992795
 30
0.0
 11
55625.695171
 21
44264.756524
 31
0.0
  0
LINE
  8
0
 10
55625.695171
 20
44264.756524
 30
0.0
 11
55492.153989
 21
44433.88172
 31
0.0
  0
LINE
  8
0
 10
55492.153989
 20
44433.88172
 30
0.0
 11
55340.817859
 21
44601.72487
 31
0.0
  0
LINE
  8
0
 10
55340.817859
 20
44601.72487
 30
0.0
 11
55138.662194
 21
44716.106506
 31
0.0
  0
LINE
  8
0
 10
55138.662194
 20
44716.106506
 30
0.0
 11
54996.249837
 21
44824.162217
 31
0.0
  0
LINE
  8
0
 10
54996.249837
 20
44824.162217
 30
0.0
 11
54785.138336
 21
45060.672513
 31
0.0
  0
LINE
  8
0
 10
54785.138336
 20
45060.672513
 30
0.0
 11
54293.062791
 21
45396.257873
 31
0.0
  0
LINE
  8
0
 10
54293.062791
 20
45396.257873
 30
0.0
 11
53612.879073
 21
45665.587125
 31
0.0
  0
LINE
  8
0
 10
53612.879073
 20
45665.587125
 30
0.0
 11
53164.098558
 21
45793.832325
 31
0.0
  0
LINE
  8
0
 10
53164.098558
 20
45793.832325
 30
0.0
 11
53066.179452
 21
45879.01796
 31
0.0
  0
LINE
  8
0
 10
53066.179452
 20
45879.01796
 30
0.0
 11
52879.305049
 21
45900.542332
 31
0.0
  0
LINE
  8
0
 10
52879.305049
 20
45900.542332
 30
0.0
 11
52626.374096
 21
45815.161058
 31
0.0
  0
LINE
  8
0
 10
52626.374096
 20
45815.161058
 30
0.0
 11
52597.188749
 21
45696.82513
 31
0.0
  0
LINE
  8
0
 10
52597.188749
 20
45696.82513
 30
0.0
 11
52397.664887
 21
45568.215162
 31
0.0
  0
LINE
  8
0
 10
52397.664887
 20
45568.215162
 30
0.0
 11
52293.45267
 21
45504.543346
 31
0.0
  0
LINE
  8
0
 10
52293.45267
 20
45504.543346
 30
0.0
 11
52086.212363
 21
45571.857093
 31
0.0
  0
LINE
  8
0
 10
52086.212363
 20
45571.857093
 30
0.0
 11
51894.197633
 21
45702.793529
 31
0.0
  0
LINE
  8
0
 10
51894.197633
 20
45702.793529
 30
0.0
 11
51823.00954
 21
45698.93692
 31
0.0
  0
LINE
  8
0
 10
51823.00954
 20
45698.93692
 30
0.0
 11
51748.036419
 21
45628.919762
 31
0.0
  0
LINE
  8
0
 10
51748.036419
 20
45628.919762
 30
0.0
 11
51578.933834
 21
45687.349966
 31
0.0
  0
LINE
  8
0
 10
51578.933834
 20
45687.349966
 30
0.0
 11
51379.278346
 21
45841.184777
 31
0.0
  0
LINE
  8
0
 10
51379.278346
 20
45841.184777
 30
0.0
 11
51280.121431
 21
45836.040486
 31
0.0
  0
LINE
  8
0
 10
51280.121431
 20
45836.040486
 30
0.0
 11
51287.793805
 21
45732.989537
 31
0.0
  0
LINE
  8
0
 10
51287.793805
 20
45732.989537
 30
0.0
 11
51156.916748
 21
45584.058297
 31
0.0
  0
LINE
  8
0
 10
51156.916748
 20
45584.058297
 30
0.0
 11
51107.39454
 21
45450.439449
 31
0.0
  0
LINE
  8
0
 10
51107.39454
 20
45450.439449
 30
0.0
 11
50912.963469
 21
45273.479669
 31
0.0
  0
LINE
  8
0
 10
50912.963469
 20
45273.479669
 30
0.0
 11
50691.805074
 21
45161.390822
 31
0.0
  0
LINE
  8
0
 10
50691.805074
 20
45161.390822
 30
0.0
 11
50553.258285
 21
45100.240748
 31
0.0
  0
LINE
  8
0
 10
50553.258285
 20
45100.240748
 30
0.0
 11
50438.822715
 21
45139.617349
 31
0.0
  0
LINE
  8
0
 10
50438.822715
 20
45139.617349
 30
0.0
 11
50175.666024
 21
45120.382505
 31
0.0
  0
LINE
  8
0
 10
50175.666024
 20
45120.382505
 30
0.0
 11
49982.418683
 21
45129.178627
 31
0.0
  0
LINE
  8
0
 10
49982.418683
 20
45129.178627
 30
0.0
 11
49908.651458
 21
45197.84249
 31
0.0
  0
LINE
  8
0
 10
49908.651458
 20
45197.84249
 30
0.0
 11
49836.164074
 21
45246.149901
 31
0.0
  0
LINE
  8
0
 10
38391.523276
 20
45048.759432
 30
0.0
 11
38382.647096
 21
44969.851888
 31
0.0
  0
LINE
  8
0
 10
38382.647096
 20
44969.851888
 30
0.0
 11
38361.054317
 21
44883.301185
 31
0.0
  0
LINE
  8
0
 10
38361.054317
 20
44883.301185
 30
0.0
 11
38474.31069
 21
44723.015923
 31
0.0
  0
LINE
  8
0
 10
38474.31069
 20
44723.015923
 30
0.0
 11
38557.013937
 21
44640.343288
 31
0.0
  0
LINE
  8
0
 10
38557.013937
 20
44640.343288
 30
0.0
 11
38588.854178
 21
44518.189938
 31
0.0
  0
LINE
  8
0
 10
38588.854178
 20
44518.189938
 30
0.0
 11
38681.74314
 21
44404.980567
 31
0.0
  0
LINE
  8
0
 10
38681.74314
 20
44404.980567
 30
0.0
 11
38787.35364
 21
44284.14315
 31
0.0
  0
LINE
  8
0
 10
38787.35364
 20
44284.14315
 30
0.0
 11
39060.793431
 21
44337.753364
 31
0.0
  0
LINE
  8
0
 10
39060.793431
 20
44337.753364
 30
0.0
 11
39147.283332
 21
44333.986152
 31
0.0
  0
LINE
  8
0
 10
39147.283332
 20
44333.986152
 30
0.0
 11
39203.262452
 21
44288.20488
 31
0.0
  0
LINE
  8
0
 10
39203.262452
 20
44288.20488
 30
0.0
 11
39232.557396
 21
44169.869042
 31
0.0
  0
LINE
  8
0
 10
39232.557396
 20
44169.869042
 30
0.0
 11
39446.274161
 21
44054.187352
 31
0.0
  0
LINE
  8
0
 10
39446.274161
 20
44054.187352
 30
0.0
 11
39531.470382
 21
44108.959848
 31
0.0
  0
LINE
  8
0
 10
39531.470382
 20
44108.959848
 30
0.0
 11
39615.438532
 21
44039.01603
 31
0.0
  0
LINE
  8
0
 10
39615.438532
 20
44039.01603
 30
0.0
 11
39654.87452
 21
44016.132435
 31
0.0
  0
LINE
  8
0
 10
39654.87452
 20
44016.132435
 30
0.0
 11
39723.533531
 21
44077.258052
 31
0.0
  0
LINE
  8
0
 10
39723.533531
 20
44077.258052
 30
0.0
 11
39820.212509
 21
44027.683675
 31
0.0
  0
LINE
  8
0
 10
39820.212509
 20
44027.683675
 30
0.0
 11
39876.191847
 21
43978.085342
 31
0.0
  0
LINE
  8
0
 10
39876.191847
 20
43978.085342
 30
0.0
 11
39985.604754
 21
43883.977788
 31
0.0
  0
LINE
  8
0
 10
39985.604754
 20
43883.977788
 30
0.0
 11
40040.323801
 21
43801.291318
 31
0.0
  0
LINE
  8
0
 10
40040.323801
 20
43801.291318
 30
0.0
 11
40201.874518
 21
43727.576944
 31
0.0
  0
LINE
  8
0
 10
40201.874518
 20
43727.576944
 30
0.0
 11
40374.864029
 21
43672.958727
 31
0.0
  0
LINE
  8
0
 10
40374.864029
 20
43672.958727
 30
0.0
 11
40586.021917
 21
43577.640821
 31
0.0
  0
LINE
  8
0
 10
40586.021917
 20
43577.640821
 30
0.0
 11
40745.021023
 21
43517.924645
 31
0.0
  0
LINE
  8
0
 10
40745.021023
 20
43517.924645
 30
0.0
 11
40845.5266
 21
43428.90405
 31
0.0
  0
LINE
  8
0
 10
40845.5266
 20
43428.90405
 30
0.0
 11
40924.428251
 21
43292.784908
 31
0.0
  0
LINE
  8
0
 10
40924.428251
 20
43292.784908
 30
0.0
 11
41040.216803
 21
43143.962503
 31
0.0
  0
LINE
  8
0
 10
41040.216803
 20
43143.962503
 30
0.0
 11
41115.280535
 21
43068.92562
 31
0.0
  0
LINE
  8
0
 10
41115.280535
 20
43068.92562
 30
0.0
 11
41257.707544
 21
43108.462586
 31
0.0
  0
LINE
  8
0
 10
41257.707544
 20
43108.462586
 30
0.0
 11
41293.301952
 21
43151.752035
 31
0.0
  0
LINE
  8
0
 10
41293.301952
 20
43151.752035
 30
0.0
 11
41289.460997
 21
43221.741611
 31
0.0
  0
LINE
  8
0
 10
41289.460997
 20
43221.741611
 30
0.0
 11
41232.210786
 21
43275.155235
 31
0.0
  0
LINE
  8
0
 10
41232.210786
 20
43275.155235
 30
0.0
 11
41204.212259
 21
43327.314059
 31
0.0
  0
LINE
  8
0
 10
41204.212259
 20
43327.314059
 30
0.0
 11
41202.919106
 21
43385.851929
 31
0.0
  0
LINE
  8
0
 10
41202.919106
 20
43385.851929
 30
0.0
 11
41274.117199
 21
43446.978607
 31
0.0
  0
LINE
  8
0
 10
41274.117199
 20
43446.978607
 30
0.0
 11
41312.263914
 21
43466.090225
 31
0.0
  0
LINE
  8
0
 10
41312.263914
 20
43466.090225
 30
0.0
 11
41370.774975
 21
43441.946575
 31
0.0
  0
LINE
  8
0
 10
41370.774975
 20
43441.946575
 30
0.0
 11
41314.844713
 21
43364.285731
 31
0.0
  0
LINE
  8
0
 10
41314.844713
 20
43364.285731
 30
0.0
 11
41299.59905
 21
43321.00889
 31
0.0
  0
LINE
  8
0
 10
41299.59905
 20
43321.00889
 30
0.0
 11
41379.759462
 21
43217.978705
 31
0.0
  0
LINE
  8
0
 10
41379.759462
 20
43217.978705
 30
0.0
 11
41360.72921
 21
43090.709245
 31
0.0
  0
LINE
  8
0
 10
41360.72921
 20
43090.709245
 30
0.0
 11
41370.929141
 21
43020.723537
 31
0.0
  0
LINE
  8
0
 10
41370.929141
 20
43020.723537
 30
0.0
 11
41505.764637
 21
42949.541543
 31
0.0
  0
LINE
  8
0
 10
41505.764637
 20
42949.541543
 30
0.0
 11
41599.926966
 21
42812.160804
 31
0.0
  0
LINE
  8
0
 10
41599.926966
 20
42812.160804
 30
0.0
 11
41624.123066
 21
42724.36772
 31
0.0
  0
LINE
  8
0
 10
41624.123066
 20
42724.36772
 30
0.0
 11
41705.531833
 21
42683.695432
 31
0.0
  0
LINE
  8
0
 10
41705.531833
 20
42683.695432
 30
0.0
 11
41780.603584
 21
42583.208161
 31
0.0
  0
LINE
  8
0
 10
41780.603584
 20
42583.208161
 30
0.0
 11
41867.1282
 21
42463.639489
 31
0.0
  0
LINE
  8
0
 10
41867.1282
 20
42463.639489
 30
0.0
 11
41905.320783
 21
42356.766647
 31
0.0
  0
LINE
  8
0
 10
41905.320783
 20
42356.766647
 30
0.0
 11
42060.463384
 21
42391.222997
 31
0.0
  0
LINE
  8
0
 10
42060.463384
 20
42391.222997
 30
0.0
 11
42210.53026
 21
42392.589117
 31
0.0
  0
LINE
  8
0
 10
42210.53026
 20
42392.589117
 30
0.0
 11
42358.056557
 21
42383.773104
 31
0.0
  0
LINE
  8
0
 10
42358.056557
 20
42383.773104
 30
0.0
 11
42561.50229
 21
42471.706732
 31
0.0
  0
LINE
  8
0
 10
42561.50229
 20
42471.706732
 30
0.0
 11
42721.720864
 21
42523.981185
 31
0.0
  0
LINE
  8
0
 10
42721.720864
 20
42523.981185
 30
0.0
 11
42878.13418
 21
42546.984225
 31
0.0
  0
LINE
  8
0
 10
42878.13418
 20
42546.984225
 30
0.0
 11
43029.46541
 21
42554.713393
 31
0.0
  0
LINE
  8
0
 10
43029.46541
 20
42554.713393
 30
0.0
 11
43178.253768
 21
42558.623304
 31
0.0
  0
LINE
  8
0
 10
43178.253768
 20
42558.623304
 30
0.0
 11
43377.893601
 21
42603.285971
 31
0.0
  0
LINE
  8
0
 10
43377.893601
 20
42603.285971
 30
0.0
 11
43549.530468
 21
42711.557597
 31
0.0
  0
LINE
  8
0
 10
43549.530468
 20
42711.557597
 30
0.0
 11
43663.928844
 21
42850.333793
 31
0.0
  0
LINE
  8
0
 10
43663.928844
 20
42850.333793
 30
0.0
 11
43712.218017
 21
42940.712753
 31
0.0
  0
LINE
  8
0
 10
43712.218017
 20
42940.712753
 30
0.0
 11
43796.106011
 21
43051.473507
 31
0.0
  0
LINE
  8
0
 10
43796.106011
 20
43051.473507
 30
0.0
 11
43995.714755
 21
43162.30413
 31
0.0
  0
LINE
  8
0
 10
43995.714755
 20
43162.30413
 30
0.0
 11
44219.492739
 21
43247.698248
 31
0.0
  0
LINE
  8
0
 10
44219.492739
 20
43247.698248
 30
0.0
 11
44383.536554
 21
43242.707763
 31
0.0
  0
LINE
  8
0
 10
44383.536554
 20
43242.707763
 30
0.0
 11
44683.647347
 21
43227.619926
 31
0.0
  0
LINE
  8
0
 10
44683.647347
 20
43227.619926
 30
0.0
 11
44672.21856
 21
43186.893118
 31
0.0
  0
LINE
  8
0
 10
44672.21856
 20
43186.893118
 30
0.0
 11
44790.500663
 21
43132.247786
 31
0.0
  0
LINE
  8
0
 10
44790.500663
 20
43132.247786
 30
0.0
 11
44855.336775
 21
43174.279515
 31
0.0
  0
LINE
  8
0
 10
44855.336775
 20
43174.279515
 30
0.0
 11
45104.541779
 21
43252.052654
 31
0.0
  0
LINE
  8
0
 10
45104.541779
 20
43252.052654
 30
0.0
 11
45333.415668
 21
43286.548411
 31
0.0
  0
LINE
  8
0
 10
45333.415668
 20
43286.548411
 30
0.0
 11
45416.067926
 21
43289.143446
 31
0.0
  0
LINE
  8
0
 10
45416.067926
 20
43289.143446
 30
0.0
 11
45651.307843
 21
43295.648328
 31
0.0
  0
LINE
  8
0
 10
45651.307843
 20
43295.648328
 30
0.0
 11
45700.885114
 21
43331.307479
 31
0.0
  0
LINE
  8
0
 10
45700.885114
 20
43331.307479
 30
0.0
 11
45638.551348
 21
43398.710628
 31
0.0
  0
LINE
  8
0
 10
45638.551348
 20
43398.710628
 30
0.0
 11
45539.337209
 21
43477.543889
 31
0.0
  0
LINE
  8
0
 10
45539.337209
 20
43477.543889
 30
0.0
 11
45555.8396
 21
43548.81207
 31
0.0
  0
LINE
  8
0
 10
45555.8396
 20
43548.81207
 30
0.0
 11
45587.554133
 21
43738.428494
 31
0.0
  0
LINE
  8
0
 10
45587.554133
 20
43738.428494
 30
0.0
 11
45654.832756
 21
44028.58948
 31
0.0
  0
LINE
  8
0
 10
45654.832756
 20
44028.58948
 30
0.0
 11
45549.217042
 21
44219.395728
 31
0.0
  0
LINE
  8
0
 10
45549.217042
 20
44219.395728
 30
0.0
 11
45387.652292
 21
44408.89713
 31
0.0
  0
LINE
  8
0
 10
45387.652292
 20
44408.89713
 30
0.0
 11
45303.719994
 21
44429.207454
 31
0.0
  0
LINE
  8
0
 10
45303.719994
 20
44429.207454
 30
0.0
 11
45030.353254
 21
44365.424593
 31
0.0
  0
LINE
  8
0
 10
45030.353254
 20
44365.424593
 30
0.0
 11
44961.633277
 21
44502.810865
 31
0.0
  0
LINE
  8
0
 10
44961.633277
 20
44502.810865
 30
0.0
 11
44776.007466
 21
44430.171927
 31
0.0
  0
LINE
  8
0
 10
44776.007466
 20
44430.171927
 30
0.0
 11
44701.000772
 21
44383.046605
 31
0.0
  0
LINE
  8
0
 10
44701.000772
 20
44383.046605
 30
0.0
 11
44494.985411
 21
44417.283126
 31
0.0
  0
LINE
  8
0
 10
44494.985411
 20
44417.283126
 30
0.0
 11
44212.702324
 21
44368.763818
 31
0.0
  0
LINE
  8
0
 10
44212.702324
 20
44368.763818
 30
0.0
 11
44025.758805
 21
44400.466775
 31
0.0
  0
LINE
  8
0
 10
44025.758805
 20
44400.466775
 30
0.0
 11
43897.309571
 21
44433.476579
 31
0.0
  0
LINE
  8
0
 10
43897.309571
 20
44433.476579
 30
0.0
 11
43578.096275
 21
44503.277858
 31
0.0
  0
LINE
  8
0
 10
43578.096275
 20
44503.277858
 30
0.0
 11
43291.948339
 21
44559.101576
 31
0.0
  0
LINE
  8
0
 10
43291.948339
 20
44559.101576
 30
0.0
 11
43146.988342
 21
44527.204581
 31
0.0
  0
LINE
  8
0
 10
43146.988342
 20
44527.204581
 30
0.0
 11
42900.286325
 21
44509.245834
 31
0.0
  0
LINE
  8
0
 10
42900.286325
 20
44509.245834
 30
0.0
 11
42686.64687
 21
44490.033644
 31
0.0
  0
LINE
  8
0
 10
42686.64687
 20
44490.033644
 30
0.0
 11
42375.115042
 21
44384.23209
 31
0.0
  0
LINE
  8
0
 10
42375.115042
 20
44384.23209
 30
0.0
 11
42064.821467
 21
44357.327379
 31
0.0
  0
LINE
  8
0
 10
42064.821467
 20
44357.327379
 30
0.0
 11
41805.378372
 21
44373.71871
 31
0.0
  0
LINE
  8
0
 10
41805.378372
 20
44373.71871
 30
0.0
 11
41723.985842
 21
44373.67112
 31
0.0
  0
LINE
  8
0
 10
41723.985842
 20
44373.67112
 30
0.0
 11
41590.395946
 21
44522.481444
 31
0.0
  0
LINE
  8
0
 10
41590.395946
 20
44522.481444
 30
0.0
 11
41489.923931
 21
44528.78575
 31
0.0
  0
LINE
  8
0
 10
41489.923931
 20
44528.78575
 30
0.0
 11
41381.841374
 21
44479.093241
 31
0.0
  0
LINE
  8
0
 10
41381.841374
 20
44479.093241
 30
0.0
 11
41286.452855
 21
44493.035798
 31
0.0
  0
LINE
  8
0
 10
41286.452855
 20
44493.035798
 30
0.0
 11
41023.144258
 21
44626.501556
 31
0.0
  0
LINE
  8
0
 10
41023.144258
 20
44626.501556
 30
0.0
 11
40920.106662
 21
44687.524876
 31
0.0
  0
LINE
  8
0
 10
40920.106662
 20
44687.524876
 30
0.0
 11
40897.185677
 21
44766.410523
 31
0.0
  0
LINE
  8
0
 10
40897.185677
 20
44766.410523
 30
0.0
 11
40792.840449
 21
44925.420757
 31
0.0
  0
LINE
  8
0
 10
40792.840449
 20
44925.420757
 30
0.0
 11
40675.821556
 21
44960.985411
 31
0.0
  0
LINE
  8
0
 10
40675.821556
 20
44960.985411
 30
0.0
 11
40493.909423
 21
45080.502519
 31
0.0
  0
LINE
  8
0
 10
40493.909423
 20
45080.502519
 30
0.0
 11
40270.064416
 21
45093.100452
 31
0.0
  0
LINE
  8
0
 10
40270.064416
 20
45093.100452
 30
0.0
 11
39994.040354
 21
45194.749195
 31
0.0
  0
LINE
  8
0
 10
39994.040354
 20
45194.749195
 30
0.0
 11
39776.514302
 21
45309.157849
 31
0.0
  0
LINE
  8
0
 10
39776.514302
 20
45309.157849
 30
0.0
 11
39578.087573
 21
45358.676278
 31
0.0
  0
LINE
  8
0
 10
39578.087573
 20
45358.676278
 30
0.0
 11
39224.469669
 21
45469.191876
 31
0.0
  0
LINE
  8
0
 10
39224.469669
 20
45469.191876
 30
0.0
 11
39108.751105
 21
45405.496943
 31
0.0
  0
LINE
  8
0
 10
39108.751105
 20
45405.496943
 30
0.0
 11
39054.093576
 21
45310.021256
 31
0.0
  0
LINE
  8
0
 10
39054.093576
 20
45310.021256
 30
0.0
 11
38860.771269
 21
45295.913121
 31
0.0
  0
LINE
  8
0
 10
38860.771269
 20
45295.913121
 30
0.0
 11
38701.851239
 21
45102.386458
 31
0.0
  0
LINE
  8
0
 10
38701.851239
 20
45102.386458
 30
0.0
 11
38586.128029
 21
45043.780186
 31
0.0
  0
LINE
  8
0
 10
38586.128029
 20
45043.780186
 30
0.0
 11
38483.111029
 21
45020.814186
 31
0.0
  0
LINE
  8
0
 10
38483.111029
 20
45020.814186
 30
0.0
 11
38404.242471
 21
45048.766701
 31
0.0
  0
TEXT
  8
0
 10
52257.111085
 20
43330.016313
 30
0.0
 40
100.0
  1
P.TEKONG
 72
     4
 11
52607.111085
 21
43380.016313
 31
0.0
  0
TEXT
  8
0
 10
41235.260253
 20
43688.514061
 30
0.0
 40
100.0
  1
P.UBIN
 72
     4
 11
41468.593586
 21
43738.514061
 31
0.0
  0
LINE
  8
0
 10
26281.16444
 20
50247.896429
 30
0.0
 11
26431.319788
 21
50233.965909
 31
0.0
  0
LINE
  8
0
 10
26431.319788
 20
50233.965909
 30
0.0
 11
26511.497585
 21
50186.909114
 31
0.0
  0
LINE
  8
0
 10
26511.497585
 20
50186.909114
 30
0.0
 11
26650.207309
 21
50143.69853
 31
0.0
  0
LINE
  8
0
 10
26650.207309
 20
50143.69853
 30
0.0
 11
26837.296924
 21
49997.412696
 31
0.0
  0
LINE
  8
0
 10
26837.296924
 20
49997.412696
 30
0.0
 11
26726.612457
 21
49926.082042
 31
0.0
  0
LINE
  8
0
 10
26726.612457
 20
49926.082042
 30
0.0
 11
26629.92617
 21
49848.393558
 31
0.0
  0
LINE
  8
0
 10
26629.92617
 20
49848.393558
 30
0.0
 11
26512.890015
 21
49732.50998
 31
0.0
  0
LINE
  8
0
 10
26512.890015
 20
49732.50998
 30
0.0
 11
26441.656505
 21
49638.285991
 31
0.0
  0
LINE
  8
0
 10
26441.656505
 20
49638.285991
 30
0.0
 11
26376.782411
 21
49554.247407
 31
0.0
  0
LINE
  8
0
 10
26376.782411
 20
49554.247407
 30
0.0
 11
26414.9654
 21
49521.17207
 31
0.0
  0
LINE
  8
0
 10
26414.9654
 20
49521.17207
 30
0.0
 11
26509.120658
 21
49550.49288
 31
0.0
  0
LINE
  8
0
 10
26509.120658
 20
49550.49288
 30
0.0
 11
26561.269677
 21
49634.525124
 31
0.0
  0
LINE
  8
0
 10
26561.269677
 20
49634.525124
 30
0.0
 11
26629.95718
 21
49731.293341
 31
0.0
  0
LINE
  8
0
 10
26629.95718
 20
49731.293341
 30
0.0
 11
26705.026286
 21
49754.240271
 31
0.0
  0
LINE
  8
0
 10
26705.026286
 20
49754.240271
 30
0.0
 11
26776.276768
 21
49781.003772
 31
0.0
  0
LINE
  8
0
 10
26776.276768
 20
49781.003772
 30
0.0
 11
26800.446968
 21
49805.199013
 31
0.0
  0
LINE
  8
0
 10
26800.446968
 20
49805.199013
 30
0.0
 11
26869.155296
 21
49820.505762
 31
0.0
  0
LINE
  8
0
 10
26869.155296
 20
49820.505762
 30
0.0
 11
26848.808291
 21
49774.674401
 31
0.0
  0
LINE
  8
0
 10
26848.808291
 20
49774.674401
 30
0.0
 11
26851.365059
 21
49730.126794
 31
0.0
  0
LINE
  8
0
 10
26851.365059
 20
49730.126794
 30
0.0
 11
26912.442665
 21
49730.156114
 31
0.0
  0
LINE
  8
0
 10
26912.442665
 20
49730.156114
 30
0.0
 11
26955.707241
 21
49725.085596
 31
0.0
  0
LINE
  8
0
 10
26955.707241
 20
49725.085596
 30
0.0
 11
26970.980675
 21
49709.819072
 31
0.0
  0
LINE
  8
0
 10
26970.980675
 20
49709.819072
 30
0.0
 11
26786.565718
 21
49369.885106
 31
0.0
  0
LINE
  8
0
 10
26786.565718
 20
49369.885106
 30
0.0
 11
26818.382229
 21
49350.808131
 31
0.0
  0
LINE
  8
0
 10
26818.382229
 20
49350.808131
 30
0.0
 11
27033.334534
 21
49694.575187
 31
0.0
  0
LINE
  8
0
 10
27033.334534
 20
49694.575187
 30
0.0
 11
27062.60275
 21
49686.95234
 31
0.0
  0
LINE
  8
0
 10
27062.60275
 20
49686.95234
 30
0.0
 11
26978.666705
 21
49517.626487
 31
0.0
  0
LINE
  8
0
 10
26978.666705
 20
49517.626487
 30
0.0
 11
26996.485042
 21
49502.361221
 31
0.0
  0
LINE
  8
0
 10
26996.485042
 20
49502.361221
 30
0.0
 11
26845.142443
 21
49205.718302
 31
0.0
  0
LINE
  8
0
 10
26845.142443
 20
49205.718302
 30
0.0
 11
26869.321479
 21
49196.820325
 31
0.0
  0
LINE
  8
0
 10
26869.321479
 20
49196.820325
 30
0.0
 11
27024.488723
 21
49465.462888
 31
0.0
  0
LINE
  8
0
 10
27024.488723
 20
49465.462888
 30
0.0
 11
27065.209669
 21
49455.300057
 31
0.0
  0
LINE
  8
0
 10
27065.209669
 20
49455.300057
 30
0.0
 11
27412.425149
 21
50044.779568
 31
0.0
  0
LINE
  8
0
 10
27412.425149
 20
50044.779568
 30
0.0
 11
28202.711668
 21
49590.768384
 31
0.0
  0
LINE
  8
0
 10
28202.711668
 20
49590.768384
 30
0.0
 11
27936.908853
 21
49126.066709
 31
0.0
  0
LINE
  8
0
 10
27936.908853
 20
49126.066709
 30
0.0
 11
27999.267345
 21
49086.640374
 31
0.0
  0
LINE
  8
0
 10
27999.267345
 20
49086.640374
 30
0.0
 11
28267.622937
 21
49519.523366
 31
0.0
  0
LINE
  8
0
 10
28267.622937
 20
49519.523366
 30
0.0
 11
28480.116406
 21
49496.716068
 31
0.0
  0
LINE
  8
0
 10
28480.116406
 20
49496.716068
 30
0.0
 11
28819.892909
 21
49299.599654
 31
0.0
  0
LINE
  8
0
 10
28819.892909
 20
49299.599654
 30
0.0
 11
28882.269038
 21
49190.17085
 31
0.0
  0
LINE
  8
0
 10
28882.269038
 20
49190.17085
 30
0.0
 11
28859.372689
 21
49168.52229
 31
0.0
  0
LINE
  8
0
 10
28859.372689
 20
49168.52229
 30
0.0
 11
28823.743822
 21
49178.687075
 31
0.0
  0
LINE
  8
0
 10
28823.743822
 20
49178.687075
 30
0.0
 11
28738.583104
 21
48865.539012
 31
0.0
  0
LINE
  8
0
 10
28738.583104
 20
48865.539012
 30
0.0
 11
28963.727545
 21
49090.933813
 31
0.0
  0
LINE
  8
0
 10
28963.727545
 20
49090.933813
 30
0.0
 11
29019.709556
 21
49096.052512
 31
0.0
  0
LINE
  8
0
 10
29019.709556
 20
49096.052512
 30
0.0
 11
29061.692041
 21
49113.892108
 31
0.0
  0
LINE
  8
0
 10
29061.692041
 20
49113.892108
 30
0.0
 11
29294.569096
 21
48977.819724
 31
0.0
  0
LINE
  8
0
 10
29294.569096
 20
48977.819724
 30
0.0
 11
29342.938057
 21
48906.568193
 31
0.0
  0
LINE
  8
0
 10
29342.938057
 20
48906.568193
 30
0.0
 11
29355.674757
 21
48859.48177
 31
0.0
  0
LINE
  8
0
 10
29355.674757
 20
48859.48177
 30
0.0
 11
29425.65236
 21
48862.062102
 31
0.0
  0
LINE
  8
0
 10
29425.65236
 20
48862.062102
 30
0.0
 11
29456.195893
 21
48835.349009
 31
0.0
  0
LINE
  8
0
 10
29456.195893
 20
48835.349009
 30
0.0
 11
29606.357642
 21
48739.965797
 31
0.0
  0
LINE
  8
0
 10
29606.357642
 20
48739.965797
 30
0.0
 11
29778.142983
 21
48662.412643
 31
0.0
  0
LINE
  8
0
 10
29778.142983
 20
48662.412643
 30
0.0
 11
29919.385364
 21
48607.754402
 31
0.0
  0
LINE
  8
0
 10
29919.385364
 20
48607.754402
 30
0.0
 11
30002.109516
 21
48523.793349
 31
0.0
  0
LINE
  8
0
 10
30002.109516
 20
48523.793349
 30
0.0
 11
30140.864016
 21
48269.310059
 31
0.0
  0
LINE
  8
0
 10
30140.864016
 20
48269.310059
 30
0.0
 11
30180.33955
 21
48150.9627
 31
0.0
  0
LINE
  8
0
 10
30180.33955
 20
48150.9627
 30
0.0
 11
30133.282047
 21
48089.845659
 31
0.0
  0
LINE
  8
0
 10
30133.282047
 20
48089.845659
 30
0.0
 11
30077.301385
 21
48087.271448
 31
0.0
  0
LINE
  8
0
 10
30077.301385
 20
48087.271448
 30
0.0
 11
30020.065889
 21
48023.603397
 31
0.0
  0
LINE
  8
0
 10
30020.065889
 20
48023.603397
 30
0.0
 11
29934.845909
 21
47937.010729
 31
0.0
  0
LINE
  8
0
 10
29934.845909
 20
47937.010729
 30
0.0
 11
29684.225691
 21
47842.695483
 31
0.0
  0
LINE
  8
0
 10
29684.225691
 20
47842.695483
 30
0.0
 11
29628.23559
 21
47869.395091
 31
0.0
  0
LINE
  8
0
 10
29628.23559
 20
47869.395091
 30
0.0
 11
29569.691292
 21
47929.18593
 31
0.0
  0
LINE
  8
0
 10
29569.691292
 20
47929.18593
 30
0.0
 11
29553.125221
 21
48019.54533
 31
0.0
  0
LINE
  8
0
 10
29553.125221
 20
48019.54533
 30
0.0
 11
29527.647395
 21
48128.991904
 31
0.0
  0
LINE
  8
0
 10
29527.647395
 20
48128.991904
 30
0.0
 11
29493.26687
 21
48225.706042
 31
0.0
  0
LINE
  8
0
 10
29493.26687
 20
48225.706042
 30
0.0
 11
29486.893617
 21
48266.431906
 31
0.0
  0
LINE
  8
0
 10
29486.893617
 20
48266.431906
 30
0.0
 11
29523.760467
 21
48374.637167
 31
0.0
  0
LINE
  8
0
 10
29523.760467
 20
48374.637167
 30
0.0
 11
29452.508394
 21
48379.692211
 31
0.0
  0
LINE
  8
0
 10
29452.508394
 20
48379.692211
 30
0.0
 11
29393.992867
 21
48337.660672
 31
0.0
  0
LINE
  8
0
 10
29393.992867
 20
48337.660672
 30
0.0
 11
29480.597823
 21
48034.781556
 31
0.0
  0
LINE
  8
0
 10
29480.597823
 20
48034.781556
 30
0.0
 11
29441.177798
 21
47955.848335
 31
0.0
  0
LINE
  8
0
 10
29441.177798
 20
47955.848335
 30
0.0
 11
29437.43816
 21
47683.468627
 31
0.0
  0
LINE
  8
0
 10
29437.43816
 20
47683.468627
 30
0.0
 11
29520.162665
 21
47604.59839
 31
0.0
  0
LINE
  8
0
 10
29520.162665
 20
47604.59839
 30
0.0
 11
29577.436665
 21
47538.442958
 31
0.0
  0
LINE
  8
0
 10
29577.436665
 20
47538.442958
 30
0.0
 11
29627.074773
 21
47478.647586
 31
0.0
  0
LINE
  8
0
 10
29627.074773
 20
47478.647586
 30
0.0
 11
29683.054842
 21
47487.586471
 31
0.0
  0
LINE
  8
0
 10
29683.054842
 20
47487.586471
 30
0.0
 11
29485.769702
 21
47744.587872
 31
0.0
  0
LINE
  8
0
 10
29485.769702
 20
47744.587872
 30
0.0
 11
29529.02518
 21
47758.611028
 31
0.0
  0
LINE
  8
0
 10
29529.02518
 20
47758.611028
 30
0.0
 11
29769.520697
 21
47670.913428
 31
0.0
  0
LINE
  8
0
 10
29769.520697
 20
47670.913428
 30
0.0
 11
29924.731414
 21
47714.268813
 31
0.0
  0
LINE
  8
0
 10
29924.731414
 20
47714.268813
 30
0.0
 11
30099.02572
 21
47757.633806
 31
0.0
  0
LINE
  8
0
 10
30099.02572
 20
47757.633806
 30
0.0
 11
30246.589761
 21
47837.895066
 31
0.0
  0
LINE
  8
0
 10
30246.589761
 20
47837.895066
 30
0.0
 11
30439.993762
 21
47785.811538
 31
0.0
  0
LINE
  8
0
 10
30439.993762
 20
47785.811538
 30
0.0
 11
30637.36434
 21
47216.985959
 31
0.0
  0
LINE
  8
0
 10
30637.36434
 20
47216.985959
 30
0.0
 11
30396.97003
 21
46980.121282
 31
0.0
  0
LINE
  8
0
 10
30396.97003
 20
46980.121282
 30
0.0
 11
30122.228645
 21
46713.960828
 31
0.0
  0
LINE
  8
0
 10
30274.903855
 20
46721.679857
 30
0.0
 11
30653.950202
 21
47059.170621
 31
0.0
  0
LINE
  8
0
 10
30653.950202
 20
47059.170621
 30
0.0
 11
30739.203681
 21
47023.5783
 31
0.0
  0
LINE
  8
0
 10
30739.203681
 20
47023.5783
 30
0.0
 11
30918.649913
 21
46836.576412
 31
0.0
  0
LINE
  8
0
 10
30918.649913
 20
46836.576412
 30
0.0
 11
30978.477148
 21
46733.513879
 31
0.0
  0
LINE
  8
0
 10
30978.477148
 20
46733.513879
 30
0.0
 11
31324.678992
 21
46242.411166
 31
0.0
  0
LINE
  8
0
 10
31324.678992
 20
46242.411166
 30
0.0
 11
31268.785951
 21
45950.914353
 31
0.0
  0
LINE
  8
0
 10
31268.785951
 20
45950.914353
 30
0.0
 11
31064.001132
 21
45778.974671
 31
0.0
  0
LINE
  8
0
 10
31064.001132
 20
45778.974671
 30
0.0
 11
31006.758357
 21
45745.850227
 31
0.0
  0
LINE
  8
0
 10
31006.758357
 20
45745.850227
 30
0.0
 11
31037.322357
 21
45646.589593
 31
0.0
  0
LINE
  8
0
 10
31037.322357
 20
45646.589593
 30
0.0
 11
30964.833813
 21
45539.634287
 31
0.0
  0
LINE
  8
0
 10
30964.833813
 20
45539.634287
 30
0.0
 11
30809.643822
 21
45440.268692
 31
0.0
  0
LINE
  8
0
 10
30809.643822
 20
45440.268692
 30
0.0
 11
30757.539467
 21
45236.590676
 31
0.0
  0
LINE
  8
0
 10
30757.539467
 20
45236.590676
 30
0.0
 11
31349.23587
 21
44950.54804
 31
0.0
  0
LINE
  8
0
 10
31349.23587
 20
44950.54804
 30
0.0
 11
31416.643747
 21
45025.681519
 31
0.0
  0
LINE
  8
0
 10
31416.643747
 20
45025.681519
 30
0.0
 11
31531.126933
 21
45094.477629
 31
0.0
  0
LINE
  8
0
 10
31531.126933
 20
45094.477629
 30
0.0
 11
31798.275653
 21
45176.088072
 31
0.0
  0
LINE
  8
0
 10
31798.275653
 20
45176.088072
 30
0.0
 11
31940.779451
 21
45134.167477
 31
0.0
  0
LINE
  8
0
 10
31940.779451
 20
45134.167477
 30
0.0
 11
32023.452968
 21
45206.762785
 31
0.0
  0
LINE
  8
0
 10
32023.452968
 20
45206.762785
 30
0.0
 11
32122.698229
 21
45169.908779
 31
0.0
  0
LINE
  8
0
 10
32122.698229
 20
45169.908779
 30
0.0
 11
32501.903026
 21
44897.752632
 31
0.0
  0
LINE
  8
0
 10
32501.903026
 20
44897.752632
 30
0.0
 11
32526.071961
 21
44907.948656
 31
0.0
  0
LINE
  8
0
 10
32526.071961
 20
44907.948656
 30
0.0
 11
32630.472982
 21
44647.091295
 31
0.0
  0
LINE
  8
0
 10
32630.472982
 20
44647.091295
 30
0.0
 11
33005.88035
 21
44296.026062
 31
0.0
  0
LINE
  8
0
 10
33005.88035
 20
44296.026062
 30
0.0
 11
33150.936415
 21
44210.83592
 31
0.0
  0
LINE
  8
0
 10
33150.936415
 20
44210.83592
 30
0.0
 11
33274.360796
 21
44138.361037
 31
0.0
  0
LINE
  8
0
 10
33274.360796
 20
44138.361037
 30
0.0
 11
33299.818253
 21
44093.829356
 31
0.0
  0
LINE
  8
0
 10
33299.818253
 20
44093.829356
 30
0.0
 11
33203.16349
 21
43993.223813
 31
0.0
  0
LINE
  8
0
 10
30744.83216
 20
45183.125585
 30
0.0
 11
31374.704728
 21
44871.649279
 31
0.0
  0
LINE
  8
0
 10
31374.704728
 20
44871.649279
 30
0.0
 11
31243.727417
 21
44646.288017
 31
0.0
  0
LINE
  8
0
 10
31243.727417
 20
44646.288017
 30
0.0
 11
31161.083445
 21
44462.955835
 31
0.0
  0
LINE
  8
0
 10
31161.083445
 20
44462.955835
 30
0.0
 11
31052.982302
 21
44316.519304
 31
0.0
  0
LINE
  8
0
 10
31052.982302
 20
44316.519304
 30
0.0
 11
30880.015704
 21
44093.674361
 31
0.0
  0
LINE
  8
0
 10
30880.015704
 20
44093.674361
 30
0.0
 11
30789.715784
 21
43979.066742
 31
0.0
  0
LINE
  8
0
 10
30789.715784
 20
43979.066742
 30
0.0
 11
30620.543844
 21
43823.680976
 31
0.0
  0
LINE
  8
0
 10
30620.543844
 20
43823.680976
 30
0.0
 11
30439.912455
 21
43692.470974
 31
0.0
  0
LINE
  8
0
 10
30439.912455
 20
43692.470974
 30
0.0
 11
30355.967981
 21
43591.86614
 31
0.0
  0
LINE
  8
0
 10
30355.967981
 20
43591.86614
 30
0.0
 11
30259.283155
 21
43548.531338
 31
0.0
  0
LINE
  8
0
 10
30259.283155
 20
43548.531338
 30
0.0
 11
30092.649136
 21
43400.780287
 31
0.0
  0
LINE
  8
0
 10
30092.649136
 20
43400.780287
 30
0.0
 11
29858.606885
 21
43154.976596
 31
0.0
  0
LINE
  8
0
 10
29858.606885
 20
43154.976596
 30
0.0
 11
29608.007046
 21
42957.528916
 31
0.0
  0
LINE
  8
0
 10
29608.007046
 20
42957.528916
 30
0.0
 11
29423.537815
 21
42867.041539
 31
0.0
  0
LINE
  8
0
 10
29423.537815
 20
42867.041539
 30
0.0
 11
29283.59465
 21
42798.219863
 31
0.0
  0
LINE
  8
0
 10
29283.59465
 20
42798.219863
 30
0.0
 11
29157.674989
 21
42630.120956
 31
0.0
  0
LINE
  8
0
 10
29157.674989
 20
42630.120956
 30
0.0
 11
29059.675338
 21
42717.889937
 31
0.0
  0
LINE
  8
0
 10
29059.675338
 20
42717.889937
 30
0.0
 11
28881.548599
 21
42680.866055
 31
0.0
  0
LINE
  8
0
 10
28881.548599
 20
42680.866055
 30
0.0
 11
28929.918801
 21
42614.705312
 31
0.0
  0
LINE
  8
0
 10
28929.918801
 20
42614.705312
 30
0.0
 11
28905.792245
 21
42439.030298
 31
0.0
  0
LINE
  8
0
 10
28905.792245
 20
42439.030298
 30
0.0
 11
28837.123166
 21
42291.330739
 31
0.0
  0
LINE
  8
0
 10
28837.123166
 20
42291.330739
 30
0.0
 11
28735.364351
 21
42166.52208
 31
0.0
  0
LINE
  8
0
 10
28735.364351
 20
42166.52208
 30
0.0
 11
28585.219621
 21
42160.063282
 31
0.0
  0
LINE
  8
0
 10
28585.219621
 20
42160.063282
 30
0.0
 11
28410.892704
 21
42171.410112
 31
0.0
  0
LINE
  8
0
 10
28410.892704
 20
42171.410112
 30
0.0
 11
28259.457808
 21
42222.231926
 31
0.0
  0
LINE
  8
0
 10
28259.457808
 20
42222.231926
 30
0.0
 11
28153.822033
 21
42303.63278
 31
0.0
  0
LINE
  8
0
 10
28153.822033
 20
42303.63278
 30
0.0
 11
28152.534865
 21
42357.094669
 31
0.0
  0
LINE
  8
0
 10
28152.534865
 20
42357.094669
 30
0.0
 11
28185.594388
 21
42444.946721
 31
0.0
  0
LINE
  8
0
 10
28185.594388
 20
42444.946721
 30
0.0
 11
28267.01027
 21
42520.099406
 31
0.0
  0
LINE
  8
0
 10
28267.01027
 20
42520.099406
 30
0.0
 11
28241.539247
 21
42600.277245
 31
0.0
  0
LINE
  8
0
 10
28241.539247
 20
42600.277245
 30
0.0
 11
28146.092385
 21
42648.58897
 31
0.0
  0
LINE
  8
0
 10
28146.092385
 20
42648.58897
 30
0.0
 11
28097.692731
 21
42817.856825
 31
0.0
  0
LINE
  8
0
 10
28097.692731
 20
42817.856825
 30
0.0
 11
28174.006677
 21
42937.5574
 31
0.0
  0
LINE
  8
0
 10
28174.006677
 20
42937.5574
 30
0.0
 11
28237.612364
 21
42997.423039
 31
0.0
  0
LINE
  8
0
 10
28237.612364
 20
42997.423039
 30
0.0
 11
28387.732554
 21
43096.801248
 31
0.0
  0
LINE
  8
0
 10
28387.732554
 20
43096.801248
 30
0.0
 11
28296.102068
 21
43151.480269
 31
0.0
  0
LINE
  8
0
 10
28296.102068
 20
43151.480269
 30
0.0
 11
28147.223653
 21
43161.572949
 31
0.0
  0
LINE
  8
0
 10
28147.223653
 20
43161.572949
 30
0.0
 11
27998.361496
 21
43109.293062
 31
0.0
  0
LINE
  8
0
 10
27998.361496
 20
43109.293062
 30
0.0
 11
27860.942161
 21
43087.569789
 31
0.0
  0
LINE
  8
0
 10
27860.942161
 20
43087.569789
 30
0.0
 11
27757.887644
 21
43032.771477
 31
0.0
  0
LINE
  8
0
 10
27757.887644
 20
43032.771477
 30
0.0
 11
27670.128588
 21
42881.24013
 31
0.0
  0
LINE
  8
0
 10
27670.128588
 20
42881.24013
 30
0.0
 11
27615.447887
 21
42750.095184
 31
0.0
  0
LINE
  8
0
 10
27615.447887
 20
42750.095184
 30
0.0
 11
27475.476662
 21
42744.917211
 31
0.0
  0
LINE
  8
0
 10
27475.476662
 20
42744.917211
 30
0.0
 11
27554.228552
 21
43268.137636
 31
0.0
  0
LINE
  8
0
 10
27554.228552
 20
43268.137636
 30
0.0
 11
27677.615574
 21
43424.781003
 31
0.0
  0
LINE
  8
0
 10
27677.615574
 20
43424.781003
 30
0.0
 11
27850.660596
 21
43460.526817
 31
0.0
  0
LINE
  8
0
 10
27850.660596
 20
43460.526817
 30
0.0
 11
27963.873436
 21
43590.431327
 31
0.0
  0
LINE
  8
0
 10
27963.873436
 20
43590.431327
 30
0.0
 11
28180.169054
 21
43663.116246
 31
0.0
  0
LINE
  8
0
 10
28180.169054
 20
43663.116246
 30
0.0
 11
28233.637755
 21
43567.680982
 31
0.0
  0
LINE
  8
0
 10
28233.637755
 20
43567.680982
 30
0.0
 11
28419.423098
 21
43530.878595
 31
0.0
  0
LINE
  8
0
 10
28419.423098
 20
43530.878595
 30
0.0
 11
28603.935477
 21
43491.529911
 31
0.0
  0
LINE
  8
0
 10
28603.935477
 20
43491.529911
 30
0.0
 11
28813.905152
 21
43415.283147
 31
0.0
  0
LINE
  8
0
 10
28813.905152
 20
43415.283147
 30
0.0
 11
28961.523522
 21
43346.636524
 31
0.0
  0
LINE
  8
0
 10
28961.523522
 20
43346.636524
 30
0.0
 11
29030.244633
 21
43305.945845
 31
0.0
  0
LINE
  8
0
 10
29030.244633
 20
43305.945845
 30
0.0
 11
29228.731374
 21
43330.250673
 31
0.0
  0
LINE
  8
0
 10
29228.731374
 20
43330.250673
 30
0.0
 11
29306.326115
 21
43404.124332
 31
0.0
  0
LINE
  8
0
 10
29306.326115
 20
43404.124332
 30
0.0
 11
29576.044574
 21
43494.66061
 31
0.0
  0
LINE
  8
0
 10
29576.044574
 20
43494.66061
 30
0.0
 11
29684.16059
 21
43618.193261
 31
0.0
  0
LINE
  8
0
 10
29684.16059
 20
43618.193261
 30
0.0
 11
29708.296196
 21
43755.676491
 31
0.0
  0
LINE
  8
0
 10
29708.296196
 20
43755.676491
 30
0.0
 11
29639.526056
 21
43974.566957
 31
0.0
  0
LINE
  8
0
 10
29639.526056
 20
43974.566957
 30
0.0
 11
29966.481854
 21
44112.228026
 31
0.0
  0
LINE
  8
0
 10
29966.481854
 20
44112.228026
 30
0.0
 11
30037.748912
 21
44057.537766
 31
0.0
  0
LINE
  8
0
 10
30037.748912
 20
44057.537766
 30
0.0
 11
30073.356136
 21
44121.200942
 31
0.0
  0
LINE
  8
0
 10
30073.356136
 20
44121.200942
 30
0.0
 11
30083.512826
 21
44197.577411
 31
0.0
  0
LINE
  8
0
 10
30083.512826
 20
44197.577411
 30
0.0
 11
30122.922609
 21
44310.883231
 31
0.0
  0
LINE
  8
0
 10
30122.922609
 20
44310.883231
 30
0.0
 11
30126.662054
 21
44579.453669
 31
0.0
  0
LINE
  8
0
 10
30126.662054
 20
44579.453669
 30
0.0
 11
30267.882265
 21
44608.810725
 31
0.0
  0
LINE
  8
0
 10
30267.882265
 20
44608.810725
 30
0.0
 11
30409.097571
 21
44652.168678
 31
0.0
  0
LINE
  8
0
 10
30409.097571
 20
44652.168678
 30
0.0
 11
30588.443441
 21
44825.375885
 31
0.0
  0
LINE
  8
0
 10
30588.443441
 20
44825.375885
 30
0.0
 11
30681.267082
 21
45012.532876
 31
0.0
  0
LINE
  8
0
 10
30681.267082
 20
45012.532876
 30
0.0
 11
30751.196634
 21
45172.946749
 31
0.0
  0
LINE
  8
0
 10
33388.933338
 20
43892.785507
 30
0.0
 11
33365.969988
 21
44098.959433
 31
0.0
  0
LINE
  8
0
 10
33365.969988
 20
44098.959433
 30
0.0
 11
33485.501602
 21
44268.306566
 31
0.0
  0
LINE
  8
0
 10
33485.501602
 20
44268.306566
 30
0.0
 11
33798.459929
 21
44248.126206
 31
0.0
  0
LINE
  8
0
 10
33798.459929
 20
44248.126206
 30
0.0
 11
34060.572305
 21
44090.460012
 31
0.0
  0
LINE
  8
0
 10
34060.572305
 20
44090.460012
 30
0.0
 11
34309.941046
 21
43996.424523
 31
0.0
  0
LINE
  8
0
 10
34309.941046
 20
43996.424523
 30
0.0
 11
34454.967281
 21
43985.055752
 31
0.0
  0
LINE
  8
0
 10
34454.967281
 20
43985.055752
 30
0.0
 11
34728.484811
 21
43947.035843
 31
0.0
  0
LINE
  8
0
 10
34728.484811
 20
43947.035843
 30
0.0
 11
34854.43823
 21
43901.292351
 31
0.0
  0
LINE
  8
0
 10
34854.43823
 20
43901.292351
 30
0.0
 11
34947.323057
 21
43835.165771
 31
0.0
  0
LINE
  8
0
 10
34947.323057
 20
43835.165771
 30
0.0
 11
35119.098513
 21
43704.177509
 31
0.0
  0
LINE
  8
0
 10
35119.098513
 20
43704.177509
 30
0.0
 11
35161.090337
 21
43664.748174
 31
0.0
  0
LINE
  8
0
 10
35161.090337
 20
43664.748174
 30
0.0
 11
35128.076375
 21
43477.637629
 31
0.0
  0
LINE
  8
0
 10
35128.076375
 20
43477.637629
 30
0.0
 11
34922.006316
 21
43445.695218
 31
0.0
  0
LINE
  8
0
 10
34922.006316
 20
43445.695218
 30
0.0
 11
34684.131578
 21
43413.733348
 31
0.0
  0
LINE
  8
0
 10
34684.131578
 20
43413.733348
 30
0.0
 11
34437.414454
 21
43178.126039
 31
0.0
  0
LINE
  8
0
 10
34146.216905
 20
42791.029643
 30
0.0
 11
34367.554305
 21
42840.803455
 31
0.0
  0
LINE
  8
0
 10
34367.554305
 20
42840.803455
 30
0.0
 11
34544.385049
 21
42828.184582
 31
0.0
  0
LINE
  8
0
 10
34544.385049
 20
42828.184582
 30
0.0
 11
34797.456016
 21
43082.889244
 31
0.0
  0
LINE
  8
0
 10
34797.456016
 20
43082.889244
 30
0.0
 11
34897.972165
 21
43023.131701
 31
0.0
  0
LINE
  8
0
 10
34897.972165
 20
43023.131701
 30
0.0
 11
35045.533728
 21
43032.131022
 31
0.0
  0
LINE
  8
0
 10
35045.533728
 20
43032.131022
 30
0.0
 11
35186.709646
 21
43116.217673
 31
0.0
  0
LINE
  8
0
 10
35186.709646
 20
43116.217673
 30
0.0
 11
35443.647266
 21
43191.465016
 31
0.0
  0
LINE
  8
0
 10
35443.647266
 20
43191.465016
 30
0.0
 11
35572.055022
 21
43412.99635
 31
0.0
  0
LINE
  8
0
 10
35572.055022
 20
43412.99635
 30
0.0
 11
35668.645523
 21
43679.051743
 31
0.0
  0
LINE
  8
0
 10
35668.645523
 20
43679.051743
 30
0.0
 11
35707.994634
 21
43938.707691
 31
0.0
  0
LINE
  8
0
 10
35707.994634
 20
43938.707691
 30
0.0
 11
35738.477461
 21
44081.268576
 31
0.0
  0
LINE
  8
0
 10
35738.477461
 20
44081.268576
 30
0.0
 11
36041.150886
 21
44309.259275
 31
0.0
  0
LINE
  8
0
 10
36041.150886
 20
44309.259275
 30
0.0
 11
36192.452468
 21
44524.431725
 31
0.0
  0
LINE
  8
0
 10
36192.452468
 20
44524.431725
 30
0.0
 11
36205.135361
 21
44637.707804
 31
0.0
  0
LINE
  8
0
 10
36205.135361
 20
44637.707804
 30
0.0
 11
36337.398916
 21
44720.508456
 31
0.0
  0
LINE
  8
0
 10
36337.398916
 20
44720.508456
 30
0.0
 11
36650.286185
 21
44807.230673
 31
0.0
  0
LINE
  8
0
 10
36650.286185
 20
44807.230673
 30
0.0
 11
36836.021312
 21
44739.886549
 31
0.0
  0
LINE
  8
0
 10
36836.021312
 20
44739.886549
 30
0.0
 11
36871.660735
 21
44669.910647
 31
0.0
  0
LINE
  8
0
 10
36871.660735
 20
44669.910647
 30
0.0
 11
36773.766461
 21
44520.951861
 31
0.0
  0
LINE
  8
0
 10
36773.766461
 20
44520.951861
 30
0.0
 11
36884.468596
 21
44407.74888
 31
0.0
  0
LINE
  8
0
 10
36884.468596
 20
44407.74888
 30
0.0
 11
36946.830273
 21
44307.244561
 31
0.0
  0
LINE
  8
0
 10
36946.830273
 20
44307.244561
 30
0.0
 11
36959.604511
 21
44145.623017
 31
0.0
  0
LINE
  8
0
 10
36959.604511
 20
44145.623017
 30
0.0
 11
36959.651081
 21
44006.90178
 31
0.0
  0
LINE
  8
0
 10
36959.651081
 20
44006.90178
 30
0.0
 11
36869.397779
 21
43831.218924
 31
0.0
  0
LINE
  8
0
 10
36869.397779
 20
43831.218924
 30
0.0
 11
36962.338647
 21
43579.283887
 31
0.0
  0
LINE
  8
0
 10
36962.338647
 20
43579.283887
 30
0.0
 11
37024.694982
 21
43495.324432
 31
0.0
  0
LINE
  8
0
 10
37024.694982
 20
43495.324432
 30
0.0
 11
37117.601051
 21
43346.476817
 31
0.0
  0
LINE
  8
0
 10
37117.601051
 20
43346.476817
 30
0.0
 11
37238.480526
 21
43228.190761
 31
0.0
  0
LINE
  8
0
 10
37238.480526
 20
43228.190761
 30
0.0
 11
37431.915466
 21
42954.682479
 31
0.0
  0
LINE
  8
0
 10
37431.915466
 20
42954.682479
 30
0.0
 11
37569.360497
 21
42746.047374
 31
0.0
  0
LINE
  8
0
 10
37569.360497
 20
42746.047374
 30
0.0
 11
37587.226208
 21
42575.519088
 31
0.0
  0
LINE
  8
0
 10
37587.226208
 20
42575.519088
 30
0.0
 11
37530.025886
 21
42460.941968
 31
0.0
  0
LINE
  8
0
 10
37530.025886
 20
42460.941968
 30
0.0
 11
37454.989874
 21
42427.8054
 31
0.0
  0
LINE
  8
0
 10
37454.989874
 20
42427.8054
 30
0.0
 11
37383.741574
 21
42477.395951
 31
0.0
  0
LINE
  8
0
 10
37329.069095
 20
42408.636621
 30
0.0
 11
37535.160513
 21
42323.494931
 31
0.0
  0
LINE
  8
0
 10
37535.160513
 20
42323.494931
 30
0.0
 11
37614.083713
 21
42146.640583
 31
0.0
  0
LINE
  8
0
 10
37614.083713
 20
42146.640583
 30
0.0
 11
37568.372717
 21
41909.891
 31
0.0
  0
LINE
  8
0
 10
37568.372717
 20
41909.891
 30
0.0
 11
37474.259244
 21
41869.105129
 31
0.0
  0
LINE
  8
0
 10
37474.259244
 20
41869.105129
 30
0.0
 11
37363.611545
 21
41821.94509
 31
0.0
  0
LINE
  8
0
 10
37363.611545
 20
41821.94509
 30
0.0
 11
37401.800803
 21
41735.425626
 31
0.0
  0
LINE
  8
0
 10
37401.800803
 20
41735.425626
 30
0.0
 11
37302.618338
 21
41636.091509
 31
0.0
  0
LINE
  8
0
 10
37302.618338
 20
41636.091509
 30
0.0
 11
37228.876389
 21
41534.227735
 31
0.0
  0
LINE
  8
0
 10
37228.876389
 20
41534.227735
 30
0.0
 11
37141.18358
 21
41308.901216
 31
0.0
  0
LINE
  8
0
 10
37141.18358
 20
41308.901216
 30
0.0
 11
37063.658656
 21
41106.488817
 31
0.0
  0
LINE
  8
0
 10
37063.658656
 20
41106.488817
 30
0.0
 11
37030.622909
 21
40997.013195
 31
0.0
  0
LINE
  8
0
 10
36427.75903
 20
40749.709192
 30
0.0
 11
36565.131682
 21
40776.526756
 31
0.0
  0
LINE
  8
0
 10
36565.131682
 20
40776.526756
 30
0.0
 11
36654.185485
 21
40744.766627
 31
0.0
  0
LINE
  8
0
 10
36654.185485
 20
40744.766627
 30
0.0
 11
37045.963365
 21
40770.477973
 31
0.0
  0
LINE
  8
0
 10
37045.963365
 20
40770.477973
 30
0.0
 11
37127.336755
 21
40877.440157
 31
0.0
  0
LINE
  8
0
 10
37127.336755
 20
40877.440157
 30
0.0
 11
37239.225624
 21
41021.330553
 31
0.0
  0
LINE
  8
0
 10
37239.225624
 20
41021.330553
 30
0.0
 11
37310.385911
 21
41235.192932
 31
0.0
  0
LINE
  8
0
 10
37310.385911
 20
41235.192932
 30
0.0
 11
37365.058449
 21
41305.227358
 31
0.0
  0
LINE
  8
0
 10
37365.058449
 20
41305.227358
 30
0.0
 11
37774.617261
 21
41372.944412
 31
0.0
  0
LINE
  8
0
 10
37774.617261
 20
41372.944412
 30
0.0
 11
37794.935513
 21
41470.955215
 31
0.0
  0
LINE
  8
0
 10
37794.935513
 20
41470.955215
 30
0.0
 11
38056.953451
 21
41496.577047
 31
0.0
  0
LINE
  8
0
 10
38056.953451
 20
41496.577047
 30
0.0
 11
38317.705447
 21
41496.744134
 31
0.0
  0
LINE
  8
0
 10
38317.705447
 20
41496.744134
 30
0.0
 11
38490.70918
 21
41443.402444
 31
0.0
  0
LINE
  8
0
 10
38490.70918
 20
41443.402444
 30
0.0
 11
38812.524223
 21
41401.610799
 31
0.0
  0
LINE
  8
0
 10
38812.524223
 20
41401.610799
 30
0.0
 11
39013.515206
 21
41325.379849
 31
0.0
  0
LINE
  8
0
 10
39013.515206
 20
41325.379849
 30
0.0
 11
39260.309724
 21
41203.363053
 31
0.0
  0
LINE
  8
0
 10
39260.309724
 20
41203.363053
 30
0.0
 11
39514.735921
 21
41074.988875
 31
0.0
  0
LINE
  8
0
 10
39514.735921
 20
41074.988875
 30
0.0
 11
39598.693711
 21
41039.408902
 31
0.0
  0
LINE
  8
0
 10
39598.693711
 20
41039.408902
 30
0.0
 11
39624.123487
 21
41062.333285
 31
0.0
  0
LINE
  8
0
 10
39624.123487
 20
41062.333285
 30
0.0
 11
39690.253741
 21
41085.284046
 31
0.0
  0
LINE
  8
0
 10
39690.253741
 20
41085.284046
 30
0.0
 11
39822.558447
 21
41005.192681
 31
0.0
  0
LINE
  8
0
 10
39822.558447
 20
41005.192681
 30
0.0
 11
40004.452204
 21
40963.313512
 31
0.0
  0
LINE
  8
0
 10
40004.452204
 20
40963.313512
 30
0.0
 11
40126.569242
 21
40915.032397
 31
0.0
  0
LINE
  8
0
 10
40126.569242
 20
40915.032397
 30
0.0
 11
40386.084227
 21
40762.484395
 31
0.0
  0
LINE
  8
0
 10
40386.084227
 20
40762.484395
 30
0.0
 11
40520.93064
 21
40679.85098
 31
0.0
  0
LINE
  8
0
 10
40520.93064
 20
40679.85098
 30
0.0
 11
40770.254382
 21
40564.204668
 31
0.0
  0
LINE
  8
0
 10
40770.254382
 20
40564.204668
 30
0.0
 11
41097.14924
 21
40471.517983
 31
0.0
  0
LINE
  8
0
 10
41097.14924
 20
40471.517983
 30
0.0
 11
41242.155523
 21
40420.708633
 31
0.0
  0
LINE
  8
0
 10
41242.155523
 20
40420.708633
 30
0.0
 11
41374.445759
 21
40362.255342
 31
0.0
  0
LINE
  8
0
 10
41374.445759
 20
40362.255342
 30
0.0
 11
41383.362889
 21
40322.809796
 31
0.0
  0
LINE
  8
0
 10
41383.362889
 20
40322.809796
 30
0.0
 11
41352.891982
 21
40178.98238
 31
0.0
  0
LINE
  8
0
 10
41352.891982
 20
40178.98238
 30
0.0
 11
41401.227445
 21
40161.197775
 31
0.0
  0
LINE
  8
0
 10
41401.227445
 20
40161.197775
 30
0.0
 11
41441.884391
 21
40273.216187
 31
0.0
  0
LINE
  8
0
 10
41441.884391
 20
40273.216187
 30
0.0
 11
41477.475915
 21
40325.417513
 31
0.0
  0
LINE
  8
0
 10
41477.475915
 20
40325.417513
 30
0.0
 11
41556.32321
 21
40338.196078
 31
0.0
  0
LINE
  8
0
 10
41556.32321
 20
40338.196078
 30
0.0
 11
41659.344268
 21
40324.265595
 31
0.0
  0
LINE
  8
0
 10
41659.344268
 20
40324.265595
 30
0.0
 11
41883.180366
 21
40323.141541
 31
0.0
  0
LINE
  8
0
 10
41883.180366
 20
40323.141541
 30
0.0
 11
42026.898113
 21
40306.692973
 31
0.0
  0
LINE
  8
0
 10
42026.898113
 20
40306.692973
 30
0.0
 11
42178.236272
 21
40315.701729
 31
0.0
  0
LINE
  8
0
 10
42178.236272
 20
40315.701729
 30
0.0
 11
42307.952546
 21
40327.241291
 31
0.0
  0
LINE
  8
0
 10
42307.952546
 20
40327.241291
 30
0.0
 11
42418.58366
 21
40360.402362
 31
0.0
  0
LINE
  8
0
 10
42418.58366
 20
40360.402362
 30
0.0
 11
42581.349961
 21
40410.141568
 31
0.0
  0
LINE
  8
0
 10
42581.349961
 20
40410.141568
 30
0.0
 11
42650.031175
 21
40392.370705
 31
0.0
  0
LINE
  8
0
 10
42650.031175
 20
40392.370705
 30
0.0
 11
42716.183055
 21
40336.420379
 31
0.0
  0
LINE
  8
0
 10
42716.183055
 20
40336.420379
 30
0.0
 11
42775.962712
 21
40316.098548
 31
0.0
  0
LINE
  8
0
 10
42775.962712
 20
40316.098548
 30
0.0
 11
42927.289681
 21
40342.923392
 31
0.0
  0
LINE
  8
0
 10
42927.289681
 20
40342.923392
 30
0.0
 11
42933.571175
 21
40547.814126
 31
0.0
  0
LINE
  8
0
 10
42933.571175
 20
40547.814126
 30
0.0
 11
43078.521489
 21
40619.174257
 31
0.0
  0
LINE
  8
0
 10
43078.521489
 20
40619.174257
 30
0.0
 11
43156.051404
 21
40738.84758
 31
0.0
  0
LINE
  8
0
 10
43156.051404
 20
40738.84758
 30
0.0
 11
43269.189947
 21
40855.998464
 31
0.0
  0
LINE
  8
0
 10
43269.189947
 20
40855.998464
 30
0.0
 11
43396.331577
 21
40933.708182
 31
0.0
  0
LINE
  8
0
 10
43396.331577
 20
40933.708182
 30
0.0
 11
43594.695325
 21
40991.102769
 31
0.0
  0
LINE
  8
0
 10
43594.695325
 20
40991.102769
 30
0.0
 11
43644.314285
 21
40931.324704
 31
0.0
  0
LINE
  8
0
 10
43644.314285
 20
40931.324704
 30
0.0
 11
43677.394856
 21
40888.079201
 31
0.0
  0
LINE
  8
0
 10
43893.549699
 20
40972.208927
 30
0.0
 11
43766.374821
 21
40988.66937
 31
0.0
  0
LINE
  8
0
 10
43766.374821
 20
40988.66937
 30
0.0
 11
43557.745297
 21
41176.87259
 31
0.0
  0
LINE
  8
0
 10
43557.745297
 20
41176.87259
 30
0.0
 11
43645.431553
 21
41335.998771
 31
0.0
  0
LINE
  8
0
 10
43645.431553
 20
41335.998771
 30
0.0
 11
43851.393568
 21
41469.748933
 31
0.0
  0
LINE
  8
0
 10
43851.393568
 20
41469.748933
 30
0.0
 11
44133.674132
 21
41550.099938
 31
0.0
  0
LINE
  8
0
 10
44133.674132
 20
41550.099938
 30
0.0
 11
44358.762344
 21
41538.791158
 31
0.0
  0
LINE
  8
0
 10
44358.762344
 20
41538.791158
 30
0.0
 11
44549.467834
 21
41647.078029
 31
0.0
  0
LINE
  8
0
 10
44549.467834
 20
41647.078029
 30
0.0
 11
44657.591455
 21
41559.342826
 31
0.0
  0
LINE
  8
0
 10
44657.591455
 20
41559.342826
 30
0.0
 11
44900.466459
 21
41577.313444
 31
0.0
  0
LINE
  8
0
 10
44900.466459
 20
41577.313444
 30
0.0
 11
44966.617829
 21
41508.639778
 31
0.0
  0
LINE
  8
0
 10
44966.617829
 20
41508.639778
 30
0.0
 11
45121.764012
 21
41487.106421
 31
0.0
  0
LINE
  8
0
 10
45121.764012
 20
41487.106421
 30
0.0
 11
45234.975628
 21
41390.468018
 31
0.0
  0
LINE
  8
0
 10
45195.523177
 20
41473.15606
 30
0.0
 11
45162.43028
 21
41552.030667
 31
0.0
  0
LINE
  8
0
 10
45162.43028
 20
41552.030667
 30
0.0
 11
45027.604965
 21
41638.475447
 31
0.0
  0
LINE
  8
0
 10
45027.604965
 20
41638.475447
 30
0.0
 11
45209.46399
 21
41592.781117
 31
0.0
  0
LINE
  8
0
 10
45209.46399
 20
41592.781117
 30
0.0
 11
45627.883162
 21
41435.258261
 31
0.0
  0
LINE
  8
0
 10
45627.883162
 20
41435.258261
 30
0.0
 11
45835.172048
 21
41384.491418
 31
0.0
  0
LINE
  8
0
 10
45835.172048
 20
41384.491418
 30
0.0
 11
46080.615168
 21
41312.117127
 31
0.0
  0
LINE
  8
0
 10
46080.615168
 20
41312.117127
 30
0.0
 11
46284.08706
 21
41258.803702
 31
0.0
  0
LINE
  8
0
 10
46284.08706
 20
41258.803702
 30
0.0
 11
46432.891417
 21
41178.733079
 31
0.0
  0
LINE
  8
0
 10
46432.891417
 20
41178.733079
 30
0.0
 11
46509.214701
 21
41103.705766
 31
0.0
  0
LINE
  8
0
 10
46509.214701
 20
41103.705766
 30
0.0
 11
46555.031903
 21
41000.664045
 31
0.0
  0
LINE
  8
0
 10
46555.031903
 20
41000.664045
 30
0.0
 11
46702.659868
 21
40681.365874
 31
0.0
  0
LINE
  8
0
 10
46702.659868
 20
40681.365874
 30
0.0
 11
46903.724681
 21
40281.936639
 31
0.0
  0
LINE
  8
0
 10
46903.724681
 20
40281.936639
 30
0.0
 11
47069.167011
 21
39929.566676
 31
0.0
  0
LINE
  8
0
 10
47069.167011
 20
39929.566676
 30
0.0
 11
47238.445891
 21
39522.482549
 31
0.0
  0
LINE
  8
0
 10
47238.445891
 20
39522.482549
 30
0.0
 11
47272.924059
 21
39161.116265
 31
0.0
  0
LINE
  8
0
 10
47272.924059
 20
39161.116265
 30
0.0
 11
47172.540602
 21
38994.349057
 31
0.0
  0
LINE
  8
0
 10
47172.540602
 20
38994.349057
 30
0.0
 11
47171.376474
 21
38729.666197
 31
0.0
  0
LINE
  8
0
 10
47171.376474
 20
38729.666197
 30
0.0
 11
47256.554986
 21
38765.355661
 31
0.0
  0
LINE
  8
0
 10
47256.554986
 20
38765.355661
 30
0.0
 11
47115.524642
 21
38492.939473
 31
0.0
  0
LINE
  8
0
 10
47115.524642
 20
38492.939473
 30
0.0
 11
46938.945023
 21
38083.062678
 31
0.0
  0
LINE
  8
0
 10
46938.945023
 20
38083.062678
 30
0.0
 11
46752.194742
 21
37662.993145
 31
0.0
  0
LINE
  8
0
 10
46752.194742
 20
37662.993145
 30
0.0
 11
46355.782349
 21
36862.270379
 31
0.0
  0
LINE
  8
0
 10
46355.782349
 20
36862.270379
 30
0.0
 11
46048.347569
 21
36125.222193
 31
0.0
  0
LINE
  8
0
 10
46048.347569
 20
36125.222193
 30
0.0
 11
45733.257506
 21
35435.238305
 31
0.0
  0
LINE
  8
0
 10
45733.257506
 20
35435.238305
 30
0.0
 11
45766.337251
 21
35391.994845
 31
0.0
  0
LINE
  8
0
 10
45766.337251
 20
35391.994845
 30
0.0
 11
45672.298265
 21
35234.119837
 31
0.0
  0
LINE
  8
0
 10
45672.298265
 20
35234.119837
 30
0.0
 11
45555.428286
 21
34926.057547
 31
0.0
  0
LINE
  8
0
 10
45555.428286
 20
34926.057547
 30
0.0
 11
45270.807909
 21
34336.610462
 31
0.0
  0
LINE
  8
0
 10
45270.807909
 20
34336.610462
 30
0.0
 11
44936.576617
 21
33771.293202
 31
0.0
  0
LINE
  8
0
 10
44936.576617
 20
33771.293202
 30
0.0
 11
44829.801256
 21
33650.306155
 31
0.0
  0
LINE
  8
0
 10
44829.801256
 20
33650.306155
 30
0.0
 11
44676.000787
 21
33455.466342
 31
0.0
  0
LINE
  8
0
 10
44676.000787
 20
33455.466342
 30
0.0
 11
44245.005545
 21
33149.679357
 31
0.0
  0
LINE
  8
0
 10
44245.005545
 20
33149.679357
 30
0.0
 11
44126.728199
 21
33164.856515
 31
0.0
  0
LINE
  8
0
 10
44126.728199
 20
33164.856515
 30
0.0
 11
44036.420877
 21
33200.419195
 31
0.0
  0
LINE
  8
0
 10
44036.420877
 20
33200.419195
 30
0.0
 11
43462.870865
 21
33166.868545
 31
0.0
  0
LINE
  8
0
 10
43462.870865
 20
33166.868545
 30
0.0
 11
43415.814293
 21
33169.376145
 31
0.0
  0
LINE
  8
0
 10
43415.814293
 20
33169.376145
 30
0.0
 11
43358.563129
 21
33225.329112
 31
0.0
  0
LINE
  8
0
 10
43358.563129
 20
33225.329112
 30
0.0
 11
43399.256564
 21
33234.270672
 31
0.0
  0
LINE
  8
0
 10
43399.256564
 20
33234.270672
 30
0.0
 11
43420.865597
 21
33263.560131
 31
0.0
  0
LINE
  8
0
 10
43420.865597
 20
33263.560131
 30
0.0
 11
43513.696635
 21
33285.270409
 31
0.0
  0
LINE
  8
0
 10
43513.696635
 20
33285.270409
 30
0.0
 11
43513.684522
 21
33317.087848
 31
0.0
  0
LINE
  8
0
 10
43513.684522
 20
33317.087848
 30
0.0
 11
43486.961398
 21
33359.06549
 31
0.0
  0
LINE
  8
0
 10
43486.961398
 20
33359.06549
 30
0.0
 11
43469.141617
 21
33398.504869
 31
0.0
  0
LINE
  8
0
 10
43469.141617
 20
33398.504869
 30
0.0
 11
43536.50218
 21
33511.828508
 31
0.0
  0
LINE
  8
0
 10
43536.50218
 20
33511.828508
 30
0.0
 11
43612.770125
 21
33611.159161
 31
0.0
  0
LINE
  8
0
 10
43494.494662
 20
33614.883243
 30
0.0
 11
43313.960635
 21
33463.28863
 31
0.0
  0
LINE
  8
0
 10
43313.960635
 20
33463.28863
 30
0.0
 11
43311.438322
 21
33407.287791
 31
0.0
  0
LINE
  8
0
 10
43311.438322
 20
33407.287791
 30
0.0
 11
43352.139029
 21
33397.138698
 31
0.0
  0
LINE
  8
0
 10
43352.139029
 20
33397.138698
 30
0.0
 11
43292.386747
 21
33341.092063
 31
0.0
  0
LINE
  8
0
 10
43292.386747
 20
33341.092063
 30
0.0
 11
43233.873283
 21
33371.590146
 31
0.0
  0
LINE
  8
0
 10
43233.873283
 20
33371.590146
 30
0.0
 11
42917.289272
 21
33128.248764
 31
0.0
  0
LINE
  8
0
 10
42917.289272
 20
33128.248764
 30
0.0
 11
42861.320942
 21
33152.385379
 31
0.0
  0
LINE
  8
0
 10
42861.320942
 20
33152.385379
 30
0.0
 11
42490.018192
 21
32975.177851
 31
0.0
  0
LINE
  8
0
 10
42490.018192
 20
32975.177851
 30
0.0
 11
42318.340623
 21
32924.129936
 31
0.0
  0
LINE
  8
0
 10
42318.340623
 20
32924.129936
 30
0.0
 11
41982.629727
 21
32776.220358
 31
0.0
  0
LINE
  8
0
 10
41982.629727
 20
32776.220358
 30
0.0
 11
41922.882411
 21
32695.988823
 31
0.0
  0
LINE
  8
0
 10
41922.882411
 20
32695.988823
 30
0.0
 11
41866.910968
 21
32722.671075
 31
0.0
  0
LINE
  8
0
 10
41866.910968
 20
32722.671075
 30
0.0
 11
41616.40484
 21
32585.009968
 31
0.0
  0
LINE
  8
0
 10
41616.40484
 20
32585.009968
 30
0.0
 11
41583.312851
 21
32648.620898
 31
0.0
  0
LINE
  8
0
 10
41583.312851
 20
32648.620898
 30
0.0
 11
41533.707547
 21
32654.944338
 31
0.0
  0
LINE
  8
0
 10
41533.707547
 20
32654.944338
 30
0.0
 11
41355.676957
 21
32566.978849
 31
0.0
  0
LINE
  8
0
 10
41355.676957
 20
32566.978849
 30
0.0
 11
41289.537159
 21
32572.016004
 31
0.0
  0
LINE
  8
0
 10
41289.537159
 20
32572.016004
 30
0.0
 11
41122.943328
 21
32506.968934
 31
0.0
  0
LINE
  8
0
 10
41122.943328
 20
32506.968934
 30
0.0
 11
41100.034862
 21
32546.406149
 31
0.0
  0
LINE
  8
0
 10
41100.034862
 20
32546.406149
 30
0.0
 11
40908.005759
 21
32469.882966
 31
0.0
  0
LINE
  8
0
 10
40908.005759
 20
32469.882966
 30
0.0
 11
40848.217399
 21
32494.016912
 31
0.0
  0
LINE
  8
0
 10
40848.217399
 20
32494.016912
 30
0.0
 11
40649.814211
 21
32451.853063
 31
0.0
  0
LINE
  8
0
 10
40649.814211
 20
32451.853063
 30
0.0
 11
40501.014059
 21
32411.002234
 31
0.0
  0
LINE
  8
0
 10
40501.014059
 20
32411.002234
 30
0.0
 11
40242.844246
 21
32320.422546
 31
0.0
  0
LINE
  8
0
 10
40242.844246
 20
32320.422546
 30
0.0
 11
40185.613753
 21
32301.283657
 31
0.0
  0
LINE
  8
0
 10
40185.613753
 20
32301.283657
 30
0.0
 11
40030.443152
 21
32282.06435
 31
0.0
  0
LINE
  8
0
 10
40030.443152
 20
32282.06435
 30
0.0
 11
39825.703159
 21
32155.888306
 31
0.0
  0
LINE
  8
0
 10
39825.703159
 20
32155.888306
 30
0.0
 11
39687.062612
 21
32145.591691
 31
0.0
  0
LINE
  8
0
 10
39687.062612
 20
32145.591691
 30
0.0
 11
39475.952749
 21
32038.50107
 31
0.0
  0
LINE
  8
0
 10
39475.952749
 20
32038.50107
 30
0.0
 11
39450.506857
 21
32056.299558
 31
0.0
  0
LINE
  8
0
 10
39450.506857
 20
32056.299558
 30
0.0
 11
39163.088493
 21
31910.959934
 31
0.0
  0
LINE
  8
0
 10
39163.088493
 20
31910.959934
 30
0.0
 11
39119.848166
 21
31889.286002
 31
0.0
  0
LINE
  8
0
 10
39119.848166
 20
31889.286002
 30
0.0
 11
39110.933915
 21
31918.553747
 31
0.0
  0
LINE
  8
0
 10
39110.933915
 20
31918.553747
 30
0.0
 11
38990.079945
 21
31957.911574
 31
0.0
  0
LINE
  8
0
 10
38990.079945
 20
31957.911574
 30
0.0
 11
38739.53369
 21
31843.148709
 31
0.0
  0
LINE
  8
0
 10
38739.53369
 20
31843.148709
 30
0.0
 11
38679.741259
 21
31864.737467
 31
0.0
  0
LINE
  8
0
 10
38679.741259
 20
31864.737467
 30
0.0
 11
38542.393532
 21
31775.524336
 31
0.0
  0
LINE
  8
0
 10
38542.393532
 20
31775.524336
 30
0.0
 11
38443.183057
 21
31752.530633
 31
0.0
  0
LINE
  8
0
 10
38443.183057
 20
31752.530633
 30
0.0
 11
38153.159545
 21
31747.198216
 31
0.0
  0
LINE
  8
0
 10
38153.159545
 20
31747.198216
 30
0.0
 11
38067.950986
 21
31692.394394
 31
0.0
  0
LINE
  8
0
 10
38067.950986
 20
31692.394394
 30
0.0
 11
38036.141791
 21
31715.279439
 31
0.0
  0
LINE
  8
0
 10
38036.141791
 20
31715.279439
 30
0.0
 11
37863.161888
 21
31656.583726
 31
0.0
  0
LINE
  8
0
 10
37863.161888
 20
31656.583726
 30
0.0
 11
37686.354921
 21
31625.887567
 31
0.0
  0
LINE
  8
0
 10
37686.354921
 20
31625.887567
 30
0.0
 11
37610.045203
 21
31582.546251
 31
0.0
  0
LINE
  8
0
 10
37610.045203
 20
31582.546251
 30
0.0
 11
37524.820274
 21
31569.746387
 31
0.0
  0
LINE
  8
0
 10
37524.820274
 20
31569.746387
 30
0.0
 11
37396.351019
 21
31536.544295
 31
0.0
  0
LINE
  8
0
 10
37396.351019
 20
31536.544295
 30
0.0
 11
37325.104562
 21
31564.488204
 31
0.0
  0
LINE
  8
0
 10
37325.104562
 20
31564.488204
 30
0.0
 11
37106.341338
 21
31453.564348
 31
0.0
  0
LINE
  8
0
 10
37106.341338
 20
31453.564348
 30
0.0
 11
36855.768773
 21
31355.341666
 31
0.0
  0
LINE
  8
0
 10
36855.768773
 20
31355.341666
 30
0.0
 11
36678.975521
 21
31260.99862
 31
0.0
  0
LINE
  8
0
 10
36678.975521
 20
31260.99862
 30
0.0
 11
36474.174378
 21
31225.185047
 31
0.0
  0
LINE
  8
0
 10
36474.174378
 20
31225.185047
 30
0.0
 11
36204.505419
 21
31148.583228
 31
0.0
  0
LINE
  8
0
 10
36204.505419
 20
31148.583228
 30
0.0
 11
35965.36358
 21
31077.097992
 31
0.0
  0
LINE
  8
0
 10
35965.36358
 20
31077.097992
 30
0.0
 11
35601.570352
 21
30930.403463
 31
0.0
  0
LINE
  8
0
 10
35601.570352
 20
30930.403463
 30
0.0
 11
35226.304517
 21
30835.887648
 31
0.0
  0
LINE
  8
0
 10
35226.304517
 20
30835.887648
 30
0.0
 11
35054.583486
 21
30753.000036
 31
0.0
  0
LINE
  8
0
 10
35054.583486
 20
30753.000036
 30
0.0
 11
34959.185974
 21
30695.635923
 31
0.0
  0
LINE
  8
0
 10
34959.185974
 20
30695.635923
 30
0.0
 11
34842.163949
 21
30626.796477
 31
0.0
  0
LINE
  8
0
 10
34842.163949
 20
30626.796477
 30
0.0
 11
34770.909621
 21
30657.286785
 31
0.0
  0
LINE
  8
0
 10
34770.909621
 20
30657.286785
 30
0.0
 11
34601.734826
 21
30557.851242
 31
0.0
  0
LINE
  8
0
 10
34601.734826
 20
30557.851242
 30
0.0
 11
34315.565746
 21
30289.008747
 31
0.0
  0
LINE
  8
0
 10
34315.565746
 20
30289.008747
 30
0.0
 11
34234.132267
 21
30318.21732
 31
0.0
  0
LINE
  8
0
 10
34234.132267
 20
30318.21732
 30
0.0
 11
33805.490321
 21
29962.683808
 31
0.0
  0
LINE
  8
0
 10
33805.490321
 20
29962.683808
 30
0.0
 11
33744.416053
 21
29977.906917
 31
0.0
  0
LINE
  8
0
 10
33744.416053
 20
29977.906917
 30
0.0
 11
33423.870301
 21
29748.487964
 31
0.0
  0
LINE
  8
0
 10
33423.870301
 20
29748.487964
 30
0.0
 11
33244.512481
 21
29628.668428
 31
0.0
  0
LINE
  8
0
 10
33244.512481
 20
29628.668428
 30
0.0
 11
33035.878335
 21
29545.739951
 31
0.0
  0
LINE
  8
0
 10
33035.878335
 20
29545.739951
 30
0.0
 11
32917.587088
 21
29432.337119
 31
0.0
  0
LINE
  8
0
 10
32917.587088
 20
29432.337119
 30
0.0
 11
32752.230006
 21
29281.974235
 31
0.0
  0
LINE
  8
0
 10
32752.230006
 20
29281.974235
 30
0.0
 11
32837.488606
 21
29242.585138
 31
0.0
  0
LINE
  8
0
 10
32837.488606
 20
29242.585138
 30
0.0
 11
32940.545068
 21
29250.313994
 31
0.0
  0
LINE
  8
0
 10
32940.545068
 20
29250.313994
 30
0.0
 11
32958.348243
 21
29280.882387
 31
0.0
  0
LINE
  8
0
 10
32958.348243
 20
29280.882387
 30
0.0
 11
32988.890361
 21
29260.54076
 31
0.0
  0
LINE
  8
0
 10
32988.890361
 20
29260.54076
 30
0.0
 11
32962.18249
 21
29224.872408
 31
0.0
  0
LINE
  8
0
 10
32962.18249
 20
29224.872408
 30
0.0
 11
32834.953721
 21
29210.757051
 31
0.0
  0
LINE
  8
0
 10
32834.953721
 20
29210.757051
 30
0.0
 11
32638.98159
 21
29314.973672
 31
0.0
  0
LINE
  8
0
 10
32638.98159
 20
29314.973672
 30
0.0
 11
32304.260059
 21
29621.483077
 31
0.0
  0
LINE
  8
0
 10
32304.260059
 20
29621.483077
 30
0.0
 11
32064.95627
 21
29950.992603
 31
0.0
  0
LINE
  8
0
 10
32064.95627
 20
29950.992603
 30
0.0
 11
31848.540672
 21
30325.079783
 31
0.0
  0
LINE
  8
0
 10
31848.540672
 20
30325.079783
 30
0.0
 11
31686.832859
 21
30711.945144
 31
0.0
  0
LINE
  8
0
 10
31686.832859
 20
30711.945144
 30
0.0
 11
31494.714847
 21
30672.317333
 31
0.0
  0
LINE
  8
0
 10
31494.714847
 20
30672.317333
 30
0.0
 11
31555.909124
 21
30271.360528
 31
0.0
  0
LINE
  8
0
 10
31555.909124
 20
30271.360528
 30
0.0
 11
31554.659162
 21
30196.249596
 31
0.0
  0
LINE
  8
0
 10
31554.659162
 20
30196.249596
 30
0.0
 11
31496.156915
 21
30103.266467
 31
0.0
  0
LINE
  8
0
 10
31496.156915
 20
30103.266467
 30
0.0
 11
31415.999462
 21
30091.739805
 31
0.0
  0
LINE
  8
0
 10
31415.999462
 20
30091.739805
 30
0.0
 11
31204.780356
 21
30092.830541
 31
0.0
  0
LINE
  8
0
 10
31204.780356
 20
30092.830541
 30
0.0
 11
31197.22244
 21
29834.392425
 31
0.0
  0
LINE
  8
0
 10
31488.332413
 20
30741.056153
 30
0.0
 11
31661.372715
 21
30753.933698
 31
0.0
  0
LINE
  8
0
 10
31661.372715
 20
30753.933698
 30
0.0
 11
31667.632856
 21
31093.83898
 31
0.0
  0
LINE
  8
0
 10
31667.632856
 20
31093.83898
 30
0.0
 11
31732.513619
 21
31128.265491
 31
0.0
  0
LINE
  8
0
 10
31732.513619
 20
31128.265491
 30
0.0
 11
31775.785308
 21
31091.384167
 31
0.0
  0
LINE
  8
0
 10
31775.785308
 20
31091.384167
 30
0.0
 11
31932.279073
 21
31115.703655
 31
0.0
  0
LINE
  8
0
 10
31932.279073
 20
31115.703655
 30
0.0
 11
32084.955152
 21
31138.74675
 31
0.0
  0
LINE
  8
0
 10
32084.955152
 20
31138.74675
 30
0.0
 11
32247.805183
 21
31174.528419
 31
0.0
  0
LINE
  8
0
 10
32247.805183
 20
31174.528419
 30
0.0
 11
32336.868086
 21
31178.422456
 31
0.0
  0
LINE
  8
0
 10
32336.868086
 20
31178.422456
 30
0.0
 11
32453.925179
 21
31172.155971
 31
0.0
  0
LINE
  8
0
 10
32453.925179
 20
31172.155971
 30
0.0
 11
32619.330632
 21
31164.657232
 31
0.0
  0
LINE
  8
0
 10
32619.330632
 20
31164.657232
 30
0.0
 11
32852.163573
 21
31171.218344
 31
0.0
  0
LINE
  8
0
 10
32852.163573
 20
31171.218344
 30
0.0
 11
32992.105388
 21
31212.072069
 31
0.0
  0
LINE
  8
0
 10
32992.105388
 20
31212.072069
 30
0.0
 11
33144.748883
 21
31319.131736
 31
0.0
  0
LINE
  8
0
 10
32807.603537
 20
31265.382825
 30
0.0
 11
32703.275248
 21
31258.930146
 31
0.0
  0
LINE
  8
0
 10
32703.275248
 20
31258.930146
 30
0.0
 11
32605.292593
 21
31303.402937
 31
0.0
  0
LINE
  8
0
 10
32605.292593
 20
31303.402937
 30
0.0
 11
32430.943635
 21
31433.103255
 31
0.0
  0
LINE
  8
0
 10
32430.943635
 20
31433.103255
 30
0.0
 11
32336.722212
 21
31658.346462
 31
0.0
  0
LINE
  8
0
 10
32336.722212
 20
31658.346462
 30
0.0
 11
32306.147817
 21
31784.348376
 31
0.0
  0
LINE
  8
0
 10
32306.147817
 20
31784.348376
 30
0.0
 11
32097.470491
 21
31827.457387
 31
0.0
  0
LINE
  8
0
 10
32097.470491
 20
31827.457387
 30
0.0
 11
32031.294874
 21
31871.957796
 31
0.0
  0
LINE
  8
0
 10
32031.294874
 20
31871.957796
 30
0.0
 11
31783.240322
 21
31688.438026
 31
0.0
  0
LINE
  8
0
 10
31783.240322
 20
31688.438026
 30
0.0
 11
31776.901803
 21
31610.778645
 31
0.0
  0
LINE
  8
0
 10
31776.901803
 20
31610.778645
 30
0.0
 11
31783.290759
 21
31520.399589
 31
0.0
  0
LINE
  8
0
 10
31783.290759
 20
31520.399589
 30
0.0
 11
31745.143802
 21
31440.167344
 31
0.0
  0
LINE
  8
0
 10
31745.143802
 20
31440.167344
 30
0.0
 11
31577.229766
 21
31308.904941
 31
0.0
  0
LINE
  8
0
 10
31577.229766
 20
31308.904941
 30
0.0
 11
31499.63888
 21
31227.365778
 31
0.0
  0
LINE
  8
0
 10
31499.63888
 20
31227.365778
 30
0.0
 11
31501.060461
 21
30727.063528
 31
0.0
  0
LINE
  8
0
 10
31400.821222
 20
29787.465986
 30
0.0
 11
31680.781654
 21
29674.407495
 31
0.0
  0
LINE
  8
0
 10
31680.781654
 20
29674.407495
 30
0.0
 11
31951.844733
 21
29521.877722
 31
0.0
  0
LINE
  8
0
 10
31951.844733
 20
29521.877722
 30
0.0
 11
32110.937711
 21
29367.977962
 31
0.0
  0
LINE
  8
0
 10
32110.937711
 20
29367.977962
 30
0.0
 11
32309.492952
 21
29149.188119
 31
0.0
  0
LINE
  8
0
 10
32309.492952
 20
29149.188119
 30
0.0
 11
32348.986417
 21
28983.726549
 31
0.0
  0
LINE
  8
0
 10
32348.986417
 20
28983.726549
 30
0.0
 11
32290.508808
 21
28815.631744
 31
0.0
  0
LINE
  8
0
 10
32290.508808
 20
28815.631744
 30
0.0
 11
31123.973915
 21
27969.263082
 31
0.0
  0
LINE
  8
0
 10
31123.973915
 20
27969.263082
 30
0.0
 11
31033.639127
 21
27942.44624
 31
0.0
  0
LINE
  8
0
 10
31033.639127
 20
27942.44624
 30
0.0
 11
30922.929969
 21
27966.53501
 31
0.0
  0
LINE
  8
0
 10
30922.929969
 20
27966.53501
 30
0.0
 11
30837.66851
 21
27993.193097
 31
0.0
  0
LINE
  8
0
 10
30837.66851
 20
27993.193097
 30
0.0
 11
30485.136495
 21
28208.03034
 31
0.0
  0
LINE
  8
0
 10
30485.136495
 20
28208.03034
 30
0.0
 11
30532.180332
 21
28335.38349
 31
0.0
  0
LINE
  8
0
 10
30532.180332
 20
28335.38349
 30
0.0
 11
30039.676074
 21
28539.913403
 31
0.0
  0
LINE
  8
0
 10
30039.676074
 20
28539.913403
 30
0.0
 11
29970.984846
 21
28460.918711
 31
0.0
  0
LINE
  8
0
 10
29970.984846
 20
28460.918711
 30
0.0
 11
30122.432635
 21
28382.121083
 31
0.0
  0
LINE
  8
0
 10
30122.432635
 20
28382.121083
 30
0.0
 11
30104.62752
 21
28349.004076
 31
0.0
  0
LINE
  8
0
 10
30104.62752
 20
28349.004076
 30
0.0
 11
29973.549226
 21
28393.445684
 31
0.0
  0
LINE
  8
0
 10
29973.549226
 20
28393.445684
 30
0.0
 11
30002.837583
 21
28319.630988
 31
0.0
  0
LINE
  8
0
 10
30002.837583
 20
28319.630988
 30
0.0
 11
30047.381767
 21
28294.208586
 31
0.0
  0
LINE
  8
0
 10
30047.381767
 20
28294.208586
 30
0.0
 11
30064.176571
 21
27418.312286
 31
0.0
  0
LINE
  8
0
 10
30064.176571
 20
27418.312286
 30
0.0
 11
30085.809579
 21
27415.785819
 31
0.0
  0
LINE
  8
0
 10
30085.809579
 20
27415.785819
 30
0.0
 11
30082.009381
 21
27355.945005
 31
0.0
  0
LINE
  8
0
 10
30082.009381
 20
27355.945005
 30
0.0
 11
30031.113157
 21
27344.440126
 31
0.0
  0
LINE
  8
0
 10
30031.113157
 20
27344.440126
 30
0.0
 11
29958.595434
 21
27294.721221
 31
0.0
  0
LINE
  8
0
 10
29958.595434
 20
27294.721221
 30
0.0
 11
30108.801782
 21
27112.800435
 31
0.0
  0
LINE
  8
0
 10
30108.801782
 20
27112.800435
 30
0.0
 11
30015.932015
 21
27036.326362
 31
0.0
  0
LINE
  8
0
 10
30015.932015
 20
27036.326362
 30
0.0
 11
29396.03296
 21
27696.520307
 31
0.0
  0
LINE
  8
0
 10
29396.03296
 20
27696.520307
 30
0.0
 11
29250.998983
 21
27577.985296
 31
0.0
  0
LINE
  8
0
 10
29250.998983
 20
27577.985296
 30
0.0
 11
29434.336477
 21
27245.860278
 31
0.0
  0
LINE
  8
0
 10
29434.336477
 20
27245.860278
 30
0.0
 11
29347.818323
 21
27198.674027
 31
0.0
  0
LINE
  8
0
 10
31204.865193
 20
29806.391645
 30
0.0
 11
31346.105687
 21
29795.056799
 31
0.0
  0
LINE
  8
0
 10
29342.72678
 20
27203.76197
 30
0.0
 11
29091.97575
 21
27425.061353
 31
0.0
  0
LINE
  8
0
 10
29091.97575
 20
27425.061353
 30
0.0
 11
29136.433317
 21
27712.835085
 31
0.0
  0
LINE
  8
0
 10
29136.433317
 20
27712.835085
 30
0.0
 11
29109.711235
 21
27708.99132
 31
0.0
  0
LINE
  8
0
 10
29109.711235
 20
27708.99132
 30
0.0
 11
29077.943083
 21
27548.544832
 31
0.0
  0
LINE
  8
0
 10
29077.943083
 20
27548.544832
 30
0.0
 11
28965.934373
 21
27638.836873
 31
0.0
  0
LINE
  8
0
 10
28965.934373
 20
27638.836873
 30
0.0
 11
28805.557889
 21
27767.280023
 31
0.0
  0
LINE
  8
0
 10
28805.557889
 20
27767.280023
 30
0.0
 11
28688.473743
 21
27801.549038
 31
0.0
  0
LINE
  8
0
 10
28688.473743
 20
27801.549038
 30
0.0
 11
28044.558808
 21
27784.413155
 31
0.0
  0
LINE
  8
0
 10
28044.558808
 20
27784.413155
 30
0.0
 11
27982.161628
 21
27932.045213
 31
0.0
  0
LINE
  8
0
 10
27982.161628
 20
27932.045213
 30
0.0
 11
28026.69302
 21
27965.188101
 31
0.0
  0
LINE
  8
0
 10
28026.69302
 20
27965.188101
 30
0.0
 11
28642.611104
 21
27983.56952
 31
0.0
  0
LINE
  8
0
 10
28642.611104
 20
27983.56952
 30
0.0
 11
28647.666906
 21
28107.070502
 31
0.0
  0
LINE
  8
0
 10
28647.666906
 20
28107.070502
 30
0.0
 11
28150.09724
 21
28096.436397
 31
0.0
  0
LINE
  8
0
 10
28150.09724
 20
28096.436397
 30
0.0
 11
28072.459127
 21
28135.834692
 31
0.0
  0
LINE
  8
0
 10
28072.459127
 20
28135.834692
 30
0.0
 11
27896.844252
 21
28129.31053
 31
0.0
  0
LINE
  8
0
 10
27896.844252
 20
28129.31053
 30
0.0
 11
27900.711115
 21
27949.795987
 31
0.0
  0
LINE
  8
0
 10
27900.711115
 20
27949.795987
 30
0.0
 11
27933.807494
 21
27916.723295
 31
0.0
  0
LINE
  8
0
 10
27933.807494
 20
27916.723295
 30
0.0
 11
27914.742692
 21
27828.856605
 31
0.0
  0
LINE
  8
0
 10
27914.742692
 20
27828.856605
 30
0.0
 11
27824.40982
 21
27751.110438
 31
0.0
  0
LINE
  8
0
 10
27824.40982
 20
27751.110438
 30
0.0
 11
27053.322249
 21
27313.69953
 31
0.0
  0
LINE
  8
0
 10
27053.322249
 20
27313.69953
 30
0.0
 11
26509.896877
 21
27325.933282
 31
0.0
  0
LINE
  8
0
 10
26509.896877
 20
27325.933282
 30
0.0
 11
26495.880095
 21
27392.12809
 31
0.0
  0
LINE
  8
0
 10
26495.880095
 20
27392.12809
 30
0.0
 11
26308.791033
 21
27417.421321
 31
0.0
  0
LINE
  8
0
 10
26308.791033
 20
27417.421321
 30
0.0
 11
26284.619911
 21
27380.475561
 31
0.0
  0
LINE
  8
0
 10
26284.619911
 20
27380.475561
 30
0.0
 11
26270.626158
 21
27358.817838
 31
0.0
  0
LINE
  8
0
 10
26270.626158
 20
27358.817838
 30
0.0
 11
26112.808852
 21
27377.771715
 31
0.0
  0
LINE
  8
0
 10
26112.808852
 20
27377.771715
 30
0.0
 11
25994.425784
 21
27466.789764
 31
0.0
  0
LINE
  8
0
 10
25994.425784
 20
27466.789764
 30
0.0
 11
25879.858411
 21
27563.451013
 31
0.0
  0
LINE
  8
0
 10
25879.858411
 20
27563.451013
 30
0.0
 11
25761.46764
 21
27679.207642
 31
0.0
  0
LINE
  8
0
 10
25761.46764
 20
27679.207642
 30
0.0
 11
25571.831579
 21
27691.767457
 31
0.0
  0
LINE
  8
0
 10
25571.831579
 20
27691.767457
 30
0.0
 11
25499.293348
 21
27667.509828
 31
0.0
  0
LINE
  8
0
 10
25499.293348
 20
27667.509828
 30
0.0
 11
25368.2373
 21
27536.24597
 31
0.0
  0
LINE
  8
0
 10
25368.2373
 20
27536.24597
 30
0.0
 11
25286.788667
 21
27514.526338
 31
0.0
  0
LINE
  8
0
 10
25286.788667
 20
27514.526338
 30
0.0
 11
25201.493973
 21
27601.029632
 31
0.0
  0
LINE
  8
0
 10
25201.493973
 20
27601.029632
 30
0.0
 11
25074.186986
 21
27734.605256
 31
0.0
  0
LINE
  8
0
 10
25074.186986
 20
27734.605256
 30
0.0
 11
24906.154229
 21
27859.231598
 31
0.0
  0
LINE
  8
0
 10
24887.071499
 20
27826.109648
 30
0.0
 11
25079.308977
 21
27612.377534
 31
0.0
  0
LINE
  8
0
 10
25079.308977
 20
27612.377534
 30
0.0
 11
25022.052729
 21
27546.115983
 31
0.0
  0
LINE
  8
0
 10
25022.052729
 20
27546.115983
 30
0.0
 11
25051.335025
 21
27509.218252
 31
0.0
  0
LINE
  8
0
 10
25051.335025
 20
27509.218252
 30
0.0
 11
24948.27228
 21
27394.530611
 31
0.0
  0
LINE
  8
0
 10
24948.27228
 20
27394.530611
 30
0.0
 11
24922.825494
 21
27362.675735
 31
0.0
  0
LINE
  8
0
 10
24922.825494
 20
27362.675735
 30
0.0
 11
24907.582527
 21
27244.248152
 31
0.0
  0
LINE
  8
0
 10
24907.582527
 20
27244.248152
 30
0.0
 11
24706.447713
 21
27404.495315
 31
0.0
  0
LINE
  8
0
 10
24706.447713
 20
27404.495315
 30
0.0
 11
24647.878607
 21
27493.570495
 31
0.0
  0
LINE
  8
0
 10
24647.878607
 20
27493.570495
 30
0.0
 11
24451.837259
 21
27638.544299
 31
0.0
  0
LINE
  8
0
 10
24451.837259
 20
27638.544299
 30
0.0
 11
24455.639644
 21
27702.211236
 31
0.0
  0
LINE
  8
0
 10
24455.639644
 20
27702.211236
 30
0.0
 11
24369.070657
 21
27786.168327
 31
0.0
  0
LINE
  8
0
 10
24369.070657
 20
27786.168327
 30
0.0
 11
24258.315667
 21
27882.83639
 31
0.0
  0
LINE
  8
0
 10
24258.315667
 20
27882.83639
 30
0.0
 11
24183.218889
 21
27895.501064
 31
0.0
  0
LINE
  8
0
 10
24183.218889
 20
27895.501064
 30
0.0
 11
24099.200482
 21
27956.542095
 31
0.0
  0
LINE
  8
0
 10
24099.200482
 20
27956.542095
 30
0.0
 11
24007.518467
 21
28125.804605
 31
0.0
  0
LINE
  8
0
 10
24007.518467
 20
28125.804605
 30
0.0
 11
23957.855458
 21
28225.075131
 31
0.0
  0
LINE
  8
0
 10
23957.855458
 20
28225.075131
 30
0.0
 11
23849.662706
 21
28249.170031
 31
0.0
  0
LINE
  8
0
 10
23849.662706
 20
28249.170031
 30
0.0
 11
23758.064521
 21
28074.64857
 31
0.0
  0
LINE
  8
0
 10
23758.064521
 20
28074.64857
 30
0.0
 11
23710.966718
 21
28092.431999
 31
0.0
  0
LINE
  8
0
 10
23710.966718
 20
28092.431999
 30
0.0
 11
23810.202484
 21
28264.413858
 31
0.0
  0
LINE
  8
0
 10
23810.202484
 20
28264.413858
 30
0.0
 11
23777.095554
 21
28322.954774
 31
0.0
  0
LINE
  8
0
 10
23777.095554
 20
28322.954774
 30
0.0
 11
23597.649663
 21
28247.670187
 31
0.0
  0
LINE
  8
0
 10
23597.649663
 20
28247.670187
 30
0.0
 11
23569.656096
 21
28214.539696
 31
0.0
  0
LINE
  8
0
 10
23569.656096
 20
28214.539696
 30
0.0
 11
23223.401335
 21
28421.77424
 31
0.0
  0
LINE
  8
0
 10
23223.401335
 20
28421.77424
 30
0.0
 11
23131.771761
 21
28365.667427
 31
0.0
  0
LINE
  8
0
 10
23131.771761
 20
28365.667427
 30
0.0
 11
22084.074801
 21
28973.370523
 31
0.0
  0
LINE
  8
0
 10
22084.074801
 20
28973.370523
 30
0.0
 11
22268.558923
 21
29319.870804
 31
0.0
  0
LINE
  8
0
 10
22268.558923
 20
29319.870804
 30
0.0
 11
22137.417915
 21
29475.097859
 31
0.0
  0
LINE
  8
0
 10
22137.417915
 20
29475.097859
 30
0.0
 11
21447.434139
 21
29836.11395
 31
0.0
  0
LINE
  8
0
 10
21447.434139
 20
29836.11395
 30
0.0
 11
21407.943501
 21
29971.050113
 31
0.0
  0
LINE
  8
0
 10
21407.943501
 20
29971.050113
 30
0.0
 11
21134.247145
 21
30070.131503
 31
0.0
  0
LINE
  8
0
 10
21134.247145
 20
30070.131503
 30
0.0
 11
20819.808465
 21
30197.191665
 31
0.0
  0
LINE
  8
0
 10
20819.808465
 20
30197.191665
 30
0.0
 11
20785.42153
 21
30277.380946
 31
0.0
  0
LINE
  8
0
 10
20785.42153
 20
30277.380946
 30
0.0
 11
20551.164029
 21
30450.351047
 31
0.0
  0
LINE
  8
0
 10
20551.164029
 20
30450.351047
 30
0.0
 11
20399.65544
 21
30581.373351
 31
0.0
  0
LINE
  8
0
 10
20399.65544
 20
30581.373351
 30
0.0
 11
20245.589928
 21
30759.506871
 31
0.0
  0
LINE
  8
0
 10
20245.589928
 20
30759.506871
 30
0.0
 11
20181.906636
 21
30922.437712
 31
0.0
  0
LINE
  8
0
 10
20181.906636
 20
30922.437712
 30
0.0
 11
19945.109217
 21
31050.842856
 31
0.0
  0
LINE
  8
0
 10
19945.109217
 20
31050.842856
 30
0.0
 11
19797.39991
 21
31260.816626
 31
0.0
  0
LINE
  8
0
 10
19797.39991
 20
31260.816626
 30
0.0
 11
19714.637792
 21
31349.879739
 31
0.0
  0
LINE
  8
0
 10
19714.637792
 20
31349.879739
 30
0.0
 11
19541.479895
 21
31506.353616
 31
0.0
  0
LINE
  8
0
 10
19541.479895
 20
31506.353616
 30
0.0
 11
19447.23658
 21
31706.1869
 31
0.0
  0
LINE
  8
0
 10
19447.23658
 20
31706.1869
 30
0.0
 11
19340.257635
 21
31932.749594
 31
0.0
  0
LINE
  8
0
 10
19340.257635
 20
31932.749594
 30
0.0
 11
19298.207204
 21
32128.806282
 31
0.0
  0
LINE
  8
0
 10
19298.207204
 20
32128.806282
 30
0.0
 11
19193.797279
 21
32247.139183
 31
0.0
  0
LINE
  8
0
 10
19193.797279
 20
32247.139183
 30
0.0
 11
19063.981243
 21
32112.060221
 31
0.0
  0
LINE
  8
0
 10
19063.981243
 20
32112.060221
 30
0.0
 11
19125.109783
 21
31994.964655
 31
0.0
  0
LINE
  8
0
 10
19125.109783
 20
31994.964655
 30
0.0
 11
19215.546129
 21
31741.647449
 31
0.0
  0
LINE
  8
0
 10
19215.546129
 20
31741.647449
 30
0.0
 11
19322.525814
 21
31513.810678
 31
0.0
  0
LINE
  8
0
 10
19322.525814
 20
31513.810678
 30
0.0
 11
19410.409565
 21
31291.051436
 31
0.0
  0
LINE
  8
0
 10
19410.409565
 20
31291.051436
 30
0.0
 11
19470.274257
 21
31130.661957
 31
0.0
  0
LINE
  8
0
 10
19470.274257
 20
31130.661957
 30
0.0
 11
19397.729595
 21
31059.294054
 31
0.0
  0
LINE
  8
0
 10
19397.729595
 20
31059.294054
 30
0.0
 11
19269.155886
 21
31068.098894
 31
0.0
  0
LINE
  8
0
 10
19269.155886
 20
31068.098894
 30
0.0
 11
18957.279512
 21
31028.361933
 31
0.0
  0
LINE
  8
0
 10
18957.279512
 20
31028.361933
 30
0.0
 11
18707.782577
 21
30963.210124
 31
0.0
  0
LINE
  8
0
 10
18707.782577
 20
30963.210124
 30
0.0
 11
18484.994862
 21
31002.4958
 31
0.0
  0
LINE
  8
0
 10
18484.994862
 20
31002.4958
 30
0.0
 11
18283.843592
 21
31058.353795
 31
0.0
  0
LINE
  8
0
 10
18283.843592
 20
31058.353795
 30
0.0
 11
18115.785704
 21
31135.887313
 31
0.0
  0
LINE
  8
0
 10
18115.785704
 20
31135.887313
 30
0.0
 11
18058.484586
 21
31203.327484
 31
0.0
  0
LINE
  8
0
 10
18058.484586
 20
31203.327484
 30
0.0
 11
18164.102794
 21
31419.88787
 31
0.0
  0
LINE
  8
0
 10
18164.102794
 20
31419.88787
 30
0.0
 11
18017.689335
 21
31483.433468
 31
0.0
  0
LINE
  8
0
 10
18017.689335
 20
31483.433468
 30
0.0
 11
17826.76213
 21
31331.743017
 31
0.0
  0
LINE
  8
0
 10
17826.76213
 20
31331.743017
 30
0.0
 11
17679.103253
 21
31250.123205
 31
0.0
  0
LINE
  8
0
 10
17679.103253
 20
31250.123205
 30
0.0
 11
17424.479545
 21
31293.20418
 31
0.0
  0
LINE
  8
0
 10
17424.479545
 20
31293.20418
 30
0.0
 11
17229.686981
 21
31345.24943
 31
0.0
  0
LINE
  8
0
 10
17241.147595
 20
31331.251812
 30
0.0
 11
16514.164562
 21
31528.019158
 31
0.0
  0
LINE
  8
0
 10
16514.164562
 20
31528.019158
 30
0.0
 11
16404.603311
 21
31899.760067
 31
0.0
  0
LINE
  8
0
 10
16404.603311
 20
31899.760067
 30
0.0
 11
16496.263757
 21
31922.757004
 31
0.0
  0
LINE
  8
0
 10
16496.263757
 20
31922.757004
 30
0.0
 11
16804.368097
 21
31868.256304
 31
0.0
  0
LINE
  8
0
 10
16804.368097
 20
31868.256304
 30
0.0
 11
16831.075656
 21
32008.350673
 31
0.0
  0
LINE
  8
0
 10
16831.075656
 20
32008.350673
 30
0.0
 11
16721.581708
 21
32042.64168
 31
0.0
  0
LINE
  8
0
 10
16721.581708
 20
32042.64168
 30
0.0
 11
16519.145103
 21
32101.050605
 31
0.0
  0
LINE
  8
0
 10
16519.145103
 20
32101.050605
 30
0.0
 11
16356.195529
 21
32048.707242
 31
0.0
  0
LINE
  8
0
 10
16356.195529
 20
32048.707242
 30
0.0
 11
16259.380974
 21
32341.507957
 31
0.0
  0
LINE
  8
0
 10
16259.380974
 20
32341.507957
 30
0.0
 11
16252.973427
 21
32557.978919
 31
0.0
  0
LINE
  8
0
 10
16252.973427
 20
32557.978919
 30
0.0
 11
16347.148125
 21
32746.516428
 31
0.0
  0
LINE
  8
0
 10
16347.148125
 20
32746.516428
 30
0.0
 11
16124.340567
 21
32799.817947
 31
0.0
  0
LINE
  8
0
 10
16124.340567
 20
32799.817947
 30
0.0
 11
15991.990635
 21
32506.830478
 31
0.0
  0
LINE
  8
0
 10
15991.990635
 20
32506.830478
 30
0.0
 11
15952.538828
 21
32425.300907
 31
0.0
  0
LINE
  8
0
 10
15952.538828
 20
32425.300907
 30
0.0
 11
15956.375818
 21
32333.619383
 31
0.0
  0
LINE
  8
0
 10
15956.375818
 20
32333.619383
 30
0.0
 11
15869.842922
 21
32118.343405
 31
0.0
  0
LINE
  8
0
 10
15869.842922
 20
32118.343405
 30
0.0
 11
15827.844446
 21
32036.810805
 31
0.0
  0
LINE
  8
0
 10
15827.844446
 20
32036.810805
 30
0.0
 11
15846.972108
 21
31877.650565
 31
0.0
  0
LINE
  8
0
 10
15846.972108
 20
31877.650565
 30
0.0
 11
16102.86254
 21
31941.532601
 31
0.0
  0
LINE
  8
0
 10
16102.86254
 20
31941.532601
 30
0.0
 11
16217.500832
 21
31652.565191
 31
0.0
  0
LINE
  8
0
 10
16217.500832
 20
31652.565191
 30
0.0
 11
16203.504187
 21
31611.804579
 31
0.0
  0
LINE
  8
0
 10
16203.504187
 20
31611.804579
 30
0.0
 11
16231.531201
 21
31518.869334
 31
0.0
  0
LINE
  8
0
 10
16231.531201
 20
31518.869334
 30
0.0
 11
16188.259714
 21
31439.881898
 31
0.0
  0
LINE
  8
0
 10
16188.259714
 20
31439.881898
 30
0.0
 11
15701.866689
 21
31695.432093
 31
0.0
  0
LINE
  8
0
 10
15701.866689
 20
31695.432093
 30
0.0
 11
15026.971868
 21
32287.014796
 31
0.0
  0
LINE
  8
0
 10
15026.971868
 20
32287.014796
 30
0.0
 11
14734.13039
 21
32318.610377
 31
0.0
  0
LINE
  8
0
 10
14734.13039
 20
32318.610377
 30
0.0
 11
14670.461663
 21
32364.401705
 31
0.0
  0
LINE
  8
0
 10
14670.461663
 20
32364.401705
 30
0.0
 11
14479.474867
 21
32390.987494
 31
0.0
  0
LINE
  8
0
 10
14479.474867
 20
32390.987494
 30
0.0
 11
14321.61447
 21
32285.162885
 31
0.0
  0
LINE
  8
0
 10
14321.61447
 20
32285.162885
 30
0.0
 11
14153.556039
 21
32240.454485
 31
0.0
  0
LINE
  8
0
 10
14153.556039
 20
32240.454485
 30
0.0
 11
14147.234564
 21
31990.853569
 31
0.0
  0
LINE
  8
0
 10
14147.234564
 20
31990.853569
 30
0.0
 11
14078.488519
 21
31941.13217
 31
0.0
  0
LINE
  8
0
 10
14078.488519
 20
31941.13217
 30
0.0
 11
14065.76838
 21
31872.355176
 31
0.0
  0
LINE
  8
0
 10
14065.76838
 20
31872.355176
 30
0.0
 11
13997.046295
 21
31686.373512
 31
0.0
  0
LINE
  8
0
 10
13997.046295
 20
31686.373512
 30
0.0
 11
14049.260299
 21
31625.290957
 31
0.0
  0
LINE
  8
0
 10
14049.260299
 20
31625.290957
 30
0.0
 11
13457.194956
 21
31620.977347
 31
0.0
  0
LINE
  8
0
 10
13457.194956
 20
31620.977347
 30
0.0
 11
13452.065671
 21
31828.548957
 31
0.0
  0
LINE
  8
0
 10
13452.065671
 20
31828.548957
 30
0.0
 11
13169.375683
 21
31954.388701
 31
0.0
  0
LINE
  8
0
 10
13169.375683
 20
31954.388701
 30
0.0
 11
12998.725529
 21
32124.893621
 31
0.0
  0
LINE
  8
0
 10
12935.076876
 20
32030.603827
 30
0.0
 11
13049.706368
 21
31838.403229
 31
0.0
  0
LINE
  8
0
 10
13049.706368
 20
31838.403229
 30
0.0
 11
13135.029154
 21
31767.159169
 31
0.0
  0
LINE
  8
0
 10
13135.029154
 20
31767.159169
 30
0.0
 11
13113.431626
 21
31485.701761
 31
0.0
  0
LINE
  8
0
 10
13113.431626
 20
31485.701761
 30
0.0
 11
12700.876562
 21
31513.37386
 31
0.0
  0
LINE
  8
0
 10
12700.876562
 20
31513.37386
 30
0.0
 11
12648.620784
 21
31808.780531
 31
0.0
  0
LINE
  8
0
 10
12648.620784
 20
31808.780531
 30
0.0
 11
12610.404395
 21
31909.354561
 31
0.0
  0
LINE
  8
0
 10
12516.183225
 20
31883.806761
 30
0.0
 11
12520.064343
 21
31519.590345
 31
0.0
  0
LINE
  8
0
 10
12520.064343
 20
31519.590345
 30
0.0
 11
12446.22369
 21
31446.939136
 31
0.0
  0
LINE
  8
0
 10
12446.22369
 20
31446.939136
 30
0.0
 11
12256.505138
 21
31399.660701
 31
0.0
  0
LINE
  8
0
 10
12256.505138
 20
31399.660701
 30
0.0
 11
11846.491865
 21
31372.573501
 31
0.0
  0
LINE
  8
0
 10
11846.491865
 20
31372.573501
 30
0.0
 11
11412.285045
 21
31299.618524
 31
0.0
  0
LINE
  8
0
 10
11412.285045
 20
31299.618524
 30
0.0
 11
11323.045627
 21
31942.674421
 31
0.0
  0
LINE
  8
0
 10
11323.045627
 20
31942.674421
 30
0.0
 11
11294.974819
 21
32296.689302
 31
0.0
  0
LINE
  8
0
 10
11083.627076
 20
32083.837799
 30
0.0
 11
11188.187503
 21
31184.81217
 31
0.0
  0
LINE
  8
0
 10
11188.187503
 20
31184.81217
 30
0.0
 11
10970.449659
 21
31101.84861
 31
0.0
  0
LINE
  8
0
 10
10970.449659
 20
31101.84861
 30
0.0
 11
10941.157173
 21
31128.56835
 31
0.0
  0
LINE
  8
0
 10
10941.157173
 20
31128.56835
 30
0.0
 11
10826.567058
 21
31022.767292
 31
0.0
  0
LINE
  8
0
 10
10826.567058
 20
31022.767292
 30
0.0
 11
10407.547189
 21
31441.413225
 31
0.0
  0
LINE
  8
0
 10
10407.547189
 20
31441.413225
 30
0.0
 11
10285.27391
 21
31597.958066
 31
0.0
  0
LINE
  8
0
 10
10285.27391
 20
31597.958066
 30
0.0
 11
10211.396309
 21
31718.884051
 31
0.0
  0
LINE
  8
0
 10
10211.396309
 20
31718.884051
 30
0.0
 11
10201.184627
 21
31878.069448
 31
0.0
  0
LINE
  8
0
 10
10201.184627
 20
31878.069448
 30
0.0
 11
10143.816876
 21
32294.471968
 31
0.0
  0
LINE
  8
0
 10
10143.816876
 20
32294.471968
 30
0.0
 11
9797.448006
 21
32244.519423
 31
0.0
  0
LINE
  8
0
 10
9797.448006
 20
32244.519423
 30
0.0
 11
9798.739513
 21
32123.532823
 31
0.0
  0
LINE
  8
0
 10
9798.739513
 20
32123.532823
 30
0.0
 11
9751.640702
 21
31996.138285
 31
0.0
  0
LINE
  8
0
 10
9751.640702
 20
31996.138285
 30
0.0
 11
9775.856855
 21
31858.613868
 31
0.0
  0
LINE
  8
0
 10
9775.856855
 20
31858.613868
 30
0.0
 11
9803.883321
 21
31788.591257
 31
0.0
  0
LINE
  8
0
 10
9803.883321
 20
31788.591257
 30
0.0
 11
9787.352338
 21
31628.108613
 31
0.0
  0
LINE
  8
0
 10
9787.352338
 20
31628.108613
 30
0.0
 11
9763.174098
 21
31510.920408
 31
0.0
  0
LINE
  8
0
 10
9763.174098
 20
31510.920408
 30
0.0
 11
9815.39539
 21
31447.285709
 31
0.0
  0
LINE
  8
0
 10
9815.39539
 20
31447.285709
 30
0.0
 11
9908.372697
 21
31346.751812
 31
0.0
  0
LINE
  8
0
 10
9908.372697
 20
31346.751812
 30
0.0
 11
10017.907519
 21
31227.128573
 31
0.0
  0
LINE
  8
0
 10
10017.907519
 20
31227.128573
 30
0.0
 11
10239.524925
 21
30976.423112
 31
0.0
  0
LINE
  8
0
 10
10239.524925
 20
30976.423112
 30
0.0
 11
10335.039593
 21
30931.92919
 31
0.0
  0
LINE
  8
0
 10
10335.039593
 20
30931.92919
 30
0.0
 11
10197.538326
 21
30733.136184
 31
0.0
  0
LINE
  8
0
 10
10197.538326
 20
30733.136184
 30
0.0
 11
10103.31366
 21
30664.283133
 31
0.0
  0
LINE
  8
0
 10
10103.31366
 20
30664.283133
 30
0.0
 11
10025.635404
 21
30648.934072
 31
0.0
  0
LINE
  8
0
 10
10025.635404
 20
30648.934072
 30
0.0
 11
10010.363357
 21
30586.515814
 31
0.0
  0
LINE
  8
0
 10
10010.363357
 20
30586.515814
 30
0.0
 11
9457.743521
 21
30139.012604
 31
0.0
  0
LINE
  8
0
 10
9457.743521
 20
30139.012604
 30
0.0
 11
9367.303275
 21
30293.040186
 31
0.0
  0
LINE
  8
0
 10
9367.303275
 20
30293.040186
 30
0.0
 11
9359.650976
 21
30370.723068
 31
0.0
  0
LINE
  8
0
 10
9359.650976
 20
30370.723068
 30
0.0
 11
9344.347511
 21
30518.447086
 31
0.0
  0
LINE
  8
0
 10
9344.347511
 20
30518.447086
 30
0.0
 11
9360.893176
 21
30584.688098
 31
0.0
  0
LINE
  8
0
 10
9360.893176
 20
30584.688098
 30
0.0
 11
9083.257991
 21
30677.423961
 31
0.0
  0
LINE
  8
0
 10
9083.257991
 20
30677.423961
 30
0.0
 11
8762.311431
 21
30835.077728
 31
0.0
  0
LINE
  8
0
 10
8762.311431
 20
30835.077728
 30
0.0
 11
8586.54548
 21
30978.846184
 31
0.0
  0
LINE
  8
0
 10
8586.54548
 20
30978.846184
 30
0.0
 11
8522.863195
 21
31022.094967
 31
0.0
  0
LINE
  8
0
 10
8522.863195
 20
31022.094967
 30
0.0
 11
8424.811714
 21
30949.416411
 31
0.0
  0
LINE
  8
0
 10
8424.811714
 20
30949.416411
 30
0.0
 11
8384.064562
 21
30907.352759
 31
0.0
  0
LINE
  8
0
 10
8384.064562
 20
30907.352759
 30
0.0
 11
8219.77262
 21
30947.969315
 31
0.0
  0
LINE
  8
0
 10
8219.77262
 20
30947.969315
 30
0.0
 11
8245.221365
 21
31107.192485
 31
0.0
  0
LINE
  8
0
 10
8245.221365
 20
31107.192485
 30
0.0
 11
8311.433406
 21
31192.580127
 31
0.0
  0
LINE
  8
0
 10
8311.433406
 20
31192.580127
 30
0.0
 11
8325.4359
 21
31238.44179
 31
0.0
  0
LINE
  8
0
 10
8325.4359
 20
31238.44179
 30
0.0
 11
8209.52668
 21
31364.431685
 31
0.0
  0
LINE
  8
0
 10
8209.52668
 20
31364.431685
 30
0.0
 11
7989.227392
 21
31191.035425
 31
0.0
  0
LINE
  8
0
 10
7989.227392
 20
31191.035425
 30
0.0
 11
7977.761779
 21
31217.771727
 31
0.0
  0
LINE
  8
0
 10
7977.761779
 20
31217.771727
 30
0.0
 11
8140.750103
 21
31403.855944
 31
0.0
  0
LINE
  8
0
 10
8140.750103
 20
31403.855944
 30
0.0
 11
8049.038567
 21
31523.498534
 31
0.0
  0
LINE
  8
0
 10
8049.038567
 20
31523.498534
 30
0.0
 11
7822.369647
 21
31353.918308
 31
0.0
  0
LINE
  8
0
 10
7822.369647
 20
31353.918308
 30
0.0
 11
7656.768475
 21
31637.796656
 31
0.0
  0
LINE
  8
0
 10
7656.768475
 20
31637.796656
 30
0.0
 11
8410.592016
 21
32458.617024
 31
0.0
  0
LINE
  8
0
 10
8025.996396
 20
32386.981669
 30
0.0
 11
7580.306628
 21
31995.619032
 31
0.0
  0
LINE
  8
0
 10
7580.306628
 20
31995.619032
 30
0.0
 11
7232.578846
 21
32318.831017
 31
0.0
  0
LINE
  8
0
 10
7232.578846
 20
32318.831017
 30
0.0
 11
7291.140329
 21
32493.363936
 31
0.0
  0
LINE
  8
0
 10
7291.140329
 20
32493.363936
 30
0.0
 11
7682.068665
 21
32907.60221
 31
0.0
  0
LINE
  8
0
 10
7682.068665
 20
32907.60221
 30
0.0
 11
7857.790682
 21
33108.97109
 31
0.0
  0
LINE
  8
0
 10
7857.790682
 20
33108.97109
 30
0.0
 11
7610.691959
 21
33338.018711
 31
0.0
  0
LINE
  8
0
 10
6636.442891
 20
33059.591718
 30
0.0
 11
6607.146968
 21
33083.766879
 31
0.0
  0
LINE
  8
0
 10
6281.199564
 20
32309.136015
 30
0.0
 11
5806.275064
 21
31142.072921
 31
0.0
  0
LINE
  8
0
 10
5806.275064
 20
31142.072921
 30
0.0
 11
7246.841021
 21
30399.47915
 31
0.0
  0
LINE
  8
0
 10
7246.841021
 20
30399.47915
 30
0.0
 11
7386.94849
 21
30305.349372
 31
0.0
  0
LINE
  8
0
 10
7386.94849
 20
30305.349372
 30
0.0
 11
7441.728303
 21
30188.220911
 31
0.0
  0
LINE
  8
0
 10
7441.728303
 20
30188.220911
 30
0.0
 11
7429.009035
 21
30063.392345
 31
0.0
  0
LINE
  8
0
 10
7429.009035
 20
30063.392345
 30
0.0
 11
7381.902288
 21
29942.354692
 31
0.0
  0
LINE
  8
0
 10
7381.902288
 20
29942.354692
 30
0.0
 11
7169.218669
 21
29888.676881
 31
0.0
  0
LINE
  8
0
 10
7169.218669
 20
29888.676881
 30
0.0
 11
6788.402017
 21
29940.567226
 31
0.0
  0
LINE
  8
0
 10
6788.402017
 20
29940.567226
 30
0.0
 11
5327.507039
 21
30025.91434
 31
0.0
  0
LINE
  8
0
 10
5302.821215
 20
34128.376926
 30
0.0
 11
5735.712899
 21
35351.38237
 31
0.0
  0
LINE
  8
0
 10
5735.712899
 20
35351.38237
 30
0.0
 11
6107.47622
 21
36422.746745
 31
0.0
  0
LINE
  8
0
 10
6107.47622
 20
36422.746745
 30
0.0
 11
6301.013893
 21
36810.053166
 31
0.0
  0
LINE
  8
0
 10
6301.013893
 20
36810.053166
 30
0.0
 11
6654.950029
 21
37734.904632
 31
0.0
  0
LINE
  8
0
 10
6654.950029
 20
37734.904632
 30
0.0
 11
7001.304642
 21
38128.670513
 31
0.0
  0
LINE
  8
0
 10
7001.304642
 20
38128.670513
 30
0.0
 11
7660.830996
 21
39304.570327
 31
0.0
  0
LINE
  8
0
 10
7660.830996
 20
39304.570327
 30
0.0
 11
7616.252113
 21
39352.932246
 31
0.0
  0
LINE
  8
0
 10
7616.252113
 20
39352.932246
 30
0.0
 11
7677.367738
 21
39443.391075
 31
0.0
  0
LINE
  8
0
 10
7677.367738
 20
39443.391075
 30
0.0
 11
7799.622484
 21
39446.021217
 31
0.0
  0
LINE
  8
0
 10
7799.622484
 20
39446.021217
 30
0.0
 11
7804.697444
 21
39586.106981
 31
0.0
  0
LINE
  8
0
 10
7804.697444
 20
39586.106981
 30
0.0
 11
7825.067337
 21
39629.418883
 31
0.0
  0
LINE
  8
0
 10
7825.067337
 20
39629.418883
 30
0.0
 11
7881.120528
 21
39483.00743
 31
0.0
  0
LINE
  8
0
 10
7881.120528
 20
39483.00743
 30
0.0
 11
7938.432418
 21
39444.842189
 31
0.0
  0
LINE
  8
0
 10
7938.432418
 20
39444.842189
 30
0.0
 11
7999.554184
 21
39483.087926
 31
0.0
  0
LINE
  8
0
 10
7999.554184
 20
39483.087926
 30
0.0
 11
8011.001173
 21
39587.520255
 31
0.0
  0
LINE
  8
0
 10
8011.001173
 20
39587.520255
 30
0.0
 11
8045.372239
 21
39680.506675
 31
0.0
  0
LINE
  8
0
 10
8045.372239
 20
39680.506675
 30
0.0
 11
8544.432235
 21
40652.483113
 31
0.0
  0
LINE
  8
0
 10
8544.432235
 20
40652.483113
 30
0.0
 11
8620.813531
 21
40829.540595
 31
0.0
  0
LINE
  8
0
 10
8620.813531
 20
40829.540595
 30
0.0
 11
8782.525084
 21
40928.973602
 31
0.0
  0
LINE
  8
0
 10
8782.525084
 20
40928.973602
 30
0.0
 11
8897.096706
 21
41183.732545
 31
0.0
  0
LINE
  8
0
 10
8897.096706
 20
41183.732545
 30
0.0
 11
8970.933441
 21
41332.769971
 31
0.0
  0
LINE
  8
0
 10
8970.933441
 20
41332.769971
 30
0.0
 11
9090.574209
 21
41746.704654
 31
0.0
  0
LINE
  8
0
 10
9090.574209
 20
41746.704654
 30
0.0
 11
9085.449714
 21
41960.633082
 31
0.0
  0
LINE
  8
0
 10
9085.449714
 20
41960.633082
 30
0.0
 11
9156.629337
 21
42863.51249
 31
0.0
  0
LINE
  8
0
 10
9156.629337
 20
42863.51249
 30
0.0
 11
9120.946951
 21
43053.224608
 31
0.0
  0
LINE
  8
0
 10
9120.946951
 20
43053.224608
 30
0.0
 11
9306.844917
 21
43165.395057
 31
0.0
  0
LINE
  8
0
 10
9306.844917
 20
43165.395057
 30
0.0
 11
9370.505087
 21
43225.282255
 31
0.0
  0
LINE
  8
0
 10
9370.505087
 20
43225.282255
 30
0.0
 11
9371.749956
 21
43420.108633
 31
0.0
  0
LINE
  8
0
 10
9371.749956
 20
43420.108633
 30
0.0
 11
9533.46446
 21
43444.400052
 31
0.0
  0
LINE
  8
0
 10
9533.46446
 20
43444.400052
 30
0.0
 11
9636.605612
 21
43453.375718
 31
0.0
  0
LINE
  8
0
 10
9636.605612
 20
43453.375718
 30
0.0
 11
9654.44248
 21
43387.17167
 31
0.0
  0
LINE
  8
0
 10
9654.44248
 20
43387.17167
 30
0.0
 11
9663.367904
 21
43306.955225
 31
0.0
  0
LINE
  8
0
 10
9663.367904
 20
43306.955225
 30
0.0
 11
9691.383347
 21
43296.785278
 31
0.0
  0
LINE
  8
0
 10
9691.383347
 20
43296.785278
 30
0.0
 11
9737.209668
 21
43394.861784
 31
0.0
  0
LINE
  8
0
 10
9737.209668
 20
43394.861784
 30
0.0
 11
9747.3823
 21
43490.369822
 31
0.0
  0
LINE
  8
0
 10
9747.3823
 20
43490.369822
 30
0.0
 11
9849.241385
 21
43551.552125
 31
0.0
  0
LINE
  8
0
 10
9849.241385
 20
43551.552125
 30
0.0
 11
9984.189274
 21
43729.902046
 31
0.0
  0
LINE
  8
0
 10
9984.189274
 20
43729.902046
 30
0.0
 11
9971.436508
 21
43858.502477
 31
0.0
  0
LINE
  8
0
 10
9971.436508
 20
43858.502477
 30
0.0
 11
10112.724534
 21
44204.934742
 31
0.0
  0
LINE
  8
0
 10
10112.724534
 20
44204.934742
 30
0.0
 11
10164.894334
 21
44446.898639
 31
0.0
  0
LINE
  8
0
 10
10164.894334
 20
44446.898639
 30
0.0
 11
10199.255927
 21
44566.611579
 31
0.0
  0
LINE
  8
0
 10
10199.255927
 20
44566.611579
 30
0.0
 11
10380.053573
 21
44655.849121
 31
0.0
  0
LINE
  8
0
 10
10380.053573
 20
44655.849121
 30
0.0
 11
10420.788439
 21
44728.451945
 31
0.0
  0
LINE
  8
0
 10
10420.788439
 20
44728.451945
 30
0.0
 11
10313.817436
 21
44811.156068
 31
0.0
  0
LINE
  8
0
 10
10313.817436
 20
44811.156068
 30
0.0
 11
10360.886793
 21
45093.85955
 31
0.0
  0
LINE
  8
0
 10
10360.886793
 20
45093.85955
 30
0.0
 11
10406.700938
 21
45256.869613
 31
0.0
  0
LINE
  8
0
 10
10406.700938
 20
45256.869613
 30
0.0
 11
10498.374381
 21
45286.207686
 31
0.0
  0
LINE
  8
0
 10
10498.374381
 20
45286.207686
 30
0.0
 11
10602.785555
 21
45282.446924
 31
0.0
  0
LINE
  8
0
 10
10602.785555
 20
45282.446924
 30
0.0
 11
10698.275744
 21
45327.066617
 31
0.0
  0
LINE
  8
0
 10
10698.275744
 20
45327.066617
 30
0.0
 11
10668.979533
 21
45394.535062
 31
0.0
  0
LINE
  8
0
 10
10668.979533
 20
45394.535062
 30
0.0
 11
10839.557607
 21
45667.116477
 31
0.0
  0
LINE
  8
0
 10
10839.557607
 20
45667.116477
 30
0.0
 11
10985.994854
 21
45602.260584
 31
0.0
  0
LINE
  8
0
 10
10985.994854
 20
45602.260584
 30
0.0
 11
11104.406978
 21
45616.333098
 31
0.0
  0
LINE
  8
0
 10
11104.406978
 20
45616.333098
 30
0.0
 11
11280.102331
 21
45711.927639
 31
0.0
  0
LINE
  8
0
 10
11280.102331
 20
45711.927639
 30
0.0
 11
11411.223468
 21
45863.520722
 31
0.0
  0
LINE
  8
0
 10
11411.223468
 20
45863.520722
 30
0.0
 11
11630.229503
 21
45816.531345
 31
0.0
  0
LINE
  8
0
 10
11630.229503
 20
45816.531345
 30
0.0
 11
11677.346004
 21
45775.812924
 31
0.0
  0
LINE
  8
0
 10
11677.346004
 20
45775.812924
 30
0.0
 11
11692.600082
 21
45928.613609
 31
0.0
  0
LINE
  8
0
 10
11692.600082
 20
45928.613609
 30
0.0
 11
12145.833664
 21
46140.224842
 31
0.0
  0
LINE
  8
0
 10
12145.833664
 20
46140.224842
 30
0.0
 11
12245.149804
 21
46105.901713
 31
0.0
  0
LINE
  8
0
 10
12245.149804
 20
46105.901713
 30
0.0
 11
12373.739075
 21
46132.71069
 31
0.0
  0
LINE
  8
0
 10
12373.739075
 20
46132.71069
 30
0.0
 11
12470.500954
 21
46140.403378
 31
0.0
  0
LINE
  8
0
 10
12470.500954
 20
46140.403378
 30
0.0
 11
12655.100093
 21
46221.99216
 31
0.0
  0
LINE
  8
0
 10
12655.100093
 20
46221.99216
 30
0.0
 11
12812.952522
 21
46353.221692
 31
0.0
  0
LINE
  8
0
 10
12812.952522
 20
46353.221692
 30
0.0
 11
13022.992447
 21
46549.412932
 31
0.0
  0
LINE
  8
0
 10
13022.992447
 20
46549.412932
 30
0.0
 11
13263.577167
 21
46795.273788
 31
0.0
  0
LINE
  8
0
 10
13263.577167
 20
46795.273788
 30
0.0
 11
13459.617607
 21
46934.158616
 31
0.0
  0
LINE
  8
0
 10
13459.617607
 20
46934.158616
 30
0.0
 11
13835.125642
 21
47306.131621
 31
0.0
  0
LINE
  8
0
 10
13835.125642
 20
47306.131621
 30
0.0
 11
14132.992287
 21
47538.007448
 31
0.0
  0
LINE
  8
0
 10
14132.992287
 20
47538.007448
 30
0.0
 11
14295.927526
 21
47656.497707
 31
0.0
  0
LINE
  8
0
 10
14295.927526
 20
47656.497707
 30
0.0
 11
14420.671912
 21
47758.416064
 31
0.0
  0
LINE
  8
0
 10
14420.671912
 20
47758.416064
 30
0.0
 11
14623.069963
 21
47878.198126
 31
0.0
  0
LINE
  8
0
 10
14623.069963
 20
47878.198126
 30
0.0
 11
14885.305875
 21
47966.180991
 31
0.0
  0
LINE
  8
0
 10
14885.305875
 20
47966.180991
 30
0.0
 11
15120.810221
 21
48024.866816
 31
0.0
  0
LINE
  8
0
 10
15120.810221
 20
48024.866816
 30
0.0
 11
15428.8764
 21
48077.223528
 31
0.0
  0
LINE
  8
0
 10
15428.8764
 20
48077.223528
 30
0.0
 11
15636.380208
 21
48076.056673
 31
0.0
  0
LINE
  8
0
 10
15636.380208
 20
48076.056673
 30
0.0
 11
15789.149284
 21
48040.487336
 31
0.0
  0
LINE
  8
0
 10
15789.149284
 20
48040.487336
 30
0.0
 11
15758.623282
 21
47901.700482
 31
0.0
  0
LINE
  8
0
 10
15758.623282
 20
47901.700482
 30
0.0
 11
15744.63871
 21
47803.662056
 31
0.0
  0
LINE
  8
0
 10
15744.63871
 20
47803.662056
 30
0.0
 11
15807.028978
 21
47738.764583
 31
0.0
  0
LINE
  8
0
 10
15807.028978
 20
47738.764583
 30
0.0
 11
16000.516383
 21
47793.609455
 31
0.0
  0
LINE
  8
0
 10
16000.516383
 20
47793.609455
 30
0.0
 11
16197.811336
 21
47899.380681
 31
0.0
  0
LINE
  8
0
 10
16197.811336
 20
47899.380681
 30
0.0
 11
16372.20533
 21
47930.02539
 31
0.0
  0
LINE
  8
0
 10
16372.20533
 20
47930.02539
 30
0.0
 11
16458.779513
 21
47872.779845
 31
0.0
  0
LINE
  8
0
 10
16458.779513
 20
47872.779845
 30
0.0
 11
16377.341586
 21
47702.139984
 31
0.0
  0
LINE
  8
0
 10
16377.341586
 20
47702.139984
 30
0.0
 11
16337.914974
 21
47516.24366
 31
0.0
  0
LINE
  8
0
 10
16337.914974
 20
47516.24366
 30
0.0
 11
16409.202727
 21
47515.00783
 31
0.0
  0
LINE
  8
0
 10
16409.202727
 20
47515.00783
 30
0.0
 11
16500.820511
 21
47706.023479
 31
0.0
  0
LINE
  8
0
 10
16500.820511
 20
47706.023479
 30
0.0
 11
16635.713412
 21
47925.068671
 31
0.0
  0
LINE
  8
0
 10
16635.713412
 20
47925.068671
 30
0.0
 11
16707.017918
 21
47833.441604
 31
0.0
  0
LINE
  8
0
 10
16707.017918
 20
47833.441604
 30
0.0
 11
16645.943432
 21
47689.548388
 31
0.0
  0
LINE
  8
0
 10
16645.943432
 20
47689.548388
 30
0.0
 11
16791.06456
 21
47678.165826
 31
0.0
  0
LINE
  8
0
 10
16791.06456
 20
47678.165826
 30
0.0
 11
16892.912969
 21
47622.202044
 31
0.0
  0
LINE
  8
0
 10
16892.912969
 20
47622.202044
 30
0.0
 11
16908.201146
 21
47558.554591
 31
0.0
  0
LINE
  8
0
 10
16908.201146
 20
47558.554591
 30
0.0
 11
17050.803661
 21
47403.310048
 31
0.0
  0
LINE
  8
0
 10
17050.803661
 20
47403.310048
 30
0.0
 11
17310.520658
 21
47230.304451
 31
0.0
  0
LINE
  8
0
 10
17310.520658
 20
47230.304451
 30
0.0
 11
17426.380662
 21
47120.878868
 31
0.0
  0
LINE
  8
0
 10
17426.380662
 20
47120.878868
 30
0.0
 11
17314.399079
 21
46933.672527
 31
0.0
  0
LINE
  8
0
 10
17314.399079
 20
46933.672527
 30
0.0
 11
17316.984616
 21
46736.341635
 31
0.0
  0
LINE
  8
0
 10
17316.984616
 20
46736.341635
 30
0.0
 11
17959.820022
 21
46721.410526
 31
0.0
  0
LINE
  8
0
 10
17959.820022
 20
46721.410526
 30
0.0
 11
18033.62959
 21
46816.932393
 31
0.0
  0
LINE
  8
0
 10
18033.62959
 20
46816.932393
 30
0.0
 11
18150.732755
 21
46839.910886
 31
0.0
  0
LINE
  8
0
 10
18150.732755
 20
46839.910886
 30
0.0
 11
18326.402569
 21
46796.720154
 31
0.0
  0
LINE
  8
0
 10
18326.402569
 20
46796.720154
 30
0.0
 11
18484.266477
 21
46678.408125
 31
0.0
  0
LINE
  8
0
 10
18484.266477
 20
46678.408125
 30
0.0
 11
18726.152397
 21
46501.580393
 31
0.0
  0
LINE
  8
0
 10
18726.152397
 20
46501.580393
 30
0.0
 11
18787.268177
 21
46418.863276
 31
0.0
  0
LINE
  8
0
 10
18787.268177
 20
46418.863276
 30
0.0
 11
18971.807147
 21
46551.36372
 31
0.0
  0
LINE
  8
0
 10
18971.807147
 20
46551.36372
 30
0.0
 11
19125.809908
 21
46617.646871
 31
0.0
  0
LINE
  8
0
 10
19125.809908
 20
46617.646871
 30
0.0
 11
19274.724552
 21
46663.55777
 31
0.0
  0
LINE
  8
0
 10
19274.724552
 20
46663.55777
 30
0.0
 11
19473.29157
 21
46652.207402
 31
0.0
  0
LINE
  8
0
 10
19473.29157
 20
46652.207402
 30
0.0
 11
19626.030011
 21
46663.747395
 31
0.0
  0
LINE
  8
0
 10
19626.030011
 20
46663.747395
 30
0.0
 11
19814.408938
 21
46665.122129
 31
0.0
  0
LINE
  8
0
 10
19814.408938
 20
46665.122129
 30
0.0
 11
19964.600503
 21
46672.841487
 31
0.0
  0
LINE
  8
0
 10
19964.600503
 20
46672.841487
 30
0.0
 11
20040.970722
 21
46667.790509
 31
0.0
  0
LINE
  8
0
 10
20040.970722
 20
46667.790509
 30
0.0
 11
20086.791796
 21
46669.088284
 31
0.0
  0
LINE
  8
0
 10
20086.791796
 20
46669.088284
 30
0.0
 11
20169.525709
 21
46664.040759
 31
0.0
  0
LINE
  8
0
 10
20169.525709
 20
46664.040759
 30
0.0
 11
20275.116926
 21
46898.336924
 31
0.0
  0
LINE
  8
0
 10
20275.116926
 20
46898.336924
 30
0.0
 11
20412.532044
 21
47111.006753
 31
0.0
  0
LINE
  8
0
 10
20412.532044
 20
47111.006753
 30
0.0
 11
20516.873154
 21
47235.818722
 31
0.0
  0
LINE
  8
0
 10
20516.873154
 20
47235.818722
 30
0.0
 11
20684.872054
 21
47274.098145
 31
0.0
  0
LINE
  8
0
 10
20684.872054
 20
47274.098145
 30
0.0
 11
20808.319035
 21
47328.903025
 31
0.0
  0
LINE
  8
0
 10
20808.319035
 20
47328.903025
 30
0.0
 11
20868.113758
 21
47442.232743
 31
0.0
  0
LINE
  8
0
 10
20868.113758
 20
47442.232743
 30
0.0
 11
21046.255201
 21
47643.461223
 31
0.0
  0
LINE
  8
0
 10
21046.255201
 20
47643.461223
 30
0.0
 11
21042.410406
 21
47760.575572
 31
0.0
  0
LINE
  8
0
 10
21042.410406
 20
47760.575572
 30
0.0
 11
20759.645537
 21
48701.177156
 31
0.0
  0
LINE
  8
0
 10
20866.54336
 20
48763.607127
 30
0.0
 11
21151.852833
 21
47824.282282
 31
0.0
  0
LINE
  8
0
 10
21151.852833
 20
47824.282282
 30
0.0
 11
21401.270066
 21
48002.630037
 31
0.0
  0
LINE
  8
0
 10
21401.270066
 20
48002.630037
 30
0.0
 11
21713.061455
 21
48121.177418
 31
0.0
  0
LINE
  8
0
 10
21713.061455
 20
48121.177418
 30
0.0
 11
21865.772721
 21
48184.904284
 31
0.0
  0
LINE
  8
0
 10
21865.772721
 20
48184.904284
 30
0.0
 11
22096.101144
 21
48319.956392
 31
0.0
  0
LINE
  8
0
 10
22096.101144
 20
48319.956392
 30
0.0
 11
22378.596103
 21
48502.132785
 31
0.0
  0
LINE
  8
0
 10
22378.596103
 20
48502.132785
 30
0.0
 11
22559.268712
 21
48704.622947
 31
0.0
  0
LINE
  8
0
 10
22559.268712
 20
48704.622947
 30
0.0
 11
22780.675044
 21
48863.851366
 31
0.0
  0
LINE
  8
0
 10
22780.675044
 20
48863.851366
 30
0.0
 11
23201.857974
 21
49131.375434
 31
0.0
  0
LINE
  8
0
 10
23201.857974
 20
49131.375434
 30
0.0
 11
23519.960348
 21
49358.110767
 31
0.0
  0
LINE
  8
0
 10
23519.960348
 20
49358.110767
 30
0.0
 11
23810.067387
 21
49556.825213
 31
0.0
  0
LINE
  8
0
 10
23810.067387
 20
49556.825213
 30
0.0
 11
24004.74932
 21
49661.296867
 31
0.0
  0
LINE
  8
0
 10
24004.74932
 20
49661.296867
 30
0.0
 11
24103.98213
 21
49779.723637
 31
0.0
  0
LINE
  8
0
 10
24103.98213
 20
49779.723637
 30
0.0
 11
24277.037949
 21
49842.177982
 31
0.0
  0
LINE
  8
0
 10
24277.037949
 20
49842.177982
 30
0.0
 11
24341.941588
 21
49833.298803
 31
0.0
  0
LINE
  8
0
 10
24341.941588
 20
49833.298803
 30
0.0
 11
24583.683793
 21
50016.708648
 31
0.0
  0
LINE
  8
0
 10
24583.683793
 20
50016.708648
 30
0.0
 11
24700.744793
 21
50074.043425
 31
0.0
  0
LINE
  8
0
 10
24700.744793
 20
50074.043425
 30
0.0
 11
24853.444232
 21
50100.845916
 31
0.0
  0
LINE
  8
0
 10
24853.444232
 20
50100.845916
 30
0.0
 11
24994.691137
 21
50122.551376
 31
0.0
  0
LINE
  8
0
 10
24994.691137
 20
50122.551376
 30
0.0
 11
25230.094434
 21
50183.759707
 31
0.0
  0
LINE
  8
0
 10
25230.094434
 20
50183.759707
 30
0.0
 11
25363.70563
 21
50199.096896
 31
0.0
  0
LINE
  8
0
 10
25363.70563
 20
50199.096896
 30
0.0
 11
25524.05461
 21
50153.349825
 31
0.0
  0
LINE
  8
0
 10
25524.05461
 20
50153.349825
 30
0.0
 11
25790.002027
 21
50178.932147
 31
0.0
  0
LINE
  8
0
 10
25790.002027
 20
50178.932147
 30
0.0
 11
26148.831315
 21
50230.014584
 31
0.0
  0
LINE
  8
0
 10
26148.831315
 20
50230.014584
 30
0.0
 11
26277.341336
 21
50269.532728
 31
0.0
  0
LINE
  8
0
 10
16367.968121
 20
17326.79813
 30
0.0
 11
16500.389576
 21
17310.387946
 31
0.0
  0
LINE
  8
0
 10
16500.389576
 20
17310.387946
 30
0.0
 11
16556.405993
 21
17343.565057
 31
0.0
  0
LINE
  8
0
 10
16556.405993
 20
17343.565057
 30
0.0
 11
16713.061358
 21
17106.841339
 31
0.0
  0
LINE
  8
0
 10
16713.061358
 20
17106.841339
 30
0.0
 11
16836.612157
 21
16870.081193
 31
0.0
  0
LINE
  8
0
 10
16836.612157
 20
16870.081193
 30
0.0
 11
16998.348817
 21
16688.131222
 31
0.0
  0
LINE
  8
0
 10
16998.348817
 20
16688.131222
 30
0.0
 11
17119.297479
 21
16727.750157
 31
0.0
  0
LINE
  8
0
 10
17119.297479
 20
16727.750157
 30
0.0
 11
17264.467511
 21
16613.285636
 31
0.0
  0
LINE
  8
0
 10
17264.467511
 20
16613.285636
 30
0.0
 11
17427.440072
 21
16607.10093
 31
0.0
  0
LINE
  8
0
 10
17427.440072
 20
16607.10093
 30
0.0
 11
17563.660963
 21
16667.115086
 31
0.0
  0
LINE
  8
0
 10
17563.660963
 20
16667.115086
 30
0.0
 11
17603.100486
 21
16813.626985
 31
0.0
  0
LINE
  8
0
 10
17603.100486
 20
16813.626985
 30
0.0
 11
17578.875636
 21
16981.718783
 31
0.0
  0
LINE
  8
0
 10
17578.875636
 20
16981.718783
 30
0.0
 11
17595.390801
 21
17161.318406
 31
0.0
  0
LINE
  8
0
 10
17595.390801
 20
17161.318406
 30
0.0
 11
17591.550816
 21
17261.930326
 31
0.0
  0
LINE
  8
0
 10
17591.550816
 20
17261.930326
 30
0.0
 11
17721.41329
 21
17277.358311
 31
0.0
  0
LINE
  8
0
 10
17721.41329
 20
17277.358311
 30
0.0
 11
17805.438143
 21
17304.19776
 31
0.0
  0
LINE
  8
0
 10
17805.438143
 20
17304.19776
 30
0.0
 11
17828.333849
 21
17409.933222
 31
0.0
  0
LINE
  8
0
 10
17828.333849
 20
17409.933222
 30
0.0
 11
17642.435644
 21
17473.407693
 31
0.0
  0
LINE
  8
0
 10
17642.435644
 20
17473.407693
 30
0.0
 11
17425.982784
 21
17520.291643
 31
0.0
  0
LINE
  8
0
 10
17425.982784
 20
17520.291643
 30
0.0
 11
17222.277175
 21
17483.130726
 31
0.0
  0
LINE
  8
0
 10
17222.277175
 20
17483.130726
 30
0.0
 11
17028.736878
 21
17540.229533
 31
0.0
  0
LINE
  8
0
 10
17028.736878
 20
17540.229533
 30
0.0
 11
16840.279888
 21
17639.364286
 31
0.0
  0
LINE
  8
0
 10
16840.279888
 20
17639.364286
 30
0.0
 11
16701.502282
 21
17615.011709
 31
0.0
  0
LINE
  8
0
 10
16701.502282
 20
17615.011709
 30
0.0
 11
16583.11397
 21
17497.705691
 31
0.0
  0
LINE
  8
0
 10
16583.11397
 20
17497.705691
 30
0.0
 11
16500.351782
 21
17503.982167
 31
0.0
  0
LINE
  8
0
 10
16500.351782
 20
17503.982167
 30
0.0
 11
16448.163481
 21
17427.505514
 31
0.0
  0
LINE
  8
0
 10
16448.163481
 20
17427.505514
 30
0.0
 11
16373.055696
 21
17354.824104
 31
0.0
  0
LINE
  8
0
 10
16373.055696
 20
17354.824104
 30
0.0
 11
16378.156886
 21
17312.799298
 31
0.0
  0
TEXT
  8
0
 10
16808.688763
 20
17071.348736
 30
0.0
 40
100.0
  1
P.SENANG
 72
     4
 11
17158.688763
 21
17121.348736
 31
0.0
  0
LINE
  8
0
 10
15374.659196
 20
18128.105021
 30
0.0
 11
15538.879725
 21
18310.417875
 31
0.0
  0
LINE
  8
0
 10
15538.879725
 20
18310.417875
 30
0.0
 11
15661.108566
 21
18344.940017
 31
0.0
  0
LINE
  8
0
 10
15661.108566
 20
18344.940017
 30
0.0
 11
15790.960415
 21
18463.530956
 31
0.0
  0
LINE
  8
0
 10
15790.960415
 20
18463.530956
 30
0.0
 11
15864.812883
 21
18449.601352
 31
0.0
  0
LINE
  8
0
 10
15864.812883
 20
18449.601352
 30
0.0
 11
15924.639722
 21
18537.547844
 31
0.0
  0
LINE
  8
0
 10
15924.639722
 20
18537.547844
 30
0.0
 11
16012.503049
 21
18495.613371
 31
0.0
  0
LINE
  8
0
 10
16012.503049
 20
18495.613371
 30
0.0
 11
16118.178743
 21
18521.201196
 31
0.0
  0
LINE
  8
0
 10
16118.178743
 20
18521.201196
 30
0.0
 11
16291.334005
 21
18558.325017
 31
0.0
  0
LINE
  8
0
 10
16291.334005
 20
18558.325017
 30
0.0
 11
16307.89759
 21
18499.755982
 31
0.0
  0
LINE
  8
0
 10
16307.89759
 20
18499.755982
 30
0.0
 11
16355.004266
 21
18517.638113
 31
0.0
  0
LINE
  8
0
 10
16355.004266
 20
18517.638113
 30
0.0
 11
16335.890494
 21
18595.308762
 31
0.0
  0
LINE
  8
0
 10
16335.890494
 20
18595.308762
 30
0.0
 11
16356.237682
 21
18722.693697
 31
0.0
  0
LINE
  8
0
 10
16356.237682
 20
18722.693697
 30
0.0
 11
16379.135263
 21
18829.703078
 31
0.0
  0
LINE
  8
0
 10
16379.135263
 20
18829.703078
 30
0.0
 11
16393.127047
 21
18901.041148
 31
0.0
  0
LINE
  8
0
 10
16393.127047
 20
18901.041148
 30
0.0
 11
16368.911708
 21
19023.28273
 31
0.0
  0
LINE
  8
0
 10
16368.911708
 20
19023.28273
 30
0.0
 11
16367.621638
 21
19109.887548
 31
0.0
  0
LINE
  8
0
 10
16367.621638
 20
19109.887548
 30
0.0
 11
16340.861582
 21
19223.210873
 31
0.0
  0
LINE
  8
0
 10
16340.861582
 20
19223.210873
 30
0.0
 11
16358.671352
 21
19303.46792
 31
0.0
  0
LINE
  8
0
 10
16358.671352
 20
19303.46792
 30
0.0
 11
16182.972427
 21
19258.702579
 31
0.0
  0
LINE
  8
0
 10
16182.972427
 20
19258.702579
 30
0.0
 11
16076.008373
 21
19315.900761
 31
0.0
  0
LINE
  8
0
 10
16076.008373
 20
19315.900761
 30
0.0
 11
15902.839115
 21
19348.82925
 31
0.0
  0
LINE
  8
0
 10
15902.839115
 20
19348.82925
 30
0.0
 11
15826.455245
 21
19286.339473
 31
0.0
  0
LINE
  8
0
 10
15826.455245
 20
19286.339473
 30
0.0
 11
15778.095356
 21
19158.924286
 31
0.0
  0
LINE
  8
0
 10
15778.095356
 20
19158.924286
 30
0.0
 11
15784.479393
 21
19065.955845
 31
0.0
  0
LINE
  8
0
 10
15784.479393
 20
19065.955845
 30
0.0
 11
15817.587768
 21
19048.160651
 31
0.0
  0
LINE
  8
0
 10
15817.587768
 20
19048.160651
 30
0.0
 11
15839.237196
 21
19027.805846
 31
0.0
  0
LINE
  8
0
 10
15839.237196
 20
19027.805846
 30
0.0
 11
15766.681233
 21
18920.742049
 31
0.0
  0
LINE
  8
0
 10
15766.681233
 20
18920.742049
 30
0.0
 11
15636.820486
 21
18850.551382
 31
0.0
  0
LINE
  8
0
 10
15636.820486
 20
18850.551382
 30
0.0
 11
15576.969355
 21
18887.422284
 31
0.0
  0
LINE
  8
0
 10
15576.969355
 20
18887.422284
 30
0.0
 11
15476.397691
 21
18793.063656
 31
0.0
  0
LINE
  8
0
 10
15476.397691
 20
18793.063656
 30
0.0
 11
15368.172375
 21
18770.020708
 31
0.0
  0
LINE
  8
0
 10
15368.172375
 20
18770.020708
 30
0.0
 11
15273.951177
 21
18755.908412
 31
0.0
  0
LINE
  8
0
 10
15273.951177
 20
18755.908412
 30
0.0
 11
15128.775236
 21
18861.464488
 31
0.0
  0
LINE
  8
0
 10
15128.775236
 20
18861.464488
 30
0.0
 11
15131.331784
 21
18807.973724
 31
0.0
  0
LINE
  8
0
 10
15131.331784
 20
18807.973724
 30
0.0
 11
15216.654399
 21
18746.930718
 31
0.0
  0
LINE
  8
0
 10
15216.654399
 20
18746.930718
 30
0.0
 11
15216.65986
 21
18717.636655
 31
0.0
  0
LINE
  8
0
 10
15216.65986
 20
18717.636655
 30
0.0
 11
15284.153739
 21
18669.311012
 31
0.0
  0
LINE
  8
0
 10
15284.153739
 20
18669.311012
 30
0.0
 11
15301.99919
 21
18566.164329
 31
0.0
  0
LINE
  8
0
 10
15301.99919
 20
18566.164329
 30
0.0
 11
15316.034769
 21
18409.519789
 31
0.0
  0
LINE
  8
0
 10
15316.034769
 20
18409.519789
 30
0.0
 11
15368.293901
 21
18121.729733
 31
0.0
  0
TEXT
  8
0
 10
15569.38516
 20
18650.985726
 30
0.0
 40
100.0
  1
P.PAWAI
 72
     4
 11
15869.38516
 21
18700.985726
 31
0.0
  0
LINE
  8
0
 10
14024.443611
 20
20844.639959
 30
0.0
 11
14425.561111
 21
20744.440965
 31
0.0
  0
LINE
  8
0
 10
14425.561111
 20
20744.440965
 30
0.0
 11
15113.165638
 21
20638.175286
 31
0.0
  0
LINE
  8
0
 10
15113.165638
 20
20638.175286
 30
0.0
 11
15658.112968
 21
20715.162617
 31
0.0
  0
LINE
  8
0
 10
15658.112968
 20
20715.162617
 30
0.0
 11
16073.213038
 21
20609.887921
 31
0.0
  0
LINE
  8
0
 10
16073.213038
 20
20609.887921
 30
0.0
 11
16451.353748
 21
20657.407038
 31
0.0
  0
LINE
  8
0
 10
16451.353748
 20
20657.407038
 30
0.0
 11
16818.034082
 21
20683.262563
 31
0.0
  0
LINE
  8
0
 10
16818.034082
 20
20683.262563
 30
0.0
 11
16950.432026
 21
20758.542173
 31
0.0
  0
LINE
  8
0
 10
16950.432026
 20
20758.542173
 30
0.0
 11
16940.232061
 21
20831.125363
 31
0.0
  0
LINE
  8
0
 10
16940.232061
 20
20831.125363
 30
0.0
 11
16730.109434
 21
21056.329551
 31
0.0
  0
LINE
  8
0
 10
16730.109434
 20
21056.329551
 30
0.0
 11
16542.893853
 21
21331.228103
 31
0.0
  0
LINE
  8
0
 10
16542.893853
 20
21331.228103
 30
0.0
 11
16419.340199
 21
21597.278072
 31
0.0
  0
LINE
  8
0
 10
16419.340199
 20
21597.278072
 30
0.0
 11
16235.985914
 21
21651.853378
 31
0.0
  0
LINE
  8
0
 10
16235.985914
 20
21651.853378
 30
0.0
 11
15577.68761
 21
21825.659269
 31
0.0
  0
LINE
  8
0
 10
15577.68761
 20
21825.659269
 30
0.0
 11
15292.493495
 21
21736.215193
 31
0.0
  0
LINE
  8
0
 10
15292.493495
 20
21736.215193
 30
0.0
 11
14682.621666
 21
21561.103952
 31
0.0
  0
LINE
  8
0
 10
14682.621666
 20
21561.103952
 30
0.0
 11
14508.222389
 21
21320.209252
 31
0.0
  0
LINE
  8
0
 10
14508.222389
 20
21320.209252
 30
0.0
 11
14343.989782
 21
21179.939835
 31
0.0
  0
LINE
  8
0
 10
14343.989782
 20
21179.939835
 30
0.0
 11
14135.187566
 21
21048.538413
 31
0.0
  0
LINE
  8
0
 10
14135.187566
 20
21048.538413
 30
0.0
 11
13998.976324
 21
20847.160687
 31
0.0
  0
LINE
  8
0
 10
13998.976324
 20
20847.160687
 30
0.0
 11
14108.49628
 21
20775.950746
 31
0.0
  0
LINE
  8
0
 10
14108.49628
 20
20775.950746
 30
0.0
 11
14119.955631
 21
20779.783656
 31
0.0
  0
TEXT
  8
0
 10
15246.914751
 20
21096.851474
 30
0.0
 40
100.0
  1
P.SUDONG
 72
     4
 11
15596.914751
 21
21146.851474
 31
0.0
  0
LINE
  8
0
 10
17616.886585
 20
24168.479212
 30
0.0
 11
17742.981513
 21
23898.620657
 31
0.0
  0
LINE
  8
0
 10
17742.981513
 20
23898.620657
 30
0.0
 11
17949.249381
 21
23793.123252
 31
0.0
  0
LINE
  8
0
 10
17949.249381
 20
23793.123252
 30
0.0
 11
18113.486637
 21
23767.815261
 31
0.0
  0
LINE
  8
0
 10
18113.486637
 20
23767.815261
 30
0.0
 11
18268.802715
 21
23783.250346
 31
0.0
  0
LINE
  8
0
 10
18268.802715
 20
23783.250346
 30
0.0
 11
18449.562208
 21
23882.760461
 31
0.0
  0
LINE
  8
0
 10
18449.562208
 20
23882.760461
 30
0.0
 11
18640.503787
 21
23987.373653
 31
0.0
  0
LINE
  8
0
 10
18640.503787
 20
23987.373653
 30
0.0
 11
18890.005275
 21
24090.769837
 31
0.0
  0
LINE
  8
0
 10
18890.005275
 20
24090.769837
 30
0.0
 11
18884.88254
 21
24234.666826
 31
0.0
  0
LINE
  8
0
 10
18884.88254
 20
24234.666826
 30
0.0
 11
18784.276772
 21
24391.205195
 31
0.0
  0
LINE
  8
0
 10
18784.276772
 20
24391.205195
 30
0.0
 11
18527.100216
 21
24459.722224
 31
0.0
  0
LINE
  8
0
 10
18527.100216
 20
24459.722224
 30
0.0
 11
18212.647137
 21
24454.322393
 31
0.0
  0
LINE
  8
0
 10
18212.647137
 20
24454.322393
 30
0.0
 11
18043.332988
 21
24410.859163
 31
0.0
  0
LINE
  8
0
 10
18043.332988
 20
24410.859163
 30
0.0
 11
17922.397667
 21
24359.801835
 31
0.0
  0
LINE
  8
0
 10
17922.397667
 20
24359.801835
 30
0.0
 11
17800.200787
 21
24248.888783
 31
0.0
  0
LINE
  8
0
 10
17800.200787
 20
24248.888783
 30
0.0
 11
17697.084807
 21
24213.130119
 31
0.0
  0
LINE
  8
0
 10
17697.084807
 20
24213.130119
 30
0.0
 11
17641.071457
 21
24191.425871
 31
0.0
  0
TEXT
  8
0
 10
17843.731704
 20
24091.010633
 30
0.0
 40
100.0
  1
P.BUSING
 72
     4
 11
18177.065037
 21
24141.010633
 31
0.0
  0
LINE
  8
0
 10
19947.928075
 20
23988.657602
 30
0.0
 11
19857.480439
 21
24277.640903
 31
0.0
  0
LINE
  8
0
 10
19857.480439
 20
24277.640903
 30
0.0
 11
19828.129281
 21
24606.159973
 31
0.0
  0
LINE
  8
0
 10
19828.129281
 20
24606.159973
 30
0.0
 11
19877.756152
 21
24701.715801
 31
0.0
  0
LINE
  8
0
 10
19877.756152
 20
24701.715801
 30
0.0
 11
20052.135351
 21
24808.852724
 31
0.0
  0
LINE
  8
0
 10
20052.135351
 20
24808.852724
 30
0.0
 11
20338.57558
 21
24740.364634
 31
0.0
  0
LINE
  8
0
 10
20338.57558
 20
24740.364634
 30
0.0
 11
20504.097662
 21
24590.261184
 31
0.0
  0
LINE
  8
0
 10
20504.097662
 20
24590.261184
 30
0.0
 11
20681.072408
 21
24455.450575
 31
0.0
  0
LINE
  8
0
 10
20681.072408
 20
24455.450575
 30
0.0
 11
20835.133053
 21
24319.344875
 31
0.0
  0
LINE
  8
0
 10
20835.133053
 20
24319.344875
 30
0.0
 11
21012.109608
 21
24169.25458
 31
0.0
  0
LINE
  8
0
 10
21012.109608
 20
24169.25458
 30
0.0
 11
21055.412879
 21
24069.970507
 31
0.0
  0
LINE
  8
0
 10
21055.412879
 20
24069.970507
 30
0.0
 11
21131.797527
 21
24039.483435
 31
0.0
  0
LINE
  8
0
 10
21131.797527
 20
24039.483435
 30
0.0
 11
21194.161495
 21
24087.934333
 31
0.0
  0
LINE
  8
0
 10
21194.161495
 20
24087.934333
 30
0.0
 11
21206.906415
 21
24020.455916
 31
0.0
  0
LINE
  8
0
 10
21206.906415
 20
24020.455916
 30
0.0
 11
21276.936356
 21
23944.119873
 31
0.0
  0
LINE
  8
0
 10
21276.936356
 20
23944.119873
 30
0.0
 11
21308.756695
 21
23959.432103
 31
0.0
  0
LINE
  8
0
 10
21308.756695
 20
23959.432103
 30
0.0
 11
21397.881547
 21
23879.294788
 31
0.0
  0
LINE
  8
0
 10
21397.881547
 20
23879.294788
 30
0.0
 11
21400.441433
 21
23818.173524
 31
0.0
  0
LINE
  8
0
 10
21400.441433
 20
23818.173524
 30
0.0
 11
21439.906901
 21
23800.384647
 31
0.0
  0
LINE
  8
0
 10
21439.906901
 20
23800.384647
 30
0.0
 11
21456.447908
 21
23832.236235
 31
0.0
  0
LINE
  8
0
 10
21456.447908
 20
23832.236235
 30
0.0
 11
21735.291014
 21
23531.986935
 31
0.0
  0
LINE
  8
0
 10
21735.291014
 20
23531.986935
 30
0.0
 11
21876.621846
 21
23379.318126
 31
0.0
  0
LINE
  8
0
 10
21876.621846
 20
23379.318126
 30
0.0
 11
21778.594041
 21
23431.430521
 31
0.0
  0
LINE
  8
0
 10
21778.594041
 20
23431.430521
 30
0.0
 11
21755.695957
 21
23367.737225
 31
0.0
  0
LINE
  8
0
 10
21755.695957
 20
23367.737225
 30
0.0
 11
21835.900486
 21
23325.794429
 31
0.0
  0
LINE
  8
0
 10
21835.900486
 20
23325.794429
 30
0.0
 11
22005.265688
 21
23043.266203
 31
0.0
  0
LINE
  8
0
 10
22005.265688
 20
23043.266203
 30
0.0
 11
21979.824065
 21
22970.656235
 31
0.0
  0
LINE
  8
0
 10
21979.824065
 20
22970.656235
 30
0.0
 11
21736.670809
 21
23069.739239
 31
0.0
  0
LINE
  8
0
 10
21736.670809
 20
23069.739239
 30
0.0
 11
21583.922698
 21
23047.938326
 31
0.0
  0
LINE
  8
0
 10
21583.922698
 20
23047.938326
 30
0.0
 11
21443.900252
 21
23038.884268
 31
0.0
  0
LINE
  8
0
 10
21443.900252
 20
23038.884268
 30
0.0
 11
21348.423909
 21
23059.163574
 31
0.0
  0
LINE
  8
0
 10
21348.423909
 20
23059.163574
 30
0.0
 11
21269.431299
 21
23362.16009
 31
0.0
  0
LINE
  8
0
 10
21269.431299
 20
23362.16009
 30
0.0
 11
21061.894822
 21
23552.96785
 31
0.0
  0
LINE
  8
0
 10
21061.894822
 20
23552.96785
 30
0.0
 11
20856.926958
 21
23638.084631
 31
0.0
  0
LINE
  8
0
 10
20856.926958
 20
23638.084631
 30
0.0
 11
20781.812889
 21
23674.939846
 31
0.0
  0
LINE
  8
0
 10
20781.812889
 20
23674.939846
 30
0.0
 11
20663.414289
 21
23724.486737
 31
0.0
  0
LINE
  8
0
 10
20663.414289
 20
23724.486737
 30
0.0
 11
20460.998769
 21
23768.857214
 31
0.0
  0
LINE
  8
0
 10
20464.819456
 20
23761.220362
 30
0.0
 11
20257.318902
 21
23767.382874
 31
0.0
  0
LINE
  8
0
 10
20257.318902
 20
23767.382874
 30
0.0
 11
19968.31925
 21
23884.255041
 31
0.0
  0
LINE
  8
0
 10
19968.31925
 20
23884.255041
 30
0.0
 11
19965.759266
 21
23947.924851
 31
0.0
  0
TEXT
  8
0
 10
20225.925425
 20
23976.508957
 30
0.0
 40
100.0
  1
P.BUKOM
 72
     4
 11
20525.925425
 21
24026.508957
 31
0.0
  0
LINE
  8
0
 10
20663.555938
 20
23091.588112
 30
0.0
 11
20784.462405
 21
23213.959168
 31
0.0
  0
LINE
  8
0
 10
20784.462405
 20
23213.959168
 30
0.0
 11
20883.73694
 21
23294.284591
 31
0.0
  0
LINE
  8
0
 10
20883.73694
 20
23294.284591
 30
0.0
 11
21018.636349
 21
23453.59764
 31
0.0
  0
LINE
  8
0
 10
21018.636349
 20
23453.59764
 30
0.0
 11
20809.844502
 21
23559.085337
 31
0.0
  0
LINE
  8
0
 10
20809.844502
 20
23559.085337
 30
0.0
 11
20565.414907
 21
23631.429172
 31
0.0
  0
LINE
  8
0
 10
20565.414907
 20
23631.429172
 30
0.0
 11
20383.370486
 21
23657.991386
 31
0.0
  0
LINE
  8
0
 10
20383.370486
 20
23657.991386
 30
0.0
 11
20253.531404
 21
23624.753489
 31
0.0
  0
LINE
  8
0
 10
20253.531404
 20
23624.753489
 30
0.0
 11
19937.800487
 21
23730.137656
 31
0.0
  0
LINE
  8
0
 10
19937.800487
 20
23730.137656
 30
0.0
 11
19738.006116
 21
23403.935104
 31
0.0
  0
LINE
  8
0
 10
19738.006116
 20
23403.935104
 30
0.0
 11
19795.333684
 21
23215.519764
 31
0.0
  0
LINE
  8
0
 10
19795.333684
 20
23215.519764
 30
0.0
 11
20029.580607
 21
23171.182319
 31
0.0
  0
LINE
  8
0
 10
20029.580607
 20
23171.182319
 30
0.0
 11
20403.86035
 21
23109.156831
 31
0.0
  0
LINE
  8
0
 10
20403.86035
 20
23109.156831
 30
0.0
 11
20700.470959
 21
23099.265666
 31
0.0
  0
LINE
  8
0
 10
19749.350127
 20
23924.790027
 30
0.0
 11
19751.908653
 21
23867.487192
 31
0.0
  0
LINE
  8
0
 10
19751.908653
 20
23867.487192
 30
0.0
 11
19508.84093
 21
23486.482742
 31
0.0
  0
LINE
  8
0
 10
19508.84093
 20
23486.482742
 30
0.0
 11
19381.487314
 21
23713.033488
 31
0.0
  0
LINE
  8
0
 10
19381.487314
 20
23713.033488
 30
0.0
 11
19167.583028
 21
23857.997708
 31
0.0
  0
LINE
  8
0
 10
19167.583028
 20
23857.997708
 30
0.0
 11
19259.175223
 21
24175.180018
 31
0.0
  0
LINE
  8
0
 10
19259.175223
 20
24175.180018
 30
0.0
 11
19445.009137
 21
24319.262107
 31
0.0
  0
LINE
  8
0
 10
19445.009137
 20
24319.262107
 30
0.0
 11
19576.122433
 21
24363.960728
 31
0.0
  0
LINE
  8
0
 10
19576.122433
 20
24363.960728
 30
0.0
 11
19620.687986
 21
24320.706945
 31
0.0
  0
LINE
  8
0
 10
19620.687986
 20
24320.706945
 30
0.0
 11
19744.256345
 21
23932.42573
 31
0.0
  0
LINE
  8
0
 10
18405.095639
 20
23442.089243
 30
0.0
 11
18429.315605
 21
23293.11445
 31
0.0
  0
LINE
  8
0
 10
18429.315605
 20
23293.11445
 30
0.0
 11
18397.535801
 21
23063.853095
 31
0.0
  0
LINE
  8
0
 10
18397.535801
 20
23063.853095
 30
0.0
 11
18634.37758
 21
22847.595555
 31
0.0
  0
LINE
  8
0
 10
18634.37758
 20
22847.595555
 30
0.0
 11
18838.054421
 21
22930.577118
 31
0.0
  0
LINE
  8
0
 10
18838.054421
 20
22930.577118
 30
0.0
 11
18915.721855
 21
22886.082832
 31
0.0
  0
LINE
  8
0
 10
18915.721855
 20
22886.082832
 30
0.0
 11
19169.046997
 21
22964.019557
 31
0.0
  0
LINE
  8
0
 10
19169.046997
 20
22964.019557
 30
0.0
 11
19193.222468
 21
23023.897431
 31
0.0
  0
LINE
  8
0
 10
19193.222468
 20
23023.897431
 30
0.0
 11
19000.940736
 21
23250.385168
 31
0.0
  0
LINE
  8
0
 10
19000.940736
 20
23250.385168
 30
0.0
 11
18718.292069
 21
23368.537929
 31
0.0
  0
LINE
  8
0
 10
18718.292069
 20
23368.537929
 30
0.0
 11
18424.191082
 21
23447.202171
 31
0.0
  0
TEXT
  8
0
 10
18484.56121
 20
22992.590794
 30
0.0
 40
100.0
  1
P.HANTU
 72
     4
 11
18784.56121
 21
23042.590794
 31
0.0
  0
LINE
  8
0
 10
13194.319395
 20
27600.271333
 30
0.0
 11
12674.856808
 21
27253.38786
 31
0.0
  0
LINE
  8
0
 10
12674.856808
 20
27253.38786
 30
0.0
 11
12567.917086
 21
27122.111647
 31
0.0
  0
LINE
  8
0
 10
12567.917086
 20
27122.111647
 30
0.0
 11
12537.388993
 21
26928.499896
 31
0.0
  0
LINE
  8
0
 10
12537.388993
 20
26928.499896
 30
0.0
 11
12588.35429
 21
26745.151697
 31
0.0
  0
LINE
  8
0
 10
12588.35429
 20
26745.151697
 30
0.0
 11
12603.648777
 21
26661.109575
 31
0.0
  0
LINE
  8
0
 10
12603.648777
 20
26661.109575
 30
0.0
 11
12894.023752
 21
26365.909772
 31
0.0
  0
LINE
  8
0
 10
12894.023752
 20
26365.909772
 30
0.0
 11
13041.744903
 21
26289.633397
 31
0.0
  0
LINE
  8
0
 10
13041.744903
 20
26289.633397
 30
0.0
 11
13200.910648
 21
26298.697552
 31
0.0
  0
LINE
  8
0
 10
13200.910648
 20
26298.697552
 30
0.0
 11
13495.042499
 21
26337.180069
 31
0.0
  0
LINE
  8
0
 10
13495.042499
 20
26337.180069
 30
0.0
 11
13889.7637
 21
26364.294226
 31
0.0
  0
LINE
  8
0
 10
13889.7637
 20
26364.294226
 30
0.0
 11
14471.594222
 21
26699.778868
 31
0.0
  0
LINE
  8
0
 10
14471.594222
 20
26699.778868
 30
0.0
 11
14583.617876
 21
26829.783041
 31
0.0
  0
LINE
  8
0
 10
14583.617876
 20
26829.783041
 30
0.0
 11
14512.289726
 21
26969.805226
 31
0.0
  0
LINE
  8
0
 10
14512.289726
 20
26969.805226
 30
0.0
 11
14037.330426
 21
27124.738213
 31
0.0
  0
LINE
  8
0
 10
14037.330426
 20
27124.738213
 30
0.0
 11
13822.120853
 21
27256.988401
 31
0.0
  0
LINE
  8
0
 10
13822.120853
 20
27256.988401
 30
0.0
 11
13229.971539
 21
27605.398026
 31
0.0
  0
TEXT
  8
0
 10
12993.766367
 20
26811.700536
 30
0.0
 40
100.0
  1
P.SAKRA
 72
     4
 11
13293.766367
 21
26861.700536
 31
0.0
  0
LINE
  8
0
 10
14421.75259
 20
27717.280318
 30
0.0
 11
15583.060826
 21
27081.588989
 31
0.0
  0
LINE
  8
0
 10
15583.060826
 20
27081.588989
 30
0.0
 11
15838.952237
 21
27198.98615
 31
0.0
  0
LINE
  8
0
 10
15838.952237
 20
27198.98615
 30
0.0
 11
15981.520675
 21
27350.662142
 31
0.0
  0
LINE
  8
0
 10
15981.520675
 20
27350.662142
 30
0.0
 11
16074.438909
 21
27476.822009
 31
0.0
  0
LINE
  8
0
 10
16074.438909
 20
27476.822009
 30
0.0
 11
16112.612982
 21
27587.649568
 31
0.0
  0
LINE
  8
0
 10
16112.612982
 20
27587.649568
 30
0.0
 11
16024.754966
 21
27632.141254
 31
0.0
  0
LINE
  8
0
 10
16024.754966
 20
27632.141254
 30
0.0
 11
16047.652175
 21
27736.587301
 31
0.0
  0
LINE
  8
0
 10
16047.652175
 20
27736.587301
 30
0.0
 11
16121.488186
 21
27779.952552
 31
0.0
  0
LINE
  8
0
 10
16121.488186
 20
27779.952552
 30
0.0
 11
16139.300865
 21
27841.095452
 31
0.0
  0
LINE
  8
0
 10
16139.300865
 20
27841.095452
 30
0.0
 11
16061.624597
 21
27905.9722
 31
0.0
  0
LINE
  8
0
 10
16061.624597
 20
27905.9722
 30
0.0
 11
15976.328109
 21
27871.511102
 31
0.0
  0
LINE
  8
0
 10
15976.328109
 20
27871.511102
 30
0.0
 11
15916.499413
 21
27814.150355
 31
0.0
  0
LINE
  8
0
 10
15916.499413
 20
27814.150355
 30
0.0
 11
15898.69208
 21
27723.717107
 31
0.0
  0
LINE
  8
0
 10
15898.69208
 20
27723.717107
 30
0.0
 11
15739.532461
 21
27779.605725
 31
0.0
  0
LINE
  8
0
 10
15739.532461
 20
27779.605725
 30
0.0
 11
15684.789838
 21
27754.086307
 31
0.0
  0
LINE
  8
0
 10
15684.789838
 20
27754.086307
 30
0.0
 11
15579.107676
 21
27788.374469
 31
0.0
  0
LINE
  8
0
 10
15579.107676
 20
27788.374469
 30
0.0
 11
15505.239235
 21
27908.015329
 31
0.0
  0
LINE
  8
0
 10
15505.239235
 20
27908.015329
 30
0.0
 11
15311.699795
 21
27968.967678
 31
0.0
  0
LINE
  8
0
 10
15311.699795
 20
27968.967678
 30
0.0
 11
15246.760053
 21
27999.472773
 31
0.0
  0
LINE
  8
0
 10
15246.760053
 20
27999.472773
 30
0.0
 11
15263.304506
 21
28038.965962
 31
0.0
  0
LINE
  8
0
 10
15263.304506
 20
28038.965962
 30
0.0
 11
15123.241542
 21
28085.958778
 31
0.0
  0
LINE
  8
0
 10
15123.241542
 20
28085.958778
 30
0.0
 11
15128.309114
 21
28222.22705
 31
0.0
  0
LINE
  8
0
 10
15128.309114
 20
28222.22705
 30
0.0
 11
14890.191623
 21
28351.909494
 31
0.0
  0
LINE
  8
0
 10
14890.191623
 20
28351.909494
 30
0.0
 11
14784.489752
 21
28479.164343
 31
0.0
  0
LINE
  8
0
 10
14784.489752
 20
28479.164343
 30
0.0
 11
14741.185677
 21
28555.53536
 31
0.0
  0
LINE
  8
0
 10
14741.185677
 20
28555.53536
 30
0.0
 11
14570.564494
 21
28592.314488
 31
0.0
  0
LINE
  8
0
 10
14570.564494
 20
28592.314488
 30
0.0
 11
14515.812074
 21
28607.547639
 31
0.0
  0
LINE
  8
0
 10
14515.812074
 20
28607.547639
 30
0.0
 11
14393.579442
 21
28609.985631
 31
0.0
  0
LINE
  8
0
 10
14393.579442
 20
28609.985631
 30
0.0
 11
14237.023318
 21
28305.47728
 31
0.0
  0
LINE
  8
0
 10
14237.023318
 20
28305.47728
 30
0.0
 11
14226.846803
 21
28251.98061
 31
0.0
  0
LINE
  8
0
 10
14226.846803
 20
28251.98061
 30
0.0
 11
14304.551258
 21
28055.929452
 31
0.0
  0
LINE
  8
0
 10
14304.551258
 20
28055.929452
 30
0.0
 11
14363.133986
 21
27985.939068
 31
0.0
  0
LINE
  8
0
 10
14363.133986
 20
27985.939068
 30
0.0
 11
14424.301417
 21
27704.547458
 31
0.0
  0
TEXT
  8
0
 10
14748.339256
 20
27550.503479
 30
0.0
 40
100.0
  1
P.AYER MERBAU
 72
     4
 11
15348.339256
 21
27600.503479
 31
0.0
  0
LINE
  8
0
 10
16231.9117
 20
29551.430371
 30
0.0
 11
16457.310833
 21
29286.752272
 31
0.0
  0
LINE
  8
0
 10
16457.310833
 20
29286.752272
 30
0.0
 11
16562.991734
 21
29235.907626
 31
0.0
  0
LINE
  8
0
 10
16562.991734
 20
29235.907626
 30
0.0
 11
16639.403852
 21
29114.998312
 31
0.0
  0
LINE
  8
0
 10
16639.403852
 20
29114.998312
 30
0.0
 11
16697.979189
 21
29059.018737
 31
0.0
  0
LINE
  8
0
 10
16697.979189
 20
29059.018737
 30
0.0
 11
17073.560823
 21
29013.506973
 31
0.0
  0
LINE
  8
0
 10
17073.560823
 20
29013.506973
 30
0.0
 11
17251.828651
 21
28854.486288
 31
0.0
  0
LINE
  8
0
 10
17251.828651
 20
28854.486288
 30
0.0
 11
17400.823984
 21
28647.050074
 31
0.0
  0
LINE
  8
0
 10
17400.823984
 20
28647.050074
 30
0.0
 11
17369.051166
 21
28374.507597
 31
0.0
  0
LINE
  8
0
 10
17369.051166
 20
28374.507597
 30
0.0
 11
17087.698597
 21
28343.692809
 31
0.0
  0
LINE
  8
0
 10
17087.698597
 20
28343.692809
 30
0.0
 11
16875.114579
 21
28199.602587
 31
0.0
  0
LINE
  8
0
 10
16875.114579
 20
28199.602587
 30
0.0
 11
16667.606961
 21
28126.828972
 31
0.0
  0
LINE
  8
0
 10
16667.606961
 20
28126.828972
 30
0.0
 11
16386.234925
 21
28153.318072
 31
0.0
  0
LINE
  8
0
 10
16386.234925
 20
28153.318072
 30
0.0
 11
16121.393738
 21
28270.238467
 31
0.0
  0
LINE
  8
0
 10
16121.393738
 20
28270.238467
 30
0.0
 11
15949.500072
 21
28347.765662
 31
0.0
  0
LINE
  8
0
 10
15949.500072
 20
28347.765662
 30
0.0
 11
15612.080144
 21
28479.904514
 31
0.0
  0
LINE
  8
0
 10
15612.080144
 20
28479.904514
 30
0.0
 11
15447.820167
 21
28571.448028
 31
0.0
  0
LINE
  8
0
 10
15447.820167
 20
28571.448028
 30
0.0
 11
15179.138119
 21
28758.41011
 31
0.0
  0
LINE
  8
0
 10
15179.138119
 20
28758.41011
 30
0.0
 11
15385.328283
 21
29130.447316
 31
0.0
  0
LINE
  8
0
 10
15385.328283
 20
29130.447316
 30
0.0
 11
15434.979963
 21
29147.046173
 31
0.0
  0
LINE
  8
0
 10
15434.979963
 20
29147.046173
 30
0.0
 11
15516.441488
 21
29269.370557
 31
0.0
  0
LINE
  8
0
 10
15516.441488
 20
29269.370557
 30
0.0
 11
15687.03288
 21
29353.568757
 31
0.0
  0
LINE
  8
0
 10
15687.03288
 20
29353.568757
 30
0.0
 11
15861.446839
 21
29414.847511
 31
0.0
  0
LINE
  8
0
 10
15861.446839
 20
29414.847511
 30
0.0
 11
15996.382262
 21
29523.208811
 31
0.0
  0
LINE
  8
0
 10
15996.382262
 20
29523.208811
 30
0.0
 11
16104.590707
 21
29578.061474
 31
0.0
  0
LINE
  8
0
 10
16104.590707
 20
29578.061474
 30
0.0
 11
16229.364897
 21
29553.975028
 31
0.0
  0
TEXT
  8
0
 10
15947.00225
 20
28677.567483
 30
0.0
 40
100.0
  1
P.SERAYA
 72
     4
 11
16297.00225
 21
28727.567483
 31
0.0
  0
LINE
  8
0
 10
12212.385766
 20
28701.010017
 30
0.0
 11
12352.431451
 21
28843.772326
 31
0.0
  0
LINE
  8
0
 10
12352.431451
 20
28843.772326
 30
0.0
 11
12465.777641
 21
28736.8949
 31
0.0
  0
LINE
  8
0
 10
12465.777641
 20
28736.8949
 30
0.0
 11
12686.052581
 21
28817.323952
 31
0.0
  0
LINE
  8
0
 10
12686.052581
 20
28817.323952
 30
0.0
 11
12786.635043
 21
28882.363705
 31
0.0
  0
LINE
  8
0
 10
12786.635043
 20
28882.363705
 30
0.0
 11
12729.300736
 21
29084.805353
 31
0.0
  0
LINE
  8
0
 10
12729.300736
 20
29084.805353
 30
0.0
 11
12770.012804
 21
29288.606561
 31
0.0
  0
LINE
  8
0
 10
12770.012804
 20
29288.606561
 30
0.0
 11
12800.558417
 21
29372.686359
 31
0.0
  0
LINE
  8
0
 10
12800.558417
 20
29372.686359
 30
0.0
 11
12833.655591
 21
29427.477072
 31
0.0
  0
LINE
  8
0
 10
12833.655591
 20
29427.477072
 30
0.0
 11
12904.959091
 21
29442.821827
 31
0.0
  0
LINE
  8
0
 10
12904.959091
 20
29442.821827
 30
0.0
 11
12999.176202
 21
29492.571691
 31
0.0
  0
LINE
  8
0
 10
12999.176202
 20
29492.571691
 30
0.0
 11
13074.295631
 21
29528.295943
 31
0.0
  0
LINE
  8
0
 10
13074.295631
 20
29528.295943
 30
0.0
 11
13164.678257
 21
29658.273567
 31
0.0
  0
LINE
  8
0
 10
13164.678257
 20
29658.273567
 30
0.0
 11
13261.438364
 21
29722.033478
 31
0.0
  0
LINE
  8
0
 10
13261.438364
 20
29722.033478
 30
0.0
 11
13312.374339
 21
29699.154611
 31
0.0
  0
LINE
  8
0
 10
13312.374339
 20
29699.154611
 30
0.0
 11
13376.051161
 21
29630.440527
 31
0.0
  0
LINE
  8
0
 10
13376.051161
 20
29630.440527
 30
0.0
 11
13498.320017
 21
29443.34134
 31
0.0
  0
LINE
  8
0
 10
13498.320017
 20
29443.34134
 30
0.0
 11
13572.182443
 21
29377.183532
 31
0.0
  0
LINE
  8
0
 10
13572.182443
 20
29377.183532
 30
0.0
 11
13666.445496
 21
29150.581513
 31
0.0
  0
LINE
  8
0
 10
13666.445496
 20
29150.581513
 30
0.0
 11
13721.231741
 21
28951.961959
 31
0.0
  0
LINE
  8
0
 10
13721.231741
 20
28951.961959
 30
0.0
 11
13849.855996
 21
28823.451155
 31
0.0
  0
LINE
  8
0
 10
13849.855996
 20
28823.451155
 30
0.0
 11
13940.276813
 21
28721.65052
 31
0.0
  0
LINE
  8
0
 10
13940.276813
 20
28721.65052
 30
0.0
 11
13890.62915
 21
28664.29823
 31
0.0
  0
LINE
  8
0
 10
13890.62915
 20
28664.29823
 30
0.0
 11
13885.543032
 21
28624.814741
 31
0.0
  0
LINE
  8
0
 10
13885.543032
 20
28624.814741
 30
0.0
 11
13982.311668
 21
28627.448037
 31
0.0
  0
LINE
  8
0
 10
13982.311668
 20
28627.448037
 30
0.0
 11
14009.055422
 21
28599.454608
 31
0.0
  0
LINE
  8
0
 10
14009.055422
 20
28599.454608
 30
0.0
 11
14017.968338
 21
28599.462559
 31
0.0
  0
LINE
  8
0
 10
14017.968338
 20
28599.462559
 30
0.0
 11
14066.345184
 21
28641.531565
 31
0.0
  0
LINE
  8
0
 10
14066.345184
 20
28641.531565
 30
0.0
 11
14210.23078
 21
28606.001596
 31
0.0
  0
LINE
  8
0
 10
14210.23078
 20
28606.001596
 30
0.0
 11
14095.670912
 21
28414.872633
 31
0.0
  0
LINE
  8
0
 10
14095.670912
 20
28414.872633
 30
0.0
 11
14038.382497
 21
28365.154222
 31
0.0
  0
LINE
  8
0
 10
14038.382497
 20
28365.154222
 30
0.0
 11
14070.239582
 21
28223.822472
 31
0.0
  0
LINE
  8
0
 10
14070.239582
 20
28223.822472
 30
0.0
 11
14094.434968
 21
28206.014992
 31
0.0
  0
LINE
  8
0
 10
14094.434968
 20
28206.014992
 30
0.0
 11
14099.528971
 21
28200.925506
 31
0.0
  0
LINE
  8
0
 10
14099.528971
 20
28200.925506
 30
0.0
 11
14063.889806
 21
28130.849908
 31
0.0
  0
LINE
  8
0
 10
14063.889806
 20
28130.849908
 30
0.0
 11
14074.087379
 21
28067.183115
 31
0.0
  0
LINE
  8
0
 10
14074.087379
 20
28067.183115
 30
0.0
 11
14010.422395
 21
28073.493273
 31
0.0
  0
LINE
  8
0
 10
14010.422395
 20
28073.493273
 30
0.0
 11
13926.385422
 21
28075.964496
 31
0.0
  0
LINE
  8
0
 10
13926.385422
 20
28075.964496
 30
0.0
 11
13813.064365
 21
28068.221097
 31
0.0
  0
LINE
  8
0
 10
13813.064365
 20
28068.221097
 30
0.0
 11
13707.36148
 21
28180.196206
 31
0.0
  0
LINE
  8
0
 10
13707.36148
 20
28180.196206
 30
0.0
 11
13658.968034
 21
28227.273184
 31
0.0
  0
LINE
  8
0
 10
13658.968034
 20
28227.273184
 30
0.0
 11
13599.121107
 21
28238.681128
 31
0.0
  0
LINE
  8
0
 10
13599.121107
 20
28238.681128
 30
0.0
 11
13474.33987
 21
28225.833622
 31
0.0
  0
LINE
  8
0
 10
13474.33987
 20
28225.833622
 30
0.0
 11
13200.56666
 21
28291.811426
 31
0.0
  0
LINE
  8
0
 10
13200.56666
 20
28291.811426
 30
0.0
 11
13056.700249
 21
28182.15758
 31
0.0
  0
LINE
  8
0
 10
13056.700249
 20
28182.15758
 30
0.0
 11
12982.859716
 21
28109.498996
 31
0.0
  0
LINE
  8
0
 10
12982.859716
 20
28109.498996
 30
0.0
 11
12838.984808
 21
28040.597547
 31
0.0
  0
LINE
  8
0
 10
12838.984808
 20
28040.597547
 30
0.0
 11
12724.380127
 21
28064.691597
 31
0.0
  0
LINE
  8
0
 10
12724.380127
 20
28064.691597
 30
0.0
 11
12547.3847
 21
28065.805432
 31
0.0
  0
LINE
  8
0
 10
12547.3847
 20
28065.805432
 30
0.0
 11
12427.686208
 21
28084.800831
 31
0.0
  0
LINE
  8
0
 10
12427.686208
 20
28084.800831
 30
0.0
 11
12381.856372
 21
28018.534242
 31
0.0
  0
LINE
  8
0
 10
12381.856372
 20
28018.534242
 30
0.0
 11
12246.864433
 21
28111.382592
 31
0.0
  0
LINE
  8
0
 10
12246.864433
 20
28111.382592
 30
0.0
 11
12122.06608
 21
28160.939217
 31
0.0
  0
LINE
  8
0
 10
12122.06608
 20
28160.939217
 30
0.0
 11
12067.305589
 21
28194.002675
 31
0.0
  0
LINE
  8
0
 10
12067.305589
 20
28194.002675
 30
0.0
 11
12074.940372
 21
28227.122295
 31
0.0
  0
LINE
  8
0
 10
12074.940372
 20
28227.122295
 30
0.0
 11
12124.607984
 21
28190.233541
 31
0.0
  0
LINE
  8
0
 10
12124.607984
 20
28190.233541
 30
0.0
 11
12194.650476
 21
28146.995363
 31
0.0
  0
LINE
  8
0
 10
12194.650476
 20
28146.995363
 30
0.0
 11
12253.220262
 21
28177.613653
 31
0.0
  0
LINE
  8
0
 10
12253.220262
 20
28177.613653
 30
0.0
 11
12325.790713
 21
28245.177718
 31
0.0
  0
LINE
  8
0
 10
12325.790713
 20
28245.177718
 30
0.0
 11
12362.704972
 21
28324.171551
 31
0.0
  0
LINE
  8
0
 10
12362.704972
 20
28324.171551
 30
0.0
 11
12453.111962
 21
28331.894013
 31
0.0
  0
LINE
  8
0
 10
12453.111962
 20
28331.894013
 30
0.0
 11
12478.569841
 21
28386.679706
 31
0.0
  0
LINE
  8
0
 10
12478.569841
 20
28386.679706
 30
0.0
 11
12542.234572
 21
28403.292941
 31
0.0
  0
LINE
  8
0
 10
12542.234572
 20
28403.292941
 30
0.0
 11
12570.229796
 21
28512.843379
 31
0.0
  0
LINE
  8
0
 10
12570.229796
 20
28512.843379
 30
0.0
 11
12491.266404
 21
28607.015577
 31
0.0
  0
LINE
  8
0
 10
12491.266404
 20
28607.015577
 30
0.0
 11
12450.517275
 21
28618.441194
 31
0.0
  0
LINE
  8
0
 10
12450.517275
 20
28618.441194
 30
0.0
 11
12361.392945
 21
28555.957602
 31
0.0
  0
LINE
  8
0
 10
12361.392945
 20
28555.957602
 30
0.0
 11
12217.479848
 21
28697.193885
 31
0.0
  0
TEXT
  8
0
 10
12606.744978
 20
28508.833629
 30
0.0
 40
100.0
  1
P.AYER CHAWAN
 72
     4
 11
13223.411645
 21
28558.833629
 31
0.0
  0
LINE
  8
0
 10
13647.12809
 20
30392.227963
 30
0.0
 11
13732.432297
 21
30421.591291
 31
0.0
  0
LINE
  8
0
 10
13732.432297
 20
30421.591291
 30
0.0
 11
13854.675343
 21
30369.483106
 31
0.0
  0
LINE
  8
0
 10
13854.675343
 20
30369.483106
 30
0.0
 11
13889.048088
 21
30400.076203
 31
0.0
  0
LINE
  8
0
 10
13889.048088
 20
30400.076203
 30
0.0
 11
13833.010206
 21
30480.25772
 31
0.0
  0
LINE
  8
0
 10
13833.010206
 20
30480.25772
 30
0.0
 11
13885.212942
 21
30486.669783
 31
0.0
  0
LINE
  8
0
 10
13885.212942
 20
30486.669783
 30
0.0
 11
13959.052164
 21
30542.766062
 31
0.0
  0
LINE
  8
0
 10
13959.052164
 20
30542.766062
 30
0.0
 11
14040.538824
 21
30553.023482
 31
0.0
  0
LINE
  8
0
 10
14040.538824
 20
30553.023482
 30
0.0
 11
14179.319856
 21
30572.244098
 31
0.0
  0
LINE
  8
0
 10
14179.319856
 20
30572.244098
 30
0.0
 11
14231.52916
 21
30537.904895
 31
0.0
  0
LINE
  8
0
 10
14231.52916
 20
30537.904895
 30
0.0
 11
14216.267125
 21
30443.654761
 31
0.0
  0
LINE
  8
0
 10
14216.267125
 20
30443.654761
 30
0.0
 11
14220.108366
 21
30323.951299
 31
0.0
  0
LINE
  8
0
 10
14220.108366
 20
30323.951299
 30
0.0
 11
14240.490403
 21
30267.935802
 31
0.0
  0
LINE
  8
0
 10
14240.490403
 20
30267.935802
 30
0.0
 11
14321.986176
 21
30223.434187
 31
0.0
  0
LINE
  8
0
 10
14321.986176
 20
30223.434187
 30
0.0
 11
14418.766382
 21
30147.108975
 31
0.0
  0
LINE
  8
0
 10
14418.766382
 20
30147.108975
 30
0.0
 11
14514.261526
 21
30134.456546
 31
0.0
  0
LINE
  8
0
 10
14514.261526
 20
30134.456546
 30
0.0
 11
14605.917839
 21
30224.951936
 31
0.0
  0
LINE
  8
0
 10
14605.917839
 20
30224.951936
 30
0.0
 11
14682.318283
 21
30188.087101
 31
0.0
  0
LINE
  8
0
 10
14682.318283
 20
30188.087101
 30
0.0
 11
14793.09227
 21
30169.0805
 31
0.0
  0
LINE
  8
0
 10
14793.09227
 20
30169.0805
 30
0.0
 11
14942.060143
 21
30161.568051
 31
0.0
  0
LINE
  8
0
 10
14942.060143
 20
30161.568051
 30
0.0
 11
15003.179289
 21
30134.878033
 31
0.0
  0
LINE
  8
0
 10
15003.179289
 20
30134.878033
 30
0.0
 11
15083.40966
 21
30036.89079
 31
0.0
  0
LINE
  8
0
 10
15083.40966
 20
30036.89079
 30
0.0
 11
15175.0947
 21
29960.56246
 31
0.0
  0
LINE
  8
0
 10
15175.0947
 20
29960.56246
 30
0.0
 11
15251.496109
 21
29910.96371
 31
0.0
  0
LINE
  8
0
 10
15251.496109
 20
29910.96371
 30
0.0
 11
15213.31501
 21
29830.702624
 31
0.0
  0
LINE
  8
0
 10
15213.31501
 20
29830.702624
 30
0.0
 11
15184.041748
 21
29774.644873
 31
0.0
  0
LINE
  8
0
 10
15184.041748
 20
29774.644873
 30
0.0
 11
15224.797824
 21
29702.092936
 31
0.0
  0
LINE
  8
0
 10
15224.797824
 20
29702.092936
 30
0.0
 11
15199.338477
 21
29676.601495
 31
0.0
  0
LINE
  8
0
 10
15199.338477
 20
29676.601495
 30
0.0
 11
15144.588453
 21
29688.014995
 31
0.0
  0
LINE
  8
0
 10
15144.588453
 20
29688.014995
 30
0.0
 11
15070.741333
 21
29693.044557
 31
0.0
  0
LINE
  8
0
 10
15070.741333
 20
29693.044557
 30
0.0
 11
14973.967649
 21
29743.899056
 31
0.0
  0
LINE
  8
0
 10
14973.967649
 20
29743.899056
 30
0.0
 11
14944.695884
 21
29677.653166
 31
0.0
  0
LINE
  8
0
 10
14944.695884
 20
29677.653166
 30
0.0
 11
14951.076784
 21
29597.430052
 31
0.0
  0
LINE
  8
0
 10
14951.076784
 20
29597.430052
 30
0.0
 11
14934.529403
 21
29573.21964
 31
0.0
  0
LINE
  8
0
 10
14934.529403
 20
29573.21964
 30
0.0
 11
14875.959831
 21
29580.80935
 31
0.0
  0
LINE
  8
0
 10
14875.959831
 20
29580.80935
 30
0.0
 11
14836.497398
 21
29540.023699
 31
0.0
  0
LINE
  8
0
 10
14836.497398
 20
29540.023699
 30
0.0
 11
14839.075687
 21
29366.833082
 31
0.0
  0
LINE
  8
0
 10
14839.075687
 20
29366.833082
 30
0.0
 11
14654.483748
 21
29221.493969
 31
0.0
  0
LINE
  8
0
 10
14654.483748
 20
29221.493969
 30
0.0
 11
14612.455998
 21
29281.310838
 31
0.0
  0
LINE
  8
0
 10
14612.455998
 20
29281.310838
 30
0.0
 11
14547.514059
 21
29318.184892
 31
0.0
  0
LINE
  8
0
 10
14547.514059
 20
29318.184892
 30
0.0
 11
14534.786044
 21
29293.977462
 31
0.0
  0
LINE
  8
0
 10
14534.786044
 20
29293.977462
 30
0.0
 11
14581.913338
 21
29198.507338
 31
0.0
  0
LINE
  8
0
 10
14581.913338
 20
29198.507338
 30
0.0
 11
14559.001952
 21
29160.282507
 31
0.0
  0
LINE
  8
0
 10
14559.001952
 20
29160.282507
 30
0.0
 11
14399.860973
 21
29078.638692
 31
0.0
  0
LINE
  8
0
 10
14399.860973
 20
29078.638692
 30
0.0
 11
14299.281565
 21
29036.524503
 31
0.0
  0
LINE
  8
0
 10
14299.281565
 20
29036.524503
 30
0.0
 11
14193.599977
 21
29042.798636
 31
0.0
  0
LINE
  8
0
 10
14193.599977
 20
29042.798636
 30
0.0
 11
14098.090204
 21
29126.765385
 31
0.0
  0
LINE
  8
0
 10
14098.090204
 20
29126.765385
 30
0.0
 11
14022.94272
 21
29265.510815
 31
0.0
  0
LINE
  8
0
 10
14022.94272
 20
29265.510815
 30
0.0
 11
13987.273979
 21
29362.265504
 31
0.0
  0
LINE
  8
0
 10
13987.273979
 20
29362.265504
 30
0.0
 11
13997.446972
 21
29436.137358
 31
0.0
  0
LINE
  8
0
 10
13997.446972
 20
29436.137358
 30
0.0
 11
14006.34986
 21
29492.179042
 31
0.0
  0
LINE
  8
0
 10
14006.34986
 20
29492.179042
 30
0.0
 11
13963.053787
 21
29520.158127
 31
0.0
  0
LINE
  8
0
 10
13963.053787
 20
29520.158127
 30
0.0
 11
13933.755029
 21
29596.542375
 31
0.0
  0
LINE
  8
0
 10
13933.755029
 20
29596.542375
 30
0.0
 11
14036.860996
 21
29757.092457
 31
0.0
  0
LINE
  8
0
 10
14036.860996
 20
29757.092457
 30
0.0
 11
13880.201377
 21
30026.93679
 31
0.0
  0
LINE
  8
0
 10
13880.201377
 20
30026.93679
 30
0.0
 11
13756.682859
 21
30090.504712
 31
0.0
  0
LINE
  8
0
 10
13756.682859
 20
30090.504712
 30
0.0
 11
13634.431321
 21
30187.18483
 31
0.0
  0
LINE
  8
0
 10
13634.431321
 20
30187.18483
 30
0.0
 11
13602.585488
 21
30266.114046
 31
0.0
  0
LINE
  8
0
 10
13602.585488
 20
30266.114046
 30
0.0
 11
13653.502749
 21
30345.114282
 31
0.0
  0
TEXT
  8
0
 10
14083.921573
 20
29721.409901
 30
0.0
 40
100.0
  1
P.MERLIMAU
 72
     4
 11
14517.254907
 21
29771.409901
 31
0.0
  0
LINE
  8
0
 10
5357.275676
 20
30004.800347
 30
0.0
 11
4463.216173
 21
30088.363408
 31
0.0
  0
LINE
  8
0
 10
4463.216173
 20
30088.363408
 30
0.0
 11
4210.958732
 21
30309.030668
 31
0.0
  0
LINE
  8
0
 10
4210.958732
 20
30309.030668
 30
0.0
 11
4098.695904
 21
30547.789894
 31
0.0
  0
LINE
  8
0
 10
4098.695904
 20
30547.789894
 30
0.0
 11
4070.140956
 21
30736.212158
 31
0.0
  0
LINE
  8
0
 10
4070.140956
 20
30736.212158
 30
0.0
 11
4104.096568
 21
30974.213414
 31
0.0
  0
LINE
  8
0
 10
4104.096568
 20
30974.213414
 30
0.0
 11
4173.683548
 21
31181.527058
 31
0.0
  0
LINE
  8
0
 10
4173.683548
 20
31181.527058
 30
0.0
 11
4311.350604
 21
31543.32546
 31
0.0
  0
LINE
  8
0
 10
4311.350604
 20
31543.32546
 30
0.0
 11
5379.394982
 21
34363.791507
 31
0.0
  0
LINE
  8
0
 10
6244.241577
 20
32276.451448
 30
0.0
 11
5433.3304
 21
33187.726703
 31
0.0
  0
LINE
  8
0
 10
5433.3304
 20
33187.726703
 30
0.0
 11
5789.320059
 21
33569.562238
 31
0.0
  0
LINE
  8
0
 10
5789.320059
 20
33569.562238
 30
0.0
 11
5927.827629
 21
33434.542224
 31
0.0
  0
LINE
  8
0
 10
5927.827629
 20
33434.542224
 30
0.0
 11
6184.393219
 21
33219.511559
 31
0.0
  0
LINE
  8
0
 10
6184.393219
 20
33219.511559
 30
0.0
 11
6315.544133
 21
33076.287097
 31
0.0
  0
LINE
  8
0
 10
6315.544133
 20
33076.287097
 30
0.0
 11
6447.873745
 21
32951.44136
 31
0.0
  0
LINE
  8
0
 10
6447.873745
 20
32951.44136
 30
0.0
 11
6582.039439
 21
32817.163911
 31
0.0
  0
LINE
  8
0
 10
6582.039439
 20
32817.163911
 30
0.0
 11
6719.653345
 21
32706.380657
 31
0.0
  0
LINE
  8
0
 10
6719.653345
 20
32706.380657
 30
0.0
 11
6850.531744
 21
32614.699806
 31
0.0
  0
LINE
  8
0
 10
6850.531744
 20
32614.699806
 30
0.0
 11
6896.947744
 21
32619.538336
 31
0.0
  0
LINE
  8
0
 10
6896.947744
 20
32619.538336
 30
0.0
 11
6936.325852
 21
32652.408743
 31
0.0
  0
LINE
  8
0
 10
6904.821477
 20
32626.46965
 30
0.0
 11
7584.197319
 21
33330.768085
 31
0.0
  0
LINE
  8
0
 10
7308.360804
 20
24692.322352
 30
0.0
 11
7293.995997
 21
24658.651893
 31
0.0
  0
LINE
  8
0
 10
7293.995997
 20
24658.651893
 30
0.0
 11
7325.387878
 21
24624.594377
 31
0.0
  0
LINE
  8
0
 10
7325.387878
 20
24624.594377
 30
0.0
 11
7385.838174
 21
24613.523037
 31
0.0
  0
LINE
  8
0
 10
7385.838174
 20
24613.523037
 30
0.0
 11
7410.512118
 21
24617.538317
 31
0.0
  0
LINE
  8
0
 10
7410.512118
 20
24617.538317
 30
0.0
 11
7422.669802
 21
24639.963456
 31
0.0
  0
LINE
  8
0
 10
7422.669802
 20
24639.963456
 30
0.0
 11
7423.665532
 21
24674.451004
 31
0.0
  0
LINE
  8
0
 10
7423.665532
 20
24674.451004
 30
0.0
 11
7397.851651
 21
24702.12534
 31
0.0
  0
LINE
  8
0
 10
7397.851651
 20
24702.12534
 30
0.0
 11
7376.148325
 21
24716.388916
 31
0.0
  0
LINE
  8
0
 10
7376.148325
 20
24716.388916
 30
0.0
 11
7339.542976
 21
24716.698561
 31
0.0
  0
LINE
  8
0
 10
7339.542976
 20
24716.698561
 30
0.0
 11
7316.94515
 21
24708.441723
 31
0.0
  0
LINE
  8
0
 10
7316.94515
 20
24708.441723
 30
0.0
 11
7305.503325
 21
24687.418528
 31
0.0
  0
TEXT
  8
0
 10
6760.144144
 20
24466.02545
 30
0.0
 40
100.0
  1
SULTAN SHOAL
 72
     4
 11
7343.477477
 21
24516.02545
 31
0.0
  0
ENDSEC
  0
EOF
